<?xml version="1.0" encoding="UTF-8" standalone="no"?>
<!-- Created with Inkscape (http://www.inkscape.org/) -->

<svg
   xmlns:dc="http://purl.org/dc/elements/1.1/"
   xmlns:cc="http://creativecommons.org/ns#"
   xmlns:rdf="http://www.w3.org/1999/02/22-rdf-syntax-ns#"
   xmlns:svg="http://www.w3.org/2000/svg"
   xmlns="http://www.w3.org/2000/svg"
   xmlns:sodipodi="http://sodipodi.sourceforge.net/DTD/sodipodi-0.dtd"
   xmlns:inkscape="http://www.inkscape.org/namespaces/inkscape"
   width="22"
   height="22"
   viewBox="0 0 22.000001 22"
   id="svg4417"
   version="1.1"
   inkscape:version="0.91 r13725"
   sodipodi:docname="icon-medical-cultivation.svg"
   inkscape:export-filename="C:\Users\Lea-\Documents\Cannabis Analytics\Website\MarketMap\Marker-Icons\icon-retail-cultivation.png"
   inkscape:export-xdpi="90"
   inkscape:export-ydpi="90">
  <defs
     id="defs4419" />
  <sodipodi:namedview
     id="base"
     pagecolor="#ffffff"
     bordercolor="#666666"
     borderopacity="1.0"
     inkscape:pageopacity="0.0"
     inkscape:pageshadow="2"
     inkscape:zoom="15.839192"
     inkscape:cx="-6.7601655"
     inkscape:cy="11.635598"
     inkscape:document-units="px"
     inkscape:current-layer="layer1"
     showgrid="false"
     fit-margin-top="0"
     fit-margin-left="0"
     fit-margin-right="0"
     fit-margin-bottom="0"
     units="px"
     inkscape:window-width="1366"
     inkscape:window-height="745"
     inkscape:window-x="-8"
     inkscape:window-y="-8"
     inkscape:window-maximized="1" />
  <metadata
     id="metadata4422">
    <rdf:RDF>
      <cc:Work
         rdf:about="">
        <dc:format>image/svg+xml</dc:format>
        <dc:type
           rdf:resource="http://purl.org/dc/dcmitype/StillImage" />
        <dc:title></dc:title>
      </cc:Work>
    </rdf:RDF>
  </metadata>
  <g
     inkscape:label="Layer 1"
     inkscape:groupmode="layer"
     id="layer1"
     transform="translate(-553.71059,-835.14509)">
    <g
       transform="matrix(0.47513572,0,0,0.47513572,553.8533,835.28788)"
       id="g6327"
       style="fill:#6a3d9a;fill-opacity:1">
      <g
         id="g6329"
         style="fill:#6a3d9a;fill-opacity:1">
        <circle
           cx="31.636"
           cy="9.9709997"
           r="4.4229999"
           id="circle6331"
           style="fill:#6a3d9a;fill-opacity:1" />
        <path
           inkscape:connector-curvature="0"
           d="m 42.694,33.609 -2.243,0 c 0.935,-0.762 1.342,-2.041 0.973,-3.232 L 37.277,16.994 c -0.491,-1.587 -2.178,-2.477 -3.764,-1.985 -0.496,0.154 -0.887,0.462 -1.262,0.77 -0.084,0.069 -9.72,8.311 -9.826,8.452 l -1.157,-1.647 c 0.173,-0.024 0.388,-0.075 0.664,-0.167 0.852,-0.283 1.935,-0.83 1.866,-1.038 -0.056,-0.168 -0.846,-0.063 -1.597,0.132 0.071,-0.103 0.145,-0.215 0.222,-0.337 0.825,-1.31 1.667,-3.223 1.349,-3.424 -0.284,-0.179 -1.391,1.055 -2.213,2.252 -0.004,-0.104 -0.009,-0.212 -0.016,-0.324 -0.128,-2.109 -0.717,-4.902 -1.231,-4.871 -0.44,0.027 -0.684,2.114 -0.664,4.037 -1.462,-2.085 -3.654,-4.436 -4.155,-4.096 -0.501,0.339 0.87,3.247 2.264,5.377 -1.779,-0.731 -3.808,-1.279 -3.996,-0.88 -0.22,0.466 2.155,2.048 4.067,2.95 0.102,0.048 0.2,0.093 0.295,0.135 -1.416,0.32 -2.973,0.89 -2.913,1.221 0.068,0.371 2.158,0.297 3.68,0.018 0.142,-0.027 0.273,-0.054 0.396,-0.082 -0.46,0.625 -0.85,1.319 -0.715,1.433 0.167,0.142 1.078,-0.662 1.657,-1.348 0.188,-0.223 0.315,-0.405 0.402,-0.557 l 1.398,1.991 c -0.243,0.793 -0.088,1.688 0.491,2.366 0.496,0.58 1.199,0.877 1.906,0.877 0.577,0 1.156,-0.198 1.628,-0.603 1.626,-1.391 6.505,-5.564 6.505,-5.564 l 2.366,7.631 c 0,0 -5.646,2.847 -5.728,2.898 -1.439,0.905 -2.093,2.617 -1.623,4.252 0.47,1.637 1.928,2.748 3.639,2.748 l 11.482,0 c 1.66,0 3.008,-1.341 3.008,-3.002 0,-1.658 -1.348,-3 -3.008,-3 z"
           id="path6333"
           style="fill:#6a3d9a;fill-opacity:1" />
        <path
           inkscape:connector-curvature="0"
           d="m 18.775,35.281 c -0.308,0 -0.625,0.015 -0.905,0.041 l 0,-0.556 c 0.12,0.058 0.27,0.115 0.477,0.173 0.641,0.182 1.532,0.295 1.576,0.139 0.036,-0.125 -0.492,-0.39 -1.034,-0.582 0.086,-0.033 0.179,-0.071 0.276,-0.114 1.05,-0.461 2.363,-1.284 2.25,-1.54 -0.1,-0.229 -1.292,0.068 -2.293,0.462 0.041,-0.065 0.083,-0.134 0.125,-0.206 0.798,-1.348 1.597,-3.305 1.269,-3.499 -0.281,-0.167 -1.297,1.013 -2.085,2.2 -0.03,-1.887 -0.397,-4.239 -0.846,-4.239 -0.448,0 -0.815,2.353 -0.846,4.239 -0.788,-1.188 -1.804,-2.367 -2.085,-2.2 -0.329,0.194 0.471,2.151 1.269,3.499 0.042,0.072 0.084,0.141 0.125,0.206 -1.001,-0.394 -2.194,-0.688 -2.294,-0.462 -0.112,0.256 1.2,1.079 2.25,1.54 0.098,0.043 0.19,0.081 0.276,0.114 -0.542,0.192 -1.07,0.457 -1.034,0.582 0.044,0.156 0.941,0.043 1.582,-0.139 0.207,-0.058 0.362,-0.115 0.482,-0.173 l 0,0.627 c -1.481,0.226 -2.725,0.774 -3.559,1.466 -1.211,-1.223 -3.503,-2.144 -6.133,-2.144 -0.262,0 -0.531,0.009 -0.786,0.026 l -0.01,-0.002 0,-1.742 c 0.2,0.096 0.455,0.191 0.799,0.289 1.063,0.299 2.545,0.488 2.618,0.229 0.059,-0.209 -0.814,-0.647 -1.713,-0.966 0.144,-0.057 0.297,-0.119 0.459,-0.189 1.743,-0.765 3.919,-2.13 3.733,-2.555 -0.166,-0.378 -2.143,0.115 -3.804,0.766 0.068,-0.107 0.137,-0.222 0.208,-0.341 1.323,-2.233 2.649,-5.481 2.104,-5.804 -0.466,-0.275 -2.152,1.679 -3.458,3.648 -0.05,-3.127 -0.66,-7.03 -1.403,-7.03 -0.744,0 -1.353,3.901 -1.403,7.03 -1.306,-1.97 -2.992,-3.926 -3.458,-3.648 -0.544,0.322 0.781,3.568 2.104,5.804 0.071,0.119 0.14,0.232 0.207,0.341 -1.661,-0.65 -3.638,-1.144 -3.804,-0.766 -0.186,0.425 1.99,1.79 3.732,2.555 0.162,0.07 0.315,0.135 0.458,0.19 -0.898,0.317 -1.774,0.756 -1.715,0.965 0.073,0.259 1.557,0.069 2.619,-0.229 0.344,-0.098 0.596,-0.193 0.796,-0.289 0,0 0,1.812 0.007,1.845 -3.066,0.461 -5.342,2.112 -5.342,3.81 0,2.002 24.327,2.002 24.327,0 -0.001,-2 -2.74,-3.371 -6.118,-3.371 z"
           id="path6335"
           style="fill:#6a3d9a;fill-opacity:1" />
      </g>
    </g>
  </g>
</svg>
