<?xml version="1.0" encoding="UTF-8" standalone="no"?>
<!-- Created with Inkscape (http://www.inkscape.org/) -->

<svg
   xmlns:dc="http://purl.org/dc/elements/1.1/"
   xmlns:cc="http://creativecommons.org/ns#"
   xmlns:rdf="http://www.w3.org/1999/02/22-rdf-syntax-ns#"
   xmlns:svg="http://www.w3.org/2000/svg"
   xmlns="http://www.w3.org/2000/svg"
   xmlns:sodipodi="http://sodipodi.sourceforge.net/DTD/sodipodi-0.dtd"
   xmlns:inkscape="http://www.inkscape.org/namespaces/inkscape"
   id="svg4153"
   version="1.1"
   inkscape:version="0.91 r13725"
   xml:space="preserve"
   width="33"
   height="60"
   viewBox="0 0 33 60"
   sodipodi:docname="marker-medical-manufacturer.svg"
   inkscape:export-filename="C:\Users\Lea-\Documents\Cannabis Analytics\Website\MarketMap\Marker-Icons\marker-medical-cultivation.png"
   inkscape:export-xdpi="90"
   inkscape:export-ydpi="90"><metadata
     id="metadata4159"><rdf:RDF><cc:Work
         rdf:about=""><dc:format>image/svg+xml</dc:format><dc:type
           rdf:resource="http://purl.org/dc/dcmitype/StillImage" /><dc:title></dc:title></cc:Work></rdf:RDF></metadata><defs
     id="defs4157"><clipPath
       clipPathUnits="userSpaceOnUse"
       id="clipPath4167"><path
         d="M 0,800 480,800 480,0 0,0 0,800 Z"
         id="path4169"
         inkscape:connector-curvature="0" /></clipPath><clipPath
       clipPathUnits="userSpaceOnUse"
       id="clipPath4175"><path
         d="m 131.273,291.864 244.792,0 0,-79.062 -244.792,0 0,79.062 z"
         id="path4177"
         inkscape:connector-curvature="0" /></clipPath><radialGradient
       fx="0"
       fy="0"
       cx="0"
       cy="0"
       r="1"
       gradientUnits="userSpaceOnUse"
       gradientTransform="matrix(122.3916,0,0,-39.532486,253.66992,252.33301)"
       spreadMethod="pad"
       id="radialGradient4183"><stop
         style="stop-opacity:1;stop-color:#cfd4dc"
         offset="0"
         id="stop4185" /><stop
         style="stop-opacity:1;stop-color:#cfd4dc"
         offset="0.11797786"
         id="stop4187" /><stop
         style="stop-opacity:1;stop-color:#ffffff"
         offset="0.951508"
         id="stop4189" /><stop
         style="stop-opacity:1;stop-color:#ffffff"
         offset="1"
         id="stop4191" /></radialGradient><linearGradient
       x1="0"
       y1="0"
       x2="1"
       y2="0"
       gradientUnits="userSpaceOnUse"
       gradientTransform="matrix(-237.06242,-218.89738,-218.89738,237.06242,374.8916,589.58691)"
       spreadMethod="pad"
       id="linearGradient4219"><stop
         style="stop-opacity:1;stop-color:#80e300"
         offset="0"
         id="stop4221" /><stop
         style="stop-opacity:1;stop-color:#336e00"
         offset="1"
         id="stop4223" /></linearGradient><linearGradient
       x1="0"
       y1="0"
       x2="1"
       y2="0"
       gradientUnits="userSpaceOnUse"
       gradientTransform="matrix(173.64639,160.75894,160.75894,-173.64639,163.57324,474.09473)"
       spreadMethod="pad"
       id="linearGradient4239"><stop
         style="stop-opacity:1;stop-color:#80e300"
         offset="0"
         id="stop4241" /><stop
         style="stop-opacity:1;stop-color:#336e00"
         offset="1"
         id="stop4243" /></linearGradient><radialGradient
       fx="0"
       fy="0"
       cx="0"
       cy="0"
       r="1"
       gradientUnits="userSpaceOnUse"
       gradientTransform="matrix(175.69151,0,0,-175.69151,253.99023,557.94385)"
       spreadMethod="pad"
       id="radialGradient4259"><stop
         style="stop-opacity:1;stop-color:#ffffff"
         offset="0"
         id="stop4261" /><stop
         style="stop-opacity:1;stop-color:#ffffff"
         offset="0.309097"
         id="stop4263" /><stop
         style="stop-opacity:1;stop-color:#ffffff"
         offset="0.46213659"
         id="stop4265" /><stop
         style="stop-opacity:1;stop-color:#72b62b"
         offset="0.890915"
         id="stop4267" /><stop
         style="stop-opacity:1;stop-color:#72b62b"
         offset="1"
         id="stop4269" /></radialGradient><linearGradient
       x1="0"
       y1="0"
       x2="1"
       y2="0"
       gradientUnits="userSpaceOnUse"
       gradientTransform="matrix(165.12338,152.86848,152.86848,-165.12338,166.27686,504.71631)"
       spreadMethod="pad"
       id="linearGradient4285"><stop
         style="stop-opacity:1;stop-color:#80e300"
         offset="0"
         id="stop4287" /><stop
         style="stop-opacity:1;stop-color:#ffffff"
         offset="1"
         id="stop4289" /></linearGradient><clipPath
       clipPathUnits="userSpaceOnUse"
       id="clipPath4297"><path
         d="M 0,800 480,800 480,0 0,0 0,800 Z"
         id="path4299"
         inkscape:connector-curvature="0" /></clipPath><clipPath
       clipPathUnits="userSpaceOnUse"
       id="clipPath4305"><path
         d="m 147.714,656.047 83.105,0 0,-95.508 -83.105,0 0,95.508 z"
         id="path4307"
         inkscape:connector-curvature="0" /></clipPath><clipPath
       clipPathUnits="userSpaceOnUse"
       id="clipPath4309"><path
         d="m 147.714,656.047 83.105,0 0,-95.508 -83.105,0 0,95.508 z"
         id="path4311"
         inkscape:connector-curvature="0" /></clipPath><clipPath
       clipPathUnits="userSpaceOnUse"
       id="clipPath4313"><path
         d="m 147.714,656.047 83.105,0 0,-95.508 -83.105,0 0,95.508 z"
         id="path4315"
         inkscape:connector-curvature="0" /></clipPath><clipPath
       clipPathUnits="userSpaceOnUse"
       id="clipPath4317"><path
         d="m 147.904,655.758 81.719,0 0,-93.998 -81.719,0 0,93.998 z"
         id="path4319"
         inkscape:connector-curvature="0" /></clipPath><clipPath
       clipPathUnits="userSpaceOnUse"
       id="clipPath4321"><path
         d="m 148.091,655.471 80.335,0 0,-92.489 -80.335,0 0,92.489 z"
         id="path4323"
         inkscape:connector-curvature="0" /></clipPath><clipPath
       clipPathUnits="userSpaceOnUse"
       id="clipPath4325"><path
         d="m 148.274,655.184 78.956,0 0,-90.98 -78.956,0 0,90.98 z"
         id="path4327"
         inkscape:connector-curvature="0" /></clipPath><clipPath
       clipPathUnits="userSpaceOnUse"
       id="clipPath4329"><path
         d="m 148.453,654.899 77.58,0 0,-89.473 -77.58,0 0,89.473 z"
         id="path4331"
         inkscape:connector-curvature="0" /></clipPath><clipPath
       clipPathUnits="userSpaceOnUse"
       id="clipPath4333"><path
         d="m 148.627,654.615 76.21,0 0,-87.968 -76.21,0 0,87.968 z"
         id="path4335"
         inkscape:connector-curvature="0" /></clipPath><clipPath
       clipPathUnits="userSpaceOnUse"
       id="clipPath4337"><path
         d="m 148.798,654.333 74.843,0 0,-86.464 -74.843,0 0,86.464 z"
         id="path4339"
         inkscape:connector-curvature="0" /></clipPath><clipPath
       clipPathUnits="userSpaceOnUse"
       id="clipPath4341"><path
         d="m 148.963,654.051 73.482,0 0,-84.961 -73.482,0 0,84.961 z"
         id="path4343"
         inkscape:connector-curvature="0" /></clipPath><clipPath
       clipPathUnits="userSpaceOnUse"
       id="clipPath4345"><path
         d="m 149.124,653.77 72.125,0 0,-83.458 -72.125,0 0,83.458 z"
         id="path4347"
         inkscape:connector-curvature="0" /></clipPath><clipPath
       clipPathUnits="userSpaceOnUse"
       id="clipPath4349"><path
         d="m 149.278,653.49 70.774,0 0,-81.956 -70.774,0 0,81.956 z"
         id="path4351"
         inkscape:connector-curvature="0" /></clipPath><clipPath
       clipPathUnits="userSpaceOnUse"
       id="clipPath4353"><path
         d="m 149.428,653.211 69.427,0 0,-80.455 -69.427,0 0,80.455 z"
         id="path4355"
         inkscape:connector-curvature="0" /></clipPath><clipPath
       clipPathUnits="userSpaceOnUse"
       id="clipPath4357"><path
         d="m 149.573,652.934 68.087,0 0,-78.957 -68.087,0 0,78.957 z"
         id="path4359"
         inkscape:connector-curvature="0" /></clipPath><clipPath
       clipPathUnits="userSpaceOnUse"
       id="clipPath4361"><path
         d="m 149.712,652.656 66.751,0 0,-77.457 -66.751,0 0,77.457 z"
         id="path4363"
         inkscape:connector-curvature="0" /></clipPath><clipPath
       clipPathUnits="userSpaceOnUse"
       id="clipPath4365"><path
         d="m 149.846,652.38 65.421,0 0,-75.96 -65.421,0 0,75.96 z"
         id="path4367"
         inkscape:connector-curvature="0" /></clipPath><linearGradient
       x1="0"
       y1="0"
       x2="1"
       y2="0"
       gradientUnits="userSpaceOnUse"
       gradientTransform="matrix(-45.868591,-129.02904,-129.02904,45.868591,280.93848,597.47217)"
       spreadMethod="pad"
       id="linearGradient4561"><stop
         style="stop-opacity:1;stop-color:#80e300"
         offset="0"
         id="stop4563" /><stop
         style="stop-opacity:1;stop-color:#336e00"
         offset="1"
         id="stop4565" /></linearGradient><linearGradient
       x1="0"
       y1="0"
       x2="1"
       y2="0"
       gradientUnits="userSpaceOnUse"
       gradientTransform="matrix(-23.707977,-66.690887,-66.690887,23.707977,253.64941,609.71533)"
       spreadMethod="pad"
       id="linearGradient4581"><stop
         style="stop-opacity:1;stop-color:#80e300"
         offset="0"
         id="stop4583" /><stop
         style="stop-opacity:1;stop-color:#336e00"
         offset="1"
         id="stop4585" /></linearGradient><radialGradient
       fx="0"
       fy="0"
       cx="0"
       cy="0"
       r="1"
       gradientUnits="userSpaceOnUse"
       gradientTransform="matrix(175.69151,0,0,-175.69151,253.99023,557.94385)"
       spreadMethod="pad"
       id="radialGradient4259-2"><stop
         style="stop-opacity:1;stop-color:#ffffff"
         offset="0"
         id="stop4261-8" /><stop
         style="stop-opacity:1;stop-color:#ffffff"
         offset="0.309097"
         id="stop4263-0" /><stop
         style="stop-opacity:1;stop-color:#ffffff"
         offset="0.46213659"
         id="stop4265-8" /><stop
         style="stop-opacity:1;stop-color:#72b62b"
         offset="0.890915"
         id="stop4267-6" /><stop
         style="stop-opacity:1;stop-color:#72b62b"
         offset="1"
         id="stop4269-8" /></radialGradient><radialGradient
       fx="0"
       fy="0"
       cx="0"
       cy="0"
       r="1"
       gradientUnits="userSpaceOnUse"
       gradientTransform="matrix(175.69151,0,0,-175.69151,253.99023,557.94385)"
       spreadMethod="pad"
       id="radialGradient4259-2-2-2"><stop
         style="stop-opacity:1;stop-color:#ffffff"
         offset="0"
         id="stop4261-8-4-7" /><stop
         style="stop-opacity:1;stop-color:#ffffff"
         offset="0.309097"
         id="stop4263-0-9-0" /><stop
         style="stop-opacity:1;stop-color:#ffffff"
         offset="0.46213659"
         id="stop4265-8-8-1" /><stop
         style="stop-opacity:1;stop-color:#72b62b"
         offset="0.890915"
         id="stop4267-6-8-3" /><stop
         style="stop-opacity:1;stop-color:#72b62b"
         offset="1"
         id="stop4269-8-0-7" /></radialGradient><radialGradient
       fx="0"
       fy="0"
       cx="0"
       cy="0"
       r="1"
       gradientUnits="userSpaceOnUse"
       gradientTransform="matrix(175.69151,0,0,-175.69151,253.99023,557.94385)"
       spreadMethod="pad"
       id="radialGradient4259-2-2"><stop
         style="stop-opacity:1;stop-color:#ffffff"
         offset="0"
         id="stop4261-8-4" /><stop
         style="stop-opacity:1;stop-color:#ffffff"
         offset="0.309097"
         id="stop4263-0-9" /><stop
         style="stop-opacity:1;stop-color:#ffffff"
         offset="0.46213659"
         id="stop4265-8-8" /><stop
         style="stop-opacity:1;stop-color:#72b62b"
         offset="0.890915"
         id="stop4267-6-8" /><stop
         style="stop-opacity:1;stop-color:#72b62b"
         offset="1"
         id="stop4269-8-0" /></radialGradient><radialGradient
       fx="0"
       fy="0"
       cx="0"
       cy="0"
       r="1"
       gradientUnits="userSpaceOnUse"
       gradientTransform="matrix(175.69151,0,0,-175.69151,253.99023,557.94385)"
       spreadMethod="pad"
       id="radialGradient4259-2-6"><stop
         style="stop-opacity:1;stop-color:#ffffff"
         offset="0"
         id="stop4261-8-7" /><stop
         style="stop-opacity:1;stop-color:#ffffff"
         offset="0.309097"
         id="stop4263-0-8" /><stop
         style="stop-opacity:1;stop-color:#ffffff"
         offset="0.46213659"
         id="stop4265-8-87" /><stop
         style="stop-opacity:1;stop-color:#72b62b"
         offset="0.890915"
         id="stop4267-6-7" /><stop
         style="stop-opacity:1;stop-color:#72b62b"
         offset="1"
         id="stop4269-8-5" /></radialGradient></defs><sodipodi:namedview
     pagecolor="#ffffff"
     bordercolor="#666666"
     borderopacity="1"
     objecttolerance="10"
     gridtolerance="10"
     guidetolerance="10"
     inkscape:pageopacity="0"
     inkscape:pageshadow="2"
     inkscape:window-width="1366"
     inkscape:window-height="745"
     id="namedview4155"
     showgrid="false"
     fit-margin-top="0"
     fit-margin-left="0"
     fit-margin-right="0"
     fit-margin-bottom="0"
     inkscape:zoom="5.3400704"
     inkscape:cx="-43.467821"
     inkscape:cy="37.22948"
     inkscape:window-x="-8"
     inkscape:window-y="-8"
     inkscape:window-maximized="1"
     inkscape:current-layer="g4161" /><g
     id="g4161"
     inkscape:groupmode="layer"
     inkscape:label="Ecology_pointer"
     transform="matrix(1.25,0,0,-1.25,-166.36357,330.37383)"><g
       id="g4207-5-6"
       style="fill:#ff6d3b;fill-opacity:1"
       transform="matrix(0.11632641,0,0,0.11632641,116.74529,186.94607)"><g
         id="g4209-5-4"
         style="fill:#ff6d3b;fill-opacity:1"><g
           id="g4215-8-3"
           style="fill:#ff6d3b;fill-opacity:1"><g
             id="g4217-2-6"
             style="fill:#ff6d3b;fill-opacity:1"><path
               d="m 142.831,553.805 c 0,-27.234 12.586,-56.138 37.401,-85.923 l 0,0 c 20.421,-24.499 63.427,-61.906 72.15,-215.549 l 0,0 3.2,0 c 9.125,154.333 54.099,194.564 73.5,217.681 l 0,0 c 24.269,28.924 36.064,56.335 36.064,83.791 l 0,0 c 0,61.295 -49.861,111.16 -111.153,111.16 l 0,0 c -61.292,0 -111.162,-49.865 -111.162,-111.16"
               style="fill:#ff6d3b;fill-opacity:1;stroke:none"
               id="path4225-2-9"
               inkscape:connector-curvature="0" /></g></g></g></g><g
       id="g4227-5-1"
       style="fill:#ffa88a;fill-opacity:1"
       transform="matrix(0.11632641,0,0,0.11632641,116.74529,186.94607)"><g
         id="g4229-6-5"
         style="fill:#ffa88a;fill-opacity:1"><g
           id="g4235-2-8"
           style="fill:#ffa88a;fill-opacity:1"><g
             id="g4237-7-4"
             style="fill:#ffa88a;fill-opacity:1"><path
               d="m 159.001,557.802 c 0,-52.462 42.528,-94.991 94.993,-94.991 l 0,0 c 52.457,0 94.985,42.529 94.985,94.991 l 0,0 c 0,52.462 -42.528,94.994 -94.985,94.994 l 0,0 c -52.465,0 -94.993,-42.532 -94.993,-94.994"
               style="fill:#ffa88a;fill-opacity:1;stroke:none"
               id="path4245-2-6"
               inkscape:connector-curvature="0" /></g></g></g></g><g
       id="g4247-0-0"
       transform="matrix(0.11632641,0,0,0.11632641,116.74529,186.94607)"><g
         id="g4249-7-52"><g
           id="g4255-7-2"><g
             id="g4257-0-0"><path
               d="m 164.08,557.941 c 0,-49.653 40.253,-89.91 89.913,-89.91 l 0,0 c 49.652,0 89.906,40.257 89.906,89.91 l 0,0 c 0,49.659 -40.254,89.917 -89.906,89.917 l 0,0 c -49.66,0 -89.913,-40.258 -89.913,-89.917"
               style="fill:url(#radialGradient4259-2-6);stroke:none"
               id="path4271-7-6"
               inkscape:connector-curvature="0" /></g></g></g></g><g
       transform="matrix(0.39031424,0,0,-0.39031424,138.08749,260.75691)"
       id="g8082"
       style="fill:#ff6d3b;fill-opacity:1"><g
         id="g8084"
         style="fill:#ff6d3b;fill-opacity:1"><path
           inkscape:connector-curvature="0"
           d="m 34.514,10.199 c 0,-1.947 -1.572,-3.558 -3.52,-3.558 L 3.5,6.641 C 1.553,6.641 0,8.252 0,10.199 l 0,0.459 34.514,0 0,-0.459 z"
           id="path8086"
           style="fill:#ff6d3b;fill-opacity:1" /><path
           inkscape:connector-curvature="0"
           d="m 42.718,14.25 -3.336,0 c -1.435,0 -2.653,1.035 -2.957,2.374 l -1.899,0 0,-4.748 -34.526,0 0.014,5.661 c 0.373,2.009 2.177,3.622 4.347,3.622 1.363,0 2.581,-0.616 3.392,-1.588 0.172,-0.207 0.326,-0.429 0.458,-0.664 0.193,-0.342 0.684,-0.339 0.877,0.003 0.758,1.341 2.198,2.246 3.849,2.246 1.362,0 2.58,-0.616 3.39,-1.585 0.173,-0.207 0.328,-0.43 0.461,-0.666 0.193,-0.342 0.684,-0.339 0.876,0.003 0.758,1.342 2.198,2.247 3.849,2.247 1.361,0 2.579,-0.616 3.389,-1.584 0.173,-0.207 0.328,-0.43 0.461,-0.667 0.193,-0.342 0.684,-0.338 0.877,0.003 0.758,1.343 2.197,2.253 3.849,2.253 1.806,0 3.356,-1.117 4.042,-2.649 l 2.221,0 0,8.339 -2.922,0 0,-5.222 c -0.975,0.643 -2.101,1.019 -3.328,1.019 -1.465,0 -2.816,-0.536 -3.854,-1.422 -0.256,-0.219 -0.637,-0.219 -0.893,0 -1.035,0.886 -2.376,1.422 -3.842,1.422 -1.465,0 -2.807,-0.536 -3.841,-1.421 -0.256,-0.22 -0.637,-0.22 -0.893,0 -1.034,0.886 -2.376,1.421 -3.842,1.421 -1.465,0 -2.807,-0.536 -3.841,-1.421 -0.256,-0.22 -0.637,-0.22 -0.893,0 -1.034,0.886 -2.376,1.421 -3.841,1.421 -1.475,0 -2.828,-0.543 -3.863,-1.439 l 0,15.516 c 0,1.304 1.058,2.36 2.362,2.36 l 2.386,0 0,-7.582 c 0,-1.588 1.299,-2.887 2.887,-2.887 l 2.358,0 c 1.574,0 2.851,1.275 2.851,2.851 l 0,7.618 17.726,0 c 1.305,0 2.361,-1.057 2.361,-2.36 l 0,-7.985 2.994,0 c 0.303,1.338 1.521,2.373 2.958,2.373 l 3.343,0 c 1.657,0 3,-1.343 3,-3 l 0,-10.855 c 0,-1.661 -1.347,-3.007 -3.007,-3.007 z m -13.55,19.492 c 0,1.244 -1.018,2.238 -2.262,2.238 l -7.233,0 c -1.244,0 -2.252,-0.994 -2.252,-2.238 l 0,-2.388 11.739,0 0.009,0 -0.001,2.388 0,0 z m 0,-3.91 -0.009,0 -11.739,0 0,-2.379 c 0,-1.244 1.008,-2.248 2.252,-2.248 l 7.232,0 c 1.244,0 2.263,1.004 2.263,2.248 l 10e-4,2.379 0,0 z m 13.119,-5.174 c -0.077,0.035 -0.148,0.063 -0.217,0.09 0.424,0.15 0.837,0.356 0.81,0.455 -0.034,0.123 -0.729,0.033 -1.229,-0.107 -0.162,-0.046 -0.309,-0.092 -0.369,-0.137 l 0,0.82 c 0,0.123 -0.09,0.223 -0.213,0.223 -0.123,0 -0.213,-0.1 -0.213,-0.223 l 0,-0.82 c -0.123,0.045 -0.224,0.091 -0.385,0.137 -0.5,0.141 -1.209,0.23 -1.244,0.107 -0.027,-0.099 0.385,-0.305 0.809,-0.455 -0.068,-0.026 -0.139,-0.055 -0.217,-0.09 -0.819,-0.358 -1.844,-1 -1.756,-1.201 0.078,-0.178 1.008,0.055 1.791,0.361 -0.033,-0.052 -0.064,-0.105 -0.099,-0.162 -0.622,-1.051 -1.247,-2.579 -0.989,-2.73 0.219,-0.13 1.012,0.79 1.627,1.718 0.023,-1.473 0.311,-3.31 0.66,-3.31 0.349,0 0.637,1.837 0.66,3.31 0.615,-0.928 1.408,-1.848 1.627,-1.718 0.258,0.152 -0.367,1.68 -0.99,2.73 -0.033,0.057 -0.065,0.109 -0.098,0.162 0.782,-0.307 1.712,-0.539 1.791,-0.361 0.087,0.201 -0.936,0.843 -1.756,1.201 z"
           id="path8088"
           style="fill:#ff6d3b;fill-opacity:1" /></g></g></g></svg>