<?xml version="1.0" encoding="utf-8" standalone="no"?>
<!DOCTYPE svg PUBLIC "-//W3C//DTD SVG 1.1//EN"
  "http://www.w3.org/Graphics/SVG/1.1/DTD/svg11.dtd">
<!-- Created with matplotlib (http://matplotlib.org/) -->
<svg height="313pt" version="1.1" viewBox="0 0 343 313" width="343pt" xmlns="http://www.w3.org/2000/svg" xmlns:xlink="http://www.w3.org/1999/xlink">
 <defs>
  <style type="text/css">
*{stroke-linecap:butt;stroke-linejoin:round;}
  </style>
 </defs>
 <g id="figure_1">
  <g id="patch_1">
   <path d="M 0 313.605239 
L 343.760002 313.605239 
L 343.760002 0 
L 0 0 
z
" style="fill:none;"/>
  </g>
  <g id="axes_1">
   <g id="patch_2">
    <path d="M 3.572 275.372 
L 338.372 275.372 
L 338.372 3.572 
L 3.572 3.572 
z
" style="fill:none;"/>
   </g>
   <g id="line2d_1">
    <path clip-path="url(#pceaca201d6)" d="M 3.572 225.953818 
L 338.372 225.953818 
" style="fill:none;stroke:#e6e6e6;stroke-linecap:square;"/>
   </g>
   <g id="line2d_2">
    <path clip-path="url(#pceaca201d6)" d="M 3.572 176.535636 
L 338.372 176.535636 
" style="fill:none;stroke:#e6e6e6;stroke-linecap:square;"/>
   </g>
   <g id="line2d_3">
    <path clip-path="url(#pceaca201d6)" d="M 3.572 127.117455 
L 338.372 127.117455 
" style="fill:none;stroke:#e6e6e6;stroke-linecap:square;"/>
   </g>
   <g id="line2d_4">
    <path clip-path="url(#pceaca201d6)" d="M 3.572 77.699273 
L 338.372 77.699273 
" style="fill:none;stroke:#e6e6e6;stroke-linecap:square;"/>
   </g>
   <g id="line2d_5">
    <path clip-path="url(#pceaca201d6)" d="M 3.572 28.281091 
L 338.372 28.281091 
" style="fill:none;stroke:#e6e6e6;stroke-linecap:square;"/>
   </g>
   <g id="PolyCollection_1">
    <path clip-path="url(#pceaca201d6)" d="M 23.807165 245.721091 
L 23.807165 275.372 
L 44.04233 275.372 
L 62.437934 275.372 
L 80.833538 275.372 
L 99.229143 275.372 
L 117.624747 275.372 
L 136.020352 275.372 
L 154.415956 275.372 
L 172.81156 275.372 
L 191.207165 275.372 
L 209.602769 275.372 
L 227.998374 275.372 
L 246.393978 275.372 
L 264.789582 275.372 
L 283.185187 275.372 
L 301.580791 275.372 
L 319.976396 275.372 
L 340.21156 275.372 
L 340.21156 246.215273 
L 340.21156 246.215273 
L 319.976396 245.721091 
L 301.580791 245.721091 
L 283.185187 246.709455 
L 264.789582 243.250182 
L 246.393978 243.250182 
L 227.998374 242.756 
L 209.602769 245.226909 
L 191.207165 249.674545 
L 172.81156 248.686182 
L 154.415956 250.168727 
L 136.020352 250.662909 
L 117.624747 250.662909 
L 99.229143 247.697818 
L 80.833538 245.721091 
L 62.437934 245.721091 
L 44.04233 246.709455 
L 23.807165 245.721091 
z
" style="fill:#228776;"/>
   </g>
   <g id="PolyCollection_2">
    <path clip-path="url(#pceaca201d6)" d="M 23.807165 168.628727 
L 23.807165 245.721091 
L 44.04233 246.709455 
L 62.437934 245.721091 
L 80.833538 245.721091 
L 99.229143 247.697818 
L 117.624747 250.662909 
L 136.020352 250.662909 
L 154.415956 250.168727 
L 172.81156 248.686182 
L 191.207165 249.674545 
L 209.602769 245.226909 
L 227.998374 242.756 
L 246.393978 243.250182 
L 264.789582 243.250182 
L 283.185187 246.709455 
L 301.580791 245.721091 
L 319.976396 245.721091 
L 340.21156 246.215273 
L 340.21156 162.204364 
L 340.21156 162.204364 
L 319.976396 164.181091 
L 301.580791 170.111273 
L 283.185187 170.605455 
L 264.789582 163.192727 
L 246.393978 162.204364 
L 227.998374 163.686909 
L 209.602769 169.617091 
L 191.207165 173.570545 
L 172.81156 179.500727 
L 154.415956 182.465818 
L 136.020352 184.936727 
L 117.624747 177.524 
L 99.229143 177.029818 
L 80.833538 170.605455 
L 62.437934 169.122909 
L 44.04233 164.675273 
L 23.807165 168.628727 
z
" style="fill:#228776;fill-opacity:0.75;"/>
   </g>
   <g id="PolyCollection_3">
    <path clip-path="url(#pceaca201d6)" d="M 23.807165 94.995636 
L 23.807165 168.628727 
L 44.04233 164.675273 
L 62.437934 169.122909 
L 80.833538 170.605455 
L 99.229143 177.029818 
L 117.624747 177.524 
L 136.020352 184.936727 
L 154.415956 182.465818 
L 172.81156 179.500727 
L 191.207165 173.570545 
L 209.602769 169.617091 
L 227.998374 163.686909 
L 246.393978 162.204364 
L 264.789582 163.192727 
L 283.185187 170.605455 
L 301.580791 170.111273 
L 319.976396 164.181091 
L 340.21156 162.204364 
L 340.21156 92.030545 
L 340.21156 92.030545 
L 319.976396 99.443273 
L 301.580791 102.902545 
L 283.185187 101.914182 
L 264.789582 95.489818 
L 246.393978 95.489818 
L 227.998374 95.489818 
L 209.602769 103.396727 
L 191.207165 113.280364 
L 172.81156 115.257091 
L 154.415956 118.716364 
L 136.020352 119.704727 
L 117.624747 109.326909 
L 99.229143 105.867636 
L 80.833538 102.902545 
L 62.437934 96.478182 
L 44.04233 92.524727 
L 23.807165 94.995636 
z
" style="fill:#228776;fill-opacity:0.5;"/>
   </g>
   <g id="PolyCollection_4">
    <path clip-path="url(#pceaca201d6)" d="M 23.807165 34.211273 
L 23.807165 94.995636 
L 44.04233 92.524727 
L 62.437934 96.478182 
L 80.833538 102.902545 
L 99.229143 105.867636 
L 117.624747 109.326909 
L 136.020352 119.704727 
L 154.415956 118.716364 
L 172.81156 115.257091 
L 191.207165 113.280364 
L 209.602769 103.396727 
L 227.998374 95.489818 
L 246.393978 95.489818 
L 264.789582 95.489818 
L 283.185187 101.914182 
L 301.580791 102.902545 
L 319.976396 99.443273 
L 340.21156 92.030545 
L 340.21156 52.990182 
L 340.21156 52.990182 
L 319.976396 55.461091 
L 301.580791 54.472727 
L 283.185187 55.955273 
L 264.789582 50.519273 
L 246.393978 52.001818 
L 227.998374 50.519273 
L 209.602769 58.920364 
L 191.207165 67.815636 
L 172.81156 64.850545 
L 154.415956 68.804 
L 136.020352 66.333091 
L 117.624747 53.978545 
L 99.229143 49.530909 
L 80.833538 47.554182 
L 62.437934 39.153091 
L 44.04233 33.222909 
L 23.807165 34.211273 
z
" style="fill:#228776;fill-opacity:0.25;"/>
   </g>
   <g id="matplotlib.axis_1">
    <g id="xtick_1">
     <g id="text_1">
      <!-- '00 -->
      <defs>
       <path d="M 6.40625 73 
L 6.40625 62.578125 
L 11.203125 62.578125 
C 11.296875 56.765625 9.90625 54.0625 6.40625 53.5625 
L 6.40625 49.75 
C 12.40625 50.25 15.703125 54.859375 15.703125 62.875 
L 15.703125 73 
z
" id="Nimbus_Sans_L_Regular-39"/>
       <path d="M 27.5 71 
C 20.90625 71 14.90625 68.125 11.203125 63.21875 
C 6.59375 57.046875 4.296875 47.5625 4.296875 34.5 
C 4.296875 10.671875 12.296875 -2 27.5 -2 
C 42.5 -2 50.703125 10.671875 50.703125 33.90625 
C 50.703125 47.65625 48.5 56.84375 43.796875 63.21875 
C 40.09375 68.21875 34.203125 71 27.5 71 
z
M 27.5 63.1875 
C 37 63.1875 41.703125 53.625 41.703125 34.703125 
C 41.703125 14.671875 37.09375 5.3125 27.296875 5.3125 
C 18 5.3125 13.296875 15.078125 13.296875 34.40625 
C 13.296875 53.71875 18 63.1875 27.5 63.1875 
z
" id="Nimbus_Sans_L_Regular-48"/>
      </defs>
      <g style="fill:#999999;" transform="translate(20.330723 288.050656)scale(0.08 -0.08)">
       <use transform="scale(0.996264)" xlink:href="#Nimbus_Sans_L_Regular-39"/>
       <use transform="translate(22.116784 0)scale(0.996264)" xlink:href="#Nimbus_Sans_L_Regular-48"/>
       <use transform="translate(77.508461 0)scale(0.996264)" xlink:href="#Nimbus_Sans_L_Regular-48"/>
      </g>
     </g>
    </g>
    <g id="xtick_2">
     <g id="text_2">
      <!-- '03 -->
      <defs>
       <path d="M 22.09375 33 
L 23.203125 33 
L 26.90625 33 
C 36.59375 33 41.59375 28.59375 41.59375 20.0625 
C 41.59375 11.125 36.09375 5.8125 26.90625 5.8125 
C 17.296875 5.8125 12.59375 10.640625 12 21.015625 
L 3.203125 21.015625 
C 3.59375 15.28125 4.59375 11.5625 6.296875 8.34375 
C 9.90625 1.515625 16.90625 -2 26.59375 -2 
C 41.203125 -2 50.59375 6.734375 50.59375 20.203125 
C 50.59375 29.25 47.09375 34.28125 38.59375 37.203125 
C 45.203125 39.78125 48.5 44.71875 48.5 51.734375 
C 48.5 63.78125 40.40625 71 26.90625 71 
C 12.59375 71 5 63.28125 4.703125 48.359375 
L 13.5 48.359375 
C 13.59375 52.59375 14 54.953125 15.09375 57.109375 
C 17.09375 60.9375 21.5 63.296875 27 63.296875 
C 34.796875 63.296875 39.5 58.75 39.5 51.359375 
C 39.5 46.421875 37.703125 43.453125 33.796875 41.890625 
C 31.40625 40.90625 28.296875 40.5 22.09375 40.5 
z
" id="Nimbus_Sans_L_Regular-51"/>
      </defs>
      <g style="fill:#999999;" transform="translate(75.517536 288.050656)scale(0.08 -0.08)">
       <use transform="scale(0.996264)" xlink:href="#Nimbus_Sans_L_Regular-39"/>
       <use transform="translate(22.116784 0)scale(0.996264)" xlink:href="#Nimbus_Sans_L_Regular-48"/>
       <use transform="translate(77.508461 0)scale(0.996264)" xlink:href="#Nimbus_Sans_L_Regular-51"/>
      </g>
     </g>
    </g>
    <g id="xtick_3">
     <g id="text_3">
      <!-- '06 -->
      <defs>
       <path d="M 49.796875 52.84375 
C 48.09375 64.234375 40.5 71 29.703125 71 
C 21.90625 71 14.90625 67.21875 10.703125 60.9375 
C 6.296875 54.0625 4.296875 45.375 4.296875 32.515625 
C 4.296875 20.640625 6.09375 13.0625 10.296875 6.78125 
C 14.09375 1.078125 20.296875 -2 28.09375 -2 
C 41.59375 -2 51.296875 8.09375 51.296875 22.109375 
C 51.296875 35.4375 42.296875 44.8125 29.59375 44.8125 
C 22.59375 44.8125 17.09375 42.109375 13.296875 36.90625 
C 13.40625 53.8125 19 63.1875 29.09375 63.1875 
C 35.296875 63.1875 39.59375 59.421875 41 52.84375 
z
M 28.5 37 
C 37 37 42.296875 31.03125 42.296875 21.40625 
C 42.296875 12.390625 36.296875 5.8125 28.203125 5.8125 
C 20 5.8125 13.796875 12.703125 13.796875 21.90625 
C 13.796875 30.828125 19.796875 37 28.5 37 
z
" id="Nimbus_Sans_L_Regular-54"/>
      </defs>
      <g style="fill:#999999;" transform="translate(130.704349 288.050656)scale(0.08 -0.08)">
       <use transform="scale(0.996264)" xlink:href="#Nimbus_Sans_L_Regular-39"/>
       <use transform="translate(22.116784 0)scale(0.996264)" xlink:href="#Nimbus_Sans_L_Regular-48"/>
       <use transform="translate(77.508461 0)scale(0.996264)" xlink:href="#Nimbus_Sans_L_Regular-54"/>
      </g>
     </g>
    </g>
    <g id="xtick_4">
     <g id="text_4">
      <!-- '09 -->
      <defs>
       <path d="M 5.296875 16.625 
C 7 4.9375 14.59375 -2 25.40625 -2 
C 33.203125 -2 40.296875 1.78125 44.40625 8.0625 
C 48.90625 14.9375 50.90625 23.625 50.90625 36.484375 
C 50.90625 48.359375 49.09375 55.9375 44.90625 62.21875 
C 41 67.921875 34.796875 71 27 71 
C 13.5 71 3.796875 61.078125 3.796875 47.296875 
C 3.796875 34.21875 12.796875 25 25.59375 25 
C 32.296875 25 37.203125 27.40625 41.796875 32.90625 
C 41.703125 15.484375 36.09375 5.8125 26 5.8125 
C 19.796875 5.8125 15.5 9.75 14.09375 16.625 
z
M 26.90625 63.296875 
C 35.09375 63.296875 41.296875 56.59375 41.296875 47.515625 
C 41.296875 38.921875 35.203125 32.8125 26.59375 32.8125 
C 18.09375 32.8125 12.796875 38.625 12.796875 48 
C 12.796875 56.875 18.796875 63.296875 26.90625 63.296875 
z
" id="Nimbus_Sans_L_Regular-57"/>
      </defs>
      <g style="fill:#999999;" transform="translate(185.891162 288.050656)scale(0.08 -0.08)">
       <use transform="scale(0.996264)" xlink:href="#Nimbus_Sans_L_Regular-39"/>
       <use transform="translate(22.116784 0)scale(0.996264)" xlink:href="#Nimbus_Sans_L_Regular-48"/>
       <use transform="translate(77.508461 0)scale(0.996264)" xlink:href="#Nimbus_Sans_L_Regular-57"/>
      </g>
     </g>
    </g>
    <g id="xtick_5">
     <g id="text_5">
      <!-- '12 -->
      <defs>
       <path d="M 25.90625 50.59375 
L 25.90625 0 
L 34.703125 0 
L 34.703125 71.015625 
L 28.90625 71.015625 
C 25.796875 60.109375 23.796875 58.609375 10.203125 56.90625 
L 10.203125 50.59375 
z
" id="Nimbus_Sans_L_Regular-49"/>
       <path d="M 50.59375 8.71875 
L 13.296875 8.71875 
C 14.203125 14.53125 17.40625 18.234375 26.09375 23.34375 
L 36.09375 28.75 
C 46 34.15625 51.09375 41.453125 51.09375 50.171875 
C 51.09375 56.078125 48.703125 61.59375 44.5 65.390625 
C 40.296875 69.203125 35.09375 71 28.40625 71 
C 19.40625 71 12.703125 67.796875 8.796875 61.796875 
C 6.296875 57.984375 5.203125 53.578125 5 46.359375 
L 13.796875 46.359375 
C 14.09375 51.171875 14.703125 54.078125 15.90625 56.375 
C 18.203125 60.6875 22.796875 63.296875 28.09375 63.296875 
C 36.09375 63.296875 42.09375 57.578125 42.09375 49.96875 
C 42.09375 44.359375 38.796875 39.546875 32.5 35.953125 
L 23.296875 30.75 
C 8.5 22.34375 4.203125 15.625 3.40625 0 
L 50.59375 0 
z
" id="Nimbus_Sans_L_Regular-50"/>
      </defs>
      <g style="fill:#999999;" transform="translate(241.077976 288.050656)scale(0.08 -0.08)">
       <use transform="scale(0.996264)" xlink:href="#Nimbus_Sans_L_Regular-39"/>
       <use transform="translate(22.116784 0)scale(0.996264)" xlink:href="#Nimbus_Sans_L_Regular-49"/>
       <use transform="translate(77.508461 0)scale(0.996264)" xlink:href="#Nimbus_Sans_L_Regular-50"/>
      </g>
     </g>
    </g>
    <g id="xtick_6">
     <g id="text_6">
      <!-- '15 -->
      <defs>
       <path d="M 47.59375 71 
L 11 71 
L 5.703125 32.59375 
L 13.796875 32.59375 
C 17.90625 37.484375 21.296875 39.1875 26.796875 39.1875 
C 36.296875 39.1875 42.296875 32.6875 42.296875 22.203125 
C 42.296875 12 36.40625 5.8125 26.796875 5.8125 
C 19.09375 5.8125 14.40625 9.703125 12.296875 17.703125 
L 3.5 17.703125 
C 4.703125 11.90625 5.703125 9.09375 7.796875 6.484375 
C 11.796875 1.09375 19 -2 27 -2 
C 41.296875 -2 51.296875 8.390625 51.296875 23.390625 
C 51.296875 37.40625 42 47 28.40625 47 
C 23.40625 47 19.40625 45.703125 15.296875 42.6875 
L 18.09375 62.296875 
L 47.59375 62.296875 
z
" id="Nimbus_Sans_L_Regular-53"/>
      </defs>
      <g style="fill:#999999;" transform="translate(296.264789 288.050656)scale(0.08 -0.08)">
       <use transform="scale(0.996264)" xlink:href="#Nimbus_Sans_L_Regular-39"/>
       <use transform="translate(22.116784 0)scale(0.996264)" xlink:href="#Nimbus_Sans_L_Regular-49"/>
       <use transform="translate(77.508461 0)scale(0.996264)" xlink:href="#Nimbus_Sans_L_Regular-53"/>
      </g>
     </g>
    </g>
    <g id="xtick_7">
     <g id="text_7">
      <!-- '17 -->
      <defs>
       <path d="M 52 70.703125 
L 4.59375 70.703125 
L 4.59375 62 
L 42.90625 62 
C 26 37.78125 19.09375 22.90625 13.796875 -0.5 
L 23.203125 -0.5 
C 27.09375 22.296875 36 41.890625 52 63.296875 
z
" id="Nimbus_Sans_L_Regular-55"/>
      </defs>
      <g style="fill:#999999;" transform="translate(333.055998 288.050656)scale(0.08 -0.08)">
       <use transform="scale(0.996264)" xlink:href="#Nimbus_Sans_L_Regular-39"/>
       <use transform="translate(22.116784 0)scale(0.996264)" xlink:href="#Nimbus_Sans_L_Regular-49"/>
       <use transform="translate(77.508461 0)scale(0.996264)" xlink:href="#Nimbus_Sans_L_Regular-55"/>
      </g>
     </g>
    </g>
   </g>
   <g id="matplotlib.axis_2">
    <g id="ytick_1"/>
    <g id="ytick_2"/>
    <g id="ytick_3"/>
    <g id="ytick_4"/>
    <g id="ytick_5"/>
    <g id="ytick_6"/>
   </g>
   <g id="line2d_6">
    <path clip-path="url(#pceaca201d6)" d="M 25.646725 34.211273 
L 44.04233 33.222909 
L 62.437934 39.153091 
L 80.833538 47.554182 
L 99.229143 49.530909 
L 117.624747 53.978545 
L 136.020352 66.333091 
L 154.415956 68.804 
L 172.81156 64.850545 
L 191.207165 67.815636 
L 209.602769 58.920364 
L 227.998374 50.519273 
L 246.393978 52.001818 
L 264.789582 50.519273 
L 283.185187 55.955273 
L 301.580791 54.472727 
L 319.976396 55.461091 
L 338.372 52.990182 
" style="fill:none;opacity:0.25;stroke:#228776;stroke-linecap:square;stroke-width:2;"/>
   </g>
   <g id="patch_3">
    <path d="M 3.572 275.372 
L 338.372 275.372 
" style="fill:none;stroke:#e6e6e6;stroke-linecap:square;stroke-linejoin:miter;stroke-width:0.8;"/>
   </g>
   <g id="line2d_7">
    <path clip-path="url(#pceaca201d6)" d="M 25.646725 94.995636 
L 44.04233 92.524727 
L 62.437934 96.478182 
L 80.833538 102.902545 
L 99.229143 105.867636 
L 117.624747 109.326909 
L 136.020352 119.704727 
L 154.415956 118.716364 
L 172.81156 115.257091 
L 191.207165 113.280364 
L 209.602769 103.396727 
L 227.998374 95.489818 
L 246.393978 95.489818 
L 264.789582 95.489818 
L 283.185187 101.914182 
L 301.580791 102.902545 
L 319.976396 99.443273 
L 338.372 92.030545 
" style="fill:none;opacity:0.5;stroke:#228776;stroke-linecap:square;stroke-width:2;"/>
   </g>
   <g id="text_8">
    <!-- 0 -->
    <g style="fill:#999999;" transform="translate(7.794794 272.420718)scale(0.08 -0.08)">
     <use transform="scale(0.996264)" xlink:href="#Nimbus_Sans_L_Regular-48"/>
    </g>
   </g>
   <g id="text_9">
    <!-- 10 -->
    <g style="fill:#999999;" transform="translate(4.659347 223.002537)scale(0.08 -0.08)">
     <use transform="scale(0.996264)" xlink:href="#Nimbus_Sans_L_Regular-49"/>
     <use transform="translate(55.391677 0)scale(0.996264)" xlink:href="#Nimbus_Sans_L_Regular-48"/>
    </g>
   </g>
   <g id="text_10">
    <!-- 20 -->
    <g style="fill:#999999;" transform="translate(4.659347 173.584355)scale(0.08 -0.08)">
     <use transform="scale(0.996264)" xlink:href="#Nimbus_Sans_L_Regular-50"/>
     <use transform="translate(55.391677 0)scale(0.996264)" xlink:href="#Nimbus_Sans_L_Regular-48"/>
    </g>
   </g>
   <g id="text_11">
    <!-- 30 -->
    <g style="fill:#999999;" transform="translate(4.659347 124.166173)scale(0.08 -0.08)">
     <use transform="scale(0.996264)" xlink:href="#Nimbus_Sans_L_Regular-51"/>
     <use transform="translate(55.391677 0)scale(0.996264)" xlink:href="#Nimbus_Sans_L_Regular-48"/>
    </g>
   </g>
   <g id="text_12">
    <!-- 40 -->
    <defs>
     <path d="M 32.703125 17 
L 32.703125 0 
L 41.5 0 
L 41.5 17 
L 52 17 
L 52 24.90625 
L 41.5 24.90625 
L 41.5 71.015625 
L 35 71.015625 
L 2.796875 26.3125 
L 2.796875 17 
z
M 32.703125 24.90625 
L 10.5 24.90625 
L 32.703125 55.984375 
z
" id="Nimbus_Sans_L_Regular-52"/>
    </defs>
    <g style="fill:#999999;" transform="translate(4.659347 74.747991)scale(0.08 -0.08)">
     <use transform="scale(0.996264)" xlink:href="#Nimbus_Sans_L_Regular-52"/>
     <use transform="translate(55.391677 0)scale(0.996264)" xlink:href="#Nimbus_Sans_L_Regular-48"/>
    </g>
   </g>
   <g id="text_13">
    <!-- 50\% -->
    <defs>
     <path d="M 19.90625 69 
C 10.59375 69 2.90625 61.109375 2.90625 51.484375 
C 2.90625 41.890625 10.59375 34 20 34 
C 29.296875 34 37 41.890625 37 51.28125 
C 37 61.21875 29.5 69 19.90625 69 
z
M 19.90625 61.984375 
C 25.59375 61.984375 30.09375 57.3125 30.09375 51.390625 
C 30.09375 45.671875 25.5 41.015625 20 41.015625 
C 14.40625 41.015625 9.796875 45.796875 9.796875 51.484375 
C 9.796875 57.3125 14.40625 61.984375 19.90625 61.984375 
z
M 60.90625 71 
L 21.40625 -2 
L 28 -2 
L 67.5 71 
z
M 68.796875 32 
C 59.5 32 51.796875 24.328125 51.796875 15.046875 
C 51.796875 5.6875 59.5 -2 68.90625 -2 
C 78.09375 -2 85.90625 5.6875 85.90625 14.859375 
C 85.90625 24.421875 78.40625 32 68.796875 32 
z
M 68.796875 25 
C 74.5 25 79 20.546875 79 14.90625 
C 79 9.546875 74.40625 5.109375 68.90625 5.109375 
C 63.296875 5.109375 58.703125 9.546875 58.703125 15.09375 
C 58.703125 20.546875 63.296875 25 68.796875 25 
z
" id="Nimbus_Sans_L_Regular-37"/>
    </defs>
    <g style="fill:#999999;" transform="translate(3.876011 25.329809)scale(0.08 -0.08)">
     <use transform="scale(0.996264)" xlink:href="#Nimbus_Sans_L_Regular-53"/>
     <use transform="translate(55.391677 0)scale(0.996264)" xlink:href="#Nimbus_Sans_L_Regular-48"/>
     <use transform="translate(110.783354 0)scale(0.996264)" xlink:href="#Nimbus_Sans_L_Regular-37"/>
    </g>
   </g>
   <g id="line2d_8">
    <path clip-path="url(#pceaca201d6)" d="M 25.646725 168.628727 
L 44.04233 164.675273 
L 62.437934 169.122909 
L 80.833538 170.605455 
L 99.229143 177.029818 
L 117.624747 177.524 
L 136.020352 184.936727 
L 154.415956 182.465818 
L 172.81156 179.500727 
L 191.207165 173.570545 
L 209.602769 169.617091 
L 227.998374 163.686909 
L 246.393978 162.204364 
L 264.789582 163.192727 
L 283.185187 170.605455 
L 301.580791 170.111273 
L 319.976396 164.181091 
L 338.372 162.204364 
" style="fill:none;opacity:0.75;stroke:#228776;stroke-linecap:square;stroke-width:2;"/>
   </g>
   <g id="line2d_9">
    <path clip-path="url(#pceaca201d6)" d="M 25.646725 245.721091 
L 44.04233 246.709455 
L 62.437934 245.721091 
L 80.833538 245.721091 
L 99.229143 247.697818 
L 117.624747 250.662909 
L 136.020352 250.662909 
L 154.415956 250.168727 
L 172.81156 248.686182 
L 191.207165 249.674545 
L 209.602769 245.226909 
L 227.998374 242.756 
L 246.393978 243.250182 
L 264.789582 243.250182 
L 283.185187 246.709455 
L 301.580791 245.721091 
L 319.976396 245.721091 
L 338.372 246.215273 
" style="fill:none;stroke:#228776;stroke-linecap:square;stroke-width:2;"/>
   </g>
   <g id="legend_1">
    <g id="line2d_10">
     <path d="M 31.690023 305.835656 
L 47.690023 305.835656 
" style="fill:none;opacity:0.25;"/>
    </g>
    <g id="line2d_11">
     <defs>
      <path d="M -3 3 
L 3 3 
L 3 -3 
L -3 -3 
z
" id="m58af691114" style="stroke:#228776;stroke-linejoin:miter;"/>
     </defs>
     <g>
      <use style="fill:#228776;opacity:0.25;stroke:#228776;stroke-linejoin:miter;" x="39.690023" xlink:href="#m58af691114" y="305.835656"/>
     </g>
    </g>
    <g id="text_14">
     <!-- Have Used -->
     <defs>
      <path d="M 55.09375 33 
L 55.09375 -0.03125 
L 64.40625 -0.03125 
L 64.40625 73 
L 55.09375 73 
L 55.09375 41.21875 
L 17.59375 41.21875 
L 17.59375 73 
L 8.296875 73 
L 8.296875 -0.03125 
L 17.703125 -0.03125 
L 17.703125 33 
z
" id="Nimbus_Sans_L_Regular-72"/>
      <path d="M 53.5 5.203125 
C 52.59375 5 52.203125 5 51.703125 5 
C 48.796875 5 47.203125 6.484375 47.203125 9.078125 
L 47.203125 39.765625 
C 47.203125 49.015625 40.40625 54 27.5 54 
C 19.90625 54 13.59375 51.8125 10.09375 47.90625 
C 7.703125 45.203125 6.703125 42.21875 6.5 37.03125 
L 14.90625 37.03125 
C 15.59375 43.390625 19.40625 46.28125 27.203125 46.28125 
C 34.703125 46.28125 38.90625 43.484375 38.90625 38.515625 
L 38.90625 36.328125 
C 38.90625 32.828125 36.796875 31.34375 30.203125 30.546875 
C 18.40625 29.0625 16.59375 28.65625 13.40625 27.359375 
C 7.296875 24.875 4.203125 20.1875 4.203125 13.421875 
C 4.203125 3.96875 10.796875 -2 21.40625 -2 
C 28 -2 33.296875 0.296875 39.203125 5.703125 
C 39.796875 0.390625 42.40625 -2 47.796875 -2 
C 49.5 -2 50.796875 -1.8125 53.5 -1.09375 
z
M 38.90625 16.75 
C 38.90625 13.953125 38.09375 12.265625 35.59375 9.984375 
C 32.203125 6.890625 28.09375 5.3125 23.203125 5.3125 
C 16.703125 5.3125 12.90625 8.390625 12.90625 13.65625 
C 12.90625 19.140625 16.59375 21.921875 25.5 23.21875 
C 34.296875 24.40625 36.09375 24.8125 38.90625 26.09375 
z
" id="Nimbus_Sans_L_Regular-97"/>
      <path d="M 28.5 0 
L 48.59375 52.5 
L 39.203125 52.5 
L 24.40625 9.921875 
L 10.40625 52.5 
L 1 52.5 
L 19.40625 0 
z
" id="Nimbus_Sans_L_Regular-118"/>
      <path d="M 51.296875 23.890625 
C 51.296875 31.78125 50.703125 36.53125 49.203125 40.375 
C 45.796875 48.859375 37.796875 54 28 54 
C 13.40625 54 4 42.84375 4 25.703125 
C 4 8.546875 13.09375 -2 27.796875 -2 
C 39.796875 -2 48.09375 4.84375 50.203125 16.3125 
L 41.796875 16.3125 
C 39.5 9.34375 34.796875 5.703125 28.09375 5.703125 
C 22.796875 5.703125 18.296875 8.125 15.5 12.578125 
C 13.5 15.59375 12.796875 18.640625 12.703125 23.890625 
z
M 12.90625 31 
C 13.59375 40.265625 19.5 46.28125 27.90625 46.28125 
C 36.09375 46.28125 42.40625 39.53125 42.40625 31 
C 42.40625 31 42.40625 31 42.296875 31 
z
" id="Nimbus_Sans_L_Regular-101"/>
      <path d="M 55.203125 73 
L 55.203125 21.796875 
C 55.203125 12 48.09375 6 36.40625 6 
C 31 6 26.59375 7.3125 23.09375 9.8125 
C 19.5 12.59375 17.796875 16.3125 17.796875 21.796875 
L 17.796875 73 
L 8.5 73 
L 8.5 21.78125 
C 8.5 6.984375 19.09375 -2.203125 36.40625 -2.203125 
C 53.5 -2.203125 64.5 7.1875 64.5 21.78125 
L 64.5 73 
z
" id="Nimbus_Sans_L_Regular-85"/>
      <path d="M 43.796875 37.921875 
C 43.703125 48.203125 36.90625 54 24.796875 54 
C 12.59375 54 4.703125 47.71875 4.703125 38.0625 
C 4.703125 29.890625 8.90625 26.015625 21.296875 23.03125 
L 29.09375 21.140625 
C 34.90625 19.734375 37.203125 17.65625 37.203125 13.875 
C 37.203125 9 32.296875 5.703125 25 5.703125 
C 20.5 5.703125 16.703125 7 14.59375 9.1875 
C 13.296875 10.6875 12.703125 12.171875 12.203125 15.84375 
L 3.40625 15.84375 
C 3.796875 3.765625 10.59375 -2 24.296875 -2 
C 37.5 -2 45.90625 4.453125 45.90625 14.515625 
C 45.90625 22.28125 41.5 26.578125 31.09375 29.0625 
L 23.09375 30.953125 
C 16.296875 32.53125 13.40625 34.734375 13.40625 38.40625 
C 13.40625 43.1875 17.703125 46.28125 24.5 46.28125 
C 31.203125 46.28125 34.796875 43.390625 35 37.921875 
z
" id="Nimbus_Sans_L_Regular-115"/>
      <path d="M 49.5 73 
L 41.203125 73 
L 41.203125 45.890625 
C 37.703125 51.1875 32.09375 54 25.09375 54 
C 11.5 54 2.59375 43.140625 2.59375 26.484375 
C 2.59375 8.84375 11.296875 -2 25.40625 -2 
C 32.59375 -2 37.59375 0.703125 42.09375 7.203125 
L 42.09375 -0.03125 
L 49.5 -0.03125 
z
M 26.5 46.1875 
C 35.5 46.1875 41.203125 38.234375 41.203125 25.796875 
C 41.203125 13.765625 35.40625 5.8125 26.59375 5.8125 
C 17.40625 5.8125 11.296875 13.859375 11.296875 26 
C 11.296875 38.125 17.40625 46.1875 26.5 46.1875 
z
" id="Nimbus_Sans_L_Regular-100"/>
     </defs>
     <g style="fill:#999999;" transform="translate(49.690023 308.635656)scale(0.08 -0.08)">
      <use transform="scale(0.996264)" xlink:href="#Nimbus_Sans_L_Regular-72"/>
      <use transform="translate(71.929985 0)scale(0.996264)" xlink:href="#Nimbus_Sans_L_Regular-97"/>
      <use transform="translate(125.329651 0)scale(0.996264)" xlink:href="#Nimbus_Sans_L_Regular-118"/>
      <use transform="translate(172.652222 0)scale(0.996264)" xlink:href="#Nimbus_Sans_L_Regular-101"/>
      <use transform="translate(255.739068 0)scale(0.996264)" xlink:href="#Nimbus_Sans_L_Regular-85"/>
      <use transform="translate(327.669053 0)scale(0.996264)" xlink:href="#Nimbus_Sans_L_Regular-115"/>
      <use transform="translate(377.482253 0)scale(0.996264)" xlink:href="#Nimbus_Sans_L_Regular-101"/>
      <use transform="translate(432.87393 0)scale(0.996264)" xlink:href="#Nimbus_Sans_L_Regular-100"/>
     </g>
    </g>
    <g id="line2d_12">
     <path d="M 104.751261 305.835656 
L 120.751261 305.835656 
" style="fill:none;opacity:0.5;"/>
    </g>
    <g id="line2d_13">
     <defs>
      <path d="M -3 3 
L 3 3 
L 3 -3 
L -3 -3 
z
" id="m5a28cfd8a4" style="stroke:#228776;stroke-linejoin:miter;"/>
     </defs>
     <g>
      <use style="fill:#228776;opacity:0.5;stroke:#228776;stroke-linejoin:miter;" x="112.751261" xlink:href="#m5a28cfd8a4" y="305.835656"/>
     </g>
    </g>
    <g id="text_15">
     <!-- Annual Use -->
     <defs>
      <path d="M 47.40625 22 
L 54.90625 0 
L 65.296875 0 
L 39.703125 73 
L 27.703125 73 
L 1.703125 0 
L 11.59375 0 
L 19.296875 22 
z
M 44.796875 29.8125 
L 21.59375 29.8125 
L 33.59375 63 
z
" id="Nimbus_Sans_L_Regular-65"/>
      <path d="M 7 52.484375 
L 7 0 
L 15.40625 0 
L 15.40625 28.953125 
C 15.40625 39.671875 21 46.6875 29.59375 46.6875 
C 36.203125 46.6875 40.40625 42.671875 40.40625 36.359375 
L 40.40625 0 
L 48.703125 0 
L 48.703125 39.671875 
C 48.703125 48.390625 42.203125 54 32.09375 54 
C 24.296875 54 19.296875 50.984375 14.703125 43.6875 
L 14.703125 52.484375 
z
" id="Nimbus_Sans_L_Regular-110"/>
      <path d="M 48.203125 0.515625 
L 48.203125 53 
L 39.90625 53 
L 39.90625 23.109375 
C 39.90625 12.34375 34.296875 5.3125 25.59375 5.3125 
C 19 5.3125 14.796875 9.328125 14.796875 15.671875 
L 14.796875 53 
L 6.5 53 
L 6.5 12.375 
C 6.5 3.625 13 -2 23.203125 -2 
C 30.90625 -2 35.796875 0.703125 40.703125 7.625 
L 40.703125 0.515625 
z
" id="Nimbus_Sans_L_Regular-117"/>
      <path d="M 15.203125 73 
L 6.796875 73 
L 6.796875 -0.03125 
L 15.203125 -0.03125 
z
" id="Nimbus_Sans_L_Regular-108"/>
     </defs>
     <g style="fill:#999999;" transform="translate(122.751261 308.635656)scale(0.08 -0.08)">
      <use transform="scale(0.996264)" xlink:href="#Nimbus_Sans_L_Regular-65"/>
      <use transform="translate(66.450031 0)scale(0.996264)" xlink:href="#Nimbus_Sans_L_Regular-110"/>
      <use transform="translate(121.841708 0)scale(0.996264)" xlink:href="#Nimbus_Sans_L_Regular-110"/>
      <use transform="translate(176.237288 0)scale(0.996264)" xlink:href="#Nimbus_Sans_L_Regular-117"/>
      <use transform="translate(231.628965 0)scale(0.996264)" xlink:href="#Nimbus_Sans_L_Regular-97"/>
      <use transform="translate(287.020642 0)scale(0.996264)" xlink:href="#Nimbus_Sans_L_Regular-108"/>
      <use transform="translate(336.832596 0)scale(0.996264)" xlink:href="#Nimbus_Sans_L_Regular-85"/>
      <use transform="translate(408.762581 0)scale(0.996264)" xlink:href="#Nimbus_Sans_L_Regular-115"/>
      <use transform="translate(458.575781 0)scale(0.996264)" xlink:href="#Nimbus_Sans_L_Regular-101"/>
     </g>
    </g>
    <g id="line2d_14">
     <path d="M 179.868647 305.835656 
L 195.868647 305.835656 
" style="fill:none;opacity:0.75;"/>
    </g>
    <g id="line2d_15">
     <defs>
      <path d="M -3 3 
L 3 3 
L 3 -3 
L -3 -3 
z
" id="mad3a5d472d" style="stroke:#228776;stroke-linejoin:miter;"/>
     </defs>
     <g>
      <use style="fill:#228776;opacity:0.75;stroke:#228776;stroke-linejoin:miter;" x="187.868647" xlink:href="#mad3a5d472d" y="305.835656"/>
     </g>
    </g>
    <g id="text_16">
     <!-- Monthly Use -->
     <defs>
      <path d="M 46.796875 -0.03125 
L 67.296875 61.171875 
L 67.296875 -0.03125 
L 76.09375 -0.03125 
L 76.09375 73 
L 63.203125 73 
L 42 9.390625 
L 20.40625 73 
L 7.5 73 
L 7.5 -0.03125 
L 16.296875 -0.03125 
L 16.296875 61.171875 
L 37 -0.03125 
z
" id="Nimbus_Sans_L_Regular-77"/>
      <path d="M 27.203125 54 
C 12.5 54 3.59375 43.53125 3.59375 26 
C 3.59375 8.453125 12.40625 -2 27.296875 -2 
C 42 -2 51 8.453125 51 25.59375 
C 51 43.640625 42.296875 54 27.203125 54 
z
M 27.296875 46.28125 
C 36.703125 46.28125 42.296875 38.625 42.296875 25.703125 
C 42.296875 13.453125 36.5 5.703125 27.296875 5.703125 
C 18 5.703125 12.296875 13.359375 12.296875 26 
C 12.296875 38.53125 18 46.28125 27.296875 46.28125 
z
" id="Nimbus_Sans_L_Regular-111"/>
      <path d="M 25.40625 52.8125 
L 16.796875 52.8125 
L 16.796875 67 
L 8.5 67 
L 8.5 52.8125 
L 1.40625 52.8125 
L 1.40625 46 
L 8.5 46 
L 8.5 6.3125 
C 8.5 1 12.09375 -2 18.59375 -2 
C 20.59375 -2 22.59375 -1.8125 25.40625 -1.296875 
L 25.40625 5.71875 
C 24.296875 5.40625 23 5.3125 21.40625 5.3125 
C 17.796875 5.3125 16.796875 6.3125 16.796875 10.015625 
L 16.796875 46 
L 25.40625 46 
z
" id="Nimbus_Sans_L_Regular-116"/>
      <path d="M 7 73 
L 7 -0.03125 
L 15.296875 -0.03125 
L 15.296875 28.9375 
C 15.296875 39.671875 20.90625 46.6875 29.5 46.6875 
C 32.203125 46.6875 34.90625 45.78125 36.90625 44.28125 
C 39.296875 42.578125 40.296875 40.0625 40.296875 36.359375 
L 40.296875 -0.03125 
L 48.59375 -0.03125 
L 48.59375 39.65625 
C 48.59375 48.484375 42.296875 54 32.09375 54 
C 24.703125 54 20.203125 51.6875 15.296875 45.28125 
L 15.296875 73 
z
" id="Nimbus_Sans_L_Regular-104"/>
      <path d="M 38.796875 52.5 
L 24.296875 11.53125 
L 10.90625 52.5 
L 2 52.5 
L 19.703125 -0.328125 
L 16.5 -8.65625 
C 15.203125 -12.375 13.296875 -13.78125 9.796875 -13.78125 
C 8.59375 -13.78125 7.203125 -13.578125 5.40625 -13.171875 
L 5.40625 -20.703125 
C 7.09375 -21.59375 8.796875 -22 11 -22 
C 13.703125 -22 16.59375 -21.09375 18.796875 -19.484375 
C 21.40625 -17.578125 22.90625 -15.359375 24.5 -11.140625 
L 47.796875 52.5 
z
" id="Nimbus_Sans_L_Regular-121"/>
     </defs>
     <g style="fill:#999999;" transform="translate(197.868647 308.635656)scale(0.08 -0.08)">
      <use transform="scale(0.996264)" xlink:href="#Nimbus_Sans_L_Regular-77"/>
      <use transform="translate(82.98843 0)scale(0.996264)" xlink:href="#Nimbus_Sans_L_Regular-111"/>
      <use transform="translate(138.380107 0)scale(0.996264)" xlink:href="#Nimbus_Sans_L_Regular-110"/>
      <use transform="translate(193.771784 0)scale(0.996264)" xlink:href="#Nimbus_Sans_L_Regular-116"/>
      <use transform="translate(221.466954 0)scale(0.996264)" xlink:href="#Nimbus_Sans_L_Regular-104"/>
      <use transform="translate(276.858631 0)scale(0.996264)" xlink:href="#Nimbus_Sans_L_Regular-108"/>
      <use transform="translate(298.975415 0)scale(0.996264)" xlink:href="#Nimbus_Sans_L_Regular-121"/>
      <use transform="translate(376.483785 0)scale(0.996264)" xlink:href="#Nimbus_Sans_L_Regular-85"/>
      <use transform="translate(448.41377 0)scale(0.996264)" xlink:href="#Nimbus_Sans_L_Regular-115"/>
      <use transform="translate(498.226971 0)scale(0.996264)" xlink:href="#Nimbus_Sans_L_Regular-101"/>
     </g>
    </g>
    <g id="line2d_16">
     <path d="M 258.158128 305.835656 
L 274.158128 305.835656 
" style="fill:none;"/>
    </g>
    <g id="line2d_17">
     <defs>
      <path d="M -3 3 
L 3 3 
L 3 -3 
L -3 -3 
z
" id="m9b92b7c333" style="stroke:#228776;stroke-linejoin:miter;"/>
     </defs>
     <g>
      <use style="fill:#228776;stroke:#228776;stroke-linejoin:miter;" x="266.158128" xlink:href="#m9b92b7c333" y="305.835656"/>
     </g>
    </g>
    <g id="text_17">
     <!-- Daily Use -->
     <defs>
      <path d="M 8.90625 0 
L 37 0 
C 55.40625 0 66.703125 13.828125 66.703125 36.546875 
C 66.703125 59.171875 55.5 73 37 73 
L 8.90625 73 
z
M 18.203125 8.21875 
L 18.203125 64.78125 
L 35.40625 64.78125 
C 49.796875 64.78125 57.40625 55.0625 57.40625 36.453125 
C 57.40625 18.03125 49.796875 8.21875 35.40625 8.21875 
z
" id="Nimbus_Sans_L_Regular-68"/>
      <path d="M 15 52.484375 
L 6.703125 52.484375 
L 6.703125 0 
L 15 0 
z
M 15 73 
L 6.59375 73 
L 6.59375 62.484375 
L 15 62.484375 
z
" id="Nimbus_Sans_L_Regular-105"/>
     </defs>
     <g style="fill:#999999;" transform="translate(276.158128 308.635656)scale(0.08 -0.08)">
      <use transform="scale(0.996264)" xlink:href="#Nimbus_Sans_L_Regular-68"/>
      <use transform="translate(71.929985 0)scale(0.996264)" xlink:href="#Nimbus_Sans_L_Regular-97"/>
      <use transform="translate(127.321662 0)scale(0.996264)" xlink:href="#Nimbus_Sans_L_Regular-105"/>
      <use transform="translate(149.438446 0)scale(0.996264)" xlink:href="#Nimbus_Sans_L_Regular-108"/>
      <use transform="translate(171.555231 0)scale(0.996264)" xlink:href="#Nimbus_Sans_L_Regular-121"/>
      <use transform="translate(249.063601 0)scale(0.996264)" xlink:href="#Nimbus_Sans_L_Regular-85"/>
      <use transform="translate(320.993585 0)scale(0.996264)" xlink:href="#Nimbus_Sans_L_Regular-115"/>
      <use transform="translate(370.806786 0)scale(0.996264)" xlink:href="#Nimbus_Sans_L_Regular-101"/>
     </g>
    </g>
   </g>
  </g>
 </g>
 <defs>
  <clipPath id="pceaca201d6">
   <rect height="271.8" width="334.8" x="3.572" y="3.572"/>
  </clipPath>
 </defs>
</svg>
