<?xml version="1.0" encoding="utf-8" standalone="no"?>
<!DOCTYPE svg PUBLIC "-//W3C//DTD SVG 1.1//EN"
  "http://www.w3.org/Graphics/SVG/1.1/DTD/svg11.dtd">
<!-- Created with matplotlib (http://matplotlib.org/) -->
<svg height="313pt" version="1.1" viewBox="0 0 343 313" width="343pt" xmlns="http://www.w3.org/2000/svg" xmlns:xlink="http://www.w3.org/1999/xlink">
 <defs>
  <style type="text/css">
*{stroke-linecap:butt;stroke-linejoin:round;}
  </style>
 </defs>
 <g id="figure_1">
  <g id="patch_1">
   <path d="M 0 313.605239 
L 343.760002 313.605239 
L 343.760002 0 
L 0 0 
z
" style="fill:none;"/>
  </g>
  <g id="axes_1">
   <g id="patch_2">
    <path d="M 3.572 275.372 
L 338.372 275.372 
L 338.372 3.572 
L 3.572 3.572 
z
" style="fill:none;"/>
   </g>
   <g id="line2d_1">
    <path clip-path="url(#pc581a0b571)" d="M 3.572 275.372 
L 338.372 275.372 
" style="fill:none;stroke:#e6e6e6;stroke-linecap:square;"/>
   </g>
   <g id="line2d_2">
    <path clip-path="url(#pc581a0b571)" d="M 3.572 245.828522 
L 338.372 245.828522 
" style="fill:none;stroke:#e6e6e6;stroke-linecap:square;"/>
   </g>
   <g id="line2d_3">
    <path clip-path="url(#pc581a0b571)" d="M 3.572 216.285043 
L 338.372 216.285043 
" style="fill:none;stroke:#e6e6e6;stroke-linecap:square;"/>
   </g>
   <g id="line2d_4">
    <path clip-path="url(#pc581a0b571)" d="M 3.572 186.741565 
L 338.372 186.741565 
" style="fill:none;stroke:#e6e6e6;stroke-linecap:square;"/>
   </g>
   <g id="line2d_5">
    <path clip-path="url(#pc581a0b571)" d="M 3.572 157.198087 
L 338.372 157.198087 
" style="fill:none;stroke:#e6e6e6;stroke-linecap:square;"/>
   </g>
   <g id="line2d_6">
    <path clip-path="url(#pc581a0b571)" d="M 3.572 127.654609 
L 338.372 127.654609 
" style="fill:none;stroke:#e6e6e6;stroke-linecap:square;"/>
   </g>
   <g id="line2d_7">
    <path clip-path="url(#pc581a0b571)" d="M 3.572 98.11113 
L 338.372 98.11113 
" style="fill:none;stroke:#e6e6e6;stroke-linecap:square;"/>
   </g>
   <g id="line2d_8">
    <path clip-path="url(#pc581a0b571)" d="M 3.572 68.567652 
L 338.372 68.567652 
" style="fill:none;stroke:#e6e6e6;stroke-linecap:square;"/>
   </g>
   <g id="line2d_9">
    <path clip-path="url(#pc581a0b571)" d="M 3.572 39.024174 
L 338.372 39.024174 
" style="fill:none;stroke:#e6e6e6;stroke-linecap:square;"/>
   </g>
   <g id="line2d_10">
    <path clip-path="url(#pc581a0b571)" d="M 3.572 9.480696 
L 338.372 9.480696 
" style="fill:none;stroke:#e6e6e6;stroke-linecap:square;"/>
   </g>
   <g id="matplotlib.axis_1">
    <g id="xtick_1">
     <g id="text_1">
      <!-- '00 -->
      <defs>
       <path d="M 6.40625 73 
L 6.40625 62.578125 
L 11.203125 62.578125 
C 11.296875 56.765625 9.90625 54.0625 6.40625 53.5625 
L 6.40625 49.75 
C 12.40625 50.25 15.703125 54.859375 15.703125 62.875 
L 15.703125 73 
z
" id="Nimbus_Sans_L_Regular-39"/>
       <path d="M 27.5 71 
C 20.90625 71 14.90625 68.125 11.203125 63.21875 
C 6.59375 57.046875 4.296875 47.5625 4.296875 34.5 
C 4.296875 10.671875 12.296875 -2 27.5 -2 
C 42.5 -2 50.703125 10.671875 50.703125 33.90625 
C 50.703125 47.65625 48.5 56.84375 43.796875 63.21875 
C 40.09375 68.21875 34.203125 71 27.5 71 
z
M 27.5 63.1875 
C 37 63.1875 41.703125 53.625 41.703125 34.703125 
C 41.703125 14.671875 37.09375 5.3125 27.296875 5.3125 
C 18 5.3125 13.296875 15.078125 13.296875 34.40625 
C 13.296875 53.71875 18 63.1875 27.5 63.1875 
z
" id="Nimbus_Sans_L_Regular-48"/>
      </defs>
      <g style="fill:#999999;" transform="translate(17.731898 288.050656)scale(0.08 -0.08)">
       <use transform="scale(0.996264)" xlink:href="#Nimbus_Sans_L_Regular-39"/>
       <use transform="translate(22.116784 0)scale(0.996264)" xlink:href="#Nimbus_Sans_L_Regular-48"/>
       <use transform="translate(77.508461 0)scale(0.996264)" xlink:href="#Nimbus_Sans_L_Regular-48"/>
      </g>
     </g>
    </g>
    <g id="xtick_2">
     <g id="text_2">
      <!-- '03 -->
      <defs>
       <path d="M 22.09375 33 
L 23.203125 33 
L 26.90625 33 
C 36.59375 33 41.59375 28.59375 41.59375 20.0625 
C 41.59375 11.125 36.09375 5.8125 26.90625 5.8125 
C 17.296875 5.8125 12.59375 10.640625 12 21.015625 
L 3.203125 21.015625 
C 3.59375 15.28125 4.59375 11.5625 6.296875 8.34375 
C 9.90625 1.515625 16.90625 -2 26.59375 -2 
C 41.203125 -2 50.59375 6.734375 50.59375 20.203125 
C 50.59375 29.25 47.09375 34.28125 38.59375 37.203125 
C 45.203125 39.78125 48.5 44.71875 48.5 51.734375 
C 48.5 63.78125 40.40625 71 26.90625 71 
C 12.59375 71 5 63.28125 4.703125 48.359375 
L 13.5 48.359375 
C 13.59375 52.59375 14 54.953125 15.09375 57.109375 
C 17.09375 60.9375 21.5 63.296875 27 63.296875 
C 34.796875 63.296875 39.5 58.75 39.5 51.359375 
C 39.5 46.421875 37.703125 43.453125 33.796875 41.890625 
C 31.40625 40.90625 28.296875 40.5 22.09375 40.5 
z
" id="Nimbus_Sans_L_Regular-51"/>
      </defs>
      <g style="fill:#999999;" transform="translate(73.377327 288.050656)scale(0.08 -0.08)">
       <use transform="scale(0.996264)" xlink:href="#Nimbus_Sans_L_Regular-39"/>
       <use transform="translate(22.116784 0)scale(0.996264)" xlink:href="#Nimbus_Sans_L_Regular-48"/>
       <use transform="translate(77.508461 0)scale(0.996264)" xlink:href="#Nimbus_Sans_L_Regular-51"/>
      </g>
     </g>
    </g>
    <g id="xtick_3">
     <g id="text_3">
      <!-- '06 -->
      <defs>
       <path d="M 49.796875 52.84375 
C 48.09375 64.234375 40.5 71 29.703125 71 
C 21.90625 71 14.90625 67.21875 10.703125 60.9375 
C 6.296875 54.0625 4.296875 45.375 4.296875 32.515625 
C 4.296875 20.640625 6.09375 13.0625 10.296875 6.78125 
C 14.09375 1.078125 20.296875 -2 28.09375 -2 
C 41.59375 -2 51.296875 8.09375 51.296875 22.109375 
C 51.296875 35.4375 42.296875 44.8125 29.59375 44.8125 
C 22.59375 44.8125 17.09375 42.109375 13.296875 36.90625 
C 13.40625 53.8125 19 63.1875 29.09375 63.1875 
C 35.296875 63.1875 39.59375 59.421875 41 52.84375 
z
M 28.5 37 
C 37 37 42.296875 31.03125 42.296875 21.40625 
C 42.296875 12.390625 36.296875 5.8125 28.203125 5.8125 
C 20 5.8125 13.796875 12.703125 13.796875 21.90625 
C 13.796875 30.828125 19.796875 37 28.5 37 
z
" id="Nimbus_Sans_L_Regular-54"/>
      </defs>
      <g style="fill:#999999;" transform="translate(129.022757 288.050656)scale(0.08 -0.08)">
       <use transform="scale(0.996264)" xlink:href="#Nimbus_Sans_L_Regular-39"/>
       <use transform="translate(22.116784 0)scale(0.996264)" xlink:href="#Nimbus_Sans_L_Regular-48"/>
       <use transform="translate(77.508461 0)scale(0.996264)" xlink:href="#Nimbus_Sans_L_Regular-54"/>
      </g>
     </g>
    </g>
    <g id="xtick_4">
     <g id="text_4">
      <!-- '09 -->
      <defs>
       <path d="M 5.296875 16.625 
C 7 4.9375 14.59375 -2 25.40625 -2 
C 33.203125 -2 40.296875 1.78125 44.40625 8.0625 
C 48.90625 14.9375 50.90625 23.625 50.90625 36.484375 
C 50.90625 48.359375 49.09375 55.9375 44.90625 62.21875 
C 41 67.921875 34.796875 71 27 71 
C 13.5 71 3.796875 61.078125 3.796875 47.296875 
C 3.796875 34.21875 12.796875 25 25.59375 25 
C 32.296875 25 37.203125 27.40625 41.796875 32.90625 
C 41.703125 15.484375 36.09375 5.8125 26 5.8125 
C 19.796875 5.8125 15.5 9.75 14.09375 16.625 
z
M 26.90625 63.296875 
C 35.09375 63.296875 41.296875 56.59375 41.296875 47.515625 
C 41.296875 38.921875 35.203125 32.8125 26.59375 32.8125 
C 18.09375 32.8125 12.796875 38.625 12.796875 48 
C 12.796875 56.875 18.796875 63.296875 26.90625 63.296875 
z
" id="Nimbus_Sans_L_Regular-57"/>
      </defs>
      <g style="fill:#999999;" transform="translate(184.668186 288.050656)scale(0.08 -0.08)">
       <use transform="scale(0.996264)" xlink:href="#Nimbus_Sans_L_Regular-39"/>
       <use transform="translate(22.116784 0)scale(0.996264)" xlink:href="#Nimbus_Sans_L_Regular-48"/>
       <use transform="translate(77.508461 0)scale(0.996264)" xlink:href="#Nimbus_Sans_L_Regular-57"/>
      </g>
     </g>
    </g>
    <g id="xtick_5">
     <g id="text_5">
      <!-- '12 -->
      <defs>
       <path d="M 25.90625 50.59375 
L 25.90625 0 
L 34.703125 0 
L 34.703125 71.015625 
L 28.90625 71.015625 
C 25.796875 60.109375 23.796875 58.609375 10.203125 56.90625 
L 10.203125 50.59375 
z
" id="Nimbus_Sans_L_Regular-49"/>
       <path d="M 50.59375 8.71875 
L 13.296875 8.71875 
C 14.203125 14.53125 17.40625 18.234375 26.09375 23.34375 
L 36.09375 28.75 
C 46 34.15625 51.09375 41.453125 51.09375 50.171875 
C 51.09375 56.078125 48.703125 61.59375 44.5 65.390625 
C 40.296875 69.203125 35.09375 71 28.40625 71 
C 19.40625 71 12.703125 67.796875 8.796875 61.796875 
C 6.296875 57.984375 5.203125 53.578125 5 46.359375 
L 13.796875 46.359375 
C 14.09375 51.171875 14.703125 54.078125 15.90625 56.375 
C 18.203125 60.6875 22.796875 63.296875 28.09375 63.296875 
C 36.09375 63.296875 42.09375 57.578125 42.09375 49.96875 
C 42.09375 44.359375 38.796875 39.546875 32.5 35.953125 
L 23.296875 30.75 
C 8.5 22.34375 4.203125 15.625 3.40625 0 
L 50.59375 0 
z
" id="Nimbus_Sans_L_Regular-50"/>
      </defs>
      <g style="fill:#999999;" transform="translate(240.313615 288.050656)scale(0.08 -0.08)">
       <use transform="scale(0.996264)" xlink:href="#Nimbus_Sans_L_Regular-39"/>
       <use transform="translate(22.116784 0)scale(0.996264)" xlink:href="#Nimbus_Sans_L_Regular-49"/>
       <use transform="translate(77.508461 0)scale(0.996264)" xlink:href="#Nimbus_Sans_L_Regular-50"/>
      </g>
     </g>
    </g>
    <g id="xtick_6">
     <g id="text_6">
      <!-- '15 -->
      <defs>
       <path d="M 47.59375 71 
L 11 71 
L 5.703125 32.59375 
L 13.796875 32.59375 
C 17.90625 37.484375 21.296875 39.1875 26.796875 39.1875 
C 36.296875 39.1875 42.296875 32.6875 42.296875 22.203125 
C 42.296875 12 36.40625 5.8125 26.796875 5.8125 
C 19.09375 5.8125 14.40625 9.703125 12.296875 17.703125 
L 3.5 17.703125 
C 4.703125 11.90625 5.703125 9.09375 7.796875 6.484375 
C 11.796875 1.09375 19 -2 27 -2 
C 41.296875 -2 51.296875 8.390625 51.296875 23.390625 
C 51.296875 37.40625 42 47 28.40625 47 
C 23.40625 47 19.40625 45.703125 15.296875 42.6875 
L 18.09375 62.296875 
L 47.59375 62.296875 
z
" id="Nimbus_Sans_L_Regular-53"/>
      </defs>
      <g style="fill:#999999;" transform="translate(295.959045 288.050656)scale(0.08 -0.08)">
       <use transform="scale(0.996264)" xlink:href="#Nimbus_Sans_L_Regular-39"/>
       <use transform="translate(22.116784 0)scale(0.996264)" xlink:href="#Nimbus_Sans_L_Regular-49"/>
       <use transform="translate(77.508461 0)scale(0.996264)" xlink:href="#Nimbus_Sans_L_Regular-53"/>
      </g>
     </g>
    </g>
    <g id="xtick_7">
     <g id="text_7">
      <!-- '17 -->
      <defs>
       <path d="M 52 70.703125 
L 4.59375 70.703125 
L 4.59375 62 
L 42.90625 62 
C 26 37.78125 19.09375 22.90625 13.796875 -0.5 
L 23.203125 -0.5 
C 27.09375 22.296875 36 41.890625 52 63.296875 
z
" id="Nimbus_Sans_L_Regular-55"/>
      </defs>
      <g style="fill:#999999;" transform="translate(333.055998 288.050656)scale(0.08 -0.08)">
       <use transform="scale(0.996264)" xlink:href="#Nimbus_Sans_L_Regular-39"/>
       <use transform="translate(22.116784 0)scale(0.996264)" xlink:href="#Nimbus_Sans_L_Regular-49"/>
       <use transform="translate(77.508461 0)scale(0.996264)" xlink:href="#Nimbus_Sans_L_Regular-55"/>
      </g>
     </g>
    </g>
   </g>
   <g id="matplotlib.axis_2">
    <g id="ytick_1"/>
    <g id="ytick_2"/>
    <g id="ytick_3"/>
    <g id="ytick_4"/>
    <g id="ytick_5"/>
   </g>
   <g id="patch_3">
    <path d="M 3.572 275.372 
L 338.372 275.372 
" style="fill:none;stroke:#e6e6e6;stroke-linecap:square;stroke-linejoin:miter;stroke-width:0.8;"/>
   </g>
   <g id="line2d_11">
    <path clip-path="url(#pc581a0b571)" d="M 23.0479 41.978522 
L 41.596377 71.522 
L 60.144853 77.430696 
L 78.69333 92.202435 
L 97.241806 92.202435 
L 115.790283 142.426348 
L 134.338759 145.380696 
L 152.887235 186.741565 
L 171.435712 192.650261 
L 189.984188 204.467652 
L 208.532665 207.422 
L 227.081141 213.330696 
L 245.629618 225.148087 
L 264.178094 231.056783 
L 282.726571 219.239391 
L 301.275047 245.828522 
L 319.823524 239.919826 
L 338.372 242.874174 
" style="fill:none;stroke:#ff6d3b;stroke-linecap:square;stroke-width:2;"/>
   </g>
   <g id="text_8">
    <!-- 0 -->
    <g style="fill:#999999;" transform="translate(4.138604 272.931015)scale(0.08 -0.08)">
     <use transform="scale(0.996264)" xlink:href="#Nimbus_Sans_L_Regular-48"/>
    </g>
   </g>
   <g id="text_9">
    <!-- 1 -->
    <g style="fill:#999999;" transform="translate(4.138604 243.387537)scale(0.08 -0.08)">
     <use transform="scale(0.996264)" xlink:href="#Nimbus_Sans_L_Regular-49"/>
    </g>
   </g>
   <g id="text_10">
    <!-- 2 -->
    <g style="fill:#999999;" transform="translate(4.138604 213.844058)scale(0.08 -0.08)">
     <use transform="scale(0.996264)" xlink:href="#Nimbus_Sans_L_Regular-50"/>
    </g>
   </g>
   <g id="text_11">
    <!-- 3 -->
    <g style="fill:#999999;" transform="translate(4.138604 184.30058)scale(0.08 -0.08)">
     <use transform="scale(0.996264)" xlink:href="#Nimbus_Sans_L_Regular-51"/>
    </g>
   </g>
   <g id="text_12">
    <!-- 4 -->
    <defs>
     <path d="M 32.703125 17 
L 32.703125 0 
L 41.5 0 
L 41.5 17 
L 52 17 
L 52 24.90625 
L 41.5 24.90625 
L 41.5 71.015625 
L 35 71.015625 
L 2.796875 26.3125 
L 2.796875 17 
z
M 32.703125 24.90625 
L 10.5 24.90625 
L 32.703125 55.984375 
z
" id="Nimbus_Sans_L_Regular-52"/>
    </defs>
    <g style="fill:#999999;" transform="translate(4.138604 154.757102)scale(0.08 -0.08)">
     <use transform="scale(0.996264)" xlink:href="#Nimbus_Sans_L_Regular-52"/>
    </g>
   </g>
   <g id="text_13">
    <!-- 5 -->
    <g style="fill:#999999;" transform="translate(4.138604 125.213624)scale(0.08 -0.08)">
     <use transform="scale(0.996264)" xlink:href="#Nimbus_Sans_L_Regular-53"/>
    </g>
   </g>
   <g id="text_14">
    <!-- 6 -->
    <g style="fill:#999999;" transform="translate(4.138604 95.670145)scale(0.08 -0.08)">
     <use transform="scale(0.996264)" xlink:href="#Nimbus_Sans_L_Regular-54"/>
    </g>
   </g>
   <g id="text_15">
    <!-- 7 -->
    <g style="fill:#999999;" transform="translate(4.138604 66.126667)scale(0.08 -0.08)">
     <use transform="scale(0.996264)" xlink:href="#Nimbus_Sans_L_Regular-55"/>
    </g>
   </g>
   <g id="text_16">
    <!-- 8 -->
    <defs>
     <path d="M 39.09375 37.484375 
C 46.40625 41.875 48.796875 45.46875 48.796875 52.15625 
C 48.796875 63.21875 40.09375 71 27.5 71 
C 15 71 6.203125 63.21875 6.203125 52.15625 
C 6.203125 45.578125 8.59375 41.984375 15.796875 37.484375 
C 7.703125 33.59375 3.703125 27.71875 3.703125 19.9375 
C 3.703125 6.96875 13.5 -2 27.5 -2 
C 41.5 -2 51.296875 6.984375 51.296875 19.84375 
C 51.296875 27.71875 47.296875 33.59375 39.09375 37.484375 
z
M 27.5 63.1875 
C 35 63.1875 39.796875 58.8125 39.796875 51.953125 
C 39.796875 45.375 34.90625 41 27.5 41 
C 20.09375 41 15.203125 45.375 15.203125 52.046875 
C 15.203125 58.8125 20.09375 63.1875 27.5 63.1875 
z
M 27.5 33.578125 
C 36.296875 33.578125 42.296875 28 42.296875 19.734375 
C 42.296875 11.390625 36.296875 5.8125 27.296875 5.8125 
C 18.703125 5.8125 12.703125 11.484375 12.703125 19.734375 
C 12.703125 28 18.703125 33.578125 27.5 33.578125 
z
" id="Nimbus_Sans_L_Regular-56"/>
    </defs>
    <g style="fill:#999999;" transform="translate(4.138604 36.583189)scale(0.08 -0.08)">
     <use transform="scale(0.996264)" xlink:href="#Nimbus_Sans_L_Regular-56"/>
    </g>
   </g>
   <g id="text_17">
    <!-- 9\% -->
    <defs>
     <path d="M 19.90625 69 
C 10.59375 69 2.90625 61.109375 2.90625 51.484375 
C 2.90625 41.890625 10.59375 34 20 34 
C 29.296875 34 37 41.890625 37 51.28125 
C 37 61.21875 29.5 69 19.90625 69 
z
M 19.90625 61.984375 
C 25.59375 61.984375 30.09375 57.3125 30.09375 51.390625 
C 30.09375 45.671875 25.5 41.015625 20 41.015625 
C 14.40625 41.015625 9.796875 45.796875 9.796875 51.484375 
C 9.796875 57.3125 14.40625 61.984375 19.90625 61.984375 
z
M 60.90625 71 
L 21.40625 -2 
L 28 -2 
L 67.5 71 
z
M 68.796875 32 
C 59.5 32 51.796875 24.328125 51.796875 15.046875 
C 51.796875 5.6875 59.5 -2 68.90625 -2 
C 78.09375 -2 85.90625 5.6875 85.90625 14.859375 
C 85.90625 24.421875 78.40625 32 68.796875 32 
z
M 68.796875 25 
C 74.5 25 79 20.546875 79 14.90625 
C 79 9.546875 74.40625 5.109375 68.90625 5.109375 
C 63.296875 5.109375 58.703125 9.546875 58.703125 15.09375 
C 58.703125 20.546875 63.296875 25 68.796875 25 
z
" id="Nimbus_Sans_L_Regular-37"/>
    </defs>
    <g style="fill:#999999;" transform="translate(4.305623 7.03971)scale(0.08 -0.08)">
     <use transform="scale(0.996264)" xlink:href="#Nimbus_Sans_L_Regular-57"/>
     <use transform="translate(55.391677 0)scale(0.996264)" xlink:href="#Nimbus_Sans_L_Regular-37"/>
    </g>
   </g>
   <g id="line2d_12">
    <path clip-path="url(#pc581a0b571)" d="M 23.0479 204.467652 
L 41.596377 222.193739 
L 60.144853 225.148087 
L 78.69333 231.056783 
L 97.241806 231.056783 
L 115.790283 231.056783 
L 134.338759 234.01113 
L 152.887235 231.056783 
L 171.435712 236.965478 
L 189.984188 239.919826 
L 208.532665 228.102435 
L 227.081141 234.01113 
L 245.629618 242.874174 
L 264.178094 245.828522 
L 282.726571 245.828522 
L 301.275047 251.737217 
L 319.823524 254.691565 
L 338.372 254.691565 
" style="fill:none;stroke:#6a3d9a;stroke-linecap:square;stroke-width:2;"/>
   </g>
   <g id="line2d_13">
    <path clip-path="url(#pc581a0b571)" d="M 23.0479 21.298087 
L 41.596377 33.115478 
L 60.144853 44.93287 
L 78.69333 47.887217 
L 97.241806 36.069826 
L 115.790283 39.024174 
L 134.338759 24.252435 
L 152.887235 44.93287 
L 171.435712 62.658957 
L 189.984188 98.11113 
L 208.532665 112.88287 
L 227.081141 121.745913 
L 245.629618 130.608957 
L 264.178094 142.426348 
L 282.726571 139.472 
L 301.275047 157.198087 
L 319.823524 166.06113 
L 338.372 151.289391 
" style="fill:none;stroke:#0c7fd7;stroke-linecap:square;stroke-width:2;"/>
   </g>
   <g id="legend_1">
    <g id="line2d_14">
     <path d="M 68.619164 305.835656 
L 84.619164 305.835656 
" style="fill:none;"/>
    </g>
    <g id="line2d_15">
     <defs>
      <path d="M -3 3 
L 3 3 
L 3 -3 
L -3 -3 
z
" id="m3aba56580e" style="stroke:#0c7fd7;stroke-linejoin:miter;"/>
     </defs>
     <g>
      <use style="fill:#0c7fd7;stroke:#0c7fd7;stroke-linejoin:miter;" x="76.619164" xlink:href="#m3aba56580e" y="305.835656"/>
     </g>
    </g>
    <g id="text_18">
     <!-- Cocaine -->
     <defs>
      <path d="M 66.203125 50.453125 
C 63.296875 66.4375 54.09375 74.21875 38.09375 74.21875 
C 28.296875 74.21875 20.40625 71.125 15 65.125 
C 8.40625 57.953125 4.796875 47.578125 4.796875 35.796875 
C 4.796875 23.828125 8.5 13.5625 15.40625 6.46875 
C 21 0.6875 28.203125 -2 37.703125 -2 
C 55.5 -2 65.5 7.578125 67.703125 26.828125 
L 58.09375 26.828125 
C 57.296875 21.859375 56.296875 18.46875 54.796875 15.578125 
C 51.796875 9.59375 45.59375 6.203125 37.796875 6.203125 
C 23.296875 6.203125 14.09375 17.765625 14.09375 35.90625 
C 14.09375 54.546875 22.90625 66 37 66 
C 42.90625 66 48.40625 64.21875 51.40625 61.40625 
C 54.09375 58.921875 55.59375 55.828125 56.703125 50.453125 
z
" id="Nimbus_Sans_L_Regular-67"/>
      <path d="M 27.203125 54 
C 12.5 54 3.59375 43.53125 3.59375 26 
C 3.59375 8.453125 12.40625 -2 27.296875 -2 
C 42 -2 51 8.453125 51 25.59375 
C 51 43.640625 42.296875 54 27.203125 54 
z
M 27.296875 46.28125 
C 36.703125 46.28125 42.296875 38.625 42.296875 25.703125 
C 42.296875 13.453125 36.5 5.703125 27.296875 5.703125 
C 18 5.703125 12.296875 13.359375 12.296875 26 
C 12.296875 38.53125 18 46.28125 27.296875 46.28125 
z
" id="Nimbus_Sans_L_Regular-111"/>
      <path d="M 47.09375 34.9375 
C 46.703125 40.03125 45.59375 43.328125 43.59375 46.21875 
C 40 51.109375 33.703125 54 26.40625 54 
C 12.296875 54 3.09375 42.84375 3.09375 25.5 
C 3.09375 8.65625 12.09375 -2 26.296875 -2 
C 38.796875 -2 46.703125 5.46875 47.703125 18.234375 
L 39.296875 18.234375 
C 37.90625 9.875 33.59375 5.703125 26.5 5.703125 
C 17.296875 5.703125 11.796875 13.171875 11.796875 25.5 
C 11.796875 38.53125 17.203125 46.28125 26.296875 46.28125 
C 33.296875 46.28125 37.703125 42.203125 38.703125 34.9375 
z
" id="Nimbus_Sans_L_Regular-99"/>
      <path d="M 53.5 5.203125 
C 52.59375 5 52.203125 5 51.703125 5 
C 48.796875 5 47.203125 6.484375 47.203125 9.078125 
L 47.203125 39.765625 
C 47.203125 49.015625 40.40625 54 27.5 54 
C 19.90625 54 13.59375 51.8125 10.09375 47.90625 
C 7.703125 45.203125 6.703125 42.21875 6.5 37.03125 
L 14.90625 37.03125 
C 15.59375 43.390625 19.40625 46.28125 27.203125 46.28125 
C 34.703125 46.28125 38.90625 43.484375 38.90625 38.515625 
L 38.90625 36.328125 
C 38.90625 32.828125 36.796875 31.34375 30.203125 30.546875 
C 18.40625 29.0625 16.59375 28.65625 13.40625 27.359375 
C 7.296875 24.875 4.203125 20.1875 4.203125 13.421875 
C 4.203125 3.96875 10.796875 -2 21.40625 -2 
C 28 -2 33.296875 0.296875 39.203125 5.703125 
C 39.796875 0.390625 42.40625 -2 47.796875 -2 
C 49.5 -2 50.796875 -1.8125 53.5 -1.09375 
z
M 38.90625 16.75 
C 38.90625 13.953125 38.09375 12.265625 35.59375 9.984375 
C 32.203125 6.890625 28.09375 5.3125 23.203125 5.3125 
C 16.703125 5.3125 12.90625 8.390625 12.90625 13.65625 
C 12.90625 19.140625 16.59375 21.921875 25.5 23.21875 
C 34.296875 24.40625 36.09375 24.8125 38.90625 26.09375 
z
" id="Nimbus_Sans_L_Regular-97"/>
      <path d="M 15 52.484375 
L 6.703125 52.484375 
L 6.703125 0 
L 15 0 
z
M 15 73 
L 6.59375 73 
L 6.59375 62.484375 
L 15 62.484375 
z
" id="Nimbus_Sans_L_Regular-105"/>
      <path d="M 7 52.484375 
L 7 0 
L 15.40625 0 
L 15.40625 28.953125 
C 15.40625 39.671875 21 46.6875 29.59375 46.6875 
C 36.203125 46.6875 40.40625 42.671875 40.40625 36.359375 
L 40.40625 0 
L 48.703125 0 
L 48.703125 39.671875 
C 48.703125 48.390625 42.203125 54 32.09375 54 
C 24.296875 54 19.296875 50.984375 14.703125 43.6875 
L 14.703125 52.484375 
z
" id="Nimbus_Sans_L_Regular-110"/>
      <path d="M 51.296875 23.890625 
C 51.296875 31.78125 50.703125 36.53125 49.203125 40.375 
C 45.796875 48.859375 37.796875 54 28 54 
C 13.40625 54 4 42.84375 4 25.703125 
C 4 8.546875 13.09375 -2 27.796875 -2 
C 39.796875 -2 48.09375 4.84375 50.203125 16.3125 
L 41.796875 16.3125 
C 39.5 9.34375 34.796875 5.703125 28.09375 5.703125 
C 22.796875 5.703125 18.296875 8.125 15.5 12.578125 
C 13.5 15.59375 12.796875 18.640625 12.703125 23.890625 
z
M 12.90625 31 
C 13.59375 40.265625 19.5 46.28125 27.90625 46.28125 
C 36.09375 46.28125 42.40625 39.53125 42.40625 31 
C 42.40625 31 42.40625 31 42.296875 31 
z
" id="Nimbus_Sans_L_Regular-101"/>
     </defs>
     <g style="fill:#999999;" transform="translate(86.619164 308.635656)scale(0.08 -0.08)">
      <use transform="scale(0.996264)" xlink:href="#Nimbus_Sans_L_Regular-67"/>
      <use transform="translate(71.929985 0)scale(0.996264)" xlink:href="#Nimbus_Sans_L_Regular-111"/>
      <use transform="translate(127.321662 0)scale(0.996264)" xlink:href="#Nimbus_Sans_L_Regular-99"/>
      <use transform="translate(177.134862 0)scale(0.996264)" xlink:href="#Nimbus_Sans_L_Regular-97"/>
      <use transform="translate(232.526539 0)scale(0.996264)" xlink:href="#Nimbus_Sans_L_Regular-105"/>
      <use transform="translate(254.643324 0)scale(0.996264)" xlink:href="#Nimbus_Sans_L_Regular-110"/>
      <use transform="translate(310.035001 0)scale(0.996264)" xlink:href="#Nimbus_Sans_L_Regular-101"/>
     </g>
    </g>
    <g id="line2d_16">
     <path d="M 131.853286 305.835656 
L 147.853286 305.835656 
" style="fill:none;"/>
    </g>
    <g id="line2d_17">
     <defs>
      <path d="M -3 3 
L 3 3 
L 3 -3 
L -3 -3 
z
" id="m14d17c6ef3" style="stroke:#6a3d9a;stroke-linejoin:miter;"/>
     </defs>
     <g>
      <use style="fill:#6a3d9a;stroke:#6a3d9a;stroke-linejoin:miter;" x="139.853286" xlink:href="#m14d17c6ef3" y="305.835656"/>
     </g>
    </g>
    <g id="text_19">
     <!-- Heroin -->
     <defs>
      <path d="M 55.09375 33 
L 55.09375 -0.03125 
L 64.40625 -0.03125 
L 64.40625 73 
L 55.09375 73 
L 55.09375 41.21875 
L 17.59375 41.21875 
L 17.59375 73 
L 8.296875 73 
L 8.296875 -0.03125 
L 17.703125 -0.03125 
L 17.703125 33 
z
" id="Nimbus_Sans_L_Regular-72"/>
      <path d="M 6.90625 52.484375 
L 6.90625 0 
L 15.296875 0 
L 15.296875 27.203125 
C 15.296875 34.703125 17.203125 39.609375 21.203125 42.5 
C 23.796875 44.40625 26.296875 45 32.09375 45 
L 32.09375 53.625 
C 30.703125 53.8125 30 53.8125 28.90625 53.8125 
C 23.5 53.8125 19.40625 50.625 14.59375 42.90625 
L 14.59375 52.484375 
z
" id="Nimbus_Sans_L_Regular-114"/>
     </defs>
     <g style="fill:#999999;" transform="translate(149.853286 308.635656)scale(0.08 -0.08)">
      <use transform="scale(0.996264)" xlink:href="#Nimbus_Sans_L_Regular-72"/>
      <use transform="translate(71.929985 0)scale(0.996264)" xlink:href="#Nimbus_Sans_L_Regular-101"/>
      <use transform="translate(127.321662 0)scale(0.996264)" xlink:href="#Nimbus_Sans_L_Regular-114"/>
      <use transform="translate(160.496892 0)scale(0.996264)" xlink:href="#Nimbus_Sans_L_Regular-111"/>
      <use transform="translate(215.888569 0)scale(0.996264)" xlink:href="#Nimbus_Sans_L_Regular-105"/>
      <use transform="translate(238.005353 0)scale(0.996264)" xlink:href="#Nimbus_Sans_L_Regular-110"/>
     </g>
    </g>
    <g id="line2d_18">
     <path d="M 189.325036 305.835656 
L 205.325036 305.835656 
" style="fill:none;"/>
    </g>
    <g id="line2d_19">
     <defs>
      <path d="M -3 3 
L 3 3 
L 3 -3 
L -3 -3 
z
" id="mc34b176457" style="stroke:#ff6d3b;stroke-linejoin:miter;"/>
     </defs>
     <g>
      <use style="fill:#ff6d3b;stroke:#ff6d3b;stroke-linejoin:miter;" x="197.325036" xlink:href="#mc34b176457" y="305.835656"/>
     </g>
    </g>
    <g id="text_20">
     <!-- Methamphetamine -->
     <defs>
      <path d="M 46.796875 -0.03125 
L 67.296875 61.171875 
L 67.296875 -0.03125 
L 76.09375 -0.03125 
L 76.09375 73 
L 63.203125 73 
L 42 9.390625 
L 20.40625 73 
L 7.5 73 
L 7.5 -0.03125 
L 16.296875 -0.03125 
L 16.296875 61.171875 
L 37 -0.03125 
z
" id="Nimbus_Sans_L_Regular-77"/>
      <path d="M 25.40625 52.8125 
L 16.796875 52.8125 
L 16.796875 67 
L 8.5 67 
L 8.5 52.8125 
L 1.40625 52.8125 
L 1.40625 46 
L 8.5 46 
L 8.5 6.3125 
C 8.5 1 12.09375 -2 18.59375 -2 
C 20.59375 -2 22.59375 -1.8125 25.40625 -1.296875 
L 25.40625 5.71875 
C 24.296875 5.40625 23 5.3125 21.40625 5.3125 
C 17.796875 5.3125 16.796875 6.3125 16.796875 10.015625 
L 16.796875 46 
L 25.40625 46 
z
" id="Nimbus_Sans_L_Regular-116"/>
      <path d="M 7 73 
L 7 -0.03125 
L 15.296875 -0.03125 
L 15.296875 28.9375 
C 15.296875 39.671875 20.90625 46.6875 29.5 46.6875 
C 32.203125 46.6875 34.90625 45.78125 36.90625 44.28125 
C 39.296875 42.578125 40.296875 40.0625 40.296875 36.359375 
L 40.296875 -0.03125 
L 48.59375 -0.03125 
L 48.59375 39.65625 
C 48.59375 48.484375 42.296875 54 32.09375 54 
C 24.703125 54 20.203125 51.6875 15.296875 45.28125 
L 15.296875 73 
z
" id="Nimbus_Sans_L_Regular-104"/>
      <path d="M 7 52.484375 
L 7 0 
L 15.40625 0 
L 15.40625 32.953125 
C 15.40625 40.578125 20.90625 46.6875 27.703125 46.6875 
C 33.90625 46.6875 37.40625 42.875 37.40625 36.15625 
L 37.40625 0 
L 45.796875 0 
L 45.796875 32.953125 
C 45.796875 40.578125 51.296875 46.6875 58.09375 46.6875 
C 64.203125 46.6875 67.796875 42.78125 67.796875 36.15625 
L 67.796875 0 
L 76.203125 0 
L 76.203125 39.375 
C 76.203125 48.78125 70.796875 54 61 54 
C 54 54 49.796875 51.890625 44.90625 45.984375 
C 41.796875 51.59375 37.59375 54 30.796875 54 
C 23.796875 54 19.203125 51.390625 14.703125 45.078125 
L 14.703125 52.484375 
z
" id="Nimbus_Sans_L_Regular-109"/>
      <path d="M 5.40625 -22 
L 13.796875 -22 
L 13.796875 5 
C 18.203125 -0.421875 23.09375 -2.8125 29.90625 -2.8125 
C 43.40625 -2.8125 52.296875 8.15625 52.296875 24.984375 
C 52.296875 42.71875 43.703125 53.8125 29.796875 53.8125 
C 22.703125 53.8125 17 50.59375 13.09375 44.390625 
L 13.09375 52.328125 
L 5.40625 52.328125 
z
M 28.40625 46 
C 37.59375 46 43.59375 37.8125 43.59375 25.1875 
C 43.59375 13.171875 37.5 5 28.40625 5 
C 19.59375 5 13.796875 13.078125 13.796875 25.484375 
C 13.796875 37.921875 19.59375 46 28.40625 46 
z
" id="Nimbus_Sans_L_Regular-112"/>
     </defs>
     <g style="fill:#999999;" transform="translate(207.325036 308.635656)scale(0.08 -0.08)">
      <use transform="scale(0.996264)" xlink:href="#Nimbus_Sans_L_Regular-77"/>
      <use transform="translate(82.98843 0)scale(0.996264)" xlink:href="#Nimbus_Sans_L_Regular-101"/>
      <use transform="translate(138.380107 0)scale(0.996264)" xlink:href="#Nimbus_Sans_L_Regular-116"/>
      <use transform="translate(166.075277 0)scale(0.996264)" xlink:href="#Nimbus_Sans_L_Regular-104"/>
      <use transform="translate(221.466954 0)scale(0.996264)" xlink:href="#Nimbus_Sans_L_Regular-97"/>
      <use transform="translate(276.858631 0)scale(0.996264)" xlink:href="#Nimbus_Sans_L_Regular-109"/>
      <use transform="translate(359.847061 0)scale(0.996264)" xlink:href="#Nimbus_Sans_L_Regular-112"/>
      <use transform="translate(415.238738 0)scale(0.996264)" xlink:href="#Nimbus_Sans_L_Regular-104"/>
      <use transform="translate(470.630415 0)scale(0.996264)" xlink:href="#Nimbus_Sans_L_Regular-101"/>
      <use transform="translate(526.022092 0)scale(0.996264)" xlink:href="#Nimbus_Sans_L_Regular-116"/>
      <use transform="translate(553.717261 0)scale(0.996264)" xlink:href="#Nimbus_Sans_L_Regular-97"/>
      <use transform="translate(609.108938 0)scale(0.996264)" xlink:href="#Nimbus_Sans_L_Regular-109"/>
      <use transform="translate(692.097369 0)scale(0.996264)" xlink:href="#Nimbus_Sans_L_Regular-105"/>
      <use transform="translate(714.214153 0)scale(0.996264)" xlink:href="#Nimbus_Sans_L_Regular-110"/>
      <use transform="translate(769.60583 0)scale(0.996264)" xlink:href="#Nimbus_Sans_L_Regular-101"/>
     </g>
    </g>
   </g>
  </g>
 </g>
 <defs>
  <clipPath id="pc581a0b571">
   <rect height="271.8" width="334.8" x="3.572" y="3.572"/>
  </clipPath>
 </defs>
</svg>
