<?xml version="1.0" encoding="UTF-8" standalone="no"?>
<!-- Created with Inkscape (http://www.inkscape.org/) -->

<svg
   xmlns:dc="http://purl.org/dc/elements/1.1/"
   xmlns:cc="http://creativecommons.org/ns#"
   xmlns:rdf="http://www.w3.org/1999/02/22-rdf-syntax-ns#"
   xmlns:svg="http://www.w3.org/2000/svg"
   xmlns="http://www.w3.org/2000/svg"
   xmlns:sodipodi="http://sodipodi.sourceforge.net/DTD/sodipodi-0.dtd"
   xmlns:inkscape="http://www.inkscape.org/namespaces/inkscape"
   width="260"
   height="260"
   viewBox="0 0 260 260"
   id="svg17665"
   version="1.1"
   inkscape:version="0.91 r13725"
   sodipodi:docname="advert-icon.svg">
  <defs
     id="defs17667" />
  <sodipodi:namedview
     id="base"
     pagecolor="#ffffff"
     bordercolor="#666666"
     borderopacity="1.0"
     inkscape:pageopacity="0.0"
     inkscape:pageshadow="2"
     inkscape:zoom="0.98994949"
     inkscape:cx="94.502995"
     inkscape:cy="170.82641"
     inkscape:document-units="px"
     inkscape:current-layer="layer1"
     showgrid="false"
     fit-margin-top="0"
     fit-margin-left="0"
     fit-margin-right="0"
     fit-margin-bottom="0"
     units="px"
     inkscape:window-width="1366"
     inkscape:window-height="745"
     inkscape:window-x="-8"
     inkscape:window-y="-8"
     inkscape:window-maximized="1" />
  <metadata
     id="metadata17670">
    <rdf:RDF>
      <cc:Work
         rdf:about="">
        <dc:format>image/svg+xml</dc:format>
        <dc:type
           rdf:resource="http://purl.org/dc/dcmitype/StillImage" />
        <dc:title></dc:title>
      </cc:Work>
    </rdf:RDF>
  </metadata>
  <g
     inkscape:label="Layer 1"
     inkscape:groupmode="layer"
     id="layer1"
     transform="translate(-152.85712,-645.21912)">
    <circle
       style="fill:#90dfaa"
       cx="282.85712"
       cy="775.21912"
       r="130"
       id="circle8347" />
    <polygon
       style="fill:#d6ced1"
       points="358.333,256 402.376,503.742 446.419,503.742 446.419,8.258 402.376,8.258 "
       id="polygon13745"
       transform="matrix(0.47655873,0,0,0.47655873,160.85725,653.21934)" />
    <polygon
       style="fill:#ece7ea"
       points="120.638,63.312 142.659,8.258 402.381,8.258 402.381,503.742 65.584,503.742 65.584,85.333 "
       id="polygon13747"
       transform="matrix(0.47655873,0,0,0.47655873,160.85725,653.21934)" />
    <polygon
       style="fill:#d6ced1"
       points="142.659,85.333 65.584,85.333 142.659,8.258 "
       id="polygon13749"
       transform="matrix(0.47655873,0,0,0.47655873,160.85725,653.21934)" />
    <rect
       x="218.34692"
       y="814.57306"
       style="fill:#f14742"
       width="43.519341"
       height="41.978153"
       id="rect13751" />
    <path
       d="m 373.60163,653.21934 -5.24739,0 c -2.17405,0 -3.93541,1.76184 -3.93541,3.93542 0,2.17359 1.76136,3.93543 3.93541,3.93543 l 1.31197,0 0,228.25638 -1.31197,0 c -2.17405,0 -3.93541,1.76184 -3.93541,3.93543 0,2.17358 1.76136,3.93542 3.93541,3.93542 l 5.24739,0 c 2.17406,0 3.93542,-1.76184 3.93542,-3.93542 l 0,-236.12724 c 0,-2.17358 -1.76183,-3.93542 -3.93542,-3.93542 z"
       id="path13753"
       inkscape:connector-curvature="0" />
    <path
       d="m 326.37657,726.68135 -108.02776,0 c -2.17406,0 -3.93542,1.76184 -3.93542,3.93543 0,2.17358 1.76136,3.93542 3.93542,3.93542 l 108.02681,0 c 2.17405,0 3.93542,-1.76184 3.93542,-3.93542 0,-2.17359 -1.76137,-3.93543 -3.93447,-3.93543 z"
       id="path13755"
       inkscape:connector-curvature="0" />
    <path
       d="m 326.37657,789.64858 -108.02776,0 c -2.17406,0 -3.93542,1.76183 -3.93542,3.93542 0,2.17358 1.76136,3.93542 3.93542,3.93542 l 108.02681,0 c 2.17405,0 3.93542,-1.76184 3.93542,-3.93542 0,-2.17359 -1.76137,-3.93542 -3.93447,-3.93542 z"
       id="path13757"
       inkscape:connector-curvature="0" />
    <path
       d="m 326.37657,810.63766 -43.51934,0 c -2.17406,0 -3.93542,1.76184 -3.93542,3.93542 0,2.17359 1.76136,3.93542 3.93542,3.93542 l 43.51934,0 c 2.17406,0 3.93542,-1.76183 3.93542,-3.93542 0,-2.17358 -1.76232,-3.93542 -3.93542,-3.93542 z"
       id="path13759"
       inkscape:connector-curvature="0" />
    <path
       d="m 352.61256,653.21934 -123.76945,0 c -0.13154,0 -0.26306,0.007 -0.39316,0.02 -0.0968,0.01 -0.19158,0.0262 -0.28593,0.0429 -0.0314,0.006 -0.0639,0.008 -0.0953,0.0147 -0.11294,0.0224 -0.22303,0.0514 -0.33168,0.0834 -0.0133,0.005 -0.0271,0.007 -0.0405,0.0105 -0.11104,0.0334 -0.2197,0.0739 -0.32692,0.11723 -0.0114,0.005 -0.0229,0.008 -0.0348,0.0124 -0.10247,0.0424 -0.20111,0.0901 -0.2988,0.14107 -0.0162,0.008 -0.0333,0.0153 -0.0496,0.0238 -0.0906,0.0486 -0.17776,0.10294 -0.2645,0.15774 -0.022,0.0143 -0.0452,0.0257 -0.0667,0.0405 -0.081,0.0539 -0.15725,0.11341 -0.23398,0.17299 -0.0252,0.02 -0.0514,0.0367 -0.0763,0.0571 -0.0906,0.0743 -0.17729,0.15392 -0.26116,0.23685 -0.008,0.008 -0.0162,0.0143 -0.0243,0.022 l -36.72981,36.73076 c -0.01,0.01 -0.0172,0.0205 -0.0266,0.03 -0.08,0.0819 -0.15773,0.16632 -0.23065,0.25496 -0.0229,0.0281 -0.0429,0.0586 -0.0658,0.0876 -0.0567,0.0725 -0.11295,0.14535 -0.16441,0.22207 -0.0172,0.0257 -0.0314,0.0529 -0.0481,0.0791 -0.0525,0.0825 -0.10437,0.16536 -0.1506,0.2521 -0.0105,0.0195 -0.0186,0.0395 -0.0282,0.0587 -0.0486,0.0948 -0.0953,0.19062 -0.13677,0.28975 -0.006,0.0138 -0.01,0.0281 -0.0158,0.0424 -0.042,0.10484 -0.0815,0.21111 -0.11437,0.32025 -0.005,0.0138 -0.007,0.0276 -0.011,0.0419 -0.0319,0.10865 -0.061,0.21826 -0.083,0.33073 -0.007,0.031 -0.009,0.0624 -0.0143,0.0934 -0.0167,0.0953 -0.0334,0.19062 -0.0429,0.28783 -0.0133,0.13011 -0.02,0.26116 -0.02,0.39317 l 0,199.39647 c 0,2.17358 1.76136,3.93542 3.93542,3.93542 l 160.49974,0 c 2.17406,0 3.93542,-1.76184 3.93542,-3.93542 l 0,-236.12914 c 0,-2.17358 -1.76183,-3.93542 -3.93542,-3.93542 z m -127.70487,13.4361 0,23.29466 -23.29419,0 23.29419,-23.29466 z m 123.76945,222.69113 -152.62937,0 0,-191.52562 32.79534,0 c 2.17406,0 3.93542,-1.76184 3.93542,-3.93542 l 0,-32.79534 115.89813,0 0,228.25638 4.8e-4,0 z"
       id="path13761"
       inkscape:connector-curvature="0" />
    <path
       d="m 244.58527,697.82095 81.79035,0 c 2.17405,0 3.93542,-1.76184 3.93542,-3.93542 0,-2.17359 -1.76137,-3.93543 -3.93542,-3.93543 l -81.79035,0 c -2.17406,0 -3.93542,1.76184 -3.93542,3.93543 0,2.17358 1.76184,3.93542 3.93542,3.93542 z"
       id="path13763"
       inkscape:connector-curvature="0" />
    <path
       d="m 326.37657,747.67042 -43.51934,0 c -2.17406,0 -3.93542,1.76184 -3.93542,3.93543 0,2.17358 1.76136,3.93542 3.93542,3.93542 l 43.51934,0 c 2.17406,0 3.93542,-1.76184 3.93542,-3.93542 0,-2.17359 -1.76232,-3.93543 -3.93542,-3.93543 z"
       id="path13765"
       inkscape:connector-curvature="0" />
    <path
       d="m 326.37657,768.65951 -43.51934,0 c -2.17406,0 -3.93542,1.76183 -3.93542,3.93542 0,2.17358 1.76136,3.93542 3.93542,3.93542 l 43.51934,0 c 2.17406,0 3.93542,-1.76184 3.93542,-3.93542 0,-2.17359 -1.76232,-3.93542 -3.93542,-3.93542 z"
       id="path13767"
       inkscape:connector-curvature="0" />
    <path
       d="m 261.86815,818.5085 c 2.17406,0 3.93542,-1.76183 3.93542,-3.93542 0,-2.17358 -1.76136,-3.93542 -3.93542,-3.93542 l -43.51934,0 c -2.17406,0 -3.93542,1.76184 -3.93542,3.93542 l 0,41.97815 c 0,2.17359 1.76136,3.93543 3.93542,3.93543 l 43.51934,0 c 2.17406,0 3.93542,-1.76184 3.93542,-3.93543 l 0,-26.23647 c 0,-2.17358 -1.76136,-3.93542 -3.93542,-3.93542 -2.17406,0 -3.93542,1.76184 -3.93542,3.93542 l 0,22.30105 -35.6485,0 0,-34.10731 39.58392,0 z"
       id="path13769"
       inkscape:connector-curvature="0" />
    <path
       d="m 218.34881,776.53035 43.51934,0 c 2.17406,0 3.93542,-1.76184 3.93542,-3.93542 0,-2.17359 -1.76136,-3.93542 -3.93542,-3.93542 l -43.51934,0 c -2.17406,0 -3.93542,1.76183 -3.93542,3.93542 0,2.17358 1.76184,3.93542 3.93542,3.93542 z"
       id="path13771"
       inkscape:connector-curvature="0" />
    <path
       d="m 300.14011,852.61581 -17.28288,0 c -2.17406,0 -3.93542,1.76184 -3.93542,3.93542 0,2.17359 1.76136,3.93543 3.93542,3.93543 l 17.28288,0 c 2.17406,0 3.93542,-1.76184 3.93542,-3.93543 0,-2.17358 -1.76232,-3.93542 -3.93542,-3.93542 z"
       id="path13773"
       inkscape:connector-curvature="0" />
    <path
       d="m 326.37657,831.62673 -43.51934,0 c -2.17406,0 -3.93542,1.76184 -3.93542,3.93542 0,2.17359 1.76136,3.93542 3.93542,3.93542 l 43.51934,0 c 2.17406,0 3.93542,-1.76183 3.93542,-3.93542 0,-2.17358 -1.76232,-3.93542 -3.93542,-3.93542 z"
       id="path13775"
       inkscape:connector-curvature="0" />
    <line
       style="fill:none;stroke:#000000;stroke-width:7.14838076;stroke-linecap:round;stroke-linejoin:round;stroke-miterlimit:10"
       x1="218.34692"
       y1="751.60583"
       x2="261.86816"
       y2="751.60583"
       id="line13777" />
  </g>
</svg>
