<?xml version="1.0" encoding="UTF-8" standalone="no"?>
<!-- Generator: Adobe Illustrator 19.0.0, SVG Export Plug-In . SVG Version: 6.00 Build 0)  -->

<svg
   xmlns:dc="http://purl.org/dc/elements/1.1/"
   xmlns:cc="http://creativecommons.org/ns#"
   xmlns:rdf="http://www.w3.org/1999/02/22-rdf-syntax-ns#"
   xmlns:svg="http://www.w3.org/2000/svg"
   xmlns="http://www.w3.org/2000/svg"
   xmlns:sodipodi="http://sodipodi.sourceforge.net/DTD/sodipodi-0.dtd"
   xmlns:inkscape="http://www.inkscape.org/namespaces/inkscape"
   version="1.1"
   id="Layer_1"
   x="0px"
   y="0px"
   viewBox="0 0 260.00001 260"
   xml:space="preserve"
   inkscape:version="0.91 r13725"
   sodipodi:docname="advert-icon.svg"
   width="260"
   height="260"><metadata
     id="metadata13813"><rdf:RDF><cc:Work
         rdf:about=""><dc:format>image/svg+xml</dc:format><dc:type
           rdf:resource="http://purl.org/dc/dcmitype/StillImage" /><dc:title></dc:title></cc:Work></rdf:RDF></metadata><defs
     id="defs13811" /><sodipodi:namedview
     pagecolor="#ffffff"
     bordercolor="#666666"
     borderopacity="1"
     objecttolerance="10"
     gridtolerance="10"
     guidetolerance="10"
     inkscape:pageopacity="0"
     inkscape:pageshadow="2"
     inkscape:window-width="1366"
     inkscape:window-height="745"
     id="namedview13809"
     showgrid="false"
     fit-margin-top="0"
     fit-margin-left="0"
     fit-margin-right="0"
     fit-margin-bottom="0"
     inkscape:zoom="0.92186961"
     inkscape:cx="147.55035"
     inkscape:cy="138.678"
     inkscape:window-x="-8"
     inkscape:window-y="-8"
     inkscape:window-maximized="1"
     inkscape:current-layer="Layer_1" /><circle
     style="fill:#90dfaa"
     cx="130"
     cy="130"
     r="130"
     id="circle8347" /><polygon
     style="fill:#d6ced1"
     points="446.419,8.258 402.376,8.258 358.333,256 402.376,503.742 446.419,503.742 "
     id="polygon13745"
     transform="matrix(0.50780853,0,0,0.50780853,9.7006836e-5,-1.5258789e-5)" /><polygon
     style="fill:#ece7ea"
     points="65.584,503.742 65.584,85.333 120.638,63.312 142.659,8.258 402.381,8.258 402.381,503.742 "
     id="polygon13747"
     transform="matrix(0.50780853,0,0,0.50780853,9.7006836e-5,-1.5258789e-5)" /><polygon
     style="fill:#d6ced1"
     points="65.584,85.333 142.659,8.258 142.659,85.333 "
     id="polygon13749"
     transform="matrix(0.50780853,0,0,0.50780853,9.7006836e-5,-1.5258789e-5)" /><rect
     x="61.25959"
     y="171.9343"
     style="fill:#f14742"
     width="46.373074"
     height="44.730824"
     id="rect13751" /><path
     d="m 226.69496,-1.5258789e-5 -5.59148,0 c -2.31662,0 -4.19348,1.877369958789 -4.19348,4.193479958789 0,2.31612 1.87686,4.19349 4.19348,4.19349 l 1.398,0 0,243.2240253 -1.398,0 c -2.31662,0 -4.19348,1.87737 -4.19348,4.19349 0,2.31611 1.87686,4.19348 4.19348,4.19348 l 5.59148,0 c 2.31662,0 4.19348,-1.87737 4.19348,-4.19348 l 0,-251.6110053 c 0,-2.31611 -1.87736,-4.193479958789 -4.19348,-4.193479958789 z"
     id="path13753"
     inkscape:connector-curvature="0" /><path
     d="m 176.37317,78.279177 -115.111563,0 c -2.31662,0 -4.19348,1.87737 -4.19348,4.19349 0,2.31611 1.87686,4.19348 4.19348,4.19348 l 115.110543,0 c 2.31662,0 4.19348,-1.87737 4.19348,-4.19348 0,-2.31612 -1.87686,-4.19349 -4.19246,-4.19349 z"
     id="path13755"
     inkscape:connector-curvature="0" /><path
     d="m 176.37317,145.37541 -115.111563,0 c -2.31662,0 -4.19348,1.87736 -4.19348,4.19348 0,2.31611 1.87686,4.19348 4.19348,4.19348 l 115.110543,0 c 2.31662,0 4.19348,-1.87737 4.19348,-4.19348 0,-2.31612 -1.87686,-4.19348 -4.19246,-4.19348 z"
     id="path13757"
     inkscape:connector-curvature="0" /><path
     d="m 176.37317,167.74082 -46.37308,0 c -2.31662,0 -4.19348,1.87737 -4.19348,4.19348 0,2.31612 1.87686,4.19348 4.19348,4.19348 l 46.37308,0 c 2.31662,0 4.19348,-1.87736 4.19348,-4.19348 0,-2.31611 -1.87788,-4.19348 -4.19348,-4.19348 z"
     id="path13759"
     inkscape:connector-curvature="0" /><path
     d="m 204.32955,-1.5258789e-5 -131.885493,0 c -0.14016,0 -0.28031,0.0069999988 -0.41894,0.02129999879 -0.10309,0.0107 -0.20414,0.0279 -0.30468,0.0457 -0.0335,0.006 -0.0681,0.009 -0.10157,0.0157 -0.12035,0.0239 -0.23765,0.0548 -0.35343,0.0889 -0.0142,0.005 -0.0289,0.007 -0.0432,0.0112 -0.11832,0.0356 -0.2341,0.0787 -0.34836,0.12492 -0.0122,0.005 -0.0244,0.009 -0.0371,0.0132 -0.10918,0.0452 -0.21429,0.096 -0.31839,0.15032 -0.0173,0.009 -0.0355,0.0163 -0.0528,0.0254 -0.0965,0.0518 -0.18942,0.10968 -0.28184,0.16808 -0.0234,0.0152 -0.0482,0.0274 -0.0711,0.0432 -0.0863,0.0574 -0.16757,0.12085 -0.24933,0.18433 -0.0269,0.0213 -0.0548,0.0391 -0.0813,0.0609 -0.0965,0.0792 -0.18891,0.16401996 -0.27828,0.25237996 -0.009,0.009 -0.0173,0.0152 -0.0259,0.0234 L 30.339507,40.368255 c -0.0102,0.0102 -0.0183,0.0218 -0.0284,0.032 -0.0853,0.0873 -0.16808,0.17723 -0.24578,0.27168 -0.0244,0.03 -0.0457,0.0625 -0.0701,0.0934 -0.0604,0.0772 -0.12035,0.15488 -0.17519,0.23663 -0.0183,0.0274 -0.0335,0.0564 -0.0513,0.0843 -0.0559,0.0879 -0.11121,0.17621 -0.16047,0.26863 -0.0112,0.0208 -0.0198,0.0421 -0.03,0.0625 -0.0518,0.10106 -0.10156,0.20313 -0.14574,0.30875 -0.006,0.0147 -0.0107,0.03 -0.0168,0.0452 -0.0447,0.11172 -0.0868,0.22496 -0.12187,0.34125 -0.005,0.0147 -0.007,0.0294 -0.0117,0.0447 -0.034,0.11578 -0.065,0.23258 -0.0884,0.35242 -0.007,0.033 -0.01,0.0665 -0.0152,0.0995 -0.0178,0.10156 -0.0356,0.20312 -0.0457,0.30671 -0.0142,0.13864 -0.0213,0.27828 -0.0213,0.41895 l 0,212.471655 c 0,2.31611 1.87686,4.19348 4.19348,4.19348 l 171.024333,0 c 2.31662,0 4.19348,-1.87737 4.19348,-4.19348 l 0,-251.6130353 c 0,-2.31611 -1.87736,-4.193479958789 -4.19348,-4.193479958789 z M 68.250577,14.317135 l 0,24.82219 -24.82168,0 24.82168,-24.82219 z m 131.885493,237.293845 -162.637873,0 0,-204.084685 34.94586,0 c 2.31662,0 4.19348,-1.87737 4.19348,-4.19348 l 0,-34.9458603 123.498023,0 0,243.2240253 5.1e-4,0 z"
     id="path13761"
     inkscape:connector-curvature="0" /><path
     d="m 89.218497,47.526295 87.153653,0 c 2.31662,0 4.19348,-1.87737 4.19348,-4.19348 0,-2.31612 -1.87686,-4.19349 -4.19348,-4.19349 l -87.153653,0 c -2.31663,0 -4.19349,1.87737 -4.19349,4.19349 0,2.31611 1.87737,4.19348 4.19349,4.19348 z"
     id="path13763"
     inkscape:connector-curvature="0" /><path
     d="m 176.37317,100.64458 -46.37308,0 c -2.31662,0 -4.19348,1.87737 -4.19348,4.19349 0,2.31611 1.87686,4.19348 4.19348,4.19348 l 46.37308,0 c 2.31662,0 4.19348,-1.87737 4.19348,-4.19348 0,-2.31612 -1.87788,-4.19349 -4.19348,-4.19349 z"
     id="path13765"
     inkscape:connector-curvature="0" /><path
     d="m 176.37317,123.01 -46.37308,0 c -2.31662,0 -4.19348,1.87736 -4.19348,4.19348 0,2.31611 1.87686,4.19348 4.19348,4.19348 l 46.37308,0 c 2.31662,0 4.19348,-1.87737 4.19348,-4.19348 0,-2.31612 -1.87788,-4.19348 -4.19348,-4.19348 z"
     id="path13767"
     inkscape:connector-curvature="0" /><path
     d="m 107.63468,176.12778 c 2.31662,0 4.19348,-1.87736 4.19348,-4.19348 0,-2.31611 -1.87686,-4.19348 -4.19348,-4.19348 l -46.373073,0 c -2.31662,0 -4.19348,1.87737 -4.19348,4.19348 l 0,44.73082 c 0,2.31612 1.87686,4.19349 4.19348,4.19349 l 46.373073,0 c 2.31662,0 4.19348,-1.87737 4.19348,-4.19349 l 0,-27.95689 c 0,-2.31611 -1.87686,-4.19348 -4.19348,-4.19348 -2.31662,0 -4.19348,1.87737 -4.19348,4.19348 l 0,23.76341 -37.986113,0 0,-36.34386 42.179593,0 z"
     id="path13769"
     inkscape:connector-curvature="0" /><path
     d="m 61.261607,131.39696 46.373073,0 c 2.31662,0 4.19348,-1.87737 4.19348,-4.19348 0,-2.31612 -1.87686,-4.19348 -4.19348,-4.19348 l -46.373073,0 c -2.31662,0 -4.19348,1.87736 -4.19348,4.19348 0,2.31611 1.87737,4.19348 4.19348,4.19348 z"
     id="path13771"
     inkscape:connector-curvature="0" /><path
     d="m 148.41628,212.47164 -18.41619,0 c -2.31662,0 -4.19348,1.87737 -4.19348,4.19348 0,2.31612 1.87686,4.19349 4.19348,4.19349 l 18.41619,0 c 2.31662,0 4.19348,-1.87737 4.19348,-4.19349 0,-2.31611 -1.87788,-4.19348 -4.19348,-4.19348 z"
     id="path13773"
     inkscape:connector-curvature="0" /><path
     d="m 176.37317,190.10623 -46.37308,0 c -2.31662,0 -4.19348,1.87737 -4.19348,4.19348 0,2.31612 1.87686,4.19348 4.19348,4.19348 l 46.37308,0 c 2.31662,0 4.19348,-1.87736 4.19348,-4.19348 0,-2.31611 -1.87788,-4.19348 -4.19348,-4.19348 z"
     id="path13775"
     inkscape:connector-curvature="0" /><line
     style="fill:none;stroke:#000000;stroke-width:7.6171279;stroke-linecap:round;stroke-linejoin:round;stroke-miterlimit:10"
     x1="61.25959"
     y1="104.83804"
     x2="107.63468"
     y2="104.83804"
     id="line13777" /><g
     id="g13779"
     transform="translate(377.48103,-264.84974)" /><g
     id="g13781"
     transform="translate(377.48103,-264.84974)" /><g
     id="g13783"
     transform="translate(377.48103,-264.84974)" /><g
     id="g13785"
     transform="translate(377.48103,-264.84974)" /><g
     id="g13787"
     transform="translate(377.48103,-264.84974)" /><g
     id="g13789"
     transform="translate(377.48103,-264.84974)" /><g
     id="g13791"
     transform="translate(377.48103,-264.84974)" /><g
     id="g13793"
     transform="translate(377.48103,-264.84974)" /><g
     id="g13795"
     transform="translate(377.48103,-264.84974)" /><g
     id="g13797"
     transform="translate(377.48103,-264.84974)" /><g
     id="g13799"
     transform="translate(377.48103,-264.84974)" /><g
     id="g13801"
     transform="translate(377.48103,-264.84974)" /><g
     id="g13803"
     transform="translate(377.48103,-264.84974)" /><g
     id="g13805"
     transform="translate(377.48103,-264.84974)" /><g
     id="g13807"
     transform="translate(377.48103,-264.84974)" /></svg>