<?xml version="1.0" encoding="UTF-8" standalone="no"?>
<!-- Generator: Adobe Illustrator 19.0.0, SVG Export Plug-In . SVG Version: 6.00 Build 0)  -->

<svg
   xmlns:dc="http://purl.org/dc/elements/1.1/"
   xmlns:cc="http://creativecommons.org/ns#"
   xmlns:rdf="http://www.w3.org/1999/02/22-rdf-syntax-ns#"
   xmlns:svg="http://www.w3.org/2000/svg"
   xmlns="http://www.w3.org/2000/svg"
   xmlns:sodipodi="http://sodipodi.sourceforge.net/DTD/sodipodi-0.dtd"
   xmlns:inkscape="http://www.inkscape.org/namespaces/inkscape"
   version="1.1"
   id="Layer_1"
   x="0px"
   y="0px"
   viewBox="0 0 260 260"
   xml:space="preserve"
   inkscape:version="0.91 r13725"
   sodipodi:docname="advertisement-icon.svg"
   width="260"
   height="260"><metadata
     id="metadata8457"><rdf:RDF><cc:Work
         rdf:about=""><dc:format>image/svg+xml</dc:format><dc:type
           rdf:resource="http://purl.org/dc/dcmitype/StillImage" /><dc:title></dc:title></cc:Work></rdf:RDF></metadata><defs
     id="defs8455" /><sodipodi:namedview
     pagecolor="#ffffff"
     bordercolor="#666666"
     borderopacity="1"
     objecttolerance="10"
     gridtolerance="10"
     guidetolerance="10"
     inkscape:pageopacity="0"
     inkscape:pageshadow="2"
     inkscape:window-width="1366"
     inkscape:window-height="745"
     id="namedview8453"
     showgrid="false"
     fit-margin-top="0"
     fit-margin-left="0"
     fit-margin-right="0"
     fit-margin-bottom="0"
     inkscape:zoom="1.8582677"
     inkscape:cx="93.595341"
     inkscape:cy="123.54238"
     inkscape:window-x="-8"
     inkscape:window-y="-8"
     inkscape:window-maximized="1"
     inkscape:current-layer="Layer_1" /><circle
     style="fill:#90dfaa"
     cx="130"
     cy="130"
     r="130"
     id="circle8347" /><g
     id="g8423"
     transform="translate(1.3855932,-246.69491)" /><g
     id="g8425"
     transform="translate(1.3855932,-246.69491)" /><g
     id="g8427"
     transform="translate(1.3855932,-246.69491)" /><g
     id="g8429"
     transform="translate(1.3855932,-246.69491)" /><g
     id="g8431"
     transform="translate(1.3855932,-246.69491)" /><g
     id="g8433"
     transform="translate(1.3855932,-246.69491)" /><g
     id="g8435"
     transform="translate(1.3855932,-246.69491)" /><g
     id="g8437"
     transform="translate(1.3855932,-246.69491)" /><g
     id="g8439"
     transform="translate(1.3855932,-246.69491)" /><g
     id="g8441"
     transform="translate(1.3855932,-246.69491)" /><g
     id="g8443"
     transform="translate(1.3855932,-246.69491)" /><g
     id="g8445"
     transform="translate(1.3855932,-246.69491)" /><g
     id="g8447"
     transform="translate(1.3855932,-246.69491)" /><g
     id="g8449"
     transform="translate(1.3855932,-246.69491)" /><g
     id="g8451"
     transform="translate(1.3855932,-246.69491)" /><polygon
     style="fill:#d6ced1"
     points="446.419,503.742 446.419,8.258 402.376,8.258 358.333,256 402.376,503.742 "
     id="polygon13745"
     transform="matrix(0.47655873,0,0,0.47655873,8.0001042,8)" /><polygon
     style="fill:#ece7ea"
     points="65.584,85.333 120.638,63.312 142.659,8.258 402.381,8.258 402.381,503.742 65.584,503.742 "
     id="polygon13747"
     transform="matrix(0.47655873,0,0,0.47655873,8.0001042,8)" /><polygon
     style="fill:#d6ced1"
     points="142.659,8.258 142.659,85.333 65.584,85.333 "
     id="polygon13749"
     transform="matrix(0.47655873,0,0,0.47655873,8.0001042,8)" /><rect
     x="65.489777"
     y="169.35371"
     style="fill:#f14742"
     width="43.519341"
     height="41.978153"
     id="rect13751" /><path
     d="m 220.74449,8 -5.24739,0 c -2.17405,0 -3.93541,1.761839 -3.93541,3.935419 0,2.17359 1.76136,3.935429 3.93541,3.935429 l 1.31197,0 0,228.256382 -1.31197,0 c -2.17405,0 -3.93541,1.76184 -3.93541,3.93543 0,2.17358 1.76136,3.93542 3.93541,3.93542 l 5.24739,0 c 2.17406,0 3.93542,-1.76184 3.93542,-3.93542 l 0,-236.127241 C 224.67991,9.761839 222.91808,8 220.74449,8 Z"
     id="path13753"
     inkscape:connector-curvature="0" /><path
     d="m 173.51943,81.462003 -108.027761,0 c -2.174058,0 -3.935419,1.76184 -3.935419,3.93543 0,2.17358 1.761361,3.93542 3.935419,3.93542 l 108.026811,0 c 2.17405,0 3.93542,-1.76184 3.93542,-3.93542 0,-2.17359 -1.76137,-3.93543 -3.93447,-3.93543 z"
     id="path13755"
     inkscape:connector-curvature="0" /><path
     d="m 173.51943,144.42924 -108.027761,0 c -2.174058,0 -3.935419,1.76183 -3.935419,3.93542 0,2.17358 1.761361,3.93542 3.935419,3.93542 l 108.026811,0 c 2.17405,0 3.93542,-1.76184 3.93542,-3.93542 0,-2.17359 -1.76137,-3.93542 -3.93447,-3.93542 z"
     id="path13757"
     inkscape:connector-curvature="0" /><path
     d="m 173.51943,165.41832 -43.51934,0 c -2.17406,0 -3.93542,1.76184 -3.93542,3.93542 0,2.17359 1.76136,3.93542 3.93542,3.93542 l 43.51934,0 c 2.17406,0 3.93542,-1.76183 3.93542,-3.93542 0,-2.17358 -1.76232,-3.93542 -3.93542,-3.93542 z"
     id="path13759"
     inkscape:connector-curvature="0" /><path
     d="M 199.75542,8 75.985968,8 c -0.131535,0 -0.26306,0.0066 -0.393159,0.01999 -0.09675,0.01004 -0.191578,0.02618 -0.285931,0.04289 -0.03144,0.0056 -0.06391,0.0084 -0.09532,0.01473 -0.112944,0.02243 -0.223026,0.05143 -0.331681,0.08343 -0.01333,0.0047 -0.02712,0.0066 -0.04054,0.01051 -0.111039,0.03341 -0.219694,0.07386 -0.326923,0.117232 -0.01145,0.0047 -0.0229,0.0084 -0.03482,0.01239 -0.102461,0.04242 -0.201103,0.09009 -0.298796,0.14107 -0.01624,0.0084 -0.03332,0.0153 -0.04955,0.02384 -0.09056,0.04861 -0.177764,0.102931 -0.264496,0.157737 -0.02196,0.01427 -0.04523,0.02571 -0.06672,0.04054 -0.08099,0.05387 -0.157258,0.113413 -0.233986,0.172986 -0.02524,0.01999 -0.05143,0.03669 -0.0763,0.05715 -0.09056,0.07433 -0.177285,0.153926 -0.261155,0.236848 -0.0084,0.0084 -0.01624,0.01426 -0.02431,0.02196 l -36.72981,36.730762 c -0.0096,0.0096 -0.01717,0.02046 -0.02665,0.03003 -0.08005,0.08193 -0.157736,0.166324 -0.230655,0.254961 -0.0229,0.02815 -0.04289,0.05865 -0.06579,0.08765 -0.05668,0.07245 -0.112944,0.145349 -0.164409,0.222068 -0.01717,0.02571 -0.03144,0.05293 -0.04814,0.07911 -0.05246,0.08249 -0.104366,0.165366 -0.150595,0.252099 -0.01051,0.01952 -0.01858,0.03951 -0.02815,0.05865 -0.04861,0.09484 -0.09531,0.190629 -0.136771,0.28975 -0.0056,0.0138 -0.01004,0.02815 -0.01577,0.04242 -0.04195,0.104845 -0.08146,0.211116 -0.11437,0.32025 -0.0047,0.0138 -0.0066,0.02759 -0.01098,0.04195 -0.03191,0.108655 -0.061,0.218268 -0.08296,0.330733 -0.0066,0.03097 -0.0094,0.06241 -0.01426,0.09338 -0.01671,0.09531 -0.03341,0.19062 -0.04289,0.287835 -0.01333,0.130109 -0.01999,0.261155 -0.01999,0.393169 l 0,199.39647 c 0,2.17358 1.761361,3.93542 3.935419,3.93542 l 160.49974,0 c 2.17406,0 3.93542,-1.76184 3.93542,-3.93542 l 0,-236.129147 c 0,-2.17358 -1.76183,-3.935419 -3.93542,-3.935419 z m -127.704872,13.436094 0,23.294668 -23.294189,0 23.294189,-23.294668 z M 195.82,244.12723 l -152.629375,0 0,-191.52562 32.795343,0 c 2.174058,0 3.935419,-1.761839 3.935419,-3.935419 l 0,-32.795343 115.898133,0 0,228.256382 4.8e-4,0 z"
     id="path13761"
     inkscape:connector-curvature="0" /><path
     d="m 91.728132,52.60161 81.790348,0 c 2.17405,0 3.93542,-1.761839 3.93542,-3.935419 0,-2.17359 -1.76137,-3.935429 -3.93542,-3.935429 l -81.790348,0 c -2.174067,0 -3.935428,1.761839 -3.935428,3.935429 0,2.17358 1.76184,3.935419 3.935428,3.935419 z"
     id="path13763"
     inkscape:connector-curvature="0" /><path
     d="m 173.51943,102.45108 -43.51934,0 c -2.17406,0 -3.93542,1.76184 -3.93542,3.93543 0,2.17358 1.76136,3.93542 3.93542,3.93542 l 43.51934,0 c 2.17406,0 3.93542,-1.76184 3.93542,-3.93542 0,-2.17359 -1.76232,-3.93543 -3.93542,-3.93543 z"
     id="path13765"
     inkscape:connector-curvature="0" /><path
     d="m 173.51943,123.44017 -43.51934,0 c -2.17406,0 -3.93542,1.76183 -3.93542,3.93542 0,2.17358 1.76136,3.93542 3.93542,3.93542 l 43.51934,0 c 2.17406,0 3.93542,-1.76184 3.93542,-3.93542 0,-2.17359 -1.76232,-3.93542 -3.93542,-3.93542 z"
     id="path13767"
     inkscape:connector-curvature="0" /><path
     d="m 109.01101,173.28916 c 2.17406,0 3.93542,-1.76183 3.93542,-3.93542 0,-2.17358 -1.76136,-3.93542 -3.93542,-3.93542 l -43.519341,0 c -2.174058,0 -3.935419,1.76184 -3.935419,3.93542 l 0,41.97815 c 0,2.17359 1.761361,3.93543 3.935419,3.93543 l 43.519341,0 c 2.17406,0 3.93542,-1.76184 3.93542,-3.93543 l 0,-26.23647 c 0,-2.17358 -1.76136,-3.93542 -3.93542,-3.93542 -2.17406,0 -3.93542,1.76184 -3.93542,3.93542 l 0,22.30105 -35.648501,0 0,-34.10731 39.583921,0 z"
     id="path13769"
     inkscape:connector-curvature="0" /><path
     d="m 65.491669,131.31101 43.519341,0 c 2.17406,0 3.93542,-1.76184 3.93542,-3.93542 0,-2.17359 -1.76136,-3.93542 -3.93542,-3.93542 l -43.519341,0 c -2.174058,0 -3.935419,1.76183 -3.935419,3.93542 0,2.17358 1.76184,3.93542 3.935419,3.93542 z"
     id="path13771"
     inkscape:connector-curvature="0" /><path
     d="m 147.28297,207.39647 -17.28288,0 c -2.17406,0 -3.93542,1.76184 -3.93542,3.93542 0,2.17359 1.76136,3.93543 3.93542,3.93543 l 17.28288,0 c 2.17406,0 3.93542,-1.76184 3.93542,-3.93543 0,-2.17358 -1.76232,-3.93542 -3.93542,-3.93542 z"
     id="path13773"
     inkscape:connector-curvature="0" /><path
     d="m 173.51943,186.40739 -43.51934,0 c -2.17406,0 -3.93542,1.76184 -3.93542,3.93542 0,2.17359 1.76136,3.93542 3.93542,3.93542 l 43.51934,0 c 2.17406,0 3.93542,-1.76183 3.93542,-3.93542 0,-2.17358 -1.76232,-3.93542 -3.93542,-3.93542 z"
     id="path13775"
     inkscape:connector-curvature="0" /><line
     style="fill:none;stroke:#000000;stroke-width:7.14838076;stroke-linecap:round;stroke-linejoin:round;stroke-miterlimit:10"
     x1="65.489777"
     y1="106.38647"
     x2="109.01101"
     y2="106.38647"
     id="line13777" /></svg>