<?xml version="1.0" encoding="UTF-8" standalone="no"?>
<!-- Generator: Adobe Illustrator 19.0.0, SVG Export Plug-In . SVG Version: 6.00 Build 0)  -->

<svg
   xmlns:dc="http://purl.org/dc/elements/1.1/"
   xmlns:cc="http://creativecommons.org/ns#"
   xmlns:rdf="http://www.w3.org/1999/02/22-rdf-syntax-ns#"
   xmlns:svg="http://www.w3.org/2000/svg"
   xmlns="http://www.w3.org/2000/svg"
   xmlns:sodipodi="http://sodipodi.sourceforge.net/DTD/sodipodi-0.dtd"
   xmlns:inkscape="http://www.inkscape.org/namespaces/inkscape"
   version="1.1"
   id="Layer_1"
   x="0px"
   y="0px"
   viewBox="0 0 260.00001 260.00001"
   xml:space="preserve"
   inkscape:version="0.91 r13725"
   sodipodi:docname="consumer-analytics-icon.svg"
   width="260"
   height="260"><metadata
     id="metadata5710"><rdf:RDF><cc:Work
         rdf:about=""><dc:format>image/svg+xml</dc:format><dc:type
           rdf:resource="http://purl.org/dc/dcmitype/StillImage" /><dc:title></dc:title></cc:Work></rdf:RDF></metadata><defs
     id="defs5708" /><sodipodi:namedview
     pagecolor="#ffffff"
     bordercolor="#666666"
     borderopacity="1"
     objecttolerance="10"
     gridtolerance="10"
     guidetolerance="10"
     inkscape:pageopacity="0"
     inkscape:pageshadow="2"
     inkscape:window-width="1366"
     inkscape:window-height="745"
     id="namedview5706"
     showgrid="false"
     fit-margin-top="0"
     fit-margin-left="0"
     fit-margin-right="0"
     fit-margin-bottom="0"
     inkscape:zoom="1.920573"
     inkscape:cx="158.61568"
     inkscape:cy="133.71599"
     inkscape:window-x="-8"
     inkscape:window-y="-8"
     inkscape:window-maximized="1"
     inkscape:current-layer="Layer_1" /><circle
     style="fill:#2d004f;fill-opacity:0.54901963"
     cx="130"
     cy="130"
     r="130"
     id="circle5029" /><polygon
     style="fill:#ebf0f3"
     points="491.52,102.234 387.243,0 117.342,0 117.342,491.52 491.52,491.52 "
     id="polygon5624"
     transform="matrix(0.447587,0,0,0.447587,23.847847,8.3496631)" /><polygon
     style="fill:#d5d6db"
     points="387.243,102.234 491.52,102.234 387.243,0 "
     id="polygon5626"
     transform="matrix(0.447587,0,0,0.447587,23.847847,8.3496631)" /><polygon
     style="fill:#e1e6e9"
     points="491.52,102.234 387.243,102.234 491.52,173.099 "
     id="polygon5628"
     transform="matrix(0.447587,0,0,0.447587,23.847847,8.3496631)" /><g
     id="g5630"
     transform="matrix(0.447587,0,0,0.447587,23.847847,8.3496631)"><rect
       x="165.79601"
       y="224.952"
       style="fill:#d5d6db"
       width="277.24799"
       height="13.404"
       id="rect5632" /><rect
       x="165.79601"
       y="277.70901"
       style="fill:#d5d6db"
       width="277.24799"
       height="13.404"
       id="rect5634" /><rect
       x="165.79601"
       y="330.44501"
       style="fill:#d5d6db"
       width="277.24799"
       height="13.404"
       id="rect5636" /><rect
       x="165.79601"
       y="383.20099"
       style="fill:#d5d6db"
       width="277.24799"
       height="13.404"
       id="rect5638" /><rect
       x="165.79601"
       y="435.96799"
       style="fill:#d5d6db"
       width="277.24799"
       height="13.404"
       id="rect5640" /></g><rect
     x="98.055984"
     y="84.661407"
     style="fill:#f6c358"
     width="15.686132"
     height="5.5411267"
     id="rect5642" /><rect
     x="98.055984"
     y="40.334259"
     style="fill:#fcd462"
     width="15.686132"
     height="44.329464"
     id="rect5644" /><rect
     x="120.94469"
     y="84.661407"
     style="fill:#3ea69b"
     width="15.686132"
     height="5.5411267"
     id="rect5646" /><rect
     x="120.94469"
     y="20.777313"
     style="fill:#44c4a1"
     width="15.686132"
     height="63.886326"
     id="rect5648" /><rect
     x="143.86115"
     y="84.661407"
     style="fill:#d15241"
     width="15.686132"
     height="5.5411267"
     id="rect5650" /><rect
     x="143.86115"
     y="50.11264"
     style="fill:#e56353"
     width="15.686132"
     height="34.558189"
     id="rect5652" /><rect
     x="166.75476"
     y="84.661407"
     style="fill:#2d93ba"
     width="15.686132"
     height="5.5411267"
     id="rect5654" /><rect
     x="166.75476"
     y="33.163452"
     style="fill:#27a2db"
     width="15.686132"
     height="51.500256"
     id="rect5656" /><path
     style="fill:#64798a"
     d="m 102.53767,194.06245 0,-65.16687 c 0,-0.78149 -0.13204,-1.55939 -0.39478,-2.29657 -2.166311,-6.08628 -7.408452,-6.82033 -7.408452,-6.82033 0.670484,-3.40658 -0.396565,-5.34285 -1.631008,-6.42736 -0.995436,-0.87458 -2.310894,-1.31725 -3.647385,-1.31725 l -22.647903,0 c -13.005982,0 -23.646468,10.43282 -23.646468,23.18367 l 0,58.84471"
     id="path5658"
     inkscape:connector-curvature="0" /><path
     style="fill:#f6c358"
     d="m 90.227234,182.37551 c -1.32575,-1.4578 -2.022646,-3.36318 -2.022646,-5.31599 l 0,-1.55626 c -0.188881,0.23453 -0.35941,0.50085 -0.552769,0.72643 -4.132569,4.83796 -9.240433,7.73699 -14.791854,7.73699 -5.559925,0 -10.674502,-2.90798 -14.810653,-7.75893 -0.19291,-0.22603 -0.363887,-0.49324 -0.552322,-0.72777 l 0,1.57954 c 0,1.95281 -0.697341,3.85819 -2.022646,5.31599 -0.607376,0.6687 -1.392891,1.38126 -2.375344,2.06786 0.09578,0.10609 0.28556,0.31778 0.622593,0.72016 1.016471,1.21071 3.058363,3.83044 5.520986,7.91288 4.224326,1.60506 8.803589,2.50739 13.606644,2.50739 4.802162,0 9.381424,-0.9019 13.605302,-2.50739 2.46352,-4.08333 4.505858,-6.7026 5.521881,-7.91333 0.337482,-0.40193 0.527258,-0.61363 0.622592,-0.71927 -0.97932,-0.68751 -1.764834,-1.3996 -2.371764,-2.0683 z"
     id="path5660"
     inkscape:connector-curvature="0" /><path
     style="fill:#fcd462"
     d="m 72.859965,184.33951 c 5.551421,0 10.659285,-2.899 14.791854,-7.73698 0.193359,-0.22557 0.363888,-0.4919 0.552769,-0.72644 5.737171,-7.12915 9.453932,-18.08922 9.453932,-30.46903 -0.659295,-5.00805 -5.27257,-8.07759 -5.27257,-8.07759 l -14.829454,-4.84605 c -1.886579,1.5406 -4.334433,2.49352 -6.379457,3.06867 -1.932233,0.54382 -3.933843,0.80789 -5.944403,0.80789 l -7.943774,0 c -8.73287,0.80744 -9.227006,9.04663 -9.227006,9.04663 0,12.36549 3.708258,23.3157 9.435134,30.44577 0.188435,0.23453 0.359412,0.50174 0.552322,0.72776 4.135704,4.8514 9.25028,7.75937 14.810653,7.75937 z"
     id="path5662"
     inkscape:connector-curvature="0" /><path
     style="fill:#44c4a1"
     d="m 62.257524,199.03783 c 3.68409,7.05933 7.681042,16.74064 10.591253,29.30576 2.917372,-12.59645 6.926856,-22.29565 10.619,-29.35993 -3.401212,0.82625 -6.945207,1.31054 -10.618554,1.31054 -3.657232,-4.5e-4 -7.201674,-0.44265 -10.591699,-1.25637 z"
     id="path5664"
     inkscape:connector-curvature="0" /><path
     style="fill:#31978c"
     d="m 58.437371,192.86292 c 1.098825,1.82079 2.274635,3.92981 3.486702,6.31456 3.496997,0.8616 7.152888,1.33023 10.92515,1.33023 3.789272,0 7.444715,-0.51249 10.95335,-1.38798 1.201324,-2.36102 2.367288,-4.45035 3.457611,-6.25681 -4.474082,1.70038 -9.324134,2.65552 -14.410513,2.65552 -5.087722,0 -9.937773,-0.95558 -14.4123,-2.65552 z"
     id="path5666"
     inkscape:connector-curvature="0" /><path
     style="fill:#3a556a"
     d="m 52.300953,185.16039 -8.585614,4.5457 -11.33917,6.00348 c 0,0 -8.528322,5.22603 -8.528322,13.41284 l 0,19.2252 49.000034,0 4.48e-4,-0.003"
     id="path5668"
     inkscape:connector-curvature="0" /><path
     style="fill:#ebf0f3"
     d="m 62.534582,199.03783 c -1.14448,-2.25136 -2.254496,-4.24222 -3.292003,-5.96142 -2.462623,-4.08244 -4.504963,-6.70171 -5.520986,-7.91288 -0.337033,-0.40194 -0.527256,-0.61408 -0.622593,-0.72016 -0.03134,-0.0344 -0.798047,0.71658 -0.798047,0.71658 l -3.98263,4.64326 c -0.805209,0.9386 -0.76985,2.31896 0.08146,3.21726 l 9.383662,9.89616 -1.56745,-0.0358 c -2.137229,-0.0484 -3.330047,2.40176 -1.946556,4.00008 l 18.578888,21.46448 8.65e-4,-0.003 C 70.015077,215.77797 66.122413,206.09712 62.534556,199.03733 Z"
     id="path5670"
     inkscape:connector-curvature="0" /><path
     style="fill:#3a556a"
     d="m 72.847881,228.34761 0.0017,0 49.000029,0 0,-19.2252 c 0,-8.18681 -8.52787,-13.41284 -8.52787,-13.41284 l -11.33917,-6.00348 -8.586058,-4.5457"
     id="path5672"
     inkscape:connector-curvature="0" /><path
     style="fill:#ebf0f3"
     d="m 89.482008,202.88125 -1.567454,0.0357 9.383662,-9.89616 c 0.852203,-0.89832 0.886672,-2.27822 0.08146,-3.21724 l -3.982631,-4.64325 c 0,0 -0.765821,-0.75105 -0.797152,-0.71659 -0.09578,0.10564 -0.285109,0.31736 -0.622589,0.71928 -1.016024,1.21072 -3.058364,3.83046 -5.521883,7.91335 -1.029003,1.70573 -2.130067,3.67782 -3.264253,5.90725 -3.595465,7.06427 -7.500214,16.76392 -10.341498,29.35992 l -8.64e-4,0.003 -4.47e-4,0.003 18.581129,-21.46627 c 1.382593,-1.59788 0.190221,-4.04842 -1.94745,-4.00009 z"
     id="path5674"
     inkscape:connector-curvature="0" /><g
     id="g5676"
     transform="matrix(0.72457628,0,0,0.72457628,23.847847,-127.79631)" /><g
     id="g5678"
     transform="matrix(0.72457628,0,0,0.72457628,23.847847,-127.79631)" /><g
     id="g5680"
     transform="matrix(0.72457628,0,0,0.72457628,23.847847,-127.79631)" /><g
     id="g5682"
     transform="matrix(0.72457628,0,0,0.72457628,23.847847,-127.79631)" /><g
     id="g5684"
     transform="matrix(0.72457628,0,0,0.72457628,23.847847,-127.79631)" /><g
     id="g5686"
     transform="matrix(0.72457628,0,0,0.72457628,23.847847,-127.79631)" /><g
     id="g5688"
     transform="matrix(0.72457628,0,0,0.72457628,23.847847,-127.79631)" /><g
     id="g5690"
     transform="matrix(0.72457628,0,0,0.72457628,23.847847,-127.79631)" /><g
     id="g5692"
     transform="matrix(0.72457628,0,0,0.72457628,23.847847,-127.79631)" /><g
     id="g5694"
     transform="matrix(0.72457628,0,0,0.72457628,23.847847,-127.79631)" /><g
     id="g5696"
     transform="matrix(0.72457628,0,0,0.72457628,23.847847,-127.79631)" /><g
     id="g5698"
     transform="matrix(0.72457628,0,0,0.72457628,23.847847,-127.79631)" /><g
     id="g5700"
     transform="matrix(0.72457628,0,0,0.72457628,23.847847,-127.79631)" /><g
     id="g5702"
     transform="matrix(0.72457628,0,0,0.72457628,23.847847,-127.79631)" /><g
     id="g5704"
     transform="matrix(0.72457628,0,0,0.72457628,23.847847,-127.79631)" /></svg>