<?xml version="1.0" encoding="UTF-8" standalone="no"?>
<!-- Generator: Adobe Illustrator 19.0.0, SVG Export Plug-In . SVG Version: 6.00 Build 0)  -->

<svg
   xmlns:dc="http://purl.org/dc/elements/1.1/"
   xmlns:cc="http://creativecommons.org/ns#"
   xmlns:rdf="http://www.w3.org/1999/02/22-rdf-syntax-ns#"
   xmlns:svg="http://www.w3.org/2000/svg"
   xmlns="http://www.w3.org/2000/svg"
   xmlns:sodipodi="http://sodipodi.sourceforge.net/DTD/sodipodi-0.dtd"
   xmlns:inkscape="http://www.inkscape.org/namespaces/inkscape"
   version="1.1"
   id="Layer_1"
   x="0px"
   y="0px"
   viewBox="0 0 260 260"
   xml:space="preserve"
   inkscape:version="0.91 r13725"
   sodipodi:docname="cost-chart-icon.svg"
   width="260"
   height="260"><metadata
     id="metadata7507"><rdf:RDF><cc:Work
         rdf:about=""><dc:format>image/svg+xml</dc:format><dc:type
           rdf:resource="http://purl.org/dc/dcmitype/StillImage" /><dc:title /></cc:Work></rdf:RDF></metadata><defs
     id="defs7505" /><sodipodi:namedview
     pagecolor="#ffffff"
     bordercolor="#666666"
     borderopacity="1"
     objecttolerance="10"
     gridtolerance="10"
     guidetolerance="10"
     inkscape:pageopacity="0"
     inkscape:pageshadow="2"
     inkscape:window-width="1366"
     inkscape:window-height="745"
     id="namedview7503"
     showgrid="false"
     fit-margin-top="0"
     fit-margin-left="0"
     fit-margin-right="0"
     fit-margin-bottom="0"
     inkscape:zoom="1.3224141"
     inkscape:cx="46.591209"
     inkscape:cy="148.2148"
     inkscape:window-x="-8"
     inkscape:window-y="-8"
     inkscape:window-maximized="1"
     inkscape:current-layer="Layer_1" /><circle
     style="fill:#5dddd3;fill-opacity:0.78431374"
     cx="130"
     cy="130"
     r="130"
     id="circle7437" /><g
     id="g7439"
     style="fill:#e56353;fill-opacity:1"
     transform="scale(0.72844637,0.72844637)"><rect
       x="251.64301"
       y="239.828"
       style="fill:#e56353;fill-opacity:1"
       width="34.139"
       height="13.908"
       id="rect7441" /><rect
       x="206.69501"
       y="212.01199"
       style="fill:#e56353;fill-opacity:1"
       width="34.144001"
       height="41.73"
       id="rect7443" /><rect
       x="161.748"
       y="184.19701"
       style="fill:#e56353;fill-opacity:1"
       width="34.141998"
       height="69.563004"
       id="rect7445" /><rect
       x="116.778"
       y="156.35699"
       style="fill:#e56353;fill-opacity:1"
       width="34.148998"
       height="97.375999"
       id="rect7447" /><rect
       x="71.824997"
       y="128.54201"
       style="fill:#e56353;fill-opacity:1"
       width="34.141998"
       height="125.196"
       id="rect7449" /></g><g
     id="g7451"
     transform="scale(0.72844637,0.72844637)"><path
       style="fill:#ffffff"
       d="m 154.924,123.975 c -9.834,0 -18.166,12.994 -22.277,32.386 l 2.471,0 c 3.924,-17.775 11.426,-30.08 19.806,-30.08 12.325,0 22.737,26.523 22.737,57.915 l 2.309,0 c 0,-33.769 -11.008,-60.221 -25.046,-60.221 z"
       id="path7453"
       inkscape:connector-curvature="0" /><path
       style="fill:#ffffff"
       d="m 199.894,151.791 c -9.831,0 -18.169,12.994 -22.279,32.409 l 2.471,0 c 3.899,-17.775 11.404,-30.1 19.808,-30.1 12.327,0 22.718,26.521 22.718,57.913 l 2.309,0 c -0.003,-33.768 -10.994,-60.222 -25.027,-60.222 z"
       id="path7455"
       inkscape:connector-curvature="0" /><path
       style="fill:#ffffff"
       d="m 269.514,229.396 c -1.991,-28.625 -12.096,-49.767 -24.66,-49.767 -9.831,0 -18.188,12.994 -22.294,32.384 l 2.466,0 c 3.929,-17.775 11.429,-30.078 19.828,-30.078 10.919,0 20.342,20.844 22.321,47.458 0.212,2.745 0.347,5.541 0.369,8.401 l 1.179,2.028 1.13,-1.982 c -0.022,-2.879 -0.132,-5.697 -0.339,-8.444 z"
       id="path7457"
       inkscape:connector-curvature="0" /><path
       style="fill:#ffffff"
       d="m 109.982,96.16 c -9.834,0 -18.169,12.994 -22.274,32.384 l 2.469,0 c 3.902,-17.772 11.402,-30.078 19.806,-30.078 12.303,0 22.715,26.521 22.715,57.895 l 2.309,0 C 135.006,122.617 124.015,96.16 109.982,96.16 Z"
       id="path7459"
       inkscape:connector-curvature="0" /><polygon
       style="fill:#ffffff"
       points="268.721,239.835 262.708,229.41 274.74,229.41 "
       id="polygon7461" /></g><g
     id="g7463"
     transform="scale(0.72844637,0.72844637)"><rect
       x="60.280998"
       y="265.28"
       style="fill:#f2f2f2"
       width="231.828"
       height="4.618"
       id="rect7465" /><rect
       x="55.654999"
       y="96.148003"
       style="fill:#f2f2f2"
       width="4.618"
       height="173.735"
       id="rect7467" /><polygon
       style="fill:#f2f2f2"
       points="57.977,80.002 67.301,96.16 48.645,96.16 "
       id="polygon7469" /><polygon
       style="fill:#f2f2f2"
       points="308.278,267.591 292.116,276.921 292.116,258.265 "
       id="polygon7471" /></g><g
     id="g7473"
     transform="translate(0,-96.924011)" /><g
     id="g7475"
     transform="translate(0,-96.924011)" /><g
     id="g7477"
     transform="translate(0,-96.924011)" /><g
     id="g7479"
     transform="translate(0,-96.924011)" /><g
     id="g7481"
     transform="translate(0,-96.924011)" /><g
     id="g7483"
     transform="translate(0,-96.924011)" /><g
     id="g7485"
     transform="translate(0,-96.924011)" /><g
     id="g7487"
     transform="translate(0,-96.924011)" /><g
     id="g7489"
     transform="translate(0,-96.924011)" /><g
     id="g7491"
     transform="translate(0,-96.924011)" /><g
     id="g7493"
     transform="translate(0,-96.924011)" /><g
     id="g7495"
     transform="translate(0,-96.924011)" /><g
     id="g7497"
     transform="translate(0,-96.924011)" /><g
     id="g7499"
     transform="translate(0,-96.924011)" /><g
     id="g7501"
     transform="translate(0,-96.924011)" /><circle
     style="fill:#707070"
     cx="177.3237"
     cy="55.684128"
     r="35.048225"
     id="circle8681" /><path
     inkscape:connector-curvature="0"
     style="fill:#424242"
     d="m 133.97157,91.726589 20.80536,-20.80537 c 2.0631,2.78156 4.52827,5.24658 7.30966,7.30967 l -20.80536,20.80537 c -2.01862,2.018611 -5.29136,2.018611 -7.30966,0 -2.01862,-2.01831 -2.01862,-5.29105 0,-7.30967 z"
     id="path8683" /><circle
     style="fill:#abcde0"
     cx="177.3237"
     cy="55.684128"
     r="26.940975"
     id="circle8685" /><g
     transform="matrix(0.15608275,0,0,0.15608275,132.45756,20.635889)"
     id="g8687"><circle
       style="fill:#e66600"
       cx="287.45099"
       cy="224.549"
       r="121.041"
       id="circle8689" /><circle
       style="fill:#e66600"
       cx="287.45099"
       cy="224.549"
       r="121.041"
       id="circle8691" /></g><circle
     style="fill:#ff8e00"
     cx="177.3237"
     cy="55.684128"
     r="18.892412"
     id="circle8693" /><path
     inkscape:connector-curvature="0"
     style="fill:#8f8f8f"
     d="m 177.3237,20.635889 c -19.35659,0 -35.04806,15.69162 -35.04806,35.04822 0,19.35661 15.69162,35.04824 35.04822,35.04824 l 0,-70.09646 z"
     id="path8695" /><path
     inkscape:connector-curvature="0"
     style="fill:#d6f1ff"
     d="m 177.3237,28.742669 c -14.87921,0 -26.94144,12.06208 -26.94144,26.94144 0,14.87937 12.06223,26.94145 26.94144,26.94145 l 0,-53.88289 z"
     id="path8697" /><path
     inkscape:connector-curvature="0"
     style="fill:#ffba00"
     d="m 177.3237,36.791859 c -10.43381,0 -18.89225,8.45843 -18.89225,18.89225 0,10.43383 8.45844,18.89226 18.89225,18.89226 l 0,-37.78451 z"
     id="path8699" /><path
     inkscape:connector-curvature="0"
     style="fill:#e66600"
     d="m 179.77015,53.442929 0,-4.90849 c 0.31825,0.10488 0.59467,0.23303 0.82053,0.38396 0.40908,0.27267 0.82692,0.70003 0.82692,1.80151 l 4.89273,0 c 0,-3.85463 -2.44863,-6.47775 -6.54018,-7.20557 l 0,-1.96445 -4.89273,0 0,1.96445 c -4.0914,0.72766 -6.54018,3.35079 -6.54018,7.20557 0,3.85477 2.44863,6.47789 6.54018,7.20571 l 0,4.90833 c -0.31825,-0.10488 -0.59467,-0.23303 -0.82053,-0.38396 -0.40909,-0.27268 -0.82692,-0.70003 -0.82692,-1.80151 l -4.89273,0 c 0,3.85462 2.44863,6.47775 6.54018,7.20556 l 0,1.96462 4.89273,0 0,-1.96462 c 4.0914,-0.72766 6.54018,-3.35078 6.54018,-7.20556 0,-3.85477 -2.44878,-6.4779 -6.54018,-7.20555 z m -5.71341,-0.92152 c -0.4091,-0.27268 -0.82693,-0.70019 -0.82693,-1.80166 0,-1.10148 0.41799,-1.52883 0.82693,-1.80151 0.22585,-0.15062 0.50243,-0.27892 0.82053,-0.38396 l 0,4.37078 c -0.3181,-0.10473 -0.59452,-0.23303 -0.82053,-0.38365 z m 6.53394,9.92843 c -0.22586,0.15077 -0.50243,0.27891 -0.82053,0.38396 l 0,-4.37063 c 0.31825,0.10489 0.59467,0.23303 0.82053,0.38396 0.40908,0.27268 0.82692,0.70003 0.82692,1.80151 -1.6e-4,1.10147 -0.41799,1.52852 -0.82692,1.8012 z"
     id="path8701" /></svg>