<?xml version="1.0" encoding="UTF-8" standalone="no"?>
<!-- Generator: Adobe Illustrator 19.0.0, SVG Export Plug-In . SVG Version: 6.00 Build 0)  -->

<svg
   xmlns:dc="http://purl.org/dc/elements/1.1/"
   xmlns:cc="http://creativecommons.org/ns#"
   xmlns:rdf="http://www.w3.org/1999/02/22-rdf-syntax-ns#"
   xmlns:svg="http://www.w3.org/2000/svg"
   xmlns="http://www.w3.org/2000/svg"
   xmlns:sodipodi="http://sodipodi.sourceforge.net/DTD/sodipodi-0.dtd"
   xmlns:inkscape="http://www.inkscape.org/namespaces/inkscape"
   version="1.1"
   id="Layer_1"
   x="0px"
   y="0px"
   viewBox="0 0 260 260"
   xml:space="preserve"
   inkscape:version="0.91 r13725"
   sodipodi:docname="email-icon.svg"
   width="260"
   height="260"><metadata
     id="metadata5398"><rdf:RDF><cc:Work
         rdf:about=""><dc:format>image/svg+xml</dc:format><dc:type
           rdf:resource="http://purl.org/dc/dcmitype/StillImage" /><dc:title></dc:title></cc:Work></rdf:RDF></metadata><defs
     id="defs5396" /><sodipodi:namedview
     pagecolor="#ffffff"
     bordercolor="#666666"
     borderopacity="1"
     objecttolerance="10"
     gridtolerance="10"
     guidetolerance="10"
     inkscape:pageopacity="0"
     inkscape:pageshadow="2"
     inkscape:window-width="1366"
     inkscape:window-height="745"
     id="namedview5394"
     showgrid="false"
     fit-margin-top="0"
     fit-margin-left="0"
     fit-margin-right="0"
     fit-margin-bottom="0"
     inkscape:zoom="0.921875"
     inkscape:cx="256"
     inkscape:cy="256"
     inkscape:window-x="-8"
     inkscape:window-y="-8"
     inkscape:window-maximized="1"
     inkscape:current-layer="Layer_1" /><path
     style="fill:#5dddd3;fill-opacity:0.78431373"
     d="M 129.99949,0 C 201.79707,0 260,58.20191 260,130.00051 260,201.79707 201.79707,260 129.99949,260 58.201914,260 0,201.79707 0,130.00051 0,58.20191 58.20293,0 129.99949,0 Z"
     id="path5328"
     inkscape:connector-curvature="0" /><g
     id="g5330"
     transform="scale(0.5078125,0.5078125)"><path
       style="fill:#f5a209"
       d="m 450.359,244.56 -388.716,0 194.358,-114.723 194.358,114.723 z"
       id="path5332"
       inkscape:connector-curvature="0" /><path
       style="fill:#f5a209"
       d="m 61.641,244.56 388.716,0 0,229.45 -388.716,0 0,-229.45 z"
       id="path5334"
       inkscape:connector-curvature="0" /></g><path
     style="fill:#ffffff"
     d="m 51.582578,39.42402 124.124612,0 32.70972,32.70973 0,168.57598 -156.834332,0 0,-201.28469 0,-0.001 z"
     id="path5336"
     inkscape:connector-curvature="0" /><path
     style="fill:#ecf0f1"
     d="m 75.230391,82.59113 109.535659,0 0,2.47 -109.535659,0 0,-2.47 z m 0,26.60836 0,0 109.535659,0 0,2.47203 -109.535659,0 0,-2.47203 z m 0,4.58301 0,0 109.535659,0 0,2.47102 -109.535659,0 0,-2.47102 z m 0,4.5825 0,0 109.535659,0 0,2.47 -109.535659,0 0,-2.47 z m 0,4.58301 0,0 109.541249,0 0,2.47 -109.541249,0 0,-2.47 z m 0,-35.77438 0,0 109.535659,0 0,2.47102 -109.535659,0 0,-2.47102 z m 0,4.58301 0,0 109.535659,0 0,2.47102 -109.535659,0 0,-2.47102 z m 0,4.5825 0,0 109.541249,0 0,2.47 -109.541249,0 0,-2.47 z m -10e-4,4.58301 0,0 83.903329,0 0,2.47 -83.903329,0 0,-2.47 z m 0,26.60937 0,0 83.903329,0 0,2.47102 -83.903329,0 0,-2.47102 z"
     id="path5338"
     inkscape:connector-curvature="0" /><path
     style="fill:#ffca4f"
     d="m 175.7082,39.42402 0,32.70973 32.70973,0 -32.70973,-32.70973 z"
     id="path5340"
     inkscape:connector-curvature="0" /><path
     style="fill:#b3b3b3"
     d="m 110.8118,216.43984 37.16578,0 0,3.63086 -37.16578,0 0,-3.63086 z"
     id="path5342"
     inkscape:connector-curvature="0" /><g
     id="g5344"
     transform="scale(0.5078125,0.5078125)"><path
       style="fill:#fbb429"
       d="M 61.641,244.56 255.999,359.283 61.641,474.01 l 0,-229.45 z"
       id="path5346"
       inkscape:connector-curvature="0" /><path
       style="fill:#fbb429"
       d="m 450.359,244.56 -194.358,114.723 194.358,114.727 0,-229.45 z"
       id="path5348"
       inkscape:connector-curvature="0" /></g><path
     style="fill:#f5a209"
     d="m 129.99949,182.4484 -98.69742,58.2598 197.39484,0 -98.69742,-58.2598 z"
     id="path5350"
     inkscape:connector-curvature="0" /><path
     style="fill:#f7fafa"
     d="m 208.41641,104.84094 0,-32.70821 -32.70821,0 32.70821,32.70821 z"
     id="path5352"
     inkscape:connector-curvature="0" /><path
     style="fill:#ffca4f"
     d="m 52.732266,8.43223 c 17.143242,0 31.041054,13.8973 31.041054,31.04105 0,17.14375 -13.89832,31.04106 -31.041054,31.04106 -17.144258,0 -31.041055,-13.89832 -31.041055,-31.04106 0,-17.14426 13.897812,-31.04105 31.041055,-31.04105 z"
     id="path5354"
     inkscape:connector-curvature="0" /><g
     id="g5356"
     transform="scale(0.5078125,0.5078125)"><path
       style="fill:#ffffff"
       d="m 108.481,93.852 c -1.905,2.207 -4.039,3.98 -6.412,5.318 -2.359,1.336 -4.732,1.998 -7.106,1.998 -2.615,0 -5.153,-0.765 -7.631,-2.282 -2.463,-1.532 -4.46,-3.876 -6.008,-7.047 -1.548,-3.168 -2.313,-6.654 -2.313,-10.44 0,-4.67 1.202,-9.342 3.59,-14.029 2.388,-4.67 5.36,-8.184 8.908,-10.544 3.545,-2.344 7,-3.515 10.334,-3.515 2.553,0 4.987,0.659 7.313,1.998 2.315,1.338 4.313,3.38 5.98,6.099 l 1.548,-6.835 7.84,0 -6.339,29.56 c -0.889,4.116 -1.323,6.383 -1.323,6.817 0,0.798 0.3,1.488 0.902,2.059 0.602,0.571 1.336,0.855 2.176,0.855 1.561,0 3.605,-0.886 6.129,-2.674 3.349,-2.344 6.008,-5.483 7.962,-9.432 1.951,-3.936 2.926,-7.99 2.926,-12.182 0,-4.897 -1.261,-9.463 -3.768,-13.699 -2.509,-4.249 -6.264,-7.644 -11.251,-10.2 -4.97,-2.538 -10.484,-3.814 -16.508,-3.814 -6.879,0 -13.172,1.607 -18.852,4.807 -5.693,3.215 -10.109,7.812 -13.231,13.805 -3.142,5.995 -4.703,12.42 -4.703,19.286 0,7.181 1.561,13.355 4.688,18.536 3.138,5.197 7.66,9.027 13.577,11.505 5.918,2.476 12.466,3.709 19.663,3.709 7.706,0 14.149,-1.29 19.345,-3.889 5.197,-2.582 9.086,-5.739 11.672,-9.448 l 7.929,0 c -1.501,3.08 -4.07,6.233 -7.704,9.432 -3.636,3.199 -7.962,5.739 -12.978,7.6 -5.018,1.863 -11.071,2.794 -18.131,2.794 -6.52,0 -12.528,-0.842 -18.025,-2.509 -5.512,-1.667 -10.197,-4.176 -14.074,-7.523 -3.876,-3.365 -6.791,-7.228 -8.758,-11.582 -2.463,-5.541 -3.695,-11.52 -3.695,-17.934 0,-7.135 1.473,-13.952 4.403,-20.426 3.587,-7.931 8.681,-14.014 15.275,-18.236 6.595,-4.22 14.585,-6.324 23.989,-6.324 7.285,0 13.833,1.486 19.632,4.46 5.799,2.974 10.38,7.404 13.714,13.293 2.855,5.062 4.282,10.577 4.282,16.523 0,8.502 -2.99,16.043 -8.967,22.635 -5.349,5.92 -11.176,8.879 -17.513,8.879 -2.031,0 -3.651,-0.317 -4.897,-0.933 -1.248,-0.615 -2.161,-1.502 -2.749,-2.659 -0.389,-0.734 -0.658,-2.011 -0.841,-3.812 z m -21.358,-11.898 0,0 c 0,4.026 0.961,7.148 2.871,9.373 1.905,2.238 4.086,3.349 6.562,3.349 1.638,0 3.365,-0.498 5.197,-1.473 1.817,-0.992 3.561,-2.447 5.214,-4.385 1.665,-1.938 3.018,-4.401 4.07,-7.375 1.065,-2.974 1.592,-5.962 1.592,-8.965 0,-3.982 -0.992,-7.091 -2.974,-9.285 -1.982,-2.207 -4.403,-3.305 -7.241,-3.305 -1.876,0 -3.651,0.481 -5.318,1.427 -1.654,0.961 -3.259,2.494 -4.82,4.61 -1.548,2.103 -2.809,4.67 -3.742,7.706 -0.946,3.018 -1.411,5.797 -1.411,8.321 l 0,0.002 z"
       id="path5358"
       inkscape:connector-curvature="0" /><path
       style="fill:#ffffff"
       d="m 473.318,59.119 18.644,16.812 1.707,1.539 -1.707,1.537 -18.644,16.812 -2.767,-3.074 14.638,-13.203 -68.45,0 0,-4.145 68.45,0 -14.638,-13.203 2.767,-3.074 0,-10e-4 z"
       id="path5360"
       inkscape:connector-curvature="0" /><path
       style="fill:#ffffff"
       d="m 405.645,70.798 -18.642,16.814 -1.707,1.537 1.707,1.539 18.642,16.814 2.767,-3.076 -14.638,-13.203 68.45,0 0,-4.143 -68.45,0 14.638,-13.205 -2.767,-3.076 0,-0.001 z"
       id="path5362"
       inkscape:connector-curvature="0" /></g><g
     id="g5364"
     transform="translate(0,-252)" /><g
     id="g5366"
     transform="translate(0,-252)" /><g
     id="g5368"
     transform="translate(0,-252)" /><g
     id="g5370"
     transform="translate(0,-252)" /><g
     id="g5372"
     transform="translate(0,-252)" /><g
     id="g5374"
     transform="translate(0,-252)" /><g
     id="g5376"
     transform="translate(0,-252)" /><g
     id="g5378"
     transform="translate(0,-252)" /><g
     id="g5380"
     transform="translate(0,-252)" /><g
     id="g5382"
     transform="translate(0,-252)" /><g
     id="g5384"
     transform="translate(0,-252)" /><g
     id="g5386"
     transform="translate(0,-252)" /><g
     id="g5388"
     transform="translate(0,-252)" /><g
     id="g5390"
     transform="translate(0,-252)" /><g
     id="g5392"
     transform="translate(0,-252)" /></svg>