<?xml version="1.0" encoding="UTF-8" standalone="no"?>
<!-- Generator: Adobe Illustrator 19.0.0, SVG Export Plug-In . SVG Version: 6.00 Build 0)  -->

<svg
   xmlns:dc="http://purl.org/dc/elements/1.1/"
   xmlns:cc="http://creativecommons.org/ns#"
   xmlns:rdf="http://www.w3.org/1999/02/22-rdf-syntax-ns#"
   xmlns:svg="http://www.w3.org/2000/svg"
   xmlns="http://www.w3.org/2000/svg"
   xmlns:sodipodi="http://sodipodi.sourceforge.net/DTD/sodipodi-0.dtd"
   xmlns:inkscape="http://www.inkscape.org/namespaces/inkscape"
   version="1.1"
   id="Layer_1"
   x="0px"
   y="0px"
   viewBox="0 0 267 240"
   xml:space="preserve"
   inkscape:version="0.91 r13725"
   sodipodi:docname="forecasting-chart-icon.svg"
   width="267"
   height="240"><metadata
     id="metadata5081"><rdf:RDF><cc:Work
         rdf:about=""><dc:format>image/svg+xml</dc:format><dc:type
           rdf:resource="http://purl.org/dc/dcmitype/StillImage" /><dc:title /></cc:Work></rdf:RDF></metadata><defs
     id="defs5079" /><sodipodi:namedview
     pagecolor="#ffffff"
     bordercolor="#666666"
     borderopacity="1"
     objecttolerance="10"
     gridtolerance="10"
     guidetolerance="10"
     inkscape:pageopacity="0"
     inkscape:pageshadow="2"
     inkscape:window-width="1366"
     inkscape:window-height="745"
     id="namedview5077"
     showgrid="false"
     inkscape:zoom="1.84375"
     inkscape:cx="79.776559"
     inkscape:cy="143.35933"
     inkscape:window-x="-8"
     inkscape:window-y="-8"
     inkscape:window-maximized="1"
     inkscape:current-layer="Layer_1"
     fit-margin-top="0"
     fit-margin-left="0"
     fit-margin-right="0"
     fit-margin-bottom="0" /><circle
     style="opacity:1;fill:#2d004f;fill-opacity:0.54901963"
     cx="120.00396"
     cy="120.00138"
     r="119.99861"
     id="circle5029" /><path
     style="fill:#2d004f;fill-opacity:1"
     d="M 235.26196,86.629872 214.33066,123.2737 187.62448,109.89198 147.15443,177.32308 119.5098,149.67997 92.85159,162.97935 53.3233,123.5104 26.68812,150.14717 0.11129,124.31184 c -0.0522,-1.43334 -0.1094,-2.8647 -0.1094,-4.31172 0,66.27262 53.72657,119.99978 119.99959,119.99978 66.27463,0 119.99968,-53.72663 119.99968,-119.99978 -5.3e-4,-11.5843 -1.6753,-22.771868 -4.7392,-33.370248 z"
     id="path5031"
     inkscape:connector-curvature="0" /><path
     style="fill:#b2e522;fill-opacity:1"
     d="m 0.20882,126.97628 0,-6.76903 12.94692,0 0,12.94478 -12.43328,0 c 0.0162,0.13813 0.0323,0.27582 0.0476,0.414 l 12.38586,0 0,12.88692 -10.22201,0 c 0.0315,0.13762 0.0597,0.27624 0.0903,0.41392 l 10.13175,0 0,12.94639 -6.38173,0 c 0.0489,0.13814 0.0969,0.27584 0.14603,0.41401 l 6.2357,0 0,12.88688 -0.77907,0 c 0.069,0.13819 0.1371,0.27585 0.2054,0.41403 l 0.57315,0 0,1.15075 c 0.13493,0.2633 0.27683,0.52246 0.41389,0.78431 l 0,-1.93506 12.88536,0 0,12.94325 -6.36751,0 c 0.0917,0.13764 0.18041,0.27682 0.27218,0.41401 l 6.09533,0 0,8.2671 c 0.13819,0.17152 0.27486,0.34314 0.41406,0.51414 l 0,-8.78071 12.9448,0 0,12.88689 -9.44715,0 c 0.12307,0.13816 0.24351,0.2764 0.36709,0.41393 l 9.0811,0 0,9.0811 c 0.13705,0.12363 0.27587,0.2446 0.41398,0.36709 l 0,-9.44819 12.88691,0 0,12.94637 -8.77965,0 c 0.17095,0.13881 0.34255,0.2759 0.51415,0.41404 l 8.2655,0 0,6.09435 c 0.13716,0.0926 0.27633,0.18045 0.41402,0.27225 l 0,-6.3666 12.94475,0 0,12.88692 -1.93186,0 c 0.2618,0.13713 0.5214,0.27844 0.78426,0.41399 l 1.1476,0 0,0.5714 c 0.13822,0.0688 0.27536,0.13775 0.41399,0.20551 l 0,-0.77745 12.88847,0 0,6.23467 c 0.13821,0.049 0.27585,0.0973 0.41408,0.14594 l 0,-6.38061 12.94319,0 0,10.12966 c 0.13764,0.0319 0.27584,0.0602 0.41396,0.0904 l 0,-10.21985 12.88849,0 0,12.38429 c 0.13816,0.0164 0.27532,0.0329 0.41405,0.0478 l 0,-12.43177 12.94481,0 0,12.94484 -6.76917,0 c 2.3094,0.13243 4.63392,0.20649 6.97613,0.20649 2.34222,0 4.66669,-0.0747 6.97605,-0.20649 l -6.76901,0 0,-12.94484 12.9463,0 0,12.43177 c 0.13818,-0.0157 0.27579,-0.0324 0.41399,-0.0478 l 0,-12.38429 12.88532,0 0,10.22035 c 0.13768,-0.0314 0.27639,-0.0589 0.41407,-0.0906 l 0,-10.13019 12.94475,0 0,6.38058 c 0.13818,-0.0489 0.27584,-0.0969 0.41399,-0.14592 l 0,-6.23466 12.88536,0 0,0.77902 c 0.1382,-0.0685 0.27579,-0.13716 0.41399,-0.20545 l 0,-0.57304 1.15083,0 c 0.26274,-0.13505 0.5224,-0.27684 0.78419,-0.41399 l -1.93502,0 0,-12.88691 12.94639,0 0,6.36807 c 0.13761,-0.0918 0.27687,-0.18039 0.41394,-0.27213 l 0,-6.09542 8.2672,0 c 0.17149,-0.13816 0.34302,-0.27483 0.51406,-0.41404 l -8.78072,0 0,-12.94638 12.88689,0 0,9.44971 c 0.13768,-0.12301 0.27639,-0.24347 0.41409,-0.36704 l 0,-9.08267 9.08261,0 c 0.12354,-0.13711 0.24452,-0.27576 0.36701,-0.4139 l -9.44962,0 0,-12.8869 12.94469,0 0,8.78276 c 0.1387,-0.17106 0.27591,-0.34258 0.41406,-0.51418 l 0,-8.26914 6.09748,0 c 0.0924,-0.13715 0.18039,-0.27638 0.27222,-0.41404 l -6.37182,0 0,-12.94426 12.88691,0 0,1.93504 c 0.13718,-0.26176 0.27843,-0.52146 0.41403,-0.78431 l 0,-1.15073 0.57299,0 c 0.0688,-0.13823 0.13773,-0.2753 0.2055,-0.41402 l -0.77904,0 0,-12.8869 6.23572,0 c 0.0492,-0.13808 0.0973,-0.27584 0.14591,-0.41398 l -6.38163,0 0,-12.94635 10.1318,0 c 0.032,-0.13772 0.0602,-0.27583 0.0906,-0.41399 l -10.22194,0 0,-12.88696 12.38582,0 c 0.0162,-0.13818 0.0331,-0.2753 0.0477,-0.41395 l -12.43329,0 0,-12.9448 12.94636,0 0,6.76904 c 0.13248,-2.30936 0.20655,-4.63384 0.20655,-6.97601 0,-2.34284 -0.0746,-4.66679 -0.20655,-6.97609 l 0,6.7685 -12.94636,0 0,-12.94475 12.43329,0 c -0.0161,-0.13815 -0.0325,-0.27584 -0.0477,-0.41401 l -12.38582,0 0,-12.886908 10.22194,0 c -0.0316,-0.13766 -0.059,-0.27633 -0.0906,-0.41405 l -10.1318,0 0,-12.94629 6.38163,0 c -0.0488,-0.1382 -0.0969,-0.27586 -0.14591,-0.41404 l -6.23572,0 0,-12.88688 0.77904,0 c -0.0682,-0.13813 -0.13719,-0.27586 -0.2055,-0.41407 l -0.57299,0 0,-1.15069 c -0.13511,-0.26335 -0.27685,-0.52245 -0.41403,-0.78425 l 0,1.93494 -12.88691,0 0,-12.94313 6.36969,0 c -0.0917,-0.13777 -0.18044,-0.27693 -0.27213,-0.41405 l -6.09756,0 0,-8.26918 c -0.13816,-0.17153 -0.27475,-0.34309 -0.41394,-0.51412 l 0,8.78278 -12.94484,0 0,-12.88685 9.44973,0 c -0.12309,-0.13768 -0.24351,-0.27644 -0.36711,-0.41404 l -9.08262,0 0,-9.08102 c -0.13708,-0.12363 -0.27585,-0.24459 -0.41398,-0.36716 l 0,9.44974 -12.8869,0 0,-12.94682 8.78068,0 c -0.17098,-0.13882 -0.34254,-0.27587 -0.51406,-0.4141 l -8.26716,0 0,-6.0954 c -0.13713,-0.0924 -0.27631,-0.18093 -0.41399,-0.27214 l 0,6.3681 -12.94635,0 0,-12.88748 1.93495,0 c -0.26173,-0.13713 -0.5214,-0.2784 -0.78422,-0.41394 l -1.15073,0 0,-0.57301 c -0.13815,-0.0689 -0.27528,-0.13775 -0.41399,-0.20552 l 0,0.77912 -12.88543,0 0,-6.2352699 c -0.13811,-0.0486 -0.27582,-0.0972 -0.4139,-0.14587 l 0,6.3805499 -12.94487,0 0,-10.1297499 c -0.13766,-0.0319 -0.27576,-0.0599 -0.41393,-0.0905 l 0,10.2203399 -12.88543,0 0,-12.38436993 c -0.1381,-0.016 -0.2753,-0.0329 -0.41395,-0.0476 l 0,12.43175993 -12.94635,0 0,-12.94533993 6.76906,0 c -2.30932,-0.13244 -4.63381,-0.20650999969 -6.97611,-0.20650999969 -2.3422,0 -4.66668,0.0742999997 -6.976,0.20650999969 l 6.76899,0 0,12.94475993 -12.94476,0 0,-12.43117993 c -0.13814,0.0162 -0.27581,0.0326 -0.41398,0.0476 l 0,12.38436993 -12.88846,0 0,-10.2198599 c -0.13768,0.0314 -0.27634,0.0592 -0.41399,0.0905 l 0,10.1298899 -12.94326,0 0,-6.3806199 c -0.13813,0.0488 -0.2758,0.0968 -0.41398,0.14584 l 0,6.2347799 -12.88845,0 0,-0.77757 c -0.13815,0.0685 -0.27586,0.13716 -0.41397,0.20554 l 0,0.57144 -1.14768,0 c -0.26279,0.13501 -0.52255,0.27681 -0.78423,0.41394 l 1.93191,0 0,12.88692 -12.94483,0 0,-6.36654 c -0.1377,0.0916 -0.27692,0.18051 -0.41404,0.27219 l 0,6.09491 -8.26392,0 c -0.17165,0.13819 -0.34314,0.27472 -0.51417,0.41405 l 8.77909,0 0,12.9463 -12.88689,0 0,-9.44813 c -0.13754,0.12303 -0.27638,0.24349 -0.41393,0.36707 l 0,9.08106 -9.08058,0 c -0.12356,0.13701 -0.2446,0.2759 -0.36709,0.41401 l 9.44819,0 0,12.88692 -12.94532,0 0,-8.78068 c -0.1392,0.17103 -0.27587,0.3425 -0.41406,0.51399 l 0,8.26725 -6.09533,0 c -0.0923,0.1371 -0.18099,0.27627 -0.27218,0.41398 l 6.36807,0 0,12.9432 -12.88537,0 0,-1.93502 c -0.13712,0.2618 -0.27841,0.52143 -0.41392,0.78421 l 0,1.15081 -0.57367,0 c -0.0688,0.13815 -0.13763,0.27538 -0.2054,0.41404 l 0.77907,0 0,12.88687 -6.23621,0 c -0.0495,0.13815 -0.0974,0.27578 -0.14611,0.41398 l 6.38232,0 0,12.94638 -10.13175,0 c -0.0319,0.13762 -0.0594,0.27584 -0.0903,0.41397 l 10.22201,0 0,12.886938 -12.38586,0 c -0.0161,0.13813 -0.0333,0.2753 -0.0476,0.41397 l 12.43328,0 0,12.9448 -12.94692,0 0,-6.76907 c -0.13241,2.30933 -0.20647,4.63381 -0.20647,6.97599 0,2.34338 0.0741,4.66629 0.20647,6.97562 z m 13.36081,-6.76961 12.88536,0 0,12.94485 -12.88536,0 0,-12.94485 z m 39.95861,26.6602 12.94474,0 0,12.94639 -12.94474,0 0,-12.94639 z m -0.41354,12.94639 -12.88744,0 0,-12.94639 12.88689,0 0,12.94639 z m 66.67978,-26.24723 0,12.88692 -12.94479,0 0,-12.88692 12.94479,0 z m -12.9453,-0.414 0,-12.94478 12.94475,0 0,12.94478 -12.94475,0 z m 13.35932,0.414 12.94643,0 0,12.88692 -12.94643,0 0,-12.88692 z m 0,-0.414 0,-12.94478 12.94643,0 0,12.94478 -12.94643,0 z m 13.36032,-12.94536 12.88535,0 0,12.94485 -12.88535,0 0,-12.94485 z m 0,-0.4135 0,-12.94476 12.88535,0 0,12.94476 -12.88535,0 z m -0.41344,0 -12.94632,0 0,-12.94476 12.94632,0 0,12.94476 z m -12.94688,-13.35872 0,-12.886978 12.94643,0 0,12.886978 -12.94643,0 z m -0.41402,0 -12.94479,0 0,-12.886978 12.94479,0 0,12.886978 0,0 z m 0,0.41342 0,12.94479 -12.94479,0 0,-12.94479 12.94479,0 z m -13.35877,12.9453 -12.88854,0 0,-12.94476 12.88854,0 0,12.94476 z m 0,0.4135 0,12.94485 -12.88854,0 0,-12.94485 12.88854,0 z m -13.30245,12.94536 -12.94319,0 0,-12.94478 12.94319,0 0,12.94478 z m 0,0.414 0,12.88692 -12.94319,0 0,-12.88692 12.94319,0 z m 0.41342,0 12.88851,0 0,12.88692 -12.88851,0 0,-12.88692 z m 12.88903,13.30084 0,12.94639 -12.88854,0 0,-12.94639 12.88854,0 z m 0.41347,0 12.94475,0 0,12.94639 -12.94475,0 0,-12.94639 z m 12.9453,13.3604 0,12.88688 -12.94479,0 0,-12.88688 12.94479,0 z m 0.41402,0 12.94643,0 0,12.88688 -12.94643,0 0,-12.88688 z m 0,-0.41401 0,-12.94639 12.94643,0 0,12.94639 -12.94643,0 z m 13.36032,-12.94639 12.88535,0 0,12.94639 -12.88535,0 0,-12.94639 z m 0,-0.41392 0,-12.88692 12.88535,0 0,12.88692 -12.88535,0 z m 13.29938,-12.88692 12.94477,0 0,12.88692 -12.94477,0 0,-12.88692 z m 0,-0.414 0,-12.94478 12.94477,0 0,12.94478 -12.94477,0 z m 13.35881,-12.94536 12.88535,0 0,12.94485 -12.88535,0 0,-12.94485 z m 0,-0.4135 0,-12.94476 12.88535,0 0,12.94476 -12.88535,0 z m -0.41404,0 -12.94477,0 0,-12.94476 12.94477,0 0,12.94476 z m -12.94477,-13.35872 0,-12.886978 12.94477,0 0,12.886978 -12.94477,0 z m -0.41403,0 -12.88535,0 0,-12.886978 12.88535,0 0,12.886978 z m -12.88535,-13.300898 0,-12.94634 12.88535,0 0,12.94634 -12.88535,0 z m -0.41344,0 -12.94632,0 0,-12.94634 12.94632,0 0,12.94634 z m -12.94688,-13.3604 0,-12.88682 12.94643,0 0,12.88682 -12.94643,0 z m -0.41402,0 -12.94479,0 0,-12.88682 12.94479,0 0,12.88682 0,0 z m 0,0.41406 0,12.94634 -12.94479,0 0,-12.94634 12.94479,0 z m -13.35877,12.94634 -12.88854,0 0,-12.94634 12.88854,0 0,12.94634 z m 0,0.41392 0,12.886978 -12.88854,0 0,-12.886978 12.88854,0 z m -13.30245,12.886978 -12.94319,0 0,-12.886978 12.94319,0 0,12.886978 z m 0,0.41342 0,12.94479 -12.94319,0 0,-12.94479 12.94319,0 z m -13.3573,12.9453 -12.88846,0 0,-12.94476 12.88846,0 0,12.94476 z m 0,0.4135 0,12.94485 -12.88846,0 0,-12.94485 12.88846,0 z m 0,13.35936 0,12.88692 -12.88846,0 0,-12.88692 12.88846,0 z m 0,13.30084 0,12.94639 -12.88846,0 0,-12.94639 12.88846,0 z m 0.41411,0 12.94319,0 0,12.94639 -12.94319,0 0,-12.94639 z m 12.94319,13.3604 0,12.88688 -12.94319,0 0,-12.88688 12.94319,0 z m 0.41342,0 12.88851,0 0,12.88688 -12.88851,0 0,-12.88688 z m 12.88903,13.30091 0,12.94325 -12.88854,0 0,-12.94325 12.88854,0 z m 0.41347,0 12.94475,0 0,12.94325 -12.94475,0 0,-12.94325 z m 13.35932,0 12.94643,0 0,12.94325 -12.94643,0 0,-12.94325 z m 13.36032,0 12.88535,0 0,12.94325 -12.88535,0 0,-12.94325 z m 0,-0.41403 0,-12.88688 12.88535,0 0,12.88688 -12.88535,0 z m 13.29938,-12.88688 12.94477,0 0,12.88688 -12.94477,0 0,-12.88688 z m 0,-0.41401 0,-12.94639 12.94477,0 0,12.94639 -12.94477,0 z m 13.35881,-12.94639 12.88535,0 0,12.94639 -12.88535,0 0,-12.94639 z m 0,-0.41392 0,-12.88692 12.88535,0 0,12.88692 -12.88535,0 z m 13.2993,-12.88692 12.94633,0 0,12.88692 -12.94633,0 0,-12.88692 z m 0,-0.414 0,-12.94478 12.94633,0 0,12.94478 -12.94633,0 z m 0,-13.35886 0,-12.94476 12.94633,0 0,12.94476 -12.94633,0 z m 0,-13.35872 0,-12.886978 12.94633,0 0,12.886978 -12.94633,0 z m -0.41395,0 -12.88535,0 0,-12.886978 12.88535,0 0,12.886978 z m -12.88535,-13.300898 0,-12.94634 12.88535,0 0,12.94634 -12.88535,0 z m -0.41404,0 -12.94477,0 0,-12.94634 12.94477,0 0,12.94634 z m -12.94477,-13.3604 0,-12.88682 12.94477,0 0,12.88682 -12.94477,0 z m -0.41403,0 -12.88535,0 0,-12.88682 12.88535,0 0,12.88682 z m -12.88535,-13.30143 0,-12.94317 12.88535,0 0,12.94317 -12.88535,0 z m -0.41344,0 -12.94632,0 0,-12.94317 12.94632,0 0,12.94317 z m -13.3609,0 -12.94479,0 0,-12.94317 12.94479,0 0,12.94317 0,0 z m -13.35877,0 -12.88854,0 0,-12.94317 12.88854,0 0,12.94317 z m 0,0.41407 0,12.88685 -12.88854,0 0,-12.88685 12.88854,0 z m -13.30245,12.88736 -12.94319,0 0,-12.88682 12.94319,0 0,12.88682 z m 0,0.41406 0,12.94634 -12.94319,0 0,-12.94634 12.94319,0 z m -13.3573,12.94634 -12.88846,0 0,-12.94634 12.88846,0 0,12.94634 z m 0,0.41392 0,12.886978 -12.88846,0 0,-12.886978 12.88846,0 z m -13.30244,12.886978 -12.94479,0 0,-12.886978 12.94479,0 0,12.886978 z m 0,0.41342 0,12.94479 -12.94479,0 0,-12.94479 12.94479,0 z m 0,13.3588 0,12.94485 -12.94479,0 0,-12.94485 12.94479,0 z m 0,13.35936 0,12.88692 -12.94479,0 0,-12.88692 12.94479,0 z m 0,26.66124 0,12.88688 -12.94479,0 0,-12.88688 12.94479,0 z m 0.41398,0 12.88846,0 0,12.88688 -12.88846,0 0,-12.88688 z m 12.88846,13.30091 0,12.94325 -12.88846,0 0,-12.94325 12.88846,0 z m 0.41411,0 12.94319,0 0,12.94325 -12.94319,0 0,-12.94325 z m 12.94319,13.35673 0,12.88691 -12.94319,0 0,-12.88691 12.94319,0 z m 0.41342,0 12.88851,0 0,12.88691 -12.88851,0 0,-12.88691 z m 13.3025,0 12.94475,0 0,12.88691 -12.94475,0 0,-12.88691 z m 13.35932,0 12.94643,0 0,12.88691 -12.94643,0 0,-12.88691 z m 13.36032,0 12.88535,0 0,12.88691 -12.88535,0 0,-12.88691 z m 13.29938,0 12.94477,0 0,12.88691 -12.94477,0 0,-12.88691 z m 0,-0.41296 0,-12.94324 12.94477,0 0,12.94324 -12.94477,0 z m 13.35881,-12.94377 12.88535,0 0,12.94325 -12.88535,0 0,-12.94325 z m 0,-0.41403 0,-12.88688 12.88535,0 0,12.88688 -12.88535,0 z m 13.2993,-12.88688 12.94633,0 0,12.88688 -12.94633,0 0,-12.88688 z m 0,-0.41401 0,-12.94639 12.94633,0 0,12.94639 -12.94633,0 z m 13.36033,-12.94639 12.88693,0 0,12.94639 -12.88693,0 0,-12.94639 z m 0,-0.41392 0,-12.88692 12.88693,0 0,12.88692 -12.88693,0 z m 0,-13.30092 0,-12.94478 12.88693,0 0,12.94478 -12.88693,0 z m 0,-13.35886 0,-12.94476 12.88693,0 0,12.94476 -12.88693,0 z m 0,-13.35872 0,-12.886978 12.88693,0 0,12.886978 -12.88693,0 z m 0,-13.300898 0,-12.94634 12.88693,0 0,12.94634 -12.88693,0 z m -0.41345,0 -12.94688,0 0,-12.94634 12.94633,0 5.5e-4,12.94634 0,0 z m -12.94688,-13.3604 0,-12.88682 12.94633,0 0,12.88682 -12.94633,0 z m -0.41395,0 -12.88535,0 0,-12.88682 12.88535,0 0,12.88682 z m -12.88535,-13.30143 0,-12.94317 12.88535,0 0,12.94317 -12.88535,0 z m -0.41404,0 -12.94477,0 0,-12.94317 12.94477,0 0,12.94317 z m -12.94477,-13.35722 0,-12.88692 12.94477,0 0,12.88692 -12.94477,0 z m -0.41403,0 -12.88535,0 0,-12.88692 12.88535,0 0,12.88692 z m -13.29879,0 -12.94632,0 0,-12.88692 12.94632,0 0,12.88692 z m -13.3609,0 -12.94479,0 0,-12.88692 12.94479,0 0,12.88692 0,0 z m -13.35877,0 -12.88854,0 0,-12.88692 12.88854,0 0,12.88692 z m -13.30245,0 -12.94319,0 0,-12.88692 12.94319,0 0,12.88692 z m 0,0.41405 0,12.94317 -12.94319,0 0,-12.94317 12.94319,0 z m -13.3573,12.94317 -12.88846,0 0,-12.94317 12.88846,0 0,12.94317 z m 0,0.41407 0,12.88685 -12.88846,0 0,-12.88685 12.88846,0 z m -13.30244,12.88736 -12.94479,0 0,-12.88682 12.94479,0 0,12.88682 z m 0,0.41406 0,12.94634 -12.94479,0 0,-12.94634 12.94479,0 z m -13.35882,12.94634 -12.88744,0 0,-12.94634 12.88689,0 0,12.94634 z m 0,0.41392 0,12.886978 -12.88744,0 0,-12.886978 12.88744,0 z m 0,13.300398 0,12.94479 -12.88744,0 0,-12.94479 12.88744,0 z m 0,13.3588 0,12.94485 -12.88744,0 0,-12.94485 12.88744,0 z m 0,13.35936 0,12.88692 -12.88744,0 0,-12.88692 12.88744,0 z m -13.30134,12.88692 -12.94482,0 0,-12.88692 12.94482,0 c 0,0 0,12.88692 0,12.88692 z m 0,0.41392 0,12.94639 -12.94482,0 0,-12.94639 12.94482,0 z m 0,13.3604 0,12.88688 -12.94482,0 0,-12.88688 12.94482,0 z m 0.4139,0 12.88689,0 0,12.88688 -12.88689,0 0,-12.88688 z m 12.88744,13.30091 0,12.94325 -12.88744,0 0,-12.94325 12.88744,0 z m 0.41354,0 12.94474,0 0,12.94325 -12.94474,0 0,-12.94325 z m 12.94528,13.35673 0,12.88691 -12.94479,0 0,-12.88691 12.94479,0 z m 0.41398,0 12.88846,0 0,12.88691 -12.88846,0 0,-12.88691 z m 12.88846,13.30137 0,12.94633 -12.88846,0 0,-12.94633 12.88846,0 z m 0.41411,0 12.94319,0 0,12.94633 -12.94319,0 0,-12.94633 z m 13.35661,0 12.88851,0 0,12.94633 -12.88851,0 0,-12.94633 z m 13.3025,0 12.94475,0 0,12.94633 -12.94475,0 0,-12.94633 z m 13.35932,0 12.94643,0 0,12.94633 -12.94643,0 0,-12.94633 z m 13.36032,0 12.88535,0 0,12.94633 -12.88535,0 0,-12.94633 z m 13.29938,0 12.94477,0 0,12.94633 -12.94477,0 0,-12.94633 z m 13.35881,0 12.88535,0 0,12.94633 -12.88535,0 0,-12.94633 z m 0,-0.41395 0,-12.88689 12.88535,0 0,12.88689 -12.88535,0 z m 13.2993,-12.88742 12.94633,0 0,12.88691 -12.94633,0 0,-12.88691 z m 0,-0.41296 0,-12.94324 12.94633,0 0,12.94324 -12.94633,0 z m 13.36033,-12.94377 12.88693,0 0,12.94325 -12.88693,0 0,-12.94325 z m 0,-0.41403 0,-12.88688 12.88693,0 0,12.88688 -12.88693,0 z m 13.30097,-12.88688 12.94473,0 0,12.88688 -12.94473,0 0,-12.88688 z m 0,-0.41401 0,-12.94639 12.94473,0 0,12.94639 -12.94473,0 z m 0,-13.36031 0,-12.88692 12.94473,0 0,12.88692 -12.94473,0 z m 0,-13.30092 0,-12.94478 12.94473,0 0,12.94478 -12.94473,0 z m 0,-13.35886 0,-12.94476 12.94473,0 0,12.94476 -12.94473,0 z m 0,-13.35872 0,-12.886978 12.94473,0 0,12.886978 -12.94473,0 z m 0,-13.300898 0,-12.94634 12.94473,0 0,12.94634 -12.94473,0 z m 0,-13.3604 0,-12.88682 12.94473,0 0,12.88682 -12.94473,0 z m -0.41404,0 -12.88693,0 0,-12.88682 12.88693,0 0,12.88682 z m -12.88693,-13.30143 0,-12.94317 12.88693,0 0,12.94317 -12.88693,0 z m -0.41345,0 -12.94688,0 0,-12.94317 12.94633,0 5.5e-4,12.94317 0,0 z m -12.94688,-13.35722 0,-12.88692 12.94633,0 0,12.88692 -12.94633,0 z m -0.41395,0 -12.88535,0 0,-12.88692 12.88535,0 0,12.88692 z m -12.88535,-13.30038 0,-12.94681 12.88535,0 0,12.94628 -12.88535,5.3e-4 0,0 z m -0.41404,0 -12.94477,0 0,-12.94681 12.94477,0 0,12.94681 z m -13.3588,0 -12.88535,0 0,-12.94681 12.88535,0 0,12.94681 z m -13.29879,0 -12.94632,0 0,-12.94681 12.94632,0 0,12.94681 z m -13.3609,0 -12.94479,0 0,-12.94681 12.94479,0 0,12.94681 0,0 z m -13.35877,0 -12.88854,0 0,-12.94681 12.88854,0 0,12.94681 z m -13.30245,0 -12.94319,0 0,-12.94681 12.94319,0 0,12.94681 z m -13.3573,0 -12.88846,0 0,-12.94681 12.88846,0 0,12.94681 z m 0,0.41346 0,12.88692 -12.88846,0 0,-12.88692 12.88846,0 z m -13.30244,12.88692 -12.94479,0 0,-12.88692 12.94479,0 0,12.88692 z m 0,0.41405 0,12.94317 -12.94479,0 0,-12.94317 12.94479,0 z m -13.35882,12.94317 -12.88744,0 0,-12.94317 12.88689,0 0,12.94317 z m 0,0.41407 0,12.88685 -12.88744,0 0,-12.88685 12.88744,0 z m -13.30134,12.88736 -12.94482,0 0,-12.88682 12.94482,0 c 0,-5.4e-4 0,12.88682 0,12.88682 z m 0,0.41406 0,12.94634 -12.94482,0 0,-12.94634 12.94482,0 z m 0,13.36026 0,12.886978 -12.94482,0 0,-12.886978 12.94482,0 z m 0,13.300398 0,12.94479 -12.94482,0 0,-12.94479 12.94482,0 z m 0,13.3588 0,12.94485 -12.94482,0 0,-12.94485 12.94482,0 z m -26.24373,13.35936 12.88536,0 0,12.88692 -12.88536,0 0,-12.88692 z m 0,13.30084 12.88536,0 0,12.94639 -12.88536,0 0,-12.94639 z m 0,26.24728 0,-12.88688 12.88536,0 0,12.88688 -12.88536,0 z m 13.29891,13.3578 0,-12.94324 12.94482,0 0,12.94324 -12.94482,0 z m 13.35872,13.30038 0,-12.88689 12.88689,0 0,12.88689 -12.88689,0 z m 13.30098,13.36028 0,-12.94633 12.94474,0 0,12.94633 -12.94474,0 z m 13.35926,13.30097 0,-12.88687 12.88846,0 0,12.88687 -12.88846,0 z m 13.30257,0 0,-12.88687 12.94319,0 0,12.88687 -12.94319,0 z m 13.35661,0 0,-12.88687 12.88851,0 0,12.88687 -12.88851,0 z m 13.3025,0 0,-12.88687 12.94475,0 0,12.88687 -12.94475,0 z m 13.35932,0 0,-12.88687 12.94643,0 0,12.88687 -12.94643,0 z m 13.36032,0 0,-12.88687 12.88535,0 0,12.88687 -12.88535,0 z m 13.29938,0 0,-12.88687 12.94477,0 0,12.88687 -12.94477,0 z m 26.24416,0 -12.88535,0 0,-12.88687 12.88535,0 0,12.88687 z m 13.36083,-13.30097 -12.94688,0 0,-12.94633 12.94633,0 5.5e-4,12.94633 0,0 z m 13.30038,-13.36028 -12.88693,0 0,-12.88689 12.88693,0 0,12.88689 z m 13.35877,-13.30038 -12.94473,0 0,-12.94324 12.94473,0 0,12.94324 z m 13.30149,-13.3578 -12.8869,0 0,-12.88688 12.8869,0 0,12.88688 z m 0,-13.30089 -12.8869,0 0,-12.94639 12.8869,0 0,12.94639 z m 0,-13.36031 -12.8869,0 0,-12.88692 12.8869,0 0,12.88692 z m 0,-13.30092 -12.8869,0 0,-12.94478 12.8869,0 0,12.94478 z m 0,-13.35886 -12.8869,0 0,-12.94476 12.8869,0 0,12.94476 z m 0,-13.35872 -12.8869,0 0,-12.886978 12.8869,0 0,12.886978 z m 0,-13.300898 -12.8869,0 0,-12.94634 12.8869,0 0,12.94634 z m 0,-26.24776 0,12.88685 -12.8869,0 0,-12.88685 12.8869,0 z m -13.30149,-13.35724 0,12.94317 -12.94473,0 0,-12.94317 12.94473,0 z m -13.35877,-13.30097 0,12.88692 -12.88693,0 0,-12.88692 12.88693,0 z m -13.30038,-13.36027 0,12.94628 -12.94688,0 0,-12.94628 12.94688,0 z m -13.36083,-13.30104 0,12.88695 -12.88535,0 0,-12.88695 12.88535,0 z m -13.29939,0 0,12.88695 -12.94477,0 0,-12.88695 12.94477,0 z m -13.3588,0 0,12.88695 -12.88535,0 0,-12.88695 12.88535,0 z m -13.29879,0 0,12.88695 -12.94632,0 0,-12.88695 12.94632,0 z m -13.3609,0 0,12.88695 -12.94479,0 0,-12.88695 12.94479,0 z m -13.35877,0 0,12.88695 -12.88854,0 0,-12.88695 12.88854,0 z m -13.30245,0 0,12.88695 -12.94319,0 0,-12.88695 12.94319,0 z m -26.24576,0 12.88846,0 0,12.88695 -12.88846,0 0,-12.88695 z m -13.35926,13.30104 12.94474,0 0,12.94628 -12.94474,0 0,-12.94628 z m -13.30098,13.36027 12.88689,0 0,12.88692 -12.88689,0 0,-12.88692 z m -13.35872,13.30097 12.94482,0 0,12.94317 -12.94482,0 0,-12.94317 z m -13.29891,13.35724 12.88536,0 0,12.88685 -12.88536,0 0,-12.88685 z m 0,13.30142 12.88536,0 0,12.94634 -12.88536,0 0,-12.94634 z m 0,13.36026 12.88536,0 0,12.886978 -12.88536,0 0,-12.886978 z m 0,13.300398 12.88536,0 0,12.94479 -12.88536,0 0,-12.94479 z"
     id="path5033"
     inkscape:connector-curvature="0" /><path
     style="fill:#ffffff"
     d="m 235.26196,86.629872 c -0.62566,-2.16808 -1.30456,-4.31013 -2.04755,-6.42551 L 212.35078,116.72571 185.73539,103.38828 146.16846,169.31357 120.49003,143.64042 93.82984,156.9392 53.31653,116.48843 26.63544,143.17265 0.068,117.3467 C 0.0477,118.23255 0,119.11123 0,120.00181 c 0,1.44633 0.0586,2.87819 0.10946,4.31159 l 26.57738,25.83377 26.63514,-26.63677 39.52887,39.46895 26.65819,-13.29938 27.6447,27.64311 40.46998,-67.43163 26.70616,13.38167 20.93184,-36.643248 z"
     id="path5035"
     inkscape:connector-curvature="0" /><path
     style="fill:#d9d8d7"
     d="m 266.87936,59.277182 -6.09433,-22.33298 -2.39017,0.65385 c -0.004,0 -0.008,0.002 -0.0112,0.004 l -19.93333,5.43685 c -1.32236,0.36241 -2.10349,1.72587 -1.7426,3.04873 0.36089,1.32385 1.72114,2.10337 3.05031,1.74257 l 14.15654,-3.86326 -20.70093,36.23984 c 0.74304,2.11327 1.42186,4.25738 2.0476,6.42542 l 22.96334,-40.20054 3.8617,14.15667 c 0.30288,1.10385 1.30299,1.82908 2.39325,1.82908 0.21643,0 0.43698,-0.0304 0.6555,-0.0881 1.32392,-0.36183 2.10336,-1.72799 1.74305,-3.05185 z"
     id="path5037"
     inkscape:connector-curvature="0" /><circle
     style="fill:#ff6d3b"
     cx="146.65872"
     cy="173.32021"
     r="8.8985596"
     id="circle5039" /><circle
     style="fill:#ffffff"
     cx="146.66367"
     cy="173.32021"
     r="4.6229134"
     id="circle5041" /><circle
     style="fill:#242d3c"
     cx="53.319145"
     cy="120.00138"
     r="8.8985596"
     id="circle5043" /><circle
     style="fill:#ffffff"
     cx="53.319145"
     cy="120.00138"
     r="4.6229134"
     id="circle5045" /><g
     id="g5047"
     transform="matrix(0.52142039,0,0,0.52142039,2.4e-4,-13.482888)" /><g
     id="g5049"
     transform="matrix(0.52142039,0,0,0.52142039,2.4e-4,-13.482888)" /><g
     id="g5051"
     transform="matrix(0.52142039,0,0,0.52142039,2.4e-4,-13.482888)" /><g
     id="g5053"
     transform="matrix(0.52142039,0,0,0.52142039,2.4e-4,-13.482888)" /><g
     id="g5055"
     transform="matrix(0.52142039,0,0,0.52142039,2.4e-4,-13.482888)" /><g
     id="g5057"
     transform="matrix(0.52142039,0,0,0.52142039,2.4e-4,-13.482888)" /><g
     id="g5059"
     transform="matrix(0.52142039,0,0,0.52142039,2.4e-4,-13.482888)" /><g
     id="g5061"
     transform="matrix(0.52142039,0,0,0.52142039,2.4e-4,-13.482888)" /><g
     id="g5063"
     transform="matrix(0.52142039,0,0,0.52142039,2.4e-4,-13.482888)" /><g
     id="g5065"
     transform="matrix(0.52142039,0,0,0.52142039,2.4e-4,-13.482888)" /><g
     id="g5067"
     transform="matrix(0.52142039,0,0,0.52142039,2.4e-4,-13.482888)" /><g
     id="g5069"
     transform="matrix(0.52142039,0,0,0.52142039,2.4e-4,-13.482888)" /><g
     id="g5071"
     transform="matrix(0.52142039,0,0,0.52142039,2.4e-4,-13.482888)" /><g
     id="g5073"
     transform="matrix(0.52142039,0,0,0.52142039,2.4e-4,-13.482888)" /><g
     id="g5075"
     transform="matrix(0.52142039,0,0,0.52142039,2.4e-4,-13.482888)" /></svg>