<?xml version="1.0" encoding="utf-8" standalone="no"?>
<!DOCTYPE svg PUBLIC "-//W3C//DTD SVG 1.1//EN"
  "http://www.w3.org/Graphics/SVG/1.1/DTD/svg11.dtd">
<!-- Created with matplotlib (http://matplotlib.org/) -->
<svg height="293pt" version="1.1" viewBox="0 0 676 293" width="676pt" xmlns="http://www.w3.org/2000/svg" xmlns:xlink="http://www.w3.org/1999/xlink">
 <defs>
  <style type="text/css">
*{stroke-linecap:butt;stroke-linejoin:round;}
  </style>
 </defs>
 <g id="figure_1">
  <g id="patch_1">
   <path d="M 0 293.508359 
L 676.744 293.508359 
L 676.744 0 
L 0 0 
z
" style="fill:none;"/>
  </g>
  <g id="axes_1">
   <g id="patch_2">
    <path d="M 3.572 275.372 
L 673.172 275.372 
L 673.172 3.572 
L 3.572 3.572 
z
" style="fill:none;"/>
   </g>
   <g id="line2d_1">
    <path clip-path="url(#pf58693df3f)" d="M 3.572 239.132 
L 673.172 239.132 
" style="fill:none;stroke:#e6e6e6;stroke-linecap:square;"/>
   </g>
   <g id="line2d_2">
    <path clip-path="url(#pf58693df3f)" d="M 3.572 202.892 
L 673.172 202.892 
" style="fill:none;stroke:#e6e6e6;stroke-linecap:square;"/>
   </g>
   <g id="line2d_3">
    <path clip-path="url(#pf58693df3f)" d="M 3.572 166.652 
L 673.172 166.652 
" style="fill:none;stroke:#e6e6e6;stroke-linecap:square;"/>
   </g>
   <g id="line2d_4">
    <path clip-path="url(#pf58693df3f)" d="M 3.572 94.172 
L 673.172 94.172 
" style="fill:none;stroke:#e6e6e6;stroke-linecap:square;"/>
   </g>
   <g id="line2d_5">
    <path clip-path="url(#pf58693df3f)" d="M 3.572 57.932 
L 673.172 57.932 
" style="fill:none;stroke:#e6e6e6;stroke-linecap:square;"/>
   </g>
   <g id="line2d_6">
    <path clip-path="url(#pf58693df3f)" d="M 3.572 21.692 
L 673.172 21.692 
" style="fill:none;stroke:#e6e6e6;stroke-linecap:square;"/>
   </g>
   <g id="line2d_7">
    <path clip-path="url(#pf58693df3f)" d="M 640.06818 275.372 
L 640.06818 22.598 
" style="fill:none;stroke:#e6e6e6;stroke-dasharray:2,3.3;stroke-dashoffset:0;stroke-width:2;"/>
   </g>
   <g id="PolyCollection_1">
    <path clip-path="url(#pf58693df3f)" d="M 45.704135 565.292 
L 45.704135 275.372 
L 47.208854 275.372 
L 48.713573 275.372 
L 50.218292 275.372 
L 51.723011 275.372 
L 53.22773 275.372 
L 54.732449 275.372 
L 56.237169 275.372 
L 57.741888 275.372 
L 59.246607 275.372 
L 60.751326 275.372 
L 62.256045 275.372 
L 63.760764 275.372 
L 65.265483 275.372 
L 66.770202 275.372 
L 68.274921 275.372 
L 69.77964 275.372 
L 71.28436 275.372 
L 72.789079 275.372 
L 74.293798 275.372 
L 75.798517 275.372 
L 77.303236 275.372 
L 78.807955 275.372 
L 80.312674 275.372 
L 81.817393 275.372 
L 83.322112 275.372 
L 84.826831 275.372 
L 86.331551 275.372 
L 87.83627 275.372 
L 89.340989 275.372 
L 90.845708 275.372 
L 92.350427 275.372 
L 93.855146 275.372 
L 95.359865 275.372 
L 96.864584 275.372 
L 98.369303 275.372 
L 99.874022 275.372 
L 101.378742 275.372 
L 102.883461 275.372 
L 104.38818 275.372 
L 105.892899 275.372 
L 107.397618 275.372 
L 108.902337 275.372 
L 110.407056 275.372 
L 111.911775 275.372 
L 113.416494 275.372 
L 114.921213 275.372 
L 116.425933 275.372 
L 117.930652 275.372 
L 119.435371 275.372 
L 120.94009 275.372 
L 122.444809 275.372 
L 123.949528 275.372 
L 125.454247 275.372 
L 126.958966 275.372 
L 128.463685 275.372 
L 129.968404 275.372 
L 131.473124 275.372 
L 132.977843 275.372 
L 134.482562 275.372 
L 135.987281 275.372 
L 137.492 275.372 
L 138.996719 275.372 
L 140.501438 275.372 
L 142.006157 275.372 
L 143.510876 275.372 
L 145.015596 275.372 
L 146.520315 275.372 
L 148.025034 275.372 
L 149.529753 275.372 
L 151.034472 275.372 
L 152.539191 275.372 
L 154.04391 275.372 
L 155.548629 275.372 
L 157.053348 275.372 
L 158.558067 275.372 
L 160.062787 275.372 
L 161.567506 275.372 
L 163.072225 275.372 
L 164.576944 275.372 
L 166.081663 275.372 
L 167.586382 275.372 
L 169.091101 275.372 
L 170.59582 275.372 
L 172.100539 275.372 
L 173.605258 275.372 
L 175.109978 275.372 
L 176.614697 275.372 
L 178.119416 275.372 
L 179.624135 275.372 
L 181.128854 275.372 
L 182.633573 275.372 
L 184.138292 275.372 
L 185.643011 275.372 
L 187.14773 275.372 
L 188.652449 275.372 
L 190.157169 275.372 
L 191.661888 275.372 
L 193.166607 275.372 
L 194.671326 275.372 
L 196.176045 275.372 
L 197.680764 275.372 
L 199.185483 275.372 
L 200.690202 275.372 
L 202.194921 275.372 
L 203.69964 275.372 
L 205.20436 275.372 
L 206.709079 275.372 
L 208.213798 275.372 
L 209.718517 275.372 
L 211.223236 275.372 
L 212.727955 275.372 
L 214.232674 275.372 
L 215.737393 275.372 
L 217.242112 275.372 
L 218.746831 275.372 
L 220.251551 275.372 
L 221.75627 275.372 
L 223.260989 275.372 
L 224.765708 275.372 
L 226.270427 275.372 
L 227.775146 275.372 
L 229.279865 275.372 
L 230.784584 275.372 
L 232.289303 275.372 
L 233.794022 275.372 
L 235.298742 275.372 
L 236.803461 275.372 
L 238.30818 275.372 
L 239.812899 275.372 
L 241.317618 275.372 
L 242.822337 275.372 
L 244.327056 275.372 
L 245.831775 275.372 
L 247.336494 275.372 
L 248.841213 275.372 
L 250.345933 275.372 
L 251.850652 275.372 
L 253.355371 275.372 
L 254.86009 275.372 
L 256.364809 275.372 
L 257.869528 275.372 
L 259.374247 275.372 
L 260.878966 275.372 
L 262.383685 275.372 
L 263.888404 275.372 
L 265.393124 275.372 
L 266.897843 275.372 
L 268.402562 275.372 
L 269.907281 275.372 
L 271.412 275.372 
L 272.916719 275.372 
L 274.421438 275.372 
L 275.926157 275.372 
L 277.430876 275.372 
L 278.935596 275.372 
L 280.440315 275.372 
L 281.945034 275.372 
L 283.449753 275.372 
L 284.954472 275.372 
L 286.459191 275.372 
L 287.96391 275.372 
L 289.468629 275.372 
L 290.973348 275.372 
L 292.478067 275.372 
L 293.982787 275.372 
L 295.487506 275.372 
L 296.992225 275.372 
L 298.496944 275.372 
L 300.001663 275.372 
L 301.506382 275.372 
L 303.011101 275.372 
L 304.51582 275.372 
L 306.020539 275.372 
L 307.525258 275.372 
L 309.029978 275.372 
L 310.534697 275.372 
L 312.039416 275.372 
L 313.544135 275.372 
L 315.048854 275.372 
L 316.553573 275.372 
L 318.058292 275.372 
L 319.563011 275.372 
L 321.06773 275.372 
L 322.572449 275.372 
L 324.077169 275.372 
L 325.581888 275.372 
L 327.086607 275.372 
L 328.591326 275.372 
L 330.096045 275.372 
L 331.600764 275.372 
L 333.105483 275.372 
L 334.610202 275.372 
L 336.114921 275.372 
L 337.61964 275.372 
L 339.12436 275.372 
L 340.629079 275.372 
L 342.133798 275.372 
L 343.638517 275.372 
L 345.143236 275.372 
L 346.647955 275.372 
L 348.152674 275.372 
L 349.657393 275.372 
L 351.162112 275.372 
L 352.666831 275.372 
L 354.171551 275.372 
L 355.67627 275.372 
L 357.180989 275.372 
L 358.685708 275.372 
L 360.190427 275.372 
L 361.695146 275.372 
L 363.199865 275.372 
L 364.704584 275.372 
L 366.209303 275.372 
L 367.714022 275.372 
L 369.218742 275.372 
L 370.723461 275.372 
L 372.22818 275.372 
L 373.732899 275.372 
L 375.237618 275.372 
L 376.742337 275.372 
L 378.247056 275.372 
L 379.751775 275.372 
L 381.256494 275.372 
L 382.761213 275.372 
L 384.265933 275.372 
L 385.770652 275.372 
L 387.275371 275.372 
L 388.78009 275.372 
L 390.284809 275.372 
L 391.789528 275.372 
L 393.294247 275.372 
L 394.798966 275.372 
L 396.303685 275.372 
L 397.808404 275.372 
L 399.313124 275.372 
L 400.817843 275.372 
L 402.322562 275.372 
L 403.827281 275.372 
L 405.332 275.372 
L 406.836719 275.372 
L 408.341438 275.372 
L 409.846157 275.372 
L 411.350876 275.372 
L 412.855596 275.372 
L 414.360315 275.372 
L 415.865034 275.372 
L 417.369753 275.372 
L 418.874472 275.372 
L 420.379191 275.372 
L 421.88391 275.372 
L 423.388629 275.372 
L 424.893348 275.372 
L 426.398067 275.372 
L 427.902787 275.372 
L 429.407506 275.372 
L 430.912225 275.372 
L 432.416944 275.372 
L 433.921663 275.372 
L 435.426382 275.372 
L 436.931101 275.372 
L 438.43582 275.372 
L 439.940539 275.372 
L 441.445258 275.372 
L 442.949978 275.372 
L 444.454697 275.372 
L 445.959416 275.372 
L 447.464135 275.372 
L 448.968854 275.372 
L 450.473573 275.372 
L 451.978292 275.372 
L 453.483011 275.372 
L 454.98773 275.372 
L 456.492449 275.372 
L 457.997169 275.372 
L 459.501888 275.372 
L 461.006607 275.372 
L 462.511326 275.372 
L 464.016045 275.372 
L 465.520764 275.372 
L 467.025483 275.372 
L 468.530202 275.372 
L 470.034921 275.372 
L 471.53964 275.372 
L 473.04436 275.372 
L 474.549079 275.372 
L 476.053798 275.372 
L 477.558517 275.372 
L 479.063236 275.372 
L 480.567955 275.372 
L 482.072674 275.372 
L 483.577393 275.372 
L 485.082112 275.372 
L 486.586831 275.372 
L 488.091551 275.372 
L 489.59627 275.372 
L 491.100989 275.372 
L 492.605708 275.372 
L 494.110427 275.372 
L 495.615146 275.372 
L 497.119865 275.372 
L 498.624584 275.372 
L 500.129303 275.372 
L 501.634022 275.372 
L 503.138742 275.372 
L 504.643461 275.372 
L 506.14818 275.372 
L 507.652899 275.372 
L 509.157618 275.372 
L 510.662337 275.372 
L 512.167056 275.372 
L 513.671775 275.372 
L 515.176494 275.372 
L 516.681213 275.372 
L 518.185933 275.372 
L 519.690652 275.372 
L 521.195371 275.372 
L 522.70009 275.372 
L 524.204809 275.372 
L 525.709528 275.372 
L 527.214247 275.372 
L 528.718966 275.372 
L 530.223685 275.372 
L 531.728404 275.372 
L 533.233124 275.372 
L 534.737843 275.372 
L 536.242562 275.372 
L 537.747281 275.372 
L 539.252 275.372 
L 540.756719 275.372 
L 542.261438 275.372 
L 543.766157 275.372 
L 545.270876 275.372 
L 546.775596 275.372 
L 548.280315 275.372 
L 549.785034 275.372 
L 551.289753 275.372 
L 552.794472 275.372 
L 554.299191 275.372 
L 555.80391 275.372 
L 557.308629 275.372 
L 558.813348 275.372 
L 560.318067 275.372 
L 561.822787 275.372 
L 563.327506 275.372 
L 564.832225 275.372 
L 566.336944 275.372 
L 567.841663 275.372 
L 569.346382 275.372 
L 570.851101 275.372 
L 572.35582 275.372 
L 573.860539 275.372 
L 575.365258 275.372 
L 576.869978 275.372 
L 578.374697 275.372 
L 579.879416 275.372 
L 581.384135 275.372 
L 582.888854 275.372 
L 584.393573 275.372 
L 585.898292 275.372 
L 587.403011 275.372 
L 588.90773 275.372 
L 590.412449 275.372 
L 591.917169 275.372 
L 593.421888 275.372 
L 594.926607 275.372 
L 596.431326 275.372 
L 597.936045 275.372 
L 599.440764 275.372 
L 600.945483 275.372 
L 602.450202 275.372 
L 603.954921 275.372 
L 605.45964 275.372 
L 606.96436 275.372 
L 608.469079 275.372 
L 609.973798 275.372 
L 611.478517 275.372 
L 612.983236 275.372 
L 614.487955 275.372 
L 615.992674 275.372 
L 617.497393 275.372 
L 619.002112 275.372 
L 620.506831 275.372 
L 622.011551 275.372 
L 623.51627 275.372 
L 625.020989 275.372 
L 626.525708 275.372 
L 628.030427 275.372 
L 629.535146 275.372 
L 631.039865 275.372 
L 632.544584 275.372 
L 634.049303 275.372 
L 635.554022 275.372 
L 637.058742 275.372 
L 638.563461 275.372 
L 640.06818 275.372 
L 641.572899 275.372 
L 643.077618 275.372 
L 644.582337 275.372 
L 646.087056 275.372 
L 647.591775 275.372 
L 649.096494 275.372 
L 650.601213 275.372 
L 652.105933 275.372 
L 653.610652 275.372 
L 655.115371 275.372 
L 656.62009 275.372 
L 658.124809 275.372 
L 659.629528 275.372 
L 661.134247 275.372 
L 662.638966 275.372 
L 664.143685 275.372 
L 665.648404 275.372 
L 667.153124 275.372 
L 668.657843 275.372 
L 670.162562 275.372 
L 671.667281 275.372 
L 671.667281 565.292 
L 671.667281 565.292 
L 670.162562 565.292 
L 668.657843 565.292 
L 667.153124 565.292 
L 665.648404 565.292 
L 664.143685 565.292 
L 662.638966 565.292 
L 661.134247 565.292 
L 659.629528 565.292 
L 658.124809 565.292 
L 656.62009 565.292 
L 655.115371 565.292 
L 653.610652 565.292 
L 652.105933 565.292 
L 650.601213 565.292 
L 649.096494 565.292 
L 647.591775 565.292 
L 646.087056 565.292 
L 644.582337 565.292 
L 643.077618 565.292 
L 641.572899 565.292 
L 640.06818 565.292 
L 638.563461 565.292 
L 637.058742 565.292 
L 635.554022 565.292 
L 634.049303 565.292 
L 632.544584 565.292 
L 631.039865 565.292 
L 629.535146 565.292 
L 628.030427 565.292 
L 626.525708 565.292 
L 625.020989 565.292 
L 623.51627 565.292 
L 622.011551 565.292 
L 620.506831 565.292 
L 619.002112 565.292 
L 617.497393 565.292 
L 615.992674 565.292 
L 614.487955 565.292 
L 612.983236 565.292 
L 611.478517 565.292 
L 609.973798 565.292 
L 608.469079 565.292 
L 606.96436 565.292 
L 605.45964 565.292 
L 603.954921 565.292 
L 602.450202 565.292 
L 600.945483 565.292 
L 599.440764 565.292 
L 597.936045 565.292 
L 596.431326 565.292 
L 594.926607 565.292 
L 593.421888 565.292 
L 591.917169 565.292 
L 590.412449 565.292 
L 588.90773 565.292 
L 587.403011 565.292 
L 585.898292 565.292 
L 584.393573 565.292 
L 582.888854 565.292 
L 581.384135 565.292 
L 579.879416 565.292 
L 578.374697 565.292 
L 576.869978 565.292 
L 575.365258 565.292 
L 573.860539 565.292 
L 572.35582 565.292 
L 570.851101 565.292 
L 569.346382 565.292 
L 567.841663 565.292 
L 566.336944 565.292 
L 564.832225 565.292 
L 563.327506 565.292 
L 561.822787 565.292 
L 560.318067 565.292 
L 558.813348 565.292 
L 557.308629 565.292 
L 555.80391 565.292 
L 554.299191 565.292 
L 552.794472 565.292 
L 551.289753 565.292 
L 549.785034 565.292 
L 548.280315 565.292 
L 546.775596 565.292 
L 545.270876 565.292 
L 543.766157 565.292 
L 542.261438 565.292 
L 540.756719 565.292 
L 539.252 565.292 
L 537.747281 565.292 
L 536.242562 565.292 
L 534.737843 565.292 
L 533.233124 565.292 
L 531.728404 565.292 
L 530.223685 565.292 
L 528.718966 565.292 
L 527.214247 565.292 
L 525.709528 565.292 
L 524.204809 565.292 
L 522.70009 21.692 
L 521.195371 21.692 
L 519.690652 21.692 
L 518.185933 21.692 
L 516.681213 21.692 
L 515.176494 21.692 
L 513.671775 21.692 
L 512.167056 21.692 
L 510.662337 21.692 
L 509.157618 21.692 
L 507.652899 21.692 
L 506.14818 21.692 
L 504.643461 21.692 
L 503.138742 21.692 
L 501.634022 21.692 
L 500.129303 21.692 
L 498.624584 21.692 
L 497.119865 21.692 
L 495.615146 565.292 
L 494.110427 565.292 
L 492.605708 565.292 
L 491.100989 565.292 
L 489.59627 565.292 
L 488.091551 565.292 
L 486.586831 565.292 
L 485.082112 565.292 
L 483.577393 565.292 
L 482.072674 565.292 
L 480.567955 565.292 
L 479.063236 565.292 
L 477.558517 565.292 
L 476.053798 565.292 
L 474.549079 565.292 
L 473.04436 565.292 
L 471.53964 565.292 
L 470.034921 565.292 
L 468.530202 565.292 
L 467.025483 565.292 
L 465.520764 565.292 
L 464.016045 565.292 
L 462.511326 565.292 
L 461.006607 565.292 
L 459.501888 565.292 
L 457.997169 565.292 
L 456.492449 565.292 
L 454.98773 565.292 
L 453.483011 565.292 
L 451.978292 565.292 
L 450.473573 565.292 
L 448.968854 565.292 
L 447.464135 565.292 
L 445.959416 565.292 
L 444.454697 565.292 
L 442.949978 565.292 
L 441.445258 565.292 
L 439.940539 565.292 
L 438.43582 565.292 
L 436.931101 565.292 
L 435.426382 565.292 
L 433.921663 565.292 
L 432.416944 565.292 
L 430.912225 565.292 
L 429.407506 565.292 
L 427.902787 565.292 
L 426.398067 565.292 
L 424.893348 565.292 
L 423.388629 565.292 
L 421.88391 565.292 
L 420.379191 565.292 
L 418.874472 565.292 
L 417.369753 565.292 
L 415.865034 565.292 
L 414.360315 565.292 
L 412.855596 565.292 
L 411.350876 565.292 
L 409.846157 565.292 
L 408.341438 565.292 
L 406.836719 565.292 
L 405.332 565.292 
L 403.827281 565.292 
L 402.322562 565.292 
L 400.817843 565.292 
L 399.313124 565.292 
L 397.808404 565.292 
L 396.303685 565.292 
L 394.798966 565.292 
L 393.294247 565.292 
L 391.789528 565.292 
L 390.284809 565.292 
L 388.78009 565.292 
L 387.275371 565.292 
L 385.770652 21.692 
L 384.265933 21.692 
L 382.761213 21.692 
L 381.256494 21.692 
L 379.751775 21.692 
L 378.247056 21.692 
L 376.742337 21.692 
L 375.237618 21.692 
L 373.732899 565.292 
L 372.22818 565.292 
L 370.723461 565.292 
L 369.218742 565.292 
L 367.714022 565.292 
L 366.209303 565.292 
L 364.704584 565.292 
L 363.199865 565.292 
L 361.695146 565.292 
L 360.190427 565.292 
L 358.685708 565.292 
L 357.180989 565.292 
L 355.67627 565.292 
L 354.171551 565.292 
L 352.666831 565.292 
L 351.162112 565.292 
L 349.657393 565.292 
L 348.152674 565.292 
L 346.647955 565.292 
L 345.143236 565.292 
L 343.638517 565.292 
L 342.133798 565.292 
L 340.629079 565.292 
L 339.12436 565.292 
L 337.61964 565.292 
L 336.114921 565.292 
L 334.610202 565.292 
L 333.105483 565.292 
L 331.600764 565.292 
L 330.096045 565.292 
L 328.591326 565.292 
L 327.086607 565.292 
L 325.581888 565.292 
L 324.077169 565.292 
L 322.572449 565.292 
L 321.06773 565.292 
L 319.563011 565.292 
L 318.058292 565.292 
L 316.553573 565.292 
L 315.048854 565.292 
L 313.544135 565.292 
L 312.039416 565.292 
L 310.534697 565.292 
L 309.029978 565.292 
L 307.525258 565.292 
L 306.020539 565.292 
L 304.51582 565.292 
L 303.011101 565.292 
L 301.506382 565.292 
L 300.001663 565.292 
L 298.496944 565.292 
L 296.992225 565.292 
L 295.487506 565.292 
L 293.982787 565.292 
L 292.478067 565.292 
L 290.973348 565.292 
L 289.468629 565.292 
L 287.96391 565.292 
L 286.459191 565.292 
L 284.954472 565.292 
L 283.449753 565.292 
L 281.945034 565.292 
L 280.440315 565.292 
L 278.935596 565.292 
L 277.430876 565.292 
L 275.926157 565.292 
L 274.421438 565.292 
L 272.916719 565.292 
L 271.412 565.292 
L 269.907281 565.292 
L 268.402562 565.292 
L 266.897843 565.292 
L 265.393124 565.292 
L 263.888404 565.292 
L 262.383685 565.292 
L 260.878966 565.292 
L 259.374247 565.292 
L 257.869528 565.292 
L 256.364809 565.292 
L 254.86009 565.292 
L 253.355371 565.292 
L 251.850652 565.292 
L 250.345933 565.292 
L 248.841213 565.292 
L 247.336494 565.292 
L 245.831775 565.292 
L 244.327056 565.292 
L 242.822337 565.292 
L 241.317618 565.292 
L 239.812899 565.292 
L 238.30818 565.292 
L 236.803461 565.292 
L 235.298742 565.292 
L 233.794022 565.292 
L 232.289303 565.292 
L 230.784584 565.292 
L 229.279865 565.292 
L 227.775146 565.292 
L 226.270427 565.292 
L 224.765708 565.292 
L 223.260989 565.292 
L 221.75627 565.292 
L 220.251551 565.292 
L 218.746831 565.292 
L 217.242112 565.292 
L 215.737393 565.292 
L 214.232674 565.292 
L 212.727955 565.292 
L 211.223236 565.292 
L 209.718517 565.292 
L 208.213798 565.292 
L 206.709079 565.292 
L 205.20436 565.292 
L 203.69964 565.292 
L 202.194921 565.292 
L 200.690202 565.292 
L 199.185483 565.292 
L 197.680764 565.292 
L 196.176045 565.292 
L 194.671326 565.292 
L 193.166607 21.692 
L 191.661888 21.692 
L 190.157169 21.692 
L 188.652449 21.692 
L 187.14773 21.692 
L 185.643011 21.692 
L 184.138292 21.692 
L 182.633573 21.692 
L 181.128854 565.292 
L 179.624135 565.292 
L 178.119416 565.292 
L 176.614697 565.292 
L 175.109978 565.292 
L 173.605258 565.292 
L 172.100539 565.292 
L 170.59582 565.292 
L 169.091101 565.292 
L 167.586382 565.292 
L 166.081663 565.292 
L 164.576944 565.292 
L 163.072225 565.292 
L 161.567506 565.292 
L 160.062787 565.292 
L 158.558067 565.292 
L 157.053348 565.292 
L 155.548629 565.292 
L 154.04391 565.292 
L 152.539191 565.292 
L 151.034472 565.292 
L 149.529753 565.292 
L 148.025034 565.292 
L 146.520315 565.292 
L 145.015596 565.292 
L 143.510876 565.292 
L 142.006157 565.292 
L 140.501438 565.292 
L 138.996719 565.292 
L 137.492 565.292 
L 135.987281 565.292 
L 134.482562 565.292 
L 132.977843 565.292 
L 131.473124 565.292 
L 129.968404 565.292 
L 128.463685 565.292 
L 126.958966 565.292 
L 125.454247 565.292 
L 123.949528 565.292 
L 122.444809 565.292 
L 120.94009 565.292 
L 119.435371 565.292 
L 117.930652 565.292 
L 116.425933 565.292 
L 114.921213 565.292 
L 113.416494 565.292 
L 111.911775 565.292 
L 110.407056 565.292 
L 108.902337 565.292 
L 107.397618 565.292 
L 105.892899 565.292 
L 104.38818 565.292 
L 102.883461 565.292 
L 101.378742 565.292 
L 99.874022 565.292 
L 98.369303 565.292 
L 96.864584 565.292 
L 95.359865 565.292 
L 93.855146 565.292 
L 92.350427 565.292 
L 90.845708 565.292 
L 89.340989 565.292 
L 87.83627 565.292 
L 86.331551 565.292 
L 84.826831 565.292 
L 83.322112 565.292 
L 81.817393 565.292 
L 80.312674 565.292 
L 78.807955 565.292 
L 77.303236 565.292 
L 75.798517 565.292 
L 74.293798 565.292 
L 72.789079 565.292 
L 71.28436 565.292 
L 69.77964 565.292 
L 68.274921 565.292 
L 66.770202 565.292 
L 65.265483 565.292 
L 63.760764 565.292 
L 62.256045 565.292 
L 60.751326 565.292 
L 59.246607 565.292 
L 57.741888 565.292 
L 56.237169 565.292 
L 54.732449 565.292 
L 53.22773 565.292 
L 51.723011 565.292 
L 50.218292 565.292 
L 48.713573 565.292 
L 47.208854 565.292 
L 45.704135 565.292 
z
" style="fill:#9d8666;fill-opacity:0.25;"/>
   </g>
   <g id="line2d_8">
    <path clip-path="url(#pf58693df3f)" d="M 3.572 130.412 
L 673.172 130.412 
" style="fill:none;stroke:#111111;stroke-linecap:square;stroke-width:2;"/>
   </g>
   <g id="matplotlib.axis_1">
    <g id="xtick_1">
     <g id="text_1">
      <!-- '85 -->
      <defs>
       <path d="M 6.40625 73 
L 6.40625 62.578125 
L 11.203125 62.578125 
C 11.296875 56.765625 9.90625 54.0625 6.40625 53.5625 
L 6.40625 49.75 
C 12.40625 50.25 15.703125 54.859375 15.703125 62.875 
L 15.703125 73 
z
" id="Nimbus_Sans_L_Regular-39"/>
       <path d="M 39.09375 37.484375 
C 46.40625 41.875 48.796875 45.46875 48.796875 52.15625 
C 48.796875 63.21875 40.09375 71 27.5 71 
C 15 71 6.203125 63.21875 6.203125 52.15625 
C 6.203125 45.578125 8.59375 41.984375 15.796875 37.484375 
C 7.703125 33.59375 3.703125 27.71875 3.703125 19.9375 
C 3.703125 6.96875 13.5 -2 27.5 -2 
C 41.5 -2 51.296875 6.984375 51.296875 19.84375 
C 51.296875 27.71875 47.296875 33.59375 39.09375 37.484375 
z
M 27.5 63.1875 
C 35 63.1875 39.796875 58.8125 39.796875 51.953125 
C 39.796875 45.375 34.90625 41 27.5 41 
C 20.09375 41 15.203125 45.375 15.203125 52.046875 
C 15.203125 58.8125 20.09375 63.1875 27.5 63.1875 
z
M 27.5 33.578125 
C 36.296875 33.578125 42.296875 28 42.296875 19.734375 
C 42.296875 11.390625 36.296875 5.8125 27.296875 5.8125 
C 18.703125 5.8125 12.703125 11.484375 12.703125 19.734375 
C 12.703125 28 18.703125 33.578125 27.5 33.578125 
z
" id="Nimbus_Sans_L_Regular-56"/>
       <path d="M 47.59375 71 
L 11 71 
L 5.703125 32.59375 
L 13.796875 32.59375 
C 17.90625 37.484375 21.296875 39.1875 26.796875 39.1875 
C 36.296875 39.1875 42.296875 32.6875 42.296875 22.203125 
C 42.296875 12 36.40625 5.8125 26.796875 5.8125 
C 19.09375 5.8125 14.40625 9.703125 12.296875 17.703125 
L 3.5 17.703125 
C 4.703125 11.90625 5.703125 9.09375 7.796875 6.484375 
C 11.796875 1.09375 19 -2 27 -2 
C 41.296875 -2 51.296875 8.390625 51.296875 23.390625 
C 51.296875 37.40625 42 47 28.40625 47 
C 23.40625 47 19.40625 45.703125 15.296875 42.6875 
L 18.09375 62.296875 
L 47.59375 62.296875 
z
" id="Nimbus_Sans_L_Regular-53"/>
      </defs>
      <g style="fill:#999999;" transform="translate(73.843397 290.889984)scale(0.12 -0.12)">
       <use transform="scale(0.996264)" xlink:href="#Nimbus_Sans_L_Regular-39"/>
       <use transform="translate(22.116784 0)scale(0.996264)" xlink:href="#Nimbus_Sans_L_Regular-56"/>
       <use transform="translate(77.508461 0)scale(0.996264)" xlink:href="#Nimbus_Sans_L_Regular-53"/>
      </g>
     </g>
    </g>
    <g id="xtick_2">
     <g id="text_2">
      <!-- '90 -->
      <defs>
       <path d="M 5.296875 16.625 
C 7 4.9375 14.59375 -2 25.40625 -2 
C 33.203125 -2 40.296875 1.78125 44.40625 8.0625 
C 48.90625 14.9375 50.90625 23.625 50.90625 36.484375 
C 50.90625 48.359375 49.09375 55.9375 44.90625 62.21875 
C 41 67.921875 34.796875 71 27 71 
C 13.5 71 3.796875 61.078125 3.796875 47.296875 
C 3.796875 34.21875 12.796875 25 25.59375 25 
C 32.296875 25 37.203125 27.40625 41.796875 32.90625 
C 41.703125 15.484375 36.09375 5.8125 26 5.8125 
C 19.796875 5.8125 15.5 9.75 14.09375 16.625 
z
M 26.90625 63.296875 
C 35.09375 63.296875 41.296875 56.59375 41.296875 47.515625 
C 41.296875 38.921875 35.203125 32.8125 26.59375 32.8125 
C 18.09375 32.8125 12.796875 38.625 12.796875 48 
C 12.796875 56.875 18.796875 63.296875 26.90625 63.296875 
z
" id="Nimbus_Sans_L_Regular-57"/>
       <path d="M 27.5 71 
C 20.90625 71 14.90625 68.125 11.203125 63.21875 
C 6.59375 57.046875 4.296875 47.5625 4.296875 34.5 
C 4.296875 10.671875 12.296875 -2 27.5 -2 
C 42.5 -2 50.703125 10.671875 50.703125 33.90625 
C 50.703125 47.65625 48.5 56.84375 43.796875 63.21875 
C 40.09375 68.21875 34.203125 71 27.5 71 
z
M 27.5 63.1875 
C 37 63.1875 41.703125 53.625 41.703125 34.703125 
C 41.703125 14.671875 37.09375 5.3125 27.296875 5.3125 
C 18 5.3125 13.296875 15.078125 13.296875 34.40625 
C 13.296875 53.71875 18 63.1875 27.5 63.1875 
z
" id="Nimbus_Sans_L_Regular-48"/>
      </defs>
      <g style="fill:#999999;" transform="translate(164.126543 290.889984)scale(0.12 -0.12)">
       <use transform="scale(0.996264)" xlink:href="#Nimbus_Sans_L_Regular-39"/>
       <use transform="translate(22.116784 0)scale(0.996264)" xlink:href="#Nimbus_Sans_L_Regular-57"/>
       <use transform="translate(77.508461 0)scale(0.996264)" xlink:href="#Nimbus_Sans_L_Regular-48"/>
      </g>
     </g>
    </g>
    <g id="xtick_3">
     <g id="text_3">
      <!-- '95 -->
      <g style="fill:#999999;" transform="translate(254.409689 290.889984)scale(0.12 -0.12)">
       <use transform="scale(0.996264)" xlink:href="#Nimbus_Sans_L_Regular-39"/>
       <use transform="translate(22.116784 0)scale(0.996264)" xlink:href="#Nimbus_Sans_L_Regular-57"/>
       <use transform="translate(77.508461 0)scale(0.996264)" xlink:href="#Nimbus_Sans_L_Regular-53"/>
      </g>
     </g>
    </g>
    <g id="xtick_4">
     <g id="text_4">
      <!-- '00 -->
      <g style="fill:#999999;" transform="translate(344.692835 290.889984)scale(0.12 -0.12)">
       <use transform="scale(0.996264)" xlink:href="#Nimbus_Sans_L_Regular-39"/>
       <use transform="translate(22.116784 0)scale(0.996264)" xlink:href="#Nimbus_Sans_L_Regular-48"/>
       <use transform="translate(77.508461 0)scale(0.996264)" xlink:href="#Nimbus_Sans_L_Regular-48"/>
      </g>
     </g>
    </g>
    <g id="xtick_5">
     <g id="text_5">
      <!-- '05 -->
      <g style="fill:#999999;" transform="translate(434.975981 290.889984)scale(0.12 -0.12)">
       <use transform="scale(0.996264)" xlink:href="#Nimbus_Sans_L_Regular-39"/>
       <use transform="translate(22.116784 0)scale(0.996264)" xlink:href="#Nimbus_Sans_L_Regular-48"/>
       <use transform="translate(77.508461 0)scale(0.996264)" xlink:href="#Nimbus_Sans_L_Regular-53"/>
      </g>
     </g>
    </g>
    <g id="xtick_6">
     <g id="text_6">
      <!-- '10 -->
      <defs>
       <path d="M 25.90625 50.59375 
L 25.90625 0 
L 34.703125 0 
L 34.703125 71.015625 
L 28.90625 71.015625 
C 25.796875 60.109375 23.796875 58.609375 10.203125 56.90625 
L 10.203125 50.59375 
z
" id="Nimbus_Sans_L_Regular-49"/>
      </defs>
      <g style="fill:#999999;" transform="translate(525.259127 290.889984)scale(0.12 -0.12)">
       <use transform="scale(0.996264)" xlink:href="#Nimbus_Sans_L_Regular-39"/>
       <use transform="translate(22.116784 0)scale(0.996264)" xlink:href="#Nimbus_Sans_L_Regular-49"/>
       <use transform="translate(77.508461 0)scale(0.996264)" xlink:href="#Nimbus_Sans_L_Regular-48"/>
      </g>
     </g>
    </g>
    <g id="xtick_7">
     <g id="text_7">
      <!-- '15 -->
      <g style="fill:#999999;" transform="translate(615.542274 290.889984)scale(0.12 -0.12)">
       <use transform="scale(0.996264)" xlink:href="#Nimbus_Sans_L_Regular-39"/>
       <use transform="translate(22.116784 0)scale(0.996264)" xlink:href="#Nimbus_Sans_L_Regular-49"/>
       <use transform="translate(77.508461 0)scale(0.996264)" xlink:href="#Nimbus_Sans_L_Regular-53"/>
      </g>
     </g>
    </g>
    <g id="xtick_8">
     <g id="text_8">
      <!-- '17 -->
      <defs>
       <path d="M 52 70.703125 
L 4.59375 70.703125 
L 4.59375 62 
L 42.90625 62 
C 26 37.78125 19.09375 22.90625 13.796875 -0.5 
L 23.203125 -0.5 
C 27.09375 22.296875 36 41.890625 52 63.296875 
z
" id="Nimbus_Sans_L_Regular-55"/>
      </defs>
      <g style="fill:#999999;" transform="translate(651.655532 290.889984)scale(0.12 -0.12)">
       <use transform="scale(0.996264)" xlink:href="#Nimbus_Sans_L_Regular-39"/>
       <use transform="translate(22.116784 0)scale(0.996264)" xlink:href="#Nimbus_Sans_L_Regular-49"/>
       <use transform="translate(77.508461 0)scale(0.996264)" xlink:href="#Nimbus_Sans_L_Regular-55"/>
      </g>
     </g>
    </g>
   </g>
   <g id="matplotlib.axis_2">
    <g id="ytick_1"/>
    <g id="ytick_2"/>
    <g id="ytick_3"/>
    <g id="ytick_4"/>
    <g id="ytick_5"/>
    <g id="ytick_6"/>
    <g id="ytick_7"/>
    <g id="ytick_8"/>
   </g>
   <g id="line2d_9">
    <path clip-path="url(#pf58693df3f)" d="M 45.704135 32.230288 
L 47.208854 36.897799 
L 48.713573 41.2447 
L 50.218292 25.903923 
L 51.723011 37.428398 
L 53.22773 50.533796 
L 54.732449 51.57378 
L 56.237169 47.059288 
L 57.741888 44.370383 
L 59.246607 59.015834 
L 60.751326 65.152424 
L 62.256045 69.093791 
L 63.760764 71.356707 
L 65.265483 52.749575 
L 66.770202 45.499452 
L 68.274921 48.363436 
L 69.77964 54.335664 
L 72.789079 69.354935 
L 74.293798 73.814289 
L 75.798517 81.743011 
L 77.303236 79.372767 
L 78.807955 79.345005 
L 80.312674 70.741952 
L 81.817393 68.140223 
L 83.322112 75.40384 
L 84.826831 72.616836 
L 86.331551 81.091967 
L 87.83627 76.529017 
L 89.340989 72.778947 
L 90.845708 76.876027 
L 92.350427 76.013792 
L 93.855146 75.004692 
L 95.359865 77.799747 
L 96.864584 72.538889 
L 98.369303 70.555288 
L 99.874022 71.800634 
L 101.378742 89.508522 
L 102.883461 112.781869 
L 104.38818 126.305958 
L 105.892899 128.999635 
L 107.397618 126.006275 
L 110.407056 142.235286 
L 111.911775 136.489279 
L 113.416494 135.898372 
L 114.921213 139.820255 
L 116.425933 147.282682 
L 117.930652 147.66723 
L 119.435371 134.616468 
L 120.94009 116.414613 
L 122.444809 95.180417 
L 123.949528 92.475167 
L 125.454247 92.184787 
L 126.958966 84.373374 
L 128.463685 74.122969 
L 129.968404 73.474571 
L 131.473124 67.84848 
L 132.977843 67.216623 
L 134.482562 65.348778 
L 135.987281 68.32408 
L 137.492 76.318697 
L 138.996719 73.527049 
L 140.501438 68.726451 
L 142.006157 67.104952 
L 143.510876 65.112357 
L 145.015596 55.475257 
L 146.520315 59.196664 
L 148.025034 53.536279 
L 149.529753 53.783629 
L 151.034472 52.453895 
L 154.04391 43.341831 
L 155.548629 36.668756 
L 157.053348 35.875912 
L 158.558067 29.36779 
L 160.062787 26.635423 
L 161.567506 34.587348 
L 163.072225 44.383552 
L 166.081663 65.407983 
L 167.586382 62.733161 
L 170.59582 63.818526 
L 172.100539 54.75111 
L 173.605258 50.445685 
L 175.109978 50.434421 
L 176.614697 67.092681 
L 178.119416 72.635647 
L 179.624135 64.121243 
L 181.128854 63.877014 
L 182.633573 39.023105 
L 184.138292 23.994421 
L 185.643011 17.363369 
L 187.14773 20.919003 
L 188.652449 28.734016 
L 193.166607 71.007301 
L 194.671326 72.486199 
L 196.176045 65.074253 
L 197.680764 75.279909 
L 199.185483 78.106468 
L 200.690202 94.381004 
L 202.194921 104.502379 
L 203.69964 118.633815 
L 205.20436 115.147776 
L 206.709079 109.10378 
L 208.213798 117.959424 
L 211.223236 101.572032 
L 212.727955 98.134849 
L 214.232674 108.534396 
L 215.737393 108.224202 
L 217.242112 101.871316 
L 218.746831 105.476273 
L 220.251551 112.068303 
L 221.75627 105.783235 
L 223.260989 106.300768 
L 224.765708 108.848892 
L 226.270427 104.815668 
L 227.775146 108.489536 
L 229.279865 109.996422 
L 230.784584 109.991124 
L 232.289303 103.451735 
L 233.794022 108.704761 
L 235.298742 115.036228 
L 236.803461 113.585853 
L 238.30818 115.752114 
L 239.812899 117.317373 
L 241.317618 117.890602 
L 242.822337 123.549692 
L 244.327056 131.2355 
L 247.336494 125.61293 
L 248.841213 131.233368 
L 250.345933 137.296328 
L 251.850652 129.698375 
L 253.355371 123.884897 
L 254.86009 121.998042 
L 256.364809 121.838567 
L 257.869528 127.150498 
L 259.374247 126.8006 
L 260.878966 125.200545 
L 262.383685 119.14966 
L 263.888404 121.345033 
L 265.393124 124.983776 
L 266.897843 119.71823 
L 268.402562 119.644254 
L 269.907281 125.229313 
L 271.412 132.292085 
L 272.916719 132.593801 
L 274.421438 134.166367 
L 275.926157 130.914304 
L 277.430876 138.065382 
L 278.935596 133.357499 
L 280.440315 132.200364 
L 281.945034 132.702251 
L 283.449753 128.389307 
L 284.954472 127.058772 
L 286.459191 126.171958 
L 287.96391 129.518217 
L 289.468629 126.241772 
L 290.973348 130.5237 
L 292.478067 123.00612 
L 293.982787 121.465459 
L 295.487506 114.6732 
L 296.992225 117.574881 
L 298.496944 121.244773 
L 300.001663 119.307775 
L 303.011101 133.928708 
L 304.51582 141.680502 
L 306.020539 137.072183 
L 307.525258 142.87908 
L 309.029978 143.495096 
L 310.534697 145.183815 
L 313.544135 157.712318 
L 315.048854 162.548664 
L 316.553573 165.816304 
L 318.058292 175.658703 
L 319.563011 179.121608 
L 321.06773 177.908364 
L 322.572449 171.352685 
L 324.077169 178.844162 
L 325.581888 172.094945 
L 327.086607 170.11132 
L 328.591326 180.708056 
L 330.096045 177.643193 
L 331.600764 178.010263 
L 333.105483 173.547686 
L 334.610202 168.329205 
L 336.114921 166.988284 
L 337.61964 164.715894 
L 339.12436 152.448843 
L 340.629079 156.104652 
L 342.133798 152.388353 
L 343.638517 151.512809 
L 345.143236 150.044357 
L 346.647955 134.843527 
L 348.152674 136.840912 
L 349.657393 133.680137 
L 351.162112 128.473231 
L 352.666831 124.599041 
L 355.67627 98.7432 
L 357.180989 119.346734 
L 358.685708 117.991952 
L 360.190427 106.587647 
L 361.695146 107.467148 
L 363.199865 114.592036 
L 364.704584 111.477625 
L 366.209303 112.333042 
L 367.714022 110.639569 
L 369.218742 115.023786 
L 370.723461 109.18991 
L 372.22818 115.901934 
L 373.732899 131.547386 
L 375.237618 121.229331 
L 376.742337 114.025552 
L 378.247056 119.203501 
L 379.751775 129.198428 
L 381.256494 128.751568 
L 382.761213 156.683876 
L 384.265933 148.348891 
L 385.770652 155.727691 
L 387.275371 164.250622 
L 388.78009 177.875478 
L 390.284809 176.664103 
L 391.789528 166.620665 
L 393.294247 157.647698 
L 394.798966 164.649729 
L 396.303685 166.896801 
L 397.808404 158.226047 
L 399.313124 151.057187 
L 400.817843 132.783201 
L 402.322562 139.306319 
L 403.827281 133.161121 
L 406.836719 119.221497 
L 408.341438 110.241021 
L 409.846157 111.561012 
L 411.350876 133.873504 
L 412.855596 141.117111 
L 414.360315 141.786777 
L 415.865034 139.426909 
L 417.369753 134.879697 
L 418.874472 130.754632 
L 420.379191 138.810121 
L 421.88391 138.664445 
L 423.388629 133.403238 
L 424.893348 129.746893 
L 426.398067 136.154117 
L 427.902787 138.720325 
L 429.407506 125.986178 
L 430.912225 109.1012 
L 432.416944 101.146741 
L 433.921663 106.30943 
L 435.426382 114.952881 
L 436.931101 118.206021 
L 438.43582 102.735542 
L 439.940539 94.076143 
L 441.445258 99.983634 
L 442.949978 110.94843 
L 444.454697 108.838968 
L 445.959416 104.19524 
L 447.464135 99.933527 
L 450.473573 118.992451 
L 451.978292 108.2115 
L 453.483011 95.874604 
L 454.98773 67.117215 
L 456.492449 76.094079 
L 457.997169 97.168368 
L 459.501888 98.83367 
L 461.006607 84.942675 
L 462.511326 94.235635 
L 464.016045 99.19846 
L 467.025483 89.476578 
L 468.530202 82.871083 
L 470.034921 85.50052 
L 471.53964 89.195426 
L 473.04436 134.101998 
L 474.549079 149.264203 
L 476.053798 139.905397 
L 477.558517 125.561893 
L 479.063236 130.343237 
L 480.567955 119.756084 
L 482.072674 112.954102 
L 483.577393 121.158319 
L 485.082112 119.042303 
L 486.586831 120.156636 
L 488.091551 127.721237 
L 489.59627 136.156982 
L 491.100989 112.741042 
L 492.605708 92.087548 
L 494.110427 74.378927 
L 495.615146 79.613772 
L 497.119865 81.510023 
L 498.624584 85.684355 
L 500.129303 87.182803 
L 501.634022 85.492226 
L 503.138742 79.606064 
L 504.643461 61.327457 
L 506.14818 50.79301 
L 507.652899 57.149238 
L 509.157618 67.921662 
L 510.662337 99.188354 
L 512.167056 159.716251 
L 513.671775 189.334791 
L 515.176494 196.515718 
L 516.681213 196.529615 
L 518.185933 211.020993 
L 519.690652 214.310869 
L 521.195371 225.231751 
L 522.70009 228.745353 
L 524.204809 245.785082 
L 525.709528 233.242798 
L 527.214247 230.885678 
L 528.718966 200.012496 
L 530.223685 150.031002 
L 531.728404 128.037899 
L 533.233124 123.657696 
L 534.737843 131.203349 
L 536.242562 123.611406 
L 537.747281 129.602127 
L 539.252 133.016133 
L 540.756719 152.914285 
L 542.261438 146.767465 
L 543.766157 151.398302 
L 548.280315 159.330944 
L 549.785034 152.576598 
L 551.289753 150.94874 
L 554.299191 131.636887 
L 555.80391 114.963989 
L 557.308629 104.528737 
L 558.813348 105.296527 
L 560.318067 102.59502 
L 561.822787 99.387826 
L 563.327506 96.813636 
L 564.832225 103.240435 
L 566.336944 104.040487 
L 567.841663 112.234521 
L 569.346382 109.720066 
L 570.851101 111.593358 
L 572.35582 117.057099 
L 573.860539 128.35786 
L 575.365258 142.900296 
L 576.869978 144.972842 
L 578.374697 150.813058 
L 579.879416 146.774697 
L 581.384135 141.020432 
L 582.888854 132.555618 
L 584.393573 141.835647 
L 585.898292 142.847436 
L 587.403011 146.772902 
L 588.90773 140.924209 
L 590.412449 153.980125 
L 591.917169 162.014547 
L 593.421888 157.809369 
L 594.926607 150.780137 
L 596.431326 148.128116 
L 599.440764 162.563371 
L 600.945483 168.03737 
L 602.450202 158.426992 
L 603.954921 151.396018 
L 605.45964 149.322831 
L 606.96436 160.463201 
L 609.973798 139.908857 
L 611.478517 136.386351 
L 612.983236 139.097503 
L 614.487955 136.804914 
L 615.992674 142.959451 
L 617.497393 143.972826 
L 619.002112 149.361819 
L 620.506831 157.389974 
L 622.011551 171.597241 
L 623.51627 195.379355 
L 625.020989 192.148983 
L 626.525708 191.833674 
L 628.030427 197.007156 
L 629.535146 193.69521 
L 631.039865 190.718682 
L 632.544584 191.666342 
L 634.049303 190.769272 
L 635.554022 195.843477 
L 637.058742 194.651725 
L 638.563461 188.486737 
L 640.06818 183.512676 
L 641.572899 162.44096 
L 643.077618 169.893322 
L 644.582337 172.673736 
L 646.087056 162.627915 
L 647.591775 165.370027 
L 649.096494 166.824897 
L 650.601213 168.097586 
L 652.105933 161.429207 
L 653.610652 153.086647 
L 655.115371 146.298471 
L 656.62009 147.906945 
L 659.629528 129.209888 
L 661.134247 124.007631 
L 662.638966 136.731046 
L 664.143685 140.122836 
L 665.648404 148.021647 
L 667.153124 151.566675 
L 668.657843 151.687178 
L 670.162562 150.866459 
L 671.667281 143.727313 
L 671.667281 143.727313 
" style="fill:none;stroke:#477dca;stroke-linecap:square;stroke-width:2;"/>
   </g>
   <g id="patch_3">
    <path d="M 3.572 275.372 
L 673.172 275.372 
" style="fill:none;stroke:#e6e6e6;stroke-linecap:square;stroke-linejoin:miter;stroke-width:0.8;"/>
   </g>
   <g id="text_9">
    <!-- -2 -->
    <defs>
     <path d="M 28.40625 31.203125 
L 4.59375 31.203125 
L 4.59375 24 
L 28.40625 24 
z
" id="Nimbus_Sans_L_Regular-45"/>
     <path d="M 50.59375 8.71875 
L 13.296875 8.71875 
C 14.203125 14.53125 17.40625 18.234375 26.09375 23.34375 
L 36.09375 28.75 
C 46 34.15625 51.09375 41.453125 51.09375 50.171875 
C 51.09375 56.078125 48.703125 61.59375 44.5 65.390625 
C 40.296875 69.203125 35.09375 71 28.40625 71 
C 19.40625 71 12.703125 67.796875 8.796875 61.796875 
C 6.296875 57.984375 5.203125 53.578125 5 46.359375 
L 13.796875 46.359375 
C 14.09375 51.171875 14.703125 54.078125 15.90625 56.375 
C 18.203125 60.6875 22.796875 63.296875 28.09375 63.296875 
C 36.09375 63.296875 42.09375 57.578125 42.09375 49.96875 
C 42.09375 44.359375 38.796875 39.546875 32.5 35.953125 
L 23.296875 30.75 
C 8.5 22.34375 4.203125 15.625 3.40625 0 
L 50.59375 0 
z
" id="Nimbus_Sans_L_Regular-50"/>
    </defs>
    <g style="fill:#999999;" transform="translate(10.295742 269.297805)scale(0.12 -0.12)">
     <use transform="scale(0.996264)" xlink:href="#Nimbus_Sans_L_Regular-45"/>
     <use transform="translate(33.17523 0)scale(0.996264)" xlink:href="#Nimbus_Sans_L_Regular-50"/>
    </g>
   </g>
   <g id="text_10">
    <!-- -1 -->
    <g style="fill:#999999;" transform="translate(10.295742 233.057805)scale(0.12 -0.12)">
     <use transform="scale(0.996264)" xlink:href="#Nimbus_Sans_L_Regular-45"/>
     <use transform="translate(33.17523 0)scale(0.996264)" xlink:href="#Nimbus_Sans_L_Regular-49"/>
    </g>
   </g>
   <g id="text_11">
    <!-- 0 -->
    <g style="fill:#999999;" transform="translate(15.295694 196.817805)scale(0.12 -0.12)">
     <use transform="scale(0.996264)" xlink:href="#Nimbus_Sans_L_Regular-48"/>
    </g>
   </g>
   <g id="text_12">
    <!-- +1 -->
    <defs>
     <path d="M 53.40625 27 
L 32.703125 27 
L 32.703125 47.484375 
L 25.703125 47.484375 
L 25.703125 27 
L 5 27 
L 5 19.984375 
L 25.703125 19.984375 
L 25.703125 -1 
L 32.703125 -1 
L 32.703125 19.984375 
L 53.40625 19.984375 
z
" id="Nimbus_Sans_L_Regular-43"/>
    </defs>
    <g style="fill:#999999;" transform="translate(8.795371 160.577805)scale(0.12 -0.12)">
     <use transform="scale(0.996264)" xlink:href="#Nimbus_Sans_L_Regular-43"/>
     <use transform="translate(58.181493 0)scale(0.996264)" xlink:href="#Nimbus_Sans_L_Regular-49"/>
    </g>
   </g>
   <g id="text_13">
    <!-- +3 -->
    <defs>
     <path d="M 22.09375 33 
L 23.203125 33 
L 26.90625 33 
C 36.59375 33 41.59375 28.59375 41.59375 20.0625 
C 41.59375 11.125 36.09375 5.8125 26.90625 5.8125 
C 17.296875 5.8125 12.59375 10.640625 12 21.015625 
L 3.203125 21.015625 
C 3.59375 15.28125 4.59375 11.5625 6.296875 8.34375 
C 9.90625 1.515625 16.90625 -2 26.59375 -2 
C 41.203125 -2 50.59375 6.734375 50.59375 20.203125 
C 50.59375 29.25 47.09375 34.28125 38.59375 37.203125 
C 45.203125 39.78125 48.5 44.71875 48.5 51.734375 
C 48.5 63.78125 40.40625 71 26.90625 71 
C 12.59375 71 5 63.28125 4.703125 48.359375 
L 13.5 48.359375 
C 13.59375 52.59375 14 54.953125 15.09375 57.109375 
C 17.09375 60.9375 21.5 63.296875 27 63.296875 
C 34.796875 63.296875 39.5 58.75 39.5 51.359375 
C 39.5 46.421875 37.703125 43.453125 33.796875 41.890625 
C 31.40625 40.90625 28.296875 40.5 22.09375 40.5 
z
" id="Nimbus_Sans_L_Regular-51"/>
    </defs>
    <g style="fill:#999999;" transform="translate(8.795371 88.097805)scale(0.12 -0.12)">
     <use transform="scale(0.996264)" xlink:href="#Nimbus_Sans_L_Regular-43"/>
     <use transform="translate(58.181493 0)scale(0.996264)" xlink:href="#Nimbus_Sans_L_Regular-51"/>
    </g>
   </g>
   <g id="text_14">
    <!-- +4 -->
    <defs>
     <path d="M 32.703125 17 
L 32.703125 0 
L 41.5 0 
L 41.5 17 
L 52 17 
L 52 24.90625 
L 41.5 24.90625 
L 41.5 71.015625 
L 35 71.015625 
L 2.796875 26.3125 
L 2.796875 17 
z
M 32.703125 24.90625 
L 10.5 24.90625 
L 32.703125 55.984375 
z
" id="Nimbus_Sans_L_Regular-52"/>
    </defs>
    <g style="fill:#999999;" transform="translate(8.795371 51.857805)scale(0.12 -0.12)">
     <use transform="scale(0.996264)" xlink:href="#Nimbus_Sans_L_Regular-43"/>
     <use transform="translate(58.181493 0)scale(0.996264)" xlink:href="#Nimbus_Sans_L_Regular-52"/>
    </g>
   </g>
   <g id="text_15">
    <!-- +5\% -->
    <defs>
     <path d="M 19.90625 69 
C 10.59375 69 2.90625 61.109375 2.90625 51.484375 
C 2.90625 41.890625 10.59375 34 20 34 
C 29.296875 34 37 41.890625 37 51.28125 
C 37 61.21875 29.5 69 19.90625 69 
z
M 19.90625 61.984375 
C 25.59375 61.984375 30.09375 57.3125 30.09375 51.390625 
C 30.09375 45.671875 25.5 41.015625 20 41.015625 
C 14.40625 41.015625 9.796875 45.796875 9.796875 51.484375 
C 9.796875 57.3125 14.40625 61.984375 19.90625 61.984375 
z
M 60.90625 71 
L 21.40625 -2 
L 28 -2 
L 67.5 71 
z
M 68.796875 32 
C 59.5 32 51.796875 24.328125 51.796875 15.046875 
C 51.796875 5.6875 59.5 -2 68.90625 -2 
C 78.09375 -2 85.90625 5.6875 85.90625 14.859375 
C 85.90625 24.421875 78.40625 32 68.796875 32 
z
M 68.796875 25 
C 74.5 25 79 20.546875 79 14.90625 
C 79 9.546875 74.40625 5.109375 68.90625 5.109375 
C 63.296875 5.109375 58.703125 9.546875 58.703125 15.09375 
C 58.703125 20.546875 63.296875 25 68.796875 25 
z
" id="Nimbus_Sans_L_Regular-37"/>
    </defs>
    <g style="fill:#999999;" transform="translate(9.500237 15.617805)scale(0.12 -0.12)">
     <use transform="scale(0.996264)" xlink:href="#Nimbus_Sans_L_Regular-43"/>
     <use transform="translate(58.181493 0)scale(0.996264)" xlink:href="#Nimbus_Sans_L_Regular-53"/>
     <use transform="translate(113.57317 0)scale(0.996264)" xlink:href="#Nimbus_Sans_L_Regular-37"/>
    </g>
   </g>
   <g id="text_16">
    <!-- {\bfseries +2} -->
    <defs>
     <path d="M 53.296875 29 
L 35.09375 29 
L 35.09375 47.375 
L 23.203125 47.375 
L 23.203125 29 
L 5 29 
L 5 17.078125 
L 23.203125 17.078125 
L 23.203125 -1 
L 35.09375 -1 
L 35.09375 17.078125 
L 53.296875 17.078125 
z
" id="Nimbus_Sans_L_Bold-43"/>
     <path d="M 51.203125 12.515625 
L 21.203125 12.515625 
C 23 16.328125 25.203125 18.3125 35.59375 25.90625 
C 47.90625 34.90625 51.5 40.328125 51.5 49.921875 
C 51.5 63.609375 42.09375 72.421875 27.203125 72.421875 
C 12.5 72.421875 3.90625 63.71875 3.90625 48.703125 
C 3.90625 48.109375 3.90625 47.296875 4 46.203125 
L 17.40625 46.203125 
L 17.40625 48.5 
C 17.40625 56.40625 21.09375 61 27.5 61 
C 33.703125 61 37.5 56.6875 37.5 49.59375 
C 37.5 41.796875 35 38.703125 19.40625 27.59375 
C 7.40625 19.40625 3.703125 13.09375 3 0 
L 51.203125 0 
z
" id="Nimbus_Sans_L_Bold-50"/>
    </defs>
    <g style="fill:#111111;" transform="translate(8.795371 124.337805)scale(0.12 -0.12)">
     <use transform="scale(0.996264)" xlink:href="#Nimbus_Sans_L_Bold-43"/>
     <use transform="translate(58.181493 0)scale(0.996264)" xlink:href="#Nimbus_Sans_L_Bold-50"/>
    </g>
   </g>
   <g id="patch_4">
    <path d="M 602.171008 91.708908 
Q 612.363336 106.396038 603.66156 127.536224 
" style="fill:none;stroke:#111111;stroke-linecap:round;"/>
    <path d="M 607.707958 124.011076 
L 603.66156 127.536224 
L 603.269281 122.184017 
L 607.707958 124.011076 
z
" style="fill:#111111;stroke:#111111;stroke-linecap:round;"/>
   </g>
   <g id="text_17">
    <!-- Federal Reserve's -->
    <defs>
     <path d="M 18.296875 33 
L 53.09375 33 
L 53.09375 41.21875 
L 18.296875 41.21875 
L 18.296875 64.78125 
L 57.90625 64.78125 
L 57.90625 73 
L 9 73 
L 9 -0.21875 
L 18.296875 -0.21875 
z
" id="Nimbus_Sans_L_Regular-70"/>
     <path d="M 51.296875 23.890625 
C 51.296875 31.78125 50.703125 36.53125 49.203125 40.375 
C 45.796875 48.859375 37.796875 54 28 54 
C 13.40625 54 4 42.84375 4 25.703125 
C 4 8.546875 13.09375 -2 27.796875 -2 
C 39.796875 -2 48.09375 4.84375 50.203125 16.3125 
L 41.796875 16.3125 
C 39.5 9.34375 34.796875 5.703125 28.09375 5.703125 
C 22.796875 5.703125 18.296875 8.125 15.5 12.578125 
C 13.5 15.59375 12.796875 18.640625 12.703125 23.890625 
z
M 12.90625 31 
C 13.59375 40.265625 19.5 46.28125 27.90625 46.28125 
C 36.09375 46.28125 42.40625 39.53125 42.40625 31 
C 42.40625 31 42.40625 31 42.296875 31 
z
" id="Nimbus_Sans_L_Regular-101"/>
     <path d="M 49.5 73 
L 41.203125 73 
L 41.203125 45.890625 
C 37.703125 51.1875 32.09375 54 25.09375 54 
C 11.5 54 2.59375 43.140625 2.59375 26.484375 
C 2.59375 8.84375 11.296875 -2 25.40625 -2 
C 32.59375 -2 37.59375 0.703125 42.09375 7.203125 
L 42.09375 -0.03125 
L 49.5 -0.03125 
z
M 26.5 46.1875 
C 35.5 46.1875 41.203125 38.234375 41.203125 25.796875 
C 41.203125 13.765625 35.40625 5.8125 26.59375 5.8125 
C 17.40625 5.8125 11.296875 13.859375 11.296875 26 
C 11.296875 38.125 17.40625 46.1875 26.5 46.1875 
z
" id="Nimbus_Sans_L_Regular-100"/>
     <path d="M 6.90625 52.484375 
L 6.90625 0 
L 15.296875 0 
L 15.296875 27.203125 
C 15.296875 34.703125 17.203125 39.609375 21.203125 42.5 
C 23.796875 44.40625 26.296875 45 32.09375 45 
L 32.09375 53.625 
C 30.703125 53.8125 30 53.8125 28.90625 53.8125 
C 23.5 53.8125 19.40625 50.625 14.59375 42.90625 
L 14.59375 52.484375 
z
" id="Nimbus_Sans_L_Regular-114"/>
     <path d="M 53.5 5.203125 
C 52.59375 5 52.203125 5 51.703125 5 
C 48.796875 5 47.203125 6.484375 47.203125 9.078125 
L 47.203125 39.765625 
C 47.203125 49.015625 40.40625 54 27.5 54 
C 19.90625 54 13.59375 51.8125 10.09375 47.90625 
C 7.703125 45.203125 6.703125 42.21875 6.5 37.03125 
L 14.90625 37.03125 
C 15.59375 43.390625 19.40625 46.28125 27.203125 46.28125 
C 34.703125 46.28125 38.90625 43.484375 38.90625 38.515625 
L 38.90625 36.328125 
C 38.90625 32.828125 36.796875 31.34375 30.203125 30.546875 
C 18.40625 29.0625 16.59375 28.65625 13.40625 27.359375 
C 7.296875 24.875 4.203125 20.1875 4.203125 13.421875 
C 4.203125 3.96875 10.796875 -2 21.40625 -2 
C 28 -2 33.296875 0.296875 39.203125 5.703125 
C 39.796875 0.390625 42.40625 -2 47.796875 -2 
C 49.5 -2 50.796875 -1.8125 53.5 -1.09375 
z
M 38.90625 16.75 
C 38.90625 13.953125 38.09375 12.265625 35.59375 9.984375 
C 32.203125 6.890625 28.09375 5.3125 23.203125 5.3125 
C 16.703125 5.3125 12.90625 8.390625 12.90625 13.65625 
C 12.90625 19.140625 16.59375 21.921875 25.5 23.21875 
C 34.296875 24.40625 36.09375 24.8125 38.90625 26.09375 
z
" id="Nimbus_Sans_L_Regular-97"/>
     <path d="M 15.203125 73 
L 6.796875 73 
L 6.796875 -0.03125 
L 15.203125 -0.03125 
z
" id="Nimbus_Sans_L_Regular-108"/>
     <path d="M 18.59375 31.78125 
L 42.59375 31.78125 
C 50.90625 31.78125 54.59375 27.71875 54.59375 18.546875 
L 54.5 11.90625 
C 54.5 7.3125 55.296875 2.828125 56.59375 -0.21875 
L 67.90625 -0.21875 
L 67.90625 2.125 
C 64.40625 4.5625 63.703125 7.21875 63.5 17.078125 
C 63.40625 29.265625 61.5 32.9375 53.59375 36.390625 
C 61.796875 40.359375 65.09375 45.40625 65.09375 53.65625 
C 65.09375 66.140625 57.203125 73 42.90625 73 
L 9.296875 73 
L 9.296875 -0.21875 
L 18.59375 -0.21875 
z
M 18.59375 40 
L 18.59375 64.78125 
L 41.09375 64.78125 
C 46.296875 64.78125 49.296875 64 51.59375 62.015625 
C 54.09375 59.9375 55.40625 56.6875 55.40625 52.34375 
C 55.40625 43.84375 51 40 41.09375 40 
z
" id="Nimbus_Sans_L_Regular-82"/>
     <path d="M 43.796875 37.921875 
C 43.703125 48.203125 36.90625 54 24.796875 54 
C 12.59375 54 4.703125 47.71875 4.703125 38.0625 
C 4.703125 29.890625 8.90625 26.015625 21.296875 23.03125 
L 29.09375 21.140625 
C 34.90625 19.734375 37.203125 17.65625 37.203125 13.875 
C 37.203125 9 32.296875 5.703125 25 5.703125 
C 20.5 5.703125 16.703125 7 14.59375 9.1875 
C 13.296875 10.6875 12.703125 12.171875 12.203125 15.84375 
L 3.40625 15.84375 
C 3.796875 3.765625 10.59375 -2 24.296875 -2 
C 37.5 -2 45.90625 4.453125 45.90625 14.515625 
C 45.90625 22.28125 41.5 26.578125 31.09375 29.0625 
L 23.09375 30.953125 
C 16.296875 32.53125 13.40625 34.734375 13.40625 38.40625 
C 13.40625 43.1875 17.703125 46.28125 24.5 46.28125 
C 31.203125 46.28125 34.796875 43.390625 35 37.921875 
z
" id="Nimbus_Sans_L_Regular-115"/>
     <path d="M 28.5 0 
L 48.59375 52.5 
L 39.203125 52.5 
L 24.40625 9.921875 
L 10.40625 52.5 
L 1 52.5 
L 19.40625 0 
z
" id="Nimbus_Sans_L_Regular-118"/>
    </defs>
    <g style="fill:#999999;" transform="translate(533.396547 72.521088)scale(0.12 -0.12)">
     <use transform="scale(0.996264)" xlink:href="#Nimbus_Sans_L_Regular-70"/>
     <use transform="translate(57.883523 0)scale(0.996264)" xlink:href="#Nimbus_Sans_L_Regular-101"/>
     <use transform="translate(113.2752 0)scale(0.996264)" xlink:href="#Nimbus_Sans_L_Regular-100"/>
     <use transform="translate(168.666877 0)scale(0.996264)" xlink:href="#Nimbus_Sans_L_Regular-101"/>
     <use transform="translate(224.058554 0)scale(0.996264)" xlink:href="#Nimbus_Sans_L_Regular-114"/>
     <use transform="translate(256.237687 0)scale(0.996264)" xlink:href="#Nimbus_Sans_L_Regular-97"/>
     <use transform="translate(311.629364 0)scale(0.996264)" xlink:href="#Nimbus_Sans_L_Regular-108"/>
     <use transform="translate(361.441317 0)scale(0.996264)" xlink:href="#Nimbus_Sans_L_Regular-82"/>
     <use transform="translate(433.371302 0)scale(0.996264)" xlink:href="#Nimbus_Sans_L_Regular-101"/>
     <use transform="translate(488.762979 0)scale(0.996264)" xlink:href="#Nimbus_Sans_L_Regular-115"/>
     <use transform="translate(538.57618 0)scale(0.996264)" xlink:href="#Nimbus_Sans_L_Regular-101"/>
     <use transform="translate(593.967857 0)scale(0.996264)" xlink:href="#Nimbus_Sans_L_Regular-114"/>
     <use transform="translate(630.131179 0)scale(0.996264)" xlink:href="#Nimbus_Sans_L_Regular-118"/>
     <use transform="translate(677.45375 0)scale(0.996264)" xlink:href="#Nimbus_Sans_L_Regular-101"/>
     <use transform="translate(732.845427 0)scale(0.996264)" xlink:href="#Nimbus_Sans_L_Regular-39"/>
     <use transform="translate(749.980861 0)scale(0.996264)" xlink:href="#Nimbus_Sans_L_Regular-115"/>
    </g>
    <!-- Inflation Target -->
    <defs>
     <path d="M 19.40625 73 
L 10 73 
L 10 -0.03125 
L 19.40625 -0.03125 
z
" id="Nimbus_Sans_L_Regular-73"/>
     <path d="M 7 52.484375 
L 7 0 
L 15.40625 0 
L 15.40625 28.953125 
C 15.40625 39.671875 21 46.6875 29.59375 46.6875 
C 36.203125 46.6875 40.40625 42.671875 40.40625 36.359375 
L 40.40625 0 
L 48.703125 0 
L 48.703125 39.671875 
C 48.703125 48.390625 42.203125 54 32.09375 54 
C 24.296875 54 19.296875 50.984375 14.703125 43.6875 
L 14.703125 52.484375 
z
" id="Nimbus_Sans_L_Regular-110"/>
     <path d="M 25.703125 52.8125 
L 17 52.8125 
L 17 60.578125 
C 17 63.890625 19 65.59375 22.796875 65.59375 
C 23.5 65.59375 23.796875 65.59375 25.703125 65.59375 
L 25.703125 72.796875 
C 23.796875 72.96875 22.703125 73 21 73 
C 13.296875 73 8.703125 68.734375 8.703125 61.453125 
L 8.703125 52.8125 
L 1.703125 52.8125 
L 1.703125 46 
L 8.703125 46 
L 8.703125 -0.03125 
L 17 -0.03125 
L 17 46 
L 25.703125 46 
z
M 43 73 
L 34.703125 73 
L 34.703125 -0.03125 
L 43 -0.03125 
z
" id="Nimbus_Sans_L_Regular-3"/>
     <path d="M 25.40625 52.8125 
L 16.796875 52.8125 
L 16.796875 67 
L 8.5 67 
L 8.5 52.8125 
L 1.40625 52.8125 
L 1.40625 46 
L 8.5 46 
L 8.5 6.3125 
C 8.5 1 12.09375 -2 18.59375 -2 
C 20.59375 -2 22.59375 -1.8125 25.40625 -1.296875 
L 25.40625 5.71875 
C 24.296875 5.40625 23 5.3125 21.40625 5.3125 
C 17.796875 5.3125 16.796875 6.3125 16.796875 10.015625 
L 16.796875 46 
L 25.40625 46 
z
" id="Nimbus_Sans_L_Regular-116"/>
     <path d="M 15 52.484375 
L 6.703125 52.484375 
L 6.703125 0 
L 15 0 
z
M 15 73 
L 6.59375 73 
L 6.59375 62.484375 
L 15 62.484375 
z
" id="Nimbus_Sans_L_Regular-105"/>
     <path d="M 27.203125 54 
C 12.5 54 3.59375 43.53125 3.59375 26 
C 3.59375 8.453125 12.40625 -2 27.296875 -2 
C 42 -2 51 8.453125 51 25.59375 
C 51 43.640625 42.296875 54 27.203125 54 
z
M 27.296875 46.28125 
C 36.703125 46.28125 42.296875 38.625 42.296875 25.703125 
C 42.296875 13.453125 36.5 5.703125 27.296875 5.703125 
C 18 5.703125 12.296875 13.359375 12.296875 26 
C 12.296875 38.53125 18 46.28125 27.296875 46.28125 
z
" id="Nimbus_Sans_L_Regular-111"/>
     <path d="M 35.40625 64.78125 
L 59.296875 64.78125 
L 59.296875 73 
L 2.09375 73 
L 2.09375 64.78125 
L 26.09375 64.78125 
L 26.09375 -0.21875 
L 35.40625 -0.21875 
z
" id="Nimbus_Sans_L_Regular-84"/>
     <path d="M 41.203125 52.203125 
L 41.203125 44.59375 
C 37 50.8125 31.90625 53.71875 25.203125 53.71875 
C 11.90625 53.71875 2.90625 42.0625 2.90625 25 
C 2.90625 16.375 5.203125 9.34375 9.5 4.3125 
C 13.40625 -0.109375 19 -2.703125 24.5 -2.703125 
C 31.09375 -2.703125 35.703125 0.09375 40.40625 6.703125 
L 40.40625 4.03125 
C 40.40625 -3 39.5 -7.265625 37.40625 -10.140625 
C 35.203125 -13.1875 30.90625 -14.984375 25.796875 -14.984375 
C 22 -14.984375 18.59375 -14 16.296875 -12.234375 
C 14.40625 -10.75 13.59375 -9.375 13.09375 -6.34375 
L 4.59375 -6.34375 
C 5.5 -16.140625 13.203125 -22 25.5 -22 
C 33.296875 -22 40 -19.484375 43.40625 -15.296875 
C 47.40625 -10.484375 48.90625 -3.890625 48.90625 8.40625 
L 48.90625 52.203125 
z
M 26.09375 46 
C 35.09375 46 40.40625 38.375 40.40625 25.203125 
C 40.40625 12.625 35 5 26.203125 5 
C 17.09375 5 11.59375 12.75 11.59375 25.5 
C 11.59375 38.15625 17.203125 46 26.09375 46 
z
" id="Nimbus_Sans_L_Regular-103"/>
    </defs>
    <g style="fill:#999999;" transform="translate(542.231503 85.554522)scale(0.12 -0.12)">
     <use transform="scale(0.996264)" xlink:href="#Nimbus_Sans_L_Regular-73"/>
     <use transform="translate(27.69517 0)scale(0.996264)" xlink:href="#Nimbus_Sans_L_Regular-110"/>
     <use transform="translate(83.086847 0)scale(0.996264)" xlink:href="#Nimbus_Sans_L_Regular-3"/>
     <use transform="translate(132.900047 0)scale(0.996264)" xlink:href="#Nimbus_Sans_L_Regular-97"/>
     <use transform="translate(188.291724 0)scale(0.996264)" xlink:href="#Nimbus_Sans_L_Regular-116"/>
     <use transform="translate(215.986894 0)scale(0.996264)" xlink:href="#Nimbus_Sans_L_Regular-105"/>
     <use transform="translate(238.103678 0)scale(0.996264)" xlink:href="#Nimbus_Sans_L_Regular-111"/>
     <use transform="translate(293.495355 0)scale(0.996264)" xlink:href="#Nimbus_Sans_L_Regular-110"/>
     <use transform="translate(376.582202 0)scale(0.996264)" xlink:href="#Nimbus_Sans_L_Regular-84"/>
     <use transform="translate(425.499151 0)scale(0.996264)" xlink:href="#Nimbus_Sans_L_Regular-97"/>
     <use transform="translate(480.890827 0)scale(0.996264)" xlink:href="#Nimbus_Sans_L_Regular-114"/>
     <use transform="translate(514.066057 0)scale(0.996264)" xlink:href="#Nimbus_Sans_L_Regular-103"/>
     <use transform="translate(569.457734 0)scale(0.996264)" xlink:href="#Nimbus_Sans_L_Regular-101"/>
     <use transform="translate(624.849411 0)scale(0.996264)" xlink:href="#Nimbus_Sans_L_Regular-116"/>
    </g>
   </g>
  </g>
 </g>
 <defs>
  <clipPath id="pf58693df3f">
   <rect height="271.8" width="669.6" x="3.572" y="3.572"/>
  </clipPath>
 </defs>
</svg>
