<?xml version="1.0" encoding="UTF-8" standalone="no"?>
<!-- Generator: Adobe Illustrator 19.0.0, SVG Export Plug-In . SVG Version: 6.00 Build 0)  -->

<svg
   xmlns:dc="http://purl.org/dc/elements/1.1/"
   xmlns:cc="http://creativecommons.org/ns#"
   xmlns:rdf="http://www.w3.org/1999/02/22-rdf-syntax-ns#"
   xmlns:svg="http://www.w3.org/2000/svg"
   xmlns="http://www.w3.org/2000/svg"
   xmlns:sodipodi="http://sodipodi.sourceforge.net/DTD/sodipodi-0.dtd"
   xmlns:inkscape="http://www.inkscape.org/namespaces/inkscape"
   version="1.1"
   id="Layer_1"
   x="0px"
   y="0px"
   viewBox="0 0 260 260"
   xml:space="preserve"
   inkscape:version="0.91 r13725"
   sodipodi:docname="investing-icon.svg"
   width="260"
   height="260"><metadata
     id="metadata6615"><rdf:RDF><cc:Work
         rdf:about=""><dc:format>image/svg+xml</dc:format><dc:type
           rdf:resource="http://purl.org/dc/dcmitype/StillImage" /><dc:title></dc:title></cc:Work></rdf:RDF></metadata><defs
     id="defs6613" /><sodipodi:namedview
     pagecolor="#ffffff"
     bordercolor="#666666"
     borderopacity="1"
     objecttolerance="10"
     gridtolerance="10"
     guidetolerance="10"
     inkscape:pageopacity="0"
     inkscape:pageshadow="2"
     inkscape:window-width="1366"
     inkscape:window-height="745"
     id="namedview6611"
     showgrid="false"
     fit-margin-top="0"
     fit-margin-left="0"
     fit-margin-right="0"
     fit-margin-bottom="0"
     inkscape:zoom="1.3457839"
     inkscape:cx="33.197971"
     inkscape:cy="100.27755"
     inkscape:window-x="-8"
     inkscape:window-y="-8"
     inkscape:window-maximized="1"
     inkscape:current-layer="Layer_1" /><circle
     style="fill:#2d004f;fill-opacity:0.54901961"
     cx="130"
     cy="130"
     r="130"
     id="circle5029" /><g
     id="g6529"
     transform="matrix(0.42372881,0,0,0.42372881,24.91526,24.91526)"
     style="fill:#ffca00;fill-opacity:1"><g
       id="g6531"
       style="fill:#ffca00;fill-opacity:1"><g
         id="g6533"
         style="fill:#ffca00;fill-opacity:1"><path
           d="M 424,248 C 424,150.952 345.048,72 248,72 150.952,72 72,150.952 72,248 c 0,97.048 78.952,176 176,176 97.048,0 176,-78.952 176,-176 z M 248.008,408 C 231.28,408 215.16,405.4 200,400.624 l 0,-96.624 -16,0 0,90.552 c -8.4,-3.68 -16.424,-8.048 -24,-13.064 L 160,304 c 0,-22.056 17.944,-40 40,-40 l 96,0 c 22.056,0 40,17.944 40,40 l -51.056,0 -13.792,-27.576 -14.312,7.16 10.216,20.416 -51.056,0 0,16 16,0 0,8 6.12,43.4 c 1.68,11.744 11.888,20.6 23.76,20.6 l 55.408,0 c -21,10.144 -44.44,16 -69.28,16 z M 184,184 c 0,-35.288 28.712,-64 64,-64 35.288,0 64,28.712 64,64 0,35.288 -28.712,64 -64,64 -35.288,0 -64,-28.712 -64,-64 z m 160,143.432 -5.96,41.704 c -0.552,3.912 -3.96,6.864 -7.912,6.864 l -68.248,0 c -3.952,0 -7.36,-2.952 -7.912,-6.864 L 248,327.432 248,320 l 27.056,0 13.792,27.576 14.312,-7.16 L 292.944,320 344,320 l 0,7.432 z m 10.504,39.64 5.424,-37.936 0.032,-9.136 16.04,0 0,-16 -24,0 c 0,-30.872 -25.128,-56 -56,-56 l -0.208,0 C 315.296,233.4 328,210.184 328,184 c 0,-44.112 -35.888,-80 -80,-80 -44.112,0 -80,35.888 -80,80 0,26.184 12.704,49.4 32.208,64 L 200,248 c -30.872,0 -56,25.128 -56,56 l 0,65.344 C 109.784,339.976 88,296.52 88,248 88,159.776 159.776,88 248,88 c 88.224,0 160,71.776 160,160 0,47.304 -20.752,89.752 -53.496,119.072 z"
           id="path6535"
           inkscape:connector-curvature="0"
           style="fill:#ffca00;fill-opacity:1" /><path
           d="m 455.824,240.928 -11.384,-7.584 -8.872,13.312 29.456,19.64 28.64,-28.64 -11.312,-11.312 -10.624,10.624 C 465.952,118.56 367.816,24 248,24 l 0,16 c 112.328,0 204.072,89.504 207.824,200.928 z"
           id="path6537"
           inkscape:connector-curvature="0"
           style="fill:#ffca00;fill-opacity:1" /><path
           d="m 40.176,255.072 11.384,7.584 8.872,-13.312 -29.456,-19.64 -28.64,28.64 11.312,11.312 10.624,-10.624 C 30.048,377.44 128.184,472 248,472 l 0,-16 C 135.672,456 43.928,366.496 40.176,255.072 Z"
           id="path6539"
           inkscape:connector-curvature="0"
           style="fill:#ffca00;fill-opacity:1" /><path
           d="M 64,128 C 99.288,128 128,99.288 128,64 128,28.712 99.288,0 64,0 28.712,0 0,28.712 0,64 0,99.288 28.712,128 64,128 Z M 64,16 c 26.472,0 48,21.528 48,48 0,26.472 -21.528,48 -48,48 C 37.528,112 16,90.472 16,64 16,37.528 37.528,16 64,16 Z"
           id="path6541"
           inkscape:connector-curvature="0"
           style="fill:#ffca00;fill-opacity:1" /><path
           d="m 56,95.592 0,8.408 16,0 0,-8.408 C 81.12,93.736 88,85.656 88,76 88,64.968 79.032,56 68,56 l -8,0 c -2.2,0 -4,-1.8 -4,-4 0,-2.2 1.8,-4 4,-4 l 8,0 c 2.2,0 4,1.8 4,4 l 0,4 16,0 0,-4 C 88,42.336 81.12,34.264 72,32.408 L 72,24 56,24 56,32.408 C 46.88,34.264 40,42.336 40,52 c 0,11.032 8.968,20 20,20 l 8,0 c 2.2,0 4,1.8 4,4 0,2.2 -1.8,4 -4,4 l -8,0 c -2.2,0 -4,-1.8 -4,-4 l 0,-4 -16,0 0,4 c 0,9.664 6.88,17.736 16,19.592 z"
           id="path6543"
           inkscape:connector-curvature="0"
           style="fill:#ffca00;fill-opacity:1" /><path
           d="m 432,368 c -35.288,0 -64,28.712 -64,64 0,35.288 28.712,64 64,64 35.288,0 64,-28.712 64,-64 0,-35.288 -28.712,-64 -64,-64 z m 0,112 c -26.472,0 -48,-21.528 -48,-48 0,-26.472 21.528,-48 48,-48 26.472,0 48,21.528 48,48 0,26.472 -21.528,48 -48,48 z"
           id="path6545"
           inkscape:connector-curvature="0"
           style="fill:#ffca00;fill-opacity:1" /><path
           d="m 440,400.408 0,-8.408 -16,0 0,8.408 c -9.12,1.856 -16,9.936 -16,19.592 0,11.032 8.968,20 20,20 l 8,0 c 2.2,0 4,1.8 4,4 0,2.2 -1.8,4 -4,4 l -8,0 c -2.2,0 -4,-1.8 -4,-4 l 0,-4 -16,0 0,4 c 0,9.664 6.88,17.736 16,19.592 l 0,8.408 16,0 0,-8.408 c 9.12,-1.856 16,-9.936 16,-19.592 0,-11.032 -8.968,-20 -20,-20 l -8,0 c -2.2,0 -4,-1.8 -4,-4 0,-2.2 1.8,-4 4,-4 l 8,0 c 2.2,0 4,1.8 4,4 l 0,4 16,0 0,-4 c 0,-9.664 -6.88,-17.736 -16,-19.592 z"
           id="path6547"
           inkscape:connector-curvature="0"
           style="fill:#ffca00;fill-opacity:1" /><rect
           x="32"
           y="416"
           width="16"
           height="16"
           id="rect6549"
           style="fill:#ffca00;fill-opacity:1" /><rect
           x="9.3889999"
           y="425.358"
           transform="matrix(0.7071,0.7071,-0.7071,0.7071,311.5237,114.6318)"
           width="16"
           height="16"
           id="rect6551"
           style="fill:#ffca00;fill-opacity:1" /><rect
           y="448"
           width="16"
           height="16"
           id="rect6553"
           x="0"
           style="fill:#ffca00;fill-opacity:1" /><rect
           x="9.3950005"
           y="470.629"
           transform="matrix(-0.7071,-0.7071,0.7071,-0.7071,-308.746,829.3701)"
           width="16"
           height="16"
           id="rect6555"
           style="fill:#ffca00;fill-opacity:1" /><rect
           x="32"
           y="480"
           width="16"
           height="16"
           id="rect6557"
           style="fill:#ffca00;fill-opacity:1" /><rect
           x="54.59"
           y="470.634"
           transform="matrix(-0.7071,-0.7071,0.7071,-0.7071,-231.5972,861.3365)"
           width="16"
           height="16"
           id="rect6559"
           style="fill:#ffca00;fill-opacity:1" /><rect
           x="64"
           y="448"
           width="16"
           height="16"
           id="rect6561"
           style="fill:#ffca00;fill-opacity:1" /><rect
           x="54.608002"
           y="425.36301"
           transform="matrix(0.7071,0.7071,-0.7071,0.7071,324.7716,82.6588)"
           width="16"
           height="16"
           id="rect6563"
           style="fill:#ffca00;fill-opacity:1" /><rect
           x="448"
           width="16"
           height="16"
           id="rect6565"
           y="0"
           style="fill:#ffca00;fill-opacity:1" /><rect
           x="425.36499"
           y="9.3859997"
           transform="matrix(0.7071,0.7071,-0.7071,0.7071,139.2232,-301.3432)"
           width="16"
           height="16"
           id="rect6567"
           style="fill:#ffca00;fill-opacity:1" /><rect
           x="416"
           y="32"
           width="16"
           height="16"
           id="rect6569"
           style="fill:#ffca00;fill-opacity:1" /><rect
           x="425.35999"
           y="54.637001"
           transform="matrix(-0.7071,-0.7071,0.7071,-0.7071,695.5008,413.3591)"
           width="16"
           height="16"
           id="rect6571"
           style="fill:#ffca00;fill-opacity:1" /><rect
           x="448"
           y="64"
           width="16"
           height="16"
           id="rect6573"
           style="fill:#ffca00;fill-opacity:1" /><rect
           x="470.62201"
           y="54.631001"
           transform="matrix(-0.7071,0.7071,-0.7071,-0.7071,861.3454,-231.5201)"
           width="16"
           height="16"
           id="rect6575"
           style="fill:#ffca00;fill-opacity:1" /><rect
           x="480"
           y="32"
           width="16"
           height="16"
           id="rect6577"
           style="fill:#ffca00;fill-opacity:1" /><rect
           x="470.61899"
           y="9.3800001"
           transform="matrix(0.7071,0.7071,-0.7071,0.7071,152.4735,-333.3445)"
           width="16"
           height="16"
           id="rect6579"
           style="fill:#ffca00;fill-opacity:1" /></g></g></g><g
     id="g6581"
     transform="translate(-118,-118)" /><g
     id="g6583"
     transform="translate(-118,-118)" /><g
     id="g6585"
     transform="translate(-118,-118)" /><g
     id="g6587"
     transform="translate(-118,-118)" /><g
     id="g6589"
     transform="translate(-118,-118)" /><g
     id="g6591"
     transform="translate(-118,-118)" /><g
     id="g6593"
     transform="translate(-118,-118)" /><g
     id="g6595"
     transform="translate(-118,-118)" /><g
     id="g6597"
     transform="translate(-118,-118)" /><g
     id="g6599"
     transform="translate(-118,-118)" /><g
     id="g6601"
     transform="translate(-118,-118)" /><g
     id="g6603"
     transform="translate(-118,-118)" /><g
     id="g6605"
     transform="translate(-118,-118)" /><g
     id="g6607"
     transform="translate(-118,-118)" /><g
     id="g6609"
     transform="translate(-118,-118)" /></svg>