<?xml version="1.0" encoding="UTF-8" standalone="no"?>
<!-- Generator: Adobe Illustrator 19.0.0, SVG Export Plug-In . SVG Version: 6.00 Build 0)  -->

<svg
   xmlns:dc="http://purl.org/dc/elements/1.1/"
   xmlns:cc="http://creativecommons.org/ns#"
   xmlns:rdf="http://www.w3.org/1999/02/22-rdf-syntax-ns#"
   xmlns:svg="http://www.w3.org/2000/svg"
   xmlns="http://www.w3.org/2000/svg"
   xmlns:sodipodi="http://sodipodi.sourceforge.net/DTD/sodipodi-0.dtd"
   xmlns:inkscape="http://www.inkscape.org/namespaces/inkscape"
   version="1.1"
   id="Layer_1"
   x="0px"
   y="0px"
   viewBox="0 0 260 260"
   xml:space="preserve"
   inkscape:version="0.91 r13725"
   sodipodi:docname="investment-icon.svg"
   width="260"
   height="260"><metadata
     id="metadata6615"><rdf:RDF><cc:Work
         rdf:about=""><dc:format>image/svg+xml</dc:format><dc:type
           rdf:resource="http://purl.org/dc/dcmitype/StillImage" /><dc:title></dc:title></cc:Work></rdf:RDF></metadata><defs
     id="defs6613" /><sodipodi:namedview
     pagecolor="#ffffff"
     bordercolor="#666666"
     borderopacity="1"
     objecttolerance="10"
     gridtolerance="10"
     guidetolerance="10"
     inkscape:pageopacity="0"
     inkscape:pageshadow="2"
     inkscape:window-width="1366"
     inkscape:window-height="745"
     id="namedview6611"
     showgrid="false"
     fit-margin-top="0"
     fit-margin-left="0"
     fit-margin-right="0"
     fit-margin-bottom="0"
     inkscape:zoom="0.9516129"
     inkscape:cx="81.52859"
     inkscape:cy="172.0339"
     inkscape:window-x="-8"
     inkscape:window-y="-8"
     inkscape:window-maximized="1"
     inkscape:current-layer="Layer_1" /><circle
     style="fill:#2d004f;fill-opacity:0.54901961"
     cx="130"
     cy="130"
     r="130"
     id="circle5029" /><g
     id="g6581"
     transform="translate(-118,-118)" /><g
     id="g6583"
     transform="translate(-118,-118)" /><g
     id="g6585"
     transform="translate(-118,-118)" /><g
     id="g6587"
     transform="translate(-118,-118)" /><g
     id="g6589"
     transform="translate(-118,-118)" /><g
     id="g6591"
     transform="translate(-118,-118)" /><g
     id="g6593"
     transform="translate(-118,-118)" /><g
     id="g6595"
     transform="translate(-118,-118)" /><g
     id="g6597"
     transform="translate(-118,-118)" /><g
     id="g6599"
     transform="translate(-118,-118)" /><g
     id="g6601"
     transform="translate(-118,-118)" /><g
     id="g6603"
     transform="translate(-118,-118)" /><g
     id="g6605"
     transform="translate(-118,-118)" /><g
     id="g6607"
     transform="translate(-118,-118)" /><g
     id="g6609"
     transform="translate(-118,-118)" /><g
     transform="matrix(0.5078125,0,0,0.5078125,1.066486,0)"
     id="g9000"><polygon
       style="fill:#ffffff"
       points="326.776,400 313.064,496 182.936,496 169.224,400 "
       id="polygon9002" /><polygon
       style="fill:#ffffff"
       points="352,384 345.224,384 150.776,384 144,384 144,368 352,368 "
       id="polygon9004" /></g><g
     transform="matrix(0.5078125,0,0,0.5078125,1.066486,0)"
     id="g9006"><path
       inkscape:connector-curvature="0"
       style="fill:#dcddde"
       d="m 248,392 -88,0 8,24 56,0 c 13.256,0 24,10.744 24,24 l 0,64 72,0 16,-112 -88,0 z"
       id="path9008" /><rect
       x="248"
       y="368"
       style="fill:#dcddde"
       width="104"
       height="16"
       id="rect9010" /></g><g
     transform="matrix(0.5078125,0,0,0.5078125,1.066486,0)"
     id="g9012"><circle
       style="fill:#ffd768"
       cx="400"
       cy="240"
       r="32"
       id="circle9014" /><circle
       style="fill:#ffd768"
       cx="448"
       cy="320"
       r="32"
       id="circle9016" /><circle
       style="fill:#ffd768"
       cx="64"
       cy="248"
       r="32"
       id="circle9018" /><circle
       style="fill:#ffd768"
       cx="456"
       cy="168"
       r="24"
       id="circle9020" /><circle
       style="fill:#ffd768"
       cx="88"
       cy="328"
       r="24"
       id="circle9022" /><circle
       style="fill:#ffd768"
       cx="248"
       cy="128"
       r="88"
       id="circle9024" /></g><g
     transform="matrix(0.5078125,0,0,0.5078125,1.066486,0)"
     id="g9026"><path
       inkscape:connector-curvature="0"
       style="fill:#67c18c"
       d="m 248,336 c 44.096,-0.216 79.784,-35.904 80,-80 -44.096,0.216 -79.784,35.904 -80,80 z"
       id="path9028" /><path
       inkscape:connector-curvature="0"
       style="fill:#67c18c"
       d="m 168,256 c 0.216,44.096 35.904,79.784 80,80 -0.216,-44.096 -35.904,-79.784 -80,-80 z"
       id="path9030" /></g><g
     transform="matrix(0.5078125,0,0,0.5078125,1.066486,0)"
     id="g9032"><path
       inkscape:connector-curvature="0"
       style="fill:#0c3847"
       d="m 256,184 0,-16 c 13.232,0 24,-10.768 24,-24 0,-13.232 -10.768,-24 -24,-24 l -16,0 c -4.408,0 -8,-3.592 -8,-8 0,-4.408 3.592,-8 8,-8 l 16,0 16,0 0,-16 -16,0 0,-16 -16,0 0,16 c -13.232,0 -24,10.768 -24,24 0,13.232 10.768,24 24,24 l 16,0 c 4.408,0 8,3.592 8,8 0,4.408 -3.592,8 -8,8 l -16,0 -16,0 0,16 16,0 0,16 16,0 z"
       id="path9034" /><path
       inkscape:connector-curvature="0"
       style="fill:#0c3847"
       d="m 256,344.04 0.04,0 0,-0.48 c 44.544,-4.272 79.744,-41.952 79.96,-87.52 l 0.04,-8.08 -8.08,0.04 c -29.696,0.144 -56.016,15.168 -71.96,37.928 l 0,-29.928 0.12,0 -0.12,-12.4 0,-20.008 c 49.192,-4.088 88,-45.36 88,-95.592 0,-52.936 -43.064,-96 -96,-96 -52.936,0 -96,43.064 -96,96 0,50.232 38.808,91.504 88,95.592 l 0,16.408 -0.032,0 0.032,16 0,29.928 C 224.056,263.168 197.736,248.144 168.04,248 l -8.08,-0.04 0.04,8.08 c 0.224,45.568 35.416,83.248 79.96,87.52 l 0,0.48 0.04,0 0,7.96 -112,0 0,48 25.064,0 16,112 157.872,0 16,-112 25.064,0 0,-48 -112,0 0,-7.96 z m 63.448,-79.488 c -4.08,32.696 -30.192,58.816 -62.888,62.888 4.072,-32.688 30.192,-58.808 62.888,-62.888 z m -142.896,0 c 32.696,4.08 58.816,30.192 62.888,62.888 -32.688,-4.072 -58.808,-30.192 -62.888,-62.888 z M 168,128 c 0,-44.112 35.888,-80 80,-80 44.112,0 80,35.888 80,80 0,44.112 -35.888,80 -80,80 -44.112,0 -80,-35.888 -80,-80 z m 145.064,368 -130.128,0 -13.712,-96 157.552,0 -13.712,96 z M 352,368 l 0,16 -6.776,0 -194.448,0 -6.776,0 0,-16 208,0 z"
       id="path9036" /><path
       inkscape:connector-curvature="0"
       style="fill:#0c3847"
       d="m 440,240 c 0,-22.056 -17.944,-40 -40,-40 -22.056,0 -40,17.944 -40,40 0,22.056 17.944,40 40,40 22.056,0 40,-17.944 40,-40 z m -40,24 c -13.232,0 -24,-10.768 -24,-24 0,-13.232 10.768,-24 24,-24 13.232,0 24,10.768 24,24 0,13.232 -10.768,24 -24,24 z"
       id="path9038" /><path
       inkscape:connector-curvature="0"
       style="fill:#0c3847"
       d="m 448,280 c -22.056,0 -40,17.944 -40,40 0,22.056 17.944,40 40,40 22.056,0 40,-17.944 40,-40 0,-22.056 -17.944,-40 -40,-40 z m 0,64 c -13.232,0 -24,-10.768 -24,-24 0,-13.232 10.768,-24 24,-24 13.232,0 24,10.768 24,24 0,13.232 -10.768,24 -24,24 z"
       id="path9040" /><path
       inkscape:connector-curvature="0"
       style="fill:#0c3847"
       d="m 104,248 c 0,-22.056 -17.944,-40 -40,-40 -22.056,0 -40,17.944 -40,40 0,22.056 17.944,40 40,40 22.056,0 40,-17.944 40,-40 z m -64,0 c 0,-13.232 10.768,-24 24,-24 13.232,0 24,10.768 24,24 0,13.232 -10.768,24 -24,24 -13.232,0 -24,-10.768 -24,-24 z"
       id="path9042" /><path
       inkscape:connector-curvature="0"
       style="fill:#0c3847"
       d="m 456,200 c 17.648,0 32,-14.352 32,-32 0,-17.648 -14.352,-32 -32,-32 -17.648,0 -32,14.352 -32,32 0,17.648 14.352,32 32,32 z m 0,-48 c 8.824,0 16,7.176 16,16 0,8.824 -7.176,16 -16,16 -8.824,0 -16,-7.176 -16,-16 0,-8.824 7.176,-16 16,-16 z"
       id="path9044" /><path
       inkscape:connector-curvature="0"
       style="fill:#0c3847"
       d="m 88,296 c -17.648,0 -32,14.352 -32,32 0,17.648 14.352,32 32,32 17.648,0 32,-14.352 32,-32 0,-17.648 -14.352,-32 -32,-32 z m 0,48 c -8.824,0 -16,-7.176 -16,-16 0,-8.824 7.176,-16 16,-16 8.824,0 16,7.176 16,16 0,8.824 -7.176,16 -16,16 z"
       id="path9046" /><rect
       x="360"
       y="120"
       style="fill:#0c3847"
       width="16"
       height="16"
       id="rect9048" /><rect
       x="120"
       y="120"
       style="fill:#0c3847"
       width="16"
       height="16"
       id="rect9050" /><rect
       x="355.94601"
       y="88.916"
       transform="matrix(0.9659,-0.2588,0.2588,0.9659,-12.6824,97.494)"
       style="fill:#0c3847"
       width="16"
       height="16"
       id="rect9052" /><rect
       x="124.078"
       y="151.05099"
       transform="matrix(-0.9659,0.2588,-0.2588,-0.9659,300.8194,278.5002)"
       style="fill:#0c3847"
       width="16"
       height="16"
       id="rect9054" /><rect
       x="343.94101"
       y="60"
       transform="matrix(0.866,-0.5,0.5,0.866,13.1527,185.0852)"
       style="fill:#0c3847"
       width="16"
       height="16"
       id="rect9056" /><rect
       x="136.07201"
       y="180.011"
       transform="matrix(0.5,0.866,-0.866,0.5,234.8553,-30.7658)"
       style="fill:#0c3847"
       width="16"
       height="16"
       id="rect9058" /><rect
       x="324.845"
       y="35.146999"
       transform="matrix(-0.7071,-0.7071,0.7071,-0.7071,537.6922,309.0138)"
       style="fill:#0c3847"
       width="16"
       height="16"
       id="rect9060" /><rect
       x="155.142"
       y="204.851"
       transform="matrix(-0.7071,-0.7071,0.7071,-0.7071,127.9927,478.7187)"
       style="fill:#0c3847"
       width="16"
       height="16"
       id="rect9062" /><rect
       x="299.992"
       y="16.077"
       transform="matrix(-0.866,-0.5,0.5,-0.866,562.6801,198.9281)"
       style="fill:#0c3847"
       width="16"
       height="16"
       id="rect9064" /><rect
       x="179.995"
       y="223.936"
       transform="matrix(-0.5,0.866,-0.866,-0.5,482.8551,185.0995)"
       style="fill:#0c3847"
       width="16"
       height="16"
       id="rect9066" /><rect
       x="271.04599"
       y="4.085"
       transform="matrix(-0.9659,-0.2588,0.2588,-0.9659,545.4575,95.9762)"
       style="fill:#0c3847"
       width="16"
       height="16"
       id="rect9068" /><rect
       x="208.94099"
       y="235.897"
       transform="matrix(-0.2588,0.9659,-0.9659,-0.2588,508.6731,97.4694)"
       style="fill:#0c3847"
       width="16"
       height="16"
       id="rect9070" /><rect
       y="0"
       x="240"
       style="fill:#0c3847"
       width="16"
       height="16"
       id="rect9072" /><rect
       x="208.942"
       y="4.0689998"
       transform="matrix(-0.2588,-0.9659,0.9659,-0.2588,261.4313,224.7426)"
       style="fill:#0c3847"
       width="16"
       height="16"
       id="rect9074" /><rect
       x="271.077"
       y="235.91"
       transform="matrix(0.9659,-0.2588,0.2588,0.9659,-53.6173,80.5376)"
       style="fill:#0c3847"
       width="16"
       height="16"
       id="rect9076" /><rect
       x="179.995"
       y="16.072001"
       transform="matrix(-0.5,-0.866,0.866,-0.5,261.1473,198.9153)"
       style="fill:#0c3847"
       width="16"
       height="16"
       id="rect9078" /><rect
       x="299.96301"
       y="223.936"
       transform="matrix(0.5,0.866,-0.866,0.5,354.839,-150.7361)"
       style="fill:#0c3847"
       width="16"
       height="16"
       id="rect9080" /><rect
       x="155.146"
       y="35.144001"
       transform="matrix(-0.7071,-0.7071,0.7071,-0.7071,247.9996,189.0125)"
       style="fill:#0c3847"
       width="16"
       height="16"
       id="rect9082" /><rect
       x="324.83899"
       y="204.858"
       transform="matrix(0.7071,0.7071,-0.7071,0.7071,247.9991,-173.0078)"
       style="fill:#0c3847"
       width="16"
       height="16"
       id="rect9084" /><rect
       x="136.077"
       y="60"
       transform="matrix(-0.866,-0.5,0.5,-0.866,234.8502,198.9295)"
       style="fill:#0c3847"
       width="16"
       height="16"
       id="rect9086" /><rect
       x="343.91501"
       y="179.992"
       transform="matrix(-0.866,-0.5,0.5,-0.866,562.6815,526.7579)"
       style="fill:#0c3847"
       width="16"
       height="16"
       id="rect9088" /><rect
       x="124.085"
       y="88.955002"
       transform="matrix(-0.9659,-0.2588,0.2588,-0.9659,234.577,224.7909)"
       style="fill:#0c3847"
       width="16"
       height="16"
       id="rect9090" /><rect
       x="355.91"
       y="151.04201"
       transform="matrix(-0.9659,-0.2588,0.2588,-0.9659,674.2587,406.8466)"
       style="fill:#0c3847"
       width="16"
       height="16"
       id="rect9092" /></g></svg>