<?xml version="1.0" encoding="UTF-8" standalone="no"?>
<!-- Generator: Adobe Illustrator 19.0.0, SVG Export Plug-In . SVG Version: 6.00 Build 0)  -->

<svg
   xmlns:dc="http://purl.org/dc/elements/1.1/"
   xmlns:cc="http://creativecommons.org/ns#"
   xmlns:rdf="http://www.w3.org/1999/02/22-rdf-syntax-ns#"
   xmlns:svg="http://www.w3.org/2000/svg"
   xmlns="http://www.w3.org/2000/svg"
   xmlns:sodipodi="http://sodipodi.sourceforge.net/DTD/sodipodi-0.dtd"
   xmlns:inkscape="http://www.inkscape.org/namespaces/inkscape"
   version="1.1"
   id="Layer_1"
   x="0px"
   y="0px"
   viewBox="0 0 260 260"
   xml:space="preserve"
   inkscape:version="0.91 r13725"
   sodipodi:docname="jobs-icon.svg"
   width="260"
   height="260"><metadata
     id="metadata8457"><rdf:RDF><cc:Work
         rdf:about=""><dc:format>image/svg+xml</dc:format><dc:type
           rdf:resource="http://purl.org/dc/dcmitype/StillImage" /><dc:title></dc:title></cc:Work></rdf:RDF></metadata><defs
     id="defs8455" /><sodipodi:namedview
     pagecolor="#ffffff"
     bordercolor="#666666"
     borderopacity="1"
     objecttolerance="10"
     gridtolerance="10"
     guidetolerance="10"
     inkscape:pageopacity="0"
     inkscape:pageshadow="2"
     inkscape:window-width="1366"
     inkscape:window-height="745"
     id="namedview8453"
     showgrid="false"
     fit-margin-top="0"
     fit-margin-left="0"
     fit-margin-right="0"
     fit-margin-bottom="0"
     inkscape:zoom="1.8582677"
     inkscape:cx="172.66102"
     inkscape:cy="124.84746"
     inkscape:window-x="-8"
     inkscape:window-y="-8"
     inkscape:window-maximized="1"
     inkscape:current-layer="Layer_1" /><circle
     style="fill:#90dfaa"
     cx="130"
     cy="130"
     r="130"
     id="circle8347" /><circle
     style="fill:#2c9984"
     cx="130"
     cy="130"
     r="94.173225"
     id="circle8349" /><g
     id="g8351"
     transform="scale(0.51181102,0.51181102)"><path
       style="fill:#ffffff"
       d="m 184.4,214.8 c 3.2,-8 2,-15.6 -2,-17.2 -0.8,-0.4 -2,-0.4 -3.2,0 -4.4,1.2 -9.2,0.8 -13.6,-0.8 l -14.8,-5.6 -7.6,19.6 14.8,5.6 c 4.4,1.6 8.4,4.4 10.8,8.4 0.4,0.8 1.2,1.6 2.4,2 4.4,1.2 10,-4 13.2,-12 z"
       id="path8353"
       inkscape:connector-curvature="0" /><path
       style="fill:#ffffff"
       d="m 184.4,292.4 c -3.2,-8 -8.8,-13.2 -12.8,-11.6 -0.8,0.4 -1.6,1.2 -2.4,2 -2.4,4 -6.4,6.4 -10.8,8.4 l -14.8,5.6 7.2,19.6 14.8,-5.6 c 4.4,-1.6 9.2,-2.4 13.6,-0.8 1.2,0.4 2,0.4 3.2,0 4,-2 5.2,-9.6 2,-17.6 z"
       id="path8355"
       inkscape:connector-curvature="0" /></g><rect
     x="17.6063"
     y="105.02362"
     style="fill:#f9b54c"
     width="25.181103"
     height="47.496063"
     id="rect8357" /><g
     id="g8359"
     transform="scale(0.51181102,0.51181102)"><path
       style="fill:#2b3b4e"
       d="m 171.2,193.2 -12.4,31.2 -0.4,0 c -1.2,-0.4 -2.4,-0.8 -3.6,-1.2 0,0 -42.4,-16.8 -42.8,-16.8 -1.6,0 -9.6,-4 -9.6,6.8 0,0 -1.2,21.6 -2,30.4 l -50,0 c 1.6,-15.2 10.4,-58 48.4,-68.4 6,-1.6 12,-1.6 18,-0.8 1.6,0.4 50,16.8 50,16.8 1.6,0.8 3.2,1.2 4.4,2 z"
       id="path8361"
       inkscape:connector-curvature="0" /><path
       style="fill:#2b3b4e"
       d="m 167.2,316.4 0,0 c 0,0 -48.4,16.8 -50,16.8 -6,0.8 -12,0.8 -18,-0.8 C 60.8,322 52,279.2 50.4,264 l 50.4,0 c 0.4,8.8 2,30.4 2,30.4 0,10.8 8,6.8 9.6,6.8 0.4,0 38.8,-15.2 42.4,-16.4 l 12.4,31.6 z"
       id="path8363"
       inkscape:connector-curvature="0" /></g><path
     style="fill:#ffd05b"
     d="m 22.929134,106.86614 0,43.6063 c 0,3.88976 -3.275591,7.16536 -7.165354,7.16536 l 0,0 0,-57.93701 0,0 c 3.889763,0 7.165354,3.27559 7.165354,7.16535 z"
     id="path8365"
     inkscape:connector-curvature="0" /><polygon
     style="fill:#324a5e"
     points="75.2,212.8 108.8,232 108.8,270.8 75.2,290.4 41.6,270.8 41.6,232 "
     id="polygon8367"
     transform="scale(0.51181102,0.51181102)" /><g
     id="g8369"
     transform="scale(0.51181102,0.51181102)"><path
       style="fill:#ffffff"
       d="m 323.6,214.8 c -3.2,-8 -2,-15.6 2,-17.2 0.8,-0.4 2,-0.4 3.2,0 4.4,1.2 9.2,0.8 13.6,-0.8 l 14.8,-5.6 7.6,19.6 -14.8,5.6 c -4.4,1.6 -8.4,4.4 -10.8,8.4 -0.4,0.8 -1.2,1.6 -2.4,2 -4.4,1.2 -10,-4 -13.2,-12 z"
       id="path8371"
       inkscape:connector-curvature="0" /><path
       style="fill:#ffffff"
       d="m 323.6,292.4 c 3.2,-8 8.8,-13.2 12.8,-11.6 0.8,0.4 1.6,1.2 2.4,2 2.4,4 6.4,6.4 10.8,8.4 l 14.8,5.6 -7.2,19.6 -15.2,-6 c -4.4,-1.6 -9.2,-2.4 -13.6,-0.8 -1.2,0.4 -2,0.4 -3.2,0 -3.6,-1.6 -4.8,-9.2 -1.6,-17.2 z"
       id="path8373"
       inkscape:connector-curvature="0" /></g><rect
     x="217.2126"
     y="105.02362"
     style="fill:#f9b54c"
     width="25.181103"
     height="47.496063"
     id="rect8375" /><g
     id="g8377"
     transform="scale(0.51181102,0.51181102)"><path
       style="fill:#ff7058"
       d="m 336.8,193.2 12.4,31.2 0.4,0 c 1.2,-0.4 2.4,-0.8 3.6,-1.2 0,0 42.4,-16.8 42.8,-16.8 1.6,0 9.6,-4 9.6,6.8 0,0 1.2,21.6 2,30.4 l 50.4,0 c -1.6,-15.2 -10.4,-58 -48.4,-68.4 -6,-1.6 -12,-1.6 -18,-0.8 -1.6,0.4 -50,16.8 -50,16.8 -2,0.8 -3.6,1.2 -4.8,2 z"
       id="path8379"
       inkscape:connector-curvature="0" /><path
       style="fill:#ff7058"
       d="m 340.8,316.4 0,0 c 0,0 48.4,16.8 50,16.8 6,0.8 12,0.8 18,-0.8 38.4,-10.8 46.8,-53.6 48.4,-68.4 l -50.4,0 c -0.4,8.8 -2,30.4 -2,30.4 0,10.8 -8,6.8 -9.6,6.8 -0.4,0 -38.8,-15.2 -42.4,-16.4 l -12,31.6 z"
       id="path8381"
       inkscape:connector-curvature="0" /></g><path
     style="fill:#ffd05b"
     d="m 237.07087,106.86614 0,43.6063 c 0,3.88976 3.27559,7.16536 7.16535,7.16536 l 0,0 0,-57.93701 0,0 c -3.88976,0 -7.16535,3.27559 -7.16535,7.16535 z"
     id="path8383"
     inkscape:connector-curvature="0" /><polygon
     style="fill:#324a5e"
     points="432.8,212.8 399.2,232 399.2,270.8 432.8,290.4 466.4,270.8 466.4,232 "
     id="polygon8385"
     transform="scale(0.51181102,0.51181102)" /><g
     id="g8387"
     transform="scale(0.51181102,0.51181102)"><path
       style="fill:#ffffff"
       d="m 293.2,184.4 c 8,3.2 15.6,2 17.2,-2 0.4,-0.8 0.4,-2 0,-3.2 -1.2,-4.4 -0.8,-9.2 0.8,-13.6 l 5.6,-14.8 -19.6,-7.6 -5.6,14.8 c -1.6,4.4 -4.4,8.4 -8.4,10.8 -0.8,0.4 -1.6,1.2 -2,2.4 -1.2,4.4 4,10 12,13.2 z"
       id="path8389"
       inkscape:connector-curvature="0" /><path
       style="fill:#ffffff"
       d="m 215.6,184.4 c 8,-3.2 13.2,-8.8 11.6,-12.8 -0.4,-0.8 -1.2,-1.6 -2,-2.4 -4,-2.4 -6.4,-6.4 -8.4,-10.8 l -5.6,-14.8 -19.6,7.2 5.6,14.8 c 1.6,4.4 2.4,9.2 0.8,13.6 -0.4,1.2 -0.4,2 0,3.2 2,4 9.6,5.2 17.6,2 z"
       id="path8391"
       inkscape:connector-curvature="0" /></g><rect
     x="107.48032"
     y="17.606293"
     style="fill:#f9b54c"
     width="47.496063"
     height="25.181103"
     id="rect8393" /><g
     id="g8395"
     transform="scale(0.51181102,0.51181102)"><path
       style="fill:#e6e9ee"
       d="m 314.8,171.2 -31.2,-12.4 0,-0.4 c 0.4,-1.2 0.8,-2.4 1.2,-3.6 0,0 16.8,-42.4 16.8,-42.8 0,-1.6 4,-9.6 -6.8,-9.6 0,0 -21.6,-1.2 -30.4,-2 l 0,-50 c 15.2,1.6 58,10.4 68.4,48.4 1.6,6 1.6,12 0.8,18 -0.4,1.6 -16.8,50 -16.8,50 -0.8,1.6 -1.2,3.2 -2,4.4 z"
       id="path8397"
       inkscape:connector-curvature="0" /><path
       style="fill:#e6e9ee"
       d="m 191.6,167.2 0,0 c 0,0 -16.8,-48.4 -16.8,-50 -0.8,-6 -0.8,-12 0.8,-18 10.8,-38.4 53.6,-46.8 68.4,-48.4 l 0,50.4 c -8.8,0.4 -30.4,2 -30.4,2 -10.8,0 -6.8,8 -6.8,9.6 0,0.4 15.2,38.8 16.4,42.4 l -31.6,12 z"
       id="path8399"
       inkscape:connector-curvature="0" /></g><path
     style="fill:#ffd05b"
     d="m 153.13386,22.92913 -43.6063,0 c -3.88976,0 -7.16536,-3.27559 -7.16536,-7.16535 l 0,0 57.73229,0 0,0 c 0.20472,3.88976 -3.07087,7.16535 -6.96063,7.16535 z"
     id="path8401"
     inkscape:connector-curvature="0" /><polygon
     style="fill:#324a5e"
     points="295.2,75.2 276,108.8 237.2,108.8 217.6,75.2 237.2,41.6 276,41.6 "
     id="polygon8403"
     transform="scale(0.51181102,0.51181102)" /><g
     id="g8405"
     transform="scale(0.51181102,0.51181102)"><path
       style="fill:#ffffff"
       d="m 293.2,323.6 c 8,-3.2 15.6,-2 17.2,2 0.4,0.8 0.4,2 0,3.2 -1.2,4.4 -0.8,9.2 0.8,13.6 l 5.6,14.8 -19.6,7.6 -5.6,-14.8 c -1.6,-4.4 -4.4,-8.4 -8.4,-10.8 -0.8,-0.4 -1.6,-1.2 -2,-2.4 -1.2,-4.4 4,-10 12,-13.2 z"
       id="path8407"
       inkscape:connector-curvature="0" /><path
       style="fill:#ffffff"
       d="m 215.6,323.6 c 8,3.2 13.2,8.8 11.6,12.8 -0.4,0.8 -1.2,1.6 -2,2.4 -4,2.4 -6.4,6.4 -8.4,10.8 l -5.6,14.8 -19.6,-7.2 5.6,-14.8 c 1.6,-4.4 2.4,-9.2 0.8,-13.6 -0.4,-1.2 -0.4,-2 0,-3.2 2,-4 9.6,-5.2 17.6,-2 z"
       id="path8409"
       inkscape:connector-curvature="0" /></g><rect
     x="107.48032"
     y="217.21259"
     style="fill:#f9b54c"
     width="47.496063"
     height="25.181103"
     id="rect8411" /><g
     id="g8413"
     transform="scale(0.51181102,0.51181102)"><path
       style="fill:#2b3b4e"
       d="m 314.8,336.8 -31.2,12.4 0,0.4 c 0.4,1.2 0.8,2.4 1.2,3.6 0,0 16.8,42.4 16.8,42.8 0,1.6 4,9.6 -6.8,9.6 0,0 -21.6,1.2 -30.4,2 l 0,50.4 c 15.2,-1.6 58,-10.4 68.4,-48.4 1.6,-6 1.6,-12 0.8,-18 -0.4,-1.6 -16.8,-50 -16.8,-50 -0.8,-2 -1.2,-3.6 -2,-4.8 z"
       id="path8415"
       inkscape:connector-curvature="0" /><path
       style="fill:#2b3b4e"
       d="m 191.6,340.8 0,0 c 0,0 -16.8,48.4 -16.8,50 -0.8,6 -0.8,12 0.8,18 10.8,38.4 53.6,46.8 68.4,48.4 l 0,-50.4 c -8.8,-0.4 -30.4,-2 -30.4,-2 -10.8,0 -6.8,-8 -6.8,-9.6 0,-0.4 15.2,-38.8 16.4,-42.4 l -31.6,-12 z"
       id="path8417"
       inkscape:connector-curvature="0" /></g><path
     style="fill:#ffd05b"
     d="m 153.13386,237.07087 -43.6063,0 c -3.88976,0 -7.16536,3.27559 -7.16536,7.16535 l 0,0 57.73229,0 0,0 c 0.20472,-3.88976 -3.07087,-7.16535 -6.96063,-7.16535 z"
     id="path8419"
     inkscape:connector-curvature="0" /><polygon
     style="fill:#324a5e"
     points="295.2,432.8 276,399.2 237.2,399.2 217.6,432.8 237.2,466.4 276,466.4 "
     id="polygon8421"
     transform="scale(0.51181102,0.51181102)" /><g
     id="g8423"
     transform="translate(0,-248)" /><g
     id="g8425"
     transform="translate(0,-248)" /><g
     id="g8427"
     transform="translate(0,-248)" /><g
     id="g8429"
     transform="translate(0,-248)" /><g
     id="g8431"
     transform="translate(0,-248)" /><g
     id="g8433"
     transform="translate(0,-248)" /><g
     id="g8435"
     transform="translate(0,-248)" /><g
     id="g8437"
     transform="translate(0,-248)" /><g
     id="g8439"
     transform="translate(0,-248)" /><g
     id="g8441"
     transform="translate(0,-248)" /><g
     id="g8443"
     transform="translate(0,-248)" /><g
     id="g8445"
     transform="translate(0,-248)" /><g
     id="g8447"
     transform="translate(0,-248)" /><g
     id="g8449"
     transform="translate(0,-248)" /><g
     id="g8451"
     transform="translate(0,-248)" /></svg>