<?xml version="1.0" encoding="UTF-8" standalone="no"?>
<!-- Created with Inkscape (http://www.inkscape.org/) -->

<svg
   xmlns:dc="http://purl.org/dc/elements/1.1/"
   xmlns:cc="http://creativecommons.org/ns#"
   xmlns:rdf="http://www.w3.org/1999/02/22-rdf-syntax-ns#"
   xmlns:svg="http://www.w3.org/2000/svg"
   xmlns="http://www.w3.org/2000/svg"
   xmlns:sodipodi="http://sodipodi.sourceforge.net/DTD/sodipodi-0.dtd"
   xmlns:inkscape="http://www.inkscape.org/namespaces/inkscape"
   id="svg4153"
   version="1.1"
   inkscape:version="0.91 r13725"
   xml:space="preserve"
   width="33"
   height="60"
   viewBox="0 0 33 60"
   sodipodi:docname="marker-medical-center.svg"
   inkscape:export-filename="C:\Users\Lea-\Documents\Cannabis Analytics\Website\MarketMap\Marker-Icons\marker-medical-center.png"
   inkscape:export-xdpi="90"
   inkscape:export-ydpi="90"><metadata
     id="metadata4159"><rdf:RDF><cc:Work
         rdf:about=""><dc:format>image/svg+xml</dc:format><dc:type
           rdf:resource="http://purl.org/dc/dcmitype/StillImage" /><dc:title></dc:title></cc:Work></rdf:RDF></metadata><defs
     id="defs4157"><clipPath
       clipPathUnits="userSpaceOnUse"
       id="clipPath4167"><path
         d="M 0,800 480,800 480,0 0,0 0,800 Z"
         id="path4169"
         inkscape:connector-curvature="0" /></clipPath><clipPath
       clipPathUnits="userSpaceOnUse"
       id="clipPath4175"><path
         d="m 131.273,291.864 244.792,0 0,-79.062 -244.792,0 0,79.062 z"
         id="path4177"
         inkscape:connector-curvature="0" /></clipPath><radialGradient
       fx="0"
       fy="0"
       cx="0"
       cy="0"
       r="1"
       gradientUnits="userSpaceOnUse"
       gradientTransform="matrix(122.3916,0,0,-39.532486,253.66992,252.33301)"
       spreadMethod="pad"
       id="radialGradient4183"><stop
         style="stop-opacity:1;stop-color:#cfd4dc"
         offset="0"
         id="stop4185" /><stop
         style="stop-opacity:1;stop-color:#cfd4dc"
         offset="0.11797786"
         id="stop4187" /><stop
         style="stop-opacity:1;stop-color:#ffffff"
         offset="0.951508"
         id="stop4189" /><stop
         style="stop-opacity:1;stop-color:#ffffff"
         offset="1"
         id="stop4191" /></radialGradient><linearGradient
       x1="0"
       y1="0"
       x2="1"
       y2="0"
       gradientUnits="userSpaceOnUse"
       gradientTransform="matrix(-237.06242,-218.89738,-218.89738,237.06242,374.8916,589.58691)"
       spreadMethod="pad"
       id="linearGradient4219"><stop
         style="stop-opacity:1;stop-color:#80e300"
         offset="0"
         id="stop4221" /><stop
         style="stop-opacity:1;stop-color:#336e00"
         offset="1"
         id="stop4223" /></linearGradient><linearGradient
       x1="0"
       y1="0"
       x2="1"
       y2="0"
       gradientUnits="userSpaceOnUse"
       gradientTransform="matrix(173.64639,160.75894,160.75894,-173.64639,163.57324,474.09473)"
       spreadMethod="pad"
       id="linearGradient4239"><stop
         style="stop-opacity:1;stop-color:#80e300"
         offset="0"
         id="stop4241" /><stop
         style="stop-opacity:1;stop-color:#336e00"
         offset="1"
         id="stop4243" /></linearGradient><radialGradient
       fx="0"
       fy="0"
       cx="0"
       cy="0"
       r="1"
       gradientUnits="userSpaceOnUse"
       gradientTransform="matrix(175.69151,0,0,-175.69151,253.99023,557.94385)"
       spreadMethod="pad"
       id="radialGradient4259"><stop
         style="stop-opacity:1;stop-color:#ffffff"
         offset="0"
         id="stop4261" /><stop
         style="stop-opacity:1;stop-color:#ffffff"
         offset="0.309097"
         id="stop4263" /><stop
         style="stop-opacity:1;stop-color:#ffffff"
         offset="0.46213659"
         id="stop4265" /><stop
         style="stop-opacity:1;stop-color:#72b62b"
         offset="0.890915"
         id="stop4267" /><stop
         style="stop-opacity:1;stop-color:#72b62b"
         offset="1"
         id="stop4269" /></radialGradient><linearGradient
       x1="0"
       y1="0"
       x2="1"
       y2="0"
       gradientUnits="userSpaceOnUse"
       gradientTransform="matrix(165.12338,152.86848,152.86848,-165.12338,166.27686,504.71631)"
       spreadMethod="pad"
       id="linearGradient4285"><stop
         style="stop-opacity:1;stop-color:#80e300"
         offset="0"
         id="stop4287" /><stop
         style="stop-opacity:1;stop-color:#ffffff"
         offset="1"
         id="stop4289" /></linearGradient><clipPath
       clipPathUnits="userSpaceOnUse"
       id="clipPath4297"><path
         d="M 0,800 480,800 480,0 0,0 0,800 Z"
         id="path4299"
         inkscape:connector-curvature="0" /></clipPath><clipPath
       clipPathUnits="userSpaceOnUse"
       id="clipPath4305"><path
         d="m 147.714,656.047 83.105,0 0,-95.508 -83.105,0 0,95.508 z"
         id="path4307"
         inkscape:connector-curvature="0" /></clipPath><clipPath
       clipPathUnits="userSpaceOnUse"
       id="clipPath4309"><path
         d="m 147.714,656.047 83.105,0 0,-95.508 -83.105,0 0,95.508 z"
         id="path4311"
         inkscape:connector-curvature="0" /></clipPath><clipPath
       clipPathUnits="userSpaceOnUse"
       id="clipPath4313"><path
         d="m 147.714,656.047 83.105,0 0,-95.508 -83.105,0 0,95.508 z"
         id="path4315"
         inkscape:connector-curvature="0" /></clipPath><clipPath
       clipPathUnits="userSpaceOnUse"
       id="clipPath4317"><path
         d="m 147.904,655.758 81.719,0 0,-93.998 -81.719,0 0,93.998 z"
         id="path4319"
         inkscape:connector-curvature="0" /></clipPath><clipPath
       clipPathUnits="userSpaceOnUse"
       id="clipPath4321"><path
         d="m 148.091,655.471 80.335,0 0,-92.489 -80.335,0 0,92.489 z"
         id="path4323"
         inkscape:connector-curvature="0" /></clipPath><clipPath
       clipPathUnits="userSpaceOnUse"
       id="clipPath4325"><path
         d="m 148.274,655.184 78.956,0 0,-90.98 -78.956,0 0,90.98 z"
         id="path4327"
         inkscape:connector-curvature="0" /></clipPath><clipPath
       clipPathUnits="userSpaceOnUse"
       id="clipPath4329"><path
         d="m 148.453,654.899 77.58,0 0,-89.473 -77.58,0 0,89.473 z"
         id="path4331"
         inkscape:connector-curvature="0" /></clipPath><clipPath
       clipPathUnits="userSpaceOnUse"
       id="clipPath4333"><path
         d="m 148.627,654.615 76.21,0 0,-87.968 -76.21,0 0,87.968 z"
         id="path4335"
         inkscape:connector-curvature="0" /></clipPath><clipPath
       clipPathUnits="userSpaceOnUse"
       id="clipPath4337"><path
         d="m 148.798,654.333 74.843,0 0,-86.464 -74.843,0 0,86.464 z"
         id="path4339"
         inkscape:connector-curvature="0" /></clipPath><clipPath
       clipPathUnits="userSpaceOnUse"
       id="clipPath4341"><path
         d="m 148.963,654.051 73.482,0 0,-84.961 -73.482,0 0,84.961 z"
         id="path4343"
         inkscape:connector-curvature="0" /></clipPath><clipPath
       clipPathUnits="userSpaceOnUse"
       id="clipPath4345"><path
         d="m 149.124,653.77 72.125,0 0,-83.458 -72.125,0 0,83.458 z"
         id="path4347"
         inkscape:connector-curvature="0" /></clipPath><clipPath
       clipPathUnits="userSpaceOnUse"
       id="clipPath4349"><path
         d="m 149.278,653.49 70.774,0 0,-81.956 -70.774,0 0,81.956 z"
         id="path4351"
         inkscape:connector-curvature="0" /></clipPath><clipPath
       clipPathUnits="userSpaceOnUse"
       id="clipPath4353"><path
         d="m 149.428,653.211 69.427,0 0,-80.455 -69.427,0 0,80.455 z"
         id="path4355"
         inkscape:connector-curvature="0" /></clipPath><clipPath
       clipPathUnits="userSpaceOnUse"
       id="clipPath4357"><path
         d="m 149.573,652.934 68.087,0 0,-78.957 -68.087,0 0,78.957 z"
         id="path4359"
         inkscape:connector-curvature="0" /></clipPath><clipPath
       clipPathUnits="userSpaceOnUse"
       id="clipPath4361"><path
         d="m 149.712,652.656 66.751,0 0,-77.457 -66.751,0 0,77.457 z"
         id="path4363"
         inkscape:connector-curvature="0" /></clipPath><clipPath
       clipPathUnits="userSpaceOnUse"
       id="clipPath4365"><path
         d="m 149.846,652.38 65.421,0 0,-75.96 -65.421,0 0,75.96 z"
         id="path4367"
         inkscape:connector-curvature="0" /></clipPath><linearGradient
       x1="0"
       y1="0"
       x2="1"
       y2="0"
       gradientUnits="userSpaceOnUse"
       gradientTransform="matrix(-45.868591,-129.02904,-129.02904,45.868591,280.93848,597.47217)"
       spreadMethod="pad"
       id="linearGradient4561"><stop
         style="stop-opacity:1;stop-color:#80e300"
         offset="0"
         id="stop4563" /><stop
         style="stop-opacity:1;stop-color:#336e00"
         offset="1"
         id="stop4565" /></linearGradient><linearGradient
       x1="0"
       y1="0"
       x2="1"
       y2="0"
       gradientUnits="userSpaceOnUse"
       gradientTransform="matrix(-23.707977,-66.690887,-66.690887,23.707977,253.64941,609.71533)"
       spreadMethod="pad"
       id="linearGradient4581"><stop
         style="stop-opacity:1;stop-color:#80e300"
         offset="0"
         id="stop4583" /><stop
         style="stop-opacity:1;stop-color:#336e00"
         offset="1"
         id="stop4585" /></linearGradient></defs><sodipodi:namedview
     pagecolor="#ffffff"
     bordercolor="#666666"
     borderopacity="1"
     objecttolerance="10"
     gridtolerance="10"
     guidetolerance="10"
     inkscape:pageopacity="0"
     inkscape:pageshadow="2"
     inkscape:window-width="1366"
     inkscape:window-height="745"
     id="namedview4155"
     showgrid="false"
     fit-margin-top="0"
     fit-margin-left="0"
     fit-margin-right="0"
     fit-margin-bottom="0"
     inkscape:zoom="5.3400704"
     inkscape:cx="5.0374203"
     inkscape:cy="39.584113"
     inkscape:window-x="-8"
     inkscape:window-y="-8"
     inkscape:window-maximized="1"
     inkscape:current-layer="g4161" /><g
     id="g4161"
     inkscape:groupmode="layer"
     inkscape:label="Ecology_pointer"
     transform="matrix(1.25,0,0,-1.25,-166.36357,330.37383)"><g
       id="g4207"
       style="fill:#d13351;fill-opacity:1"
       transform="matrix(0.11632641,0,0,0.11632641,116.74529,186.94607)"><g
         id="g4209"
         style="fill:#d13351;fill-opacity:1"><g
           id="g4215"
           style="fill:#d13351;fill-opacity:1"><g
             id="g4217"
             style="fill:#d13351;fill-opacity:1"><path
               d="m 142.831,553.805 c 0,-27.234 12.586,-56.138 37.401,-85.923 l 0,0 c 20.421,-24.499 63.427,-61.906 72.15,-215.549 l 0,0 3.2,0 c 9.125,154.333 54.099,194.564 73.5,217.681 l 0,0 c 24.269,28.924 36.064,56.335 36.064,83.791 l 0,0 c 0,61.295 -49.861,111.16 -111.153,111.16 l 0,0 c -61.292,0 -111.162,-49.865 -111.162,-111.16"
               style="fill:#d13351;fill-opacity:1;stroke:none"
               id="path4225"
               inkscape:connector-curvature="0" /></g></g></g></g><g
       id="g4227"
       style="fill:#f3849a;fill-opacity:1"
       transform="matrix(0.11632641,0,0,0.11632641,116.74529,186.94607)"><g
         id="g4229"
         style="fill:#f3849a;fill-opacity:1"><g
           id="g4235"
           style="fill:#f3849a;fill-opacity:1"><g
             id="g4237"
             style="fill:#f3849a;fill-opacity:1"><path
               d="m 159.001,557.802 c 0,-52.462 42.528,-94.991 94.993,-94.991 l 0,0 c 52.457,0 94.985,42.529 94.985,94.991 l 0,0 c 0,52.462 -42.528,94.994 -94.985,94.994 l 0,0 c -52.465,0 -94.993,-42.532 -94.993,-94.994"
               style="fill:#f3849a;fill-opacity:1;stroke:none"
               id="path4245"
               inkscape:connector-curvature="0" /></g></g></g></g><g
       id="g4247"
       transform="matrix(0.11632641,0,0,0.11632641,116.74529,186.94607)"><g
         id="g4249"><g
           id="g4255"><g
             id="g4257"><path
               d="m 164.08,557.941 c 0,-49.653 40.253,-89.91 89.913,-89.91 l 0,0 c 49.652,0 89.906,40.257 89.906,89.91 l 0,0 c 0,49.659 -40.254,89.917 -89.906,89.917 l 0,0 c -49.66,0 -89.913,-40.258 -89.913,-89.917"
               style="fill:url(#radialGradient4259);stroke:none"
               id="path4271"
               inkscape:connector-curvature="0" /></g></g></g></g><g
       transform="matrix(0.35053049,0,0,-0.35053049,138.63771,259.50269)"
       id="g11587"
       style="fill:#d13351;fill-opacity:1"><g
         id="g11589"
         style="fill:#d13351;fill-opacity:1"><path
           inkscape:connector-curvature="0"
           d="m 8.026,10.63 0,1.549 c 0,0.232 0.19,0.42 0.422,0.42 0.232,0 0.423,-0.188 0.423,-0.42 l 0,-1.549 c 0.178,0.084 0.409,0.17 0.714,0.257 0.945,0.266 2.266,0.435 2.331,0.204 0.052,-0.186 -0.724,-0.575 -1.522,-0.858 0.127,-0.05 0.265,-0.106 0.409,-0.17 C 12.352,9.384 14.288,8.17 14.122,7.792 13.975,7.456 12.217,7.894 10.739,8.473 10.8,8.376 10.861,8.275 10.924,8.17 12.101,6.183 13.28,3.295 12.796,3.008 12.381,2.762 10.882,4.502 9.721,6.254 9.676,3.472 9.135,0.001 8.472,0.001 7.811,0.001 7.269,3.471 7.224,6.254 6.062,4.501 4.563,2.762 4.148,3.008 3.664,3.295 4.843,6.182 6.02,8.17 6.083,8.275 6.144,8.377 6.204,8.473 4.727,7.893 2.968,7.455 2.82,7.791 c -0.166,0.378 1.77,1.592 3.319,2.271 0.144,0.063 0.28,0.12 0.408,0.17 -0.799,0.284 -1.577,0.673 -1.525,0.859 0.065,0.23 1.368,0.062 2.313,-0.204 C 7.64,10.8 7.848,10.715 8.026,10.63 Z"
           id="path11591"
           style="fill:#d13351;fill-opacity:1" /><path
           inkscape:connector-curvature="0"
           d="M 40.847,7.791 C 40.7,7.455 38.941,7.893 37.464,8.472 37.524,8.375 37.586,8.274 37.648,8.169 38.825,6.182 40.004,3.294 39.52,3.007 39.105,2.761 37.606,4.501 36.445,6.253 36.399,3.471 35.858,0 35.195,0 34.533,0 33.992,3.47 33.947,6.253 32.786,4.501 31.286,2.762 30.873,3.007 c -0.485,0.287 0.694,3.174 1.871,5.162 0.063,0.105 0.124,0.207 0.185,0.303 -1.478,-0.579 -3.236,-1.017 -3.383,-0.681 -0.166,0.378 1.77,1.592 3.318,2.271 0.145,0.063 0.28,0.12 0.408,0.17 -0.799,0.283 -1.578,0.672 -1.524,0.858 0.064,0.23 1.366,0.062 2.312,-0.204 0.306,-0.086 0.513,-0.172 0.691,-0.256 l 0,1.549 c 0,0.232 0.189,0.42 0.422,0.42 0.231,0 0.423,-0.188 0.423,-0.42 l 0,-1.549 c 0.178,0.084 0.409,0.17 0.715,0.257 0.945,0.266 2.265,0.435 2.33,0.204 0.053,-0.186 -0.723,-0.575 -1.522,-0.858 0.128,-0.05 0.266,-0.106 0.409,-0.17 1.547,-0.68 3.484,-1.894 3.319,-2.272 z"
           id="path11593"
           style="fill:#d13351;fill-opacity:1" /><path
           inkscape:connector-curvature="0"
           d="m 19.502,10.062 c 0.145,0.063 0.28,0.12 0.408,0.17 -0.799,0.283 -1.578,0.672 -1.525,0.858 0.065,0.23 1.378,0.062 2.323,-0.204 0.306,-0.086 0.524,-0.172 0.702,-0.256 l 0,1.549 c 0,0.232 0.19,0.42 0.422,0.42 0.232,0 0.422,-0.188 0.422,-0.42 l 0,-1.549 c 0.178,0.084 0.398,0.17 0.704,0.257 0.944,0.266 2.26,0.435 2.324,0.204 0.054,-0.186 -0.726,-0.575 -1.524,-0.858 0.127,-0.05 0.263,-0.106 0.408,-0.17 C 25.715,9.384 27.65,8.17 27.484,7.792 27.338,7.456 25.578,7.894 24.101,8.473 24.162,8.376 24.223,8.275 24.286,8.17 25.464,6.183 26.642,3.295 26.158,3.008 25.741,2.762 24.242,4.501 23.082,6.253 23.036,3.471 22.496,0 21.834,0 21.172,0 20.631,3.47 20.586,6.253 19.424,4.501 17.925,2.762 17.51,3.007 c -0.484,0.287 0.695,3.174 1.872,5.162 0.063,0.105 0.124,0.207 0.184,0.303 -1.478,-0.579 -3.236,-1.017 -3.383,-0.681 -0.166,0.378 1.769,1.592 3.319,2.271 z"
           id="path11595"
           style="fill:#d13351;fill-opacity:1" /><path
           inkscape:connector-curvature="0"
           d="m 37.053,13.742 -30.439,0 c -0.619,0 -1.123,0.505 -1.123,1.125 l 0,0.727 c 0,0.62 0.503,1.127 1.123,1.127 l 12.217,0 0,1.957 5.957,0 0,-1.957 12.265,0 c 0.62,0 1.12,-0.507 1.12,-1.127 l 0,-0.727 c 0,-0.62 -0.5,-1.125 -1.12,-1.125 z"
           id="path11597"
           style="fill:#d13351;fill-opacity:1" /><path
           inkscape:connector-curvature="0"
           d="m 25.922,27.78 -3.069,2.243 c -0.271,-0.139 -0.581,-0.217 -0.907,-0.217 -1.101,0 -1.993,0.893 -1.993,1.992 0,1.102 0.892,1.993 1.993,1.993 1.101,0 1.994,-0.892 1.994,-1.993 0,-0.152 -0.018,-0.302 -0.051,-0.445 l 2.735,-2.758 c 0.184,-0.186 0.211,-0.481 0.052,-0.699 -0.176,-0.24 -0.514,-0.292 -0.754,-0.116 z"
           id="path11599"
           style="fill:#d13351;fill-opacity:1" /><path
           inkscape:connector-curvature="0"
           d="m 31.232,19.922 -18.798,0 c -2.467,0 -4.453,1.992 -4.453,4.458 l 0,14.836 c 0,2.467 1.986,4.449 4.453,4.449 l 18.798,0 c 2.467,0 4.451,-1.982 4.451,-4.449 l 0,-14.835 c 0,-2.467 -1.984,-4.459 -4.451,-4.459 z m -9.398,19.812 c -4.382,0 -7.935,-3.553 -7.935,-7.936 0,-4.382 3.553,-7.934 7.935,-7.934 4.382,0 7.935,3.552 7.935,7.934 -10e-4,4.384 -3.553,7.936 -7.935,7.936 z"
           id="path11601"
           style="fill:#d13351;fill-opacity:1" /></g></g></g></svg>