<?xml version="1.0" encoding="UTF-8" standalone="no"?>
<!-- Created with Inkscape (http://www.inkscape.org/) -->

<svg
   xmlns:dc="http://purl.org/dc/elements/1.1/"
   xmlns:cc="http://creativecommons.org/ns#"
   xmlns:rdf="http://www.w3.org/1999/02/22-rdf-syntax-ns#"
   xmlns:svg="http://www.w3.org/2000/svg"
   xmlns="http://www.w3.org/2000/svg"
   xmlns:sodipodi="http://sodipodi.sourceforge.net/DTD/sodipodi-0.dtd"
   xmlns:inkscape="http://www.inkscape.org/namespaces/inkscape"
   id="svg4153"
   version="1.1"
   inkscape:version="0.91 r13725"
   xml:space="preserve"
   width="14"
   height="25.000002"
   viewBox="0 0 14 25.000002"
   sodipodi:docname="marker-medical-center.svg"><metadata
     id="metadata4159"><rdf:RDF><cc:Work
         rdf:about=""><dc:format>image/svg+xml</dc:format><dc:type
           rdf:resource="http://purl.org/dc/dcmitype/StillImage" /><dc:title></dc:title></cc:Work></rdf:RDF></metadata><defs
     id="defs4157"><clipPath
       clipPathUnits="userSpaceOnUse"
       id="clipPath4167"><path
         d="M 0,800 480,800 480,0 0,0 0,800 Z"
         id="path4169"
         inkscape:connector-curvature="0" /></clipPath><clipPath
       clipPathUnits="userSpaceOnUse"
       id="clipPath4175"><path
         d="m 131.273,291.864 244.792,0 0,-79.062 -244.792,0 0,79.062 z"
         id="path4177"
         inkscape:connector-curvature="0" /></clipPath><radialGradient
       fx="0"
       fy="0"
       cx="0"
       cy="0"
       r="1"
       gradientUnits="userSpaceOnUse"
       gradientTransform="matrix(122.3916,0,0,-39.532486,253.66992,252.33301)"
       spreadMethod="pad"
       id="radialGradient4183"><stop
         style="stop-opacity:1;stop-color:#cfd4dc"
         offset="0"
         id="stop4185" /><stop
         style="stop-opacity:1;stop-color:#cfd4dc"
         offset="0.11797786"
         id="stop4187" /><stop
         style="stop-opacity:1;stop-color:#ffffff"
         offset="0.951508"
         id="stop4189" /><stop
         style="stop-opacity:1;stop-color:#ffffff"
         offset="1"
         id="stop4191" /></radialGradient><linearGradient
       x1="0"
       y1="0"
       x2="1"
       y2="0"
       gradientUnits="userSpaceOnUse"
       gradientTransform="matrix(-237.06242,-218.89738,-218.89738,237.06242,374.8916,589.58691)"
       spreadMethod="pad"
       id="linearGradient4219"><stop
         style="stop-opacity:1;stop-color:#80e300"
         offset="0"
         id="stop4221" /><stop
         style="stop-opacity:1;stop-color:#336e00"
         offset="1"
         id="stop4223" /></linearGradient><linearGradient
       x1="0"
       y1="0"
       x2="1"
       y2="0"
       gradientUnits="userSpaceOnUse"
       gradientTransform="matrix(173.64639,160.75894,160.75894,-173.64639,163.57324,474.09473)"
       spreadMethod="pad"
       id="linearGradient4239"><stop
         style="stop-opacity:1;stop-color:#80e300"
         offset="0"
         id="stop4241" /><stop
         style="stop-opacity:1;stop-color:#336e00"
         offset="1"
         id="stop4243" /></linearGradient><radialGradient
       fx="0"
       fy="0"
       cx="0"
       cy="0"
       r="1"
       gradientUnits="userSpaceOnUse"
       gradientTransform="matrix(175.69151,0,0,-175.69151,253.99023,557.94385)"
       spreadMethod="pad"
       id="radialGradient4259"><stop
         style="stop-opacity:1;stop-color:#ffffff"
         offset="0"
         id="stop4261" /><stop
         style="stop-opacity:1;stop-color:#ffffff"
         offset="0.309097"
         id="stop4263" /><stop
         style="stop-opacity:1;stop-color:#ffffff"
         offset="0.46213659"
         id="stop4265" /><stop
         style="stop-opacity:1;stop-color:#72b62b"
         offset="0.890915"
         id="stop4267" /><stop
         style="stop-opacity:1;stop-color:#72b62b"
         offset="1"
         id="stop4269" /></radialGradient><linearGradient
       x1="0"
       y1="0"
       x2="1"
       y2="0"
       gradientUnits="userSpaceOnUse"
       gradientTransform="matrix(165.12338,152.86848,152.86848,-165.12338,166.27686,504.71631)"
       spreadMethod="pad"
       id="linearGradient4285"><stop
         style="stop-opacity:1;stop-color:#80e300"
         offset="0"
         id="stop4287" /><stop
         style="stop-opacity:1;stop-color:#ffffff"
         offset="1"
         id="stop4289" /></linearGradient><clipPath
       clipPathUnits="userSpaceOnUse"
       id="clipPath4297"><path
         d="M 0,800 480,800 480,0 0,0 0,800 Z"
         id="path4299"
         inkscape:connector-curvature="0" /></clipPath><clipPath
       clipPathUnits="userSpaceOnUse"
       id="clipPath4305"><path
         d="m 147.714,656.047 83.105,0 0,-95.508 -83.105,0 0,95.508 z"
         id="path4307"
         inkscape:connector-curvature="0" /></clipPath><clipPath
       clipPathUnits="userSpaceOnUse"
       id="clipPath4309"><path
         d="m 147.714,656.047 83.105,0 0,-95.508 -83.105,0 0,95.508 z"
         id="path4311"
         inkscape:connector-curvature="0" /></clipPath><clipPath
       clipPathUnits="userSpaceOnUse"
       id="clipPath4313"><path
         d="m 147.714,656.047 83.105,0 0,-95.508 -83.105,0 0,95.508 z"
         id="path4315"
         inkscape:connector-curvature="0" /></clipPath><clipPath
       clipPathUnits="userSpaceOnUse"
       id="clipPath4317"><path
         d="m 147.904,655.758 81.719,0 0,-93.998 -81.719,0 0,93.998 z"
         id="path4319"
         inkscape:connector-curvature="0" /></clipPath><clipPath
       clipPathUnits="userSpaceOnUse"
       id="clipPath4321"><path
         d="m 148.091,655.471 80.335,0 0,-92.489 -80.335,0 0,92.489 z"
         id="path4323"
         inkscape:connector-curvature="0" /></clipPath><clipPath
       clipPathUnits="userSpaceOnUse"
       id="clipPath4325"><path
         d="m 148.274,655.184 78.956,0 0,-90.98 -78.956,0 0,90.98 z"
         id="path4327"
         inkscape:connector-curvature="0" /></clipPath><clipPath
       clipPathUnits="userSpaceOnUse"
       id="clipPath4329"><path
         d="m 148.453,654.899 77.58,0 0,-89.473 -77.58,0 0,89.473 z"
         id="path4331"
         inkscape:connector-curvature="0" /></clipPath><clipPath
       clipPathUnits="userSpaceOnUse"
       id="clipPath4333"><path
         d="m 148.627,654.615 76.21,0 0,-87.968 -76.21,0 0,87.968 z"
         id="path4335"
         inkscape:connector-curvature="0" /></clipPath><clipPath
       clipPathUnits="userSpaceOnUse"
       id="clipPath4337"><path
         d="m 148.798,654.333 74.843,0 0,-86.464 -74.843,0 0,86.464 z"
         id="path4339"
         inkscape:connector-curvature="0" /></clipPath><clipPath
       clipPathUnits="userSpaceOnUse"
       id="clipPath4341"><path
         d="m 148.963,654.051 73.482,0 0,-84.961 -73.482,0 0,84.961 z"
         id="path4343"
         inkscape:connector-curvature="0" /></clipPath><clipPath
       clipPathUnits="userSpaceOnUse"
       id="clipPath4345"><path
         d="m 149.124,653.77 72.125,0 0,-83.458 -72.125,0 0,83.458 z"
         id="path4347"
         inkscape:connector-curvature="0" /></clipPath><clipPath
       clipPathUnits="userSpaceOnUse"
       id="clipPath4349"><path
         d="m 149.278,653.49 70.774,0 0,-81.956 -70.774,0 0,81.956 z"
         id="path4351"
         inkscape:connector-curvature="0" /></clipPath><clipPath
       clipPathUnits="userSpaceOnUse"
       id="clipPath4353"><path
         d="m 149.428,653.211 69.427,0 0,-80.455 -69.427,0 0,80.455 z"
         id="path4355"
         inkscape:connector-curvature="0" /></clipPath><clipPath
       clipPathUnits="userSpaceOnUse"
       id="clipPath4357"><path
         d="m 149.573,652.934 68.087,0 0,-78.957 -68.087,0 0,78.957 z"
         id="path4359"
         inkscape:connector-curvature="0" /></clipPath><clipPath
       clipPathUnits="userSpaceOnUse"
       id="clipPath4361"><path
         d="m 149.712,652.656 66.751,0 0,-77.457 -66.751,0 0,77.457 z"
         id="path4363"
         inkscape:connector-curvature="0" /></clipPath><clipPath
       clipPathUnits="userSpaceOnUse"
       id="clipPath4365"><path
         d="m 149.846,652.38 65.421,0 0,-75.96 -65.421,0 0,75.96 z"
         id="path4367"
         inkscape:connector-curvature="0" /></clipPath><linearGradient
       x1="0"
       y1="0"
       x2="1"
       y2="0"
       gradientUnits="userSpaceOnUse"
       gradientTransform="matrix(-45.868591,-129.02904,-129.02904,45.868591,280.93848,597.47217)"
       spreadMethod="pad"
       id="linearGradient4561"><stop
         style="stop-opacity:1;stop-color:#80e300"
         offset="0"
         id="stop4563" /><stop
         style="stop-opacity:1;stop-color:#336e00"
         offset="1"
         id="stop4565" /></linearGradient><linearGradient
       x1="0"
       y1="0"
       x2="1"
       y2="0"
       gradientUnits="userSpaceOnUse"
       gradientTransform="matrix(-23.707977,-66.690887,-66.690887,23.707977,253.64941,609.71533)"
       spreadMethod="pad"
       id="linearGradient4581"><stop
         style="stop-opacity:1;stop-color:#80e300"
         offset="0"
         id="stop4583" /><stop
         style="stop-opacity:1;stop-color:#336e00"
         offset="1"
         id="stop4585" /></linearGradient></defs><sodipodi:namedview
     pagecolor="#ffffff"
     bordercolor="#666666"
     borderopacity="1"
     objecttolerance="10"
     gridtolerance="10"
     guidetolerance="10"
     inkscape:pageopacity="0"
     inkscape:pageshadow="2"
     inkscape:window-width="1366"
     inkscape:window-height="745"
     id="namedview4155"
     showgrid="false"
     fit-margin-top="0"
     fit-margin-left="0"
     fit-margin-right="0"
     fit-margin-bottom="0"
     inkscape:zoom="15.104"
     inkscape:cx="11.138849"
     inkscape:cy="14.172328"
     inkscape:window-x="-8"
     inkscape:window-y="-8"
     inkscape:window-maximized="1"
     inkscape:current-layer="g4161" /><g
     id="g4161"
     inkscape:groupmode="layer"
     inkscape:label="Ecology_pointer"
     transform="matrix(1.25,0,0,-1.25,-164.09125,291.00251)"><g
       id="g4163"
       transform="matrix(0.04423184,0,0,0.04423184,125.65275,203.38938)"><g
         id="g4165"
         clip-path="url(#clipPath4167)"><g
           id="g4171"><g
             id="g4173" /><g
             id="g4193"><g
               clip-path="url(#clipPath4175)"
               id="g4195"
               style="opacity:0.69999701"><g
                 id="g4197"><g
                   id="g4199"><g
                     id="g4201"><g
                       id="g4203"><path
                         d="m 376.065,252.331 c 0,-21.828 -54.8,-39.529 -122.394,-39.529 -67.598,0 -122.398,17.701 -122.398,39.529 0,21.836 54.8,39.533 122.398,39.533 67.594,0 122.394,-17.697 122.394,-39.533"
                         style="fill:url(#radialGradient4183);stroke:none"
                         id="path4205"
                         inkscape:connector-curvature="0" /></g></g></g></g></g></g></g></g></g><g
       id="g4207"
       style="fill:#d13351;fill-opacity:1"
       transform="matrix(0.04423184,0,0,0.04423184,125.65275,203.38938)"><g
         id="g4209"
         style="fill:#d13351;fill-opacity:1"><g
           id="g4215"
           style="fill:#d13351;fill-opacity:1"><g
             id="g4217"
             style="fill:#d13351;fill-opacity:1"><path
               d="m 142.831,553.805 c 0,-27.234 12.586,-56.138 37.401,-85.923 l 0,0 c 20.421,-24.499 63.427,-61.906 72.15,-215.549 l 0,0 3.2,0 c 9.125,154.333 54.099,194.564 73.5,217.681 l 0,0 c 24.269,28.924 36.064,56.335 36.064,83.791 l 0,0 c 0,61.295 -49.861,111.16 -111.153,111.16 l 0,0 c -61.292,0 -111.162,-49.865 -111.162,-111.16"
               style="fill:#d13351;fill-opacity:1;stroke:none"
               id="path4225"
               inkscape:connector-curvature="0" /></g></g></g></g><g
       id="g4227"
       style="fill:#f3849a;fill-opacity:1"
       transform="matrix(0.04423184,0,0,0.04423184,125.65275,203.38938)"><g
         id="g4229"
         style="fill:#f3849a;fill-opacity:1"><g
           id="g4235"
           style="fill:#f3849a;fill-opacity:1"><g
             id="g4237"
             style="fill:#f3849a;fill-opacity:1"><path
               d="m 159.001,557.802 c 0,-52.462 42.528,-94.991 94.993,-94.991 l 0,0 c 52.457,0 94.985,42.529 94.985,94.991 l 0,0 c 0,52.462 -42.528,94.994 -94.985,94.994 l 0,0 c -52.465,0 -94.993,-42.532 -94.993,-94.994"
               style="fill:#f3849a;fill-opacity:1;stroke:none"
               id="path4245"
               inkscape:connector-curvature="0" /></g></g></g></g><g
       id="g4247"
       transform="matrix(0.04423184,0,0,0.04423184,125.65275,203.38938)"><g
         id="g4249"><g
           id="g4255"><g
             id="g4257"><path
               d="m 164.08,557.941 c 0,-49.653 40.253,-89.91 89.913,-89.91 l 0,0 c 49.652,0 89.906,40.257 89.906,89.91 l 0,0 c 0,49.659 -40.254,89.917 -89.906,89.917 l 0,0 c -49.66,0 -89.913,-40.258 -89.913,-89.917"
               style="fill:url(#radialGradient4259);stroke:none"
               id="path4271"
               inkscape:connector-curvature="0" /></g></g></g></g><g
       id="g4293"
       transform="matrix(0.04423184,0,0,0.04423184,125.65275,203.38938)"><g
         id="g4295"
         clip-path="url(#clipPath4297)"><g
           id="g4301"><g
             id="g4303" /><g
             id="g4369"><g
               clip-path="url(#clipPath4305)"
               id="g4371"><g
                 id="g4373"><g
                   id="g4375" /><g
                   id="g4377"><g
                     clip-path="url(#clipPath4309)"
                     id="g4379"><g
                       id="g4381"><g
                         id="g4383" /><g
                         id="g4385"><g
                           clip-path="url(#clipPath4313)"
                           id="g4387"
                           style="opacity:0"><g
                             transform="translate(230.8188,655.5942)"
                             id="g4389"><path
                               d="m 0,0 c -0.065,-1.633 -14.124,-7.418 -20.261,-10.86 -12.288,-6.892 -23.402,-15.881 -32.406,-26.401 -10.24,-11.967 -17.855,-26.096 -22.841,-41.198 -1.729,-5.237 -4.949,-16.417 -5.838,-16.592 -1.507,-0.295 -2.289,13.841 -1.354,19.602 2.679,16.505 11.105,32.462 21.936,45.118 10.833,12.657 25.295,23.444 41.188,28.641 C -14.027,0.125 0.042,1.075 0,0"
                               style="fill:#ffffff;fill-opacity:1;fill-rule:nonzero;stroke:none"
                               id="path4391"
                               inkscape:connector-curvature="0" /></g></g></g></g><g
                       id="g4393"><g
                         id="g4395" /><g
                         id="g4397"><g
                           clip-path="url(#clipPath4317)"
                           id="g4399"
                           style="opacity:0.05461121"><g
                             transform="translate(229.6226,655.3325)"
                             id="g4401"><path
                               d="m 0,0 c -0.073,-1.599 -13.848,-7.35 -19.867,-10.757 -12.05,-6.824 -22.966,-15.693 -31.83,-26.049 -10.08,-11.78 -17.608,-25.662 -22.573,-40.479 -1.722,-5.139 -4.936,-16.106 -5.806,-16.282 -1.475,-0.299 -2.153,13.538 -1.204,19.186 2.719,16.177 11.05,31.853 21.712,44.311 10.664,12.46 24.863,23.11 40.426,28.296 C -13.708,0.037 0.047,1.052 0,0"
                               style="fill:#ffffff;fill-opacity:1;fill-rule:nonzero;stroke:none"
                               id="path4403"
                               inkscape:connector-curvature="0" /></g></g></g></g><g
                       id="g4405"><g
                         id="g4407" /><g
                         id="g4409"><g
                           clip-path="url(#clipPath4321)"
                           id="g4411"
                           style="opacity:0.10923803"><g
                             transform="translate(228.4263,655.0703)"
                             id="g4413"><path
                               d="m 0,0 c -0.082,-1.565 -13.573,-7.281 -19.472,-10.654 -11.814,-6.755 -22.532,-15.505 -31.255,-25.697 -9.921,-11.593 -17.361,-25.227 -22.305,-39.76 -1.714,-5.04 -4.924,-15.794 -5.774,-15.972 -1.443,-0.302 -2.017,13.236 -1.054,18.77 2.758,15.849 10.995,31.244 21.488,43.505 10.495,12.262 24.432,22.776 39.665,27.95 C -13.389,-0.051 0.053,1.031 0,0"
                               style="fill:#ffffff;fill-opacity:1;fill-rule:nonzero;stroke:none"
                               id="path4415"
                               inkscape:connector-curvature="0" /></g></g></g></g><g
                       id="g4417"><g
                         id="g4419" /><g
                         id="g4421"><g
                           clip-path="url(#clipPath4325)"
                           id="g4423"
                           style="opacity:0.163849"><g
                             transform="translate(227.23,654.8086)"
                             id="g4425"><path
                               d="m 0,0 c -0.09,-1.532 -13.297,-7.212 -19.078,-10.552 -11.576,-6.686 -22.097,-15.316 -30.679,-25.344 -9.761,-11.406 -17.115,-24.792 -22.037,-39.041 -1.706,-4.942 -4.911,-15.482 -5.742,-15.663 -1.411,-0.304 -1.881,12.934 -0.904,18.354 2.798,15.522 10.94,30.636 21.264,42.7 10.325,12.064 23.999,22.441 38.903,27.604 C -13.069,-0.139 0.058,1.008 0,0"
                               style="fill:#ffffff;fill-opacity:1;fill-rule:nonzero;stroke:none"
                               id="path4427"
                               inkscape:connector-curvature="0" /></g></g></g></g><g
                       id="g4429"><g
                         id="g4431" /><g
                         id="g4433"><g
                           clip-path="url(#clipPath4329)"
                           id="g4435"
                           style="opacity:0.21846002"><g
                             transform="translate(226.0332,654.5469)"
                             id="g4437"><path
                               d="m 0,0 c -0.098,-1.499 -13.021,-7.144 -18.683,-10.449 -11.339,-6.618 -21.662,-15.129 -30.103,-24.991 -9.602,-11.22 -16.869,-24.358 -21.77,-38.324 -1.698,-4.843 -4.898,-15.17 -5.71,-15.352 -1.378,-0.307 -1.744,12.632 -0.755,17.937 2.839,15.195 10.887,30.028 21.042,41.894 10.156,11.867 23.567,22.108 38.141,27.259 C -12.75,-0.228 0.064,0.986 0,0"
                               style="fill:#ffffff;fill-opacity:1;fill-rule:nonzero;stroke:none"
                               id="path4439"
                               inkscape:connector-curvature="0" /></g></g></g></g><g
                       id="g4441"><g
                         id="g4443" /><g
                         id="g4445"><g
                           clip-path="url(#clipPath4333)"
                           id="g4447"
                           style="opacity:0.27307099"><g
                             transform="translate(224.8369,654.2847)"
                             id="g4449"><path
                               d="m 0,0 c -0.107,-1.464 -12.745,-7.075 -18.289,-10.346 -11.102,-6.549 -21.227,-14.94 -29.527,-24.639 -9.442,-11.033 -16.622,-23.923 -21.501,-37.604 -1.692,-4.745 -4.886,-14.859 -5.679,-15.043 -1.346,-0.31 -1.608,12.33 -0.605,17.521 2.878,14.868 10.832,29.42 20.818,41.088 9.987,11.669 23.135,21.773 37.38,26.913 C -12.431,-0.315 0.069,0.964 0,0"
                               style="fill:#ffffff;fill-opacity:1;fill-rule:nonzero;stroke:none"
                               id="path4451"
                               inkscape:connector-curvature="0" /></g></g></g></g><g
                       id="g4453"><g
                         id="g4455" /><g
                         id="g4457"><g
                           clip-path="url(#clipPath4337)"
                           id="g4459"
                           style="opacity:0.32769799"><g
                             transform="translate(223.6406,654.0229)"
                             id="g4461"><path
                               d="m 0,0 c -0.115,-1.431 -12.469,-7.007 -17.895,-10.243 -10.864,-6.481 -20.791,-14.753 -28.952,-24.287 -9.281,-10.846 -16.374,-23.488 -21.232,-36.886 -1.684,-4.646 -4.874,-14.547 -5.647,-14.732 -1.314,-0.314 -1.472,12.028 -0.455,17.104 2.918,14.541 10.777,28.812 20.594,40.282 9.818,11.472 22.703,21.44 36.618,26.568 C -12.111,-0.403 0.075,0.942 0,0"
                               style="fill:#ffffff;fill-opacity:1;fill-rule:nonzero;stroke:none"
                               id="path4463"
                               inkscape:connector-curvature="0" /></g></g></g></g><g
                       id="g4465"><g
                         id="g4467" /><g
                         id="g4469"><g
                           clip-path="url(#clipPath4341)"
                           id="g4471"
                           style="opacity:0.38230902"><g
                             transform="translate(222.4443,653.7612)"
                             id="g4473"><path
                               d="m 0,0 c -0.124,-1.397 -12.194,-6.938 -17.5,-10.141 -10.628,-6.411 -20.357,-14.564 -28.376,-23.934 -9.123,-10.659 -16.129,-23.053 -20.965,-36.167 -1.677,-4.548 -4.861,-14.236 -5.615,-14.423 -1.282,-0.316 -1.336,11.726 -0.305,16.688 2.958,14.214 10.722,28.203 20.37,39.477 9.649,11.274 22.271,21.105 35.856,26.222 C -11.792,-0.491 0.081,0.92 0,0"
                               style="fill:#ffffff;fill-opacity:1;fill-rule:nonzero;stroke:none"
                               id="path4475"
                               inkscape:connector-curvature="0" /></g></g></g></g><g
                       id="g4477"><g
                         id="g4479" /><g
                         id="g4481"><g
                           clip-path="url(#clipPath4345)"
                           id="g4483"
                           style="opacity:0.43691999"><g
                             transform="translate(221.248,653.4995)"
                             id="g4485"><path
                               d="m 0,0 c -0.132,-1.364 -11.918,-6.87 -17.106,-10.038 -10.391,-6.343 -19.921,-14.376 -27.801,-23.582 -8.962,-10.472 -15.881,-22.619 -20.696,-35.448 -1.669,-4.45 -4.849,-13.924 -5.583,-14.113 -1.25,-0.319 -1.2,11.424 -0.155,16.272 2.997,13.886 10.668,27.594 20.146,38.67 9.48,11.077 21.839,20.771 35.095,25.877 C -11.473,-0.58 0.086,0.898 0,0"
                               style="fill:#ffffff;fill-opacity:1;fill-rule:nonzero;stroke:none"
                               id="path4487"
                               inkscape:connector-curvature="0" /></g></g></g></g><g
                       id="g4489"><g
                         id="g4491" /><g
                         id="g4493"><g
                           clip-path="url(#clipPath4349)"
                           id="g4495"
                           style="opacity:0.49153101"><g
                             transform="translate(220.0518,653.2373)"
                             id="g4497"><path
                               d="m 0,0 c -0.141,-1.33 -11.642,-6.801 -16.712,-9.935 -10.153,-6.274 -19.486,-14.188 -27.225,-23.23 -8.802,-10.285 -15.634,-22.184 -20.428,-34.729 -1.662,-4.351 -4.836,-13.612 -5.552,-13.803 -1.216,-0.323 -1.063,11.122 -0.004,15.856 3.037,13.558 10.613,26.986 19.922,37.864 9.311,10.879 21.407,20.437 34.333,25.531 C -11.153,-0.667 0.091,0.876 0,0"
                               style="fill:#ffffff;fill-opacity:1;fill-rule:nonzero;stroke:none"
                               id="path4499"
                               inkscape:connector-curvature="0" /></g></g></g></g><g
                       id="g4501"><g
                         id="g4503" /><g
                         id="g4505"><g
                           clip-path="url(#clipPath4353)"
                           id="g4507"
                           style="opacity:0.54615802"><g
                             transform="translate(218.855,652.9756)"
                             id="g4509"><path
                               d="m 0,0 c -0.148,-1.297 -11.366,-6.733 -16.317,-9.832 -9.916,-6.206 -19.051,-14 -26.649,-22.877 -8.643,-10.099 -15.388,-21.749 -20.16,-34.011 -1.655,-4.253 -4.824,-13.301 -5.52,-13.493 -1.185,-0.326 -0.928,10.819 0.145,15.439 3.077,13.231 10.558,26.378 19.699,37.059 9.141,10.681 20.975,20.103 33.572,25.185 C -10.834,-0.755 0.097,0.854 0,0"
                               style="fill:#ffffff;fill-opacity:1;fill-rule:nonzero;stroke:none"
                               id="path4511"
                               inkscape:connector-curvature="0" /></g></g></g></g><g
                       id="g4513"><g
                         id="g4515" /><g
                         id="g4517"><g
                           clip-path="url(#clipPath4357)"
                           id="g4519"
                           style="opacity:0.60076898"><g
                             transform="translate(217.6587,652.7139)"
                             id="g4521"><path
                               d="m 0,0 c -0.157,-1.263 -11.09,-6.665 -15.923,-9.729 -9.679,-6.138 -18.616,-13.812 -26.074,-22.525 -8.482,-9.912 -15.141,-21.315 -19.891,-33.292 -1.647,-4.154 -4.811,-12.99 -5.488,-13.183 -1.153,-0.329 -0.792,10.517 0.295,15.022 3.116,12.904 10.503,25.769 19.475,36.253 8.972,10.484 20.543,19.769 32.81,24.84 C -10.515,-0.843 0.103,0.832 0,0"
                               style="fill:#ffffff;fill-opacity:1;fill-rule:nonzero;stroke:none"
                               id="path4523"
                               inkscape:connector-curvature="0" /></g></g></g></g><g
                       id="g4525"><g
                         id="g4527" /><g
                         id="g4529"><g
                           clip-path="url(#clipPath4361)"
                           id="g4531"
                           style="opacity:0.65538001"><g
                             transform="translate(216.4624,652.4517)"
                             id="g4533"><path
                               d="m 0,0 c -0.166,-1.229 -10.815,-6.596 -15.529,-9.626 -9.441,-6.069 -18.18,-13.624 -25.497,-22.173 -8.324,-9.725 -14.895,-20.88 -19.624,-32.573 -1.64,-4.056 -4.799,-12.678 -5.456,-12.873 -1.121,-0.332 -0.656,10.215 0.445,14.606 3.156,12.576 10.449,25.161 19.251,35.447 8.803,10.286 20.111,19.435 32.048,24.494 C -10.195,-0.931 0.108,0.81 0,0"
                               style="fill:#ffffff;fill-opacity:1;fill-rule:nonzero;stroke:none"
                               id="path4535"
                               inkscape:connector-curvature="0" /></g></g></g></g><g
                       id="g4537"><g
                         id="g4539" /><g
                         id="g4541"><g
                           clip-path="url(#clipPath4365)"
                           id="g4543"
                           style="opacity:0.71000701"><g
                             transform="translate(215.2661,652.1899)"
                             id="g4545"><path
                               d="m 0,0 c -0.174,-1.196 -10.539,-6.527 -15.135,-9.524 -9.203,-5.999 -17.745,-13.435 -24.922,-21.82 -8.163,-9.538 -14.647,-20.445 -19.355,-31.854 -1.632,-3.957 -4.786,-12.366 -5.424,-12.564 -1.088,-0.335 -0.52,9.913 0.595,14.19 3.195,12.25 10.394,24.553 19.027,34.641 8.634,10.089 19.679,19.101 31.287,24.149 C -9.876,-1.019 0.113,0.788 0,0"
                               style="fill:#ffffff;fill-opacity:1;fill-rule:nonzero;stroke:none"
                               id="path4547"
                               inkscape:connector-curvature="0" /></g></g></g></g></g></g></g></g></g></g></g></g><g
       transform="matrix(0.13328536,0,0,-0.13328536,133.9771,230.97824)"
       id="g11587"
       style="fill:#d13351;fill-opacity:1"><g
         id="g11589"
         style="fill:#d13351;fill-opacity:1"><path
           inkscape:connector-curvature="0"
           d="m 8.026,10.63 0,1.549 c 0,0.232 0.19,0.42 0.422,0.42 0.232,0 0.423,-0.188 0.423,-0.42 l 0,-1.549 c 0.178,0.084 0.409,0.17 0.714,0.257 0.945,0.266 2.266,0.435 2.331,0.204 0.052,-0.186 -0.724,-0.575 -1.522,-0.858 0.127,-0.05 0.265,-0.106 0.409,-0.17 C 12.352,9.384 14.288,8.17 14.122,7.792 13.975,7.456 12.217,7.894 10.739,8.473 10.8,8.376 10.861,8.275 10.924,8.17 12.101,6.183 13.28,3.295 12.796,3.008 12.381,2.762 10.882,4.502 9.721,6.254 9.676,3.472 9.135,0.001 8.472,0.001 7.811,0.001 7.269,3.471 7.224,6.254 6.062,4.501 4.563,2.762 4.148,3.008 3.664,3.295 4.843,6.182 6.02,8.17 6.083,8.275 6.144,8.377 6.204,8.473 4.727,7.893 2.968,7.455 2.82,7.791 c -0.166,0.378 1.77,1.592 3.319,2.271 0.144,0.063 0.28,0.12 0.408,0.17 -0.799,0.284 -1.577,0.673 -1.525,0.859 0.065,0.23 1.368,0.062 2.313,-0.204 C 7.64,10.8 7.848,10.715 8.026,10.63 Z"
           id="path11591"
           style="fill:#d13351;fill-opacity:1" /><path
           inkscape:connector-curvature="0"
           d="M 40.847,7.791 C 40.7,7.455 38.941,7.893 37.464,8.472 37.524,8.375 37.586,8.274 37.648,8.169 38.825,6.182 40.004,3.294 39.52,3.007 39.105,2.761 37.606,4.501 36.445,6.253 36.399,3.471 35.858,0 35.195,0 34.533,0 33.992,3.47 33.947,6.253 32.786,4.501 31.286,2.762 30.873,3.007 c -0.485,0.287 0.694,3.174 1.871,5.162 0.063,0.105 0.124,0.207 0.185,0.303 -1.478,-0.579 -3.236,-1.017 -3.383,-0.681 -0.166,0.378 1.77,1.592 3.318,2.271 0.145,0.063 0.28,0.12 0.408,0.17 -0.799,0.283 -1.578,0.672 -1.524,0.858 0.064,0.23 1.366,0.062 2.312,-0.204 0.306,-0.086 0.513,-0.172 0.691,-0.256 l 0,1.549 c 0,0.232 0.189,0.42 0.422,0.42 0.231,0 0.423,-0.188 0.423,-0.42 l 0,-1.549 c 0.178,0.084 0.409,0.17 0.715,0.257 0.945,0.266 2.265,0.435 2.33,0.204 0.053,-0.186 -0.723,-0.575 -1.522,-0.858 0.128,-0.05 0.266,-0.106 0.409,-0.17 1.547,-0.68 3.484,-1.894 3.319,-2.272 z"
           id="path11593"
           style="fill:#d13351;fill-opacity:1" /><path
           inkscape:connector-curvature="0"
           d="m 19.502,10.062 c 0.145,0.063 0.28,0.12 0.408,0.17 -0.799,0.283 -1.578,0.672 -1.525,0.858 0.065,0.23 1.378,0.062 2.323,-0.204 0.306,-0.086 0.524,-0.172 0.702,-0.256 l 0,1.549 c 0,0.232 0.19,0.42 0.422,0.42 0.232,0 0.422,-0.188 0.422,-0.42 l 0,-1.549 c 0.178,0.084 0.398,0.17 0.704,0.257 0.944,0.266 2.26,0.435 2.324,0.204 0.054,-0.186 -0.726,-0.575 -1.524,-0.858 0.127,-0.05 0.263,-0.106 0.408,-0.17 C 25.715,9.384 27.65,8.17 27.484,7.792 27.338,7.456 25.578,7.894 24.101,8.473 24.162,8.376 24.223,8.275 24.286,8.17 25.464,6.183 26.642,3.295 26.158,3.008 25.741,2.762 24.242,4.501 23.082,6.253 23.036,3.471 22.496,0 21.834,0 21.172,0 20.631,3.47 20.586,6.253 19.424,4.501 17.925,2.762 17.51,3.007 c -0.484,0.287 0.695,3.174 1.872,5.162 0.063,0.105 0.124,0.207 0.184,0.303 -1.478,-0.579 -3.236,-1.017 -3.383,-0.681 -0.166,0.378 1.769,1.592 3.319,2.271 z"
           id="path11595"
           style="fill:#d13351;fill-opacity:1" /><path
           inkscape:connector-curvature="0"
           d="m 37.053,13.742 -30.439,0 c -0.619,0 -1.123,0.505 -1.123,1.125 l 0,0.727 c 0,0.62 0.503,1.127 1.123,1.127 l 12.217,0 0,1.957 5.957,0 0,-1.957 12.265,0 c 0.62,0 1.12,-0.507 1.12,-1.127 l 0,-0.727 c 0,-0.62 -0.5,-1.125 -1.12,-1.125 z"
           id="path11597"
           style="fill:#d13351;fill-opacity:1" /><path
           inkscape:connector-curvature="0"
           d="m 25.922,27.78 -3.069,2.243 c -0.271,-0.139 -0.581,-0.217 -0.907,-0.217 -1.101,0 -1.993,0.893 -1.993,1.992 0,1.102 0.892,1.993 1.993,1.993 1.101,0 1.994,-0.892 1.994,-1.993 0,-0.152 -0.018,-0.302 -0.051,-0.445 l 2.735,-2.758 c 0.184,-0.186 0.211,-0.481 0.052,-0.699 -0.176,-0.24 -0.514,-0.292 -0.754,-0.116 z"
           id="path11599"
           style="fill:#d13351;fill-opacity:1" /><path
           inkscape:connector-curvature="0"
           d="m 31.232,19.922 -18.798,0 c -2.467,0 -4.453,1.992 -4.453,4.458 l 0,14.836 c 0,2.467 1.986,4.449 4.453,4.449 l 18.798,0 c 2.467,0 4.451,-1.982 4.451,-4.449 l 0,-14.835 c 0,-2.467 -1.984,-4.459 -4.451,-4.459 z m -9.398,19.812 c -4.382,0 -7.935,-3.553 -7.935,-7.936 0,-4.382 3.553,-7.934 7.935,-7.934 4.382,0 7.935,3.552 7.935,7.934 -10e-4,4.384 -3.553,7.936 -7.935,7.936 z"
           id="path11601"
           style="fill:#d13351;fill-opacity:1" /></g></g></g></svg>