<?xml version="1.0" encoding="UTF-8" standalone="no"?>
<!-- Generator: Adobe Illustrator 19.0.0, SVG Export Plug-In . SVG Version: 6.00 Build 0)  -->

<svg
   xmlns:dc="http://purl.org/dc/elements/1.1/"
   xmlns:cc="http://creativecommons.org/ns#"
   xmlns:rdf="http://www.w3.org/1999/02/22-rdf-syntax-ns#"
   xmlns:svg="http://www.w3.org/2000/svg"
   xmlns="http://www.w3.org/2000/svg"
   xmlns:sodipodi="http://sodipodi.sourceforge.net/DTD/sodipodi-0.dtd"
   xmlns:inkscape="http://www.inkscape.org/namespaces/inkscape"
   version="1.1"
   id="Layer_1"
   x="0px"
   y="0px"
   viewBox="0 0 260.00001 257.00001"
   xml:space="preserve"
   inkscape:version="0.91 r13725"
   sodipodi:docname="price-chart-icon.svg"
   width="260"
   height="257"><metadata
     id="metadata8138"><rdf:RDF><cc:Work
         rdf:about=""><dc:format>image/svg+xml</dc:format><dc:type
           rdf:resource="http://purl.org/dc/dcmitype/StillImage" /><dc:title></dc:title></cc:Work></rdf:RDF></metadata><defs
     id="defs8136" /><sodipodi:namedview
     pagecolor="#ffffff"
     bordercolor="#666666"
     borderopacity="1"
     objecttolerance="10"
     gridtolerance="10"
     guidetolerance="10"
     inkscape:pageopacity="0"
     inkscape:pageshadow="2"
     inkscape:window-width="1366"
     inkscape:window-height="745"
     id="namedview8134"
     showgrid="false"
     inkscape:zoom="1.3025074"
     inkscape:cx="181.189"
     inkscape:cy="209.172"
     inkscape:window-x="-8"
     inkscape:window-y="-8"
     inkscape:window-maximized="1"
     inkscape:current-layer="Layer_1"
     fit-margin-top="0"
     fit-margin-left="0"
     fit-margin-right="0"
     fit-margin-bottom="0" /><circle
     style="fill:#f2f2f2"
     cx="131.95657"
     cy="128.95657"
     r="128.04343"
     id="circle8050" /><g
     id="g8052"
     transform="matrix(0.71748284,0,0,0.71748284,0,-1.0434209)"><rect
       x="14.439"
       y="255.577"
       style="fill:#d9d8d7"
       width="51.391998"
       height="49.428001"
       id="rect8054" /><rect
       x="84.608002"
       y="255.577"
       style="fill:#d9d8d7"
       width="51.376999"
       height="34.037998"
       id="rect8056" /><rect
       x="154.772"
       y="255.577"
       style="fill:#d9d8d7"
       width="51.372002"
       height="28.315001"
       id="rect8058" /><rect
       x="224.92599"
       y="255.577"
       style="fill:#d9d8d7"
       width="51.391998"
       height="45.408001"
       id="rect8060" /></g><rect
     x="10.359735"
     y="83.991211"
     style="fill:#b2e522;fill-opacity:0.78431373"
     width="6.7414689"
     height="97.188782"
     id="rect8062" /><rect
     x="20.414539"
     y="46.514206"
     style="fill:#21d8de"
     width="6.7185097"
     height="134.66579"
     id="rect8064" /><rect
     x="30.451408"
     y="96.778183"
     style="fill:#2d004f;fill-opacity:0.54901961"
     width="6.7450562"
     height="84.413292"
     id="rect8066" /><rect
     x="40.489708"
     y="68.944153"
     style="fill:#ff6d3b"
     width="6.7307062"
     height="112.23656"
     id="rect8068" /><rect
     x="60.704788"
     y="153.55835"
     style="fill:#b2e522;fill-opacity:0.78431373"
     width="6.7307062"
     height="27.630983"
     id="rect8070" /><rect
     x="70.743088"
     y="118.34214"
     style="fill:#21d8de"
     width="6.7321415"
     height="62.847195"
     id="rect8072" /><rect
     x="80.792877"
     y="129.99837"
     style="fill:#2d004f;fill-opacity:0.54901961"
     width="6.7414689"
     height="51.180202"
     id="rect8074" /><rect
     x="90.841934"
     y="88.476913"
     style="fill:#ff6d3b"
     width="6.7321415"
     height="92.703079"
     id="rect8076" /><rect
     x="111.04626"
     y="148.11911"
     style="fill:#b2e522;fill-opacity:0.78431373"
     width="6.7285542"
     height="33.068783"
     id="rect8078" /><rect
     x="121.09532"
     y="154.03546"
     style="fill:#21d8de"
     width="6.7271194"
     height="27.141657"
     id="rect8080" /><rect
     x="131.12645"
     y="104.03696"
     style="fill:#2d004f;fill-opacity:0.54901961"
     width="6.739316"
     height="77.152367"
     id="rect8082" /><rect
     x="141.19344"
     y="127.56107"
     style="fill:#ff6d3b"
     width="6.714922"
     height="53.626099"
     id="rect8084" /><rect
     x="161.38054"
     y="57.393402"
     style="fill:#b2e522;fill-opacity:0.78431373"
     width="6.7414689"
     height="123.7866"
     id="rect8086" /><rect
     x="171.42961"
     y="96.283127"
     style="fill:#21d8de"
     width="6.7429037"
     height="84.896873"
     id="rect8088" /><rect
     x="181.47868"
     y="133.81322"
     style="fill:#2d004f;fill-opacity:0.54901961"
     width="6.7271194"
     height="47.372524"
     id="rect8090" /><rect
     x="191.52774"
     y="76.591095"
     style="fill:#ff6d3b"
     width="6.7271194"
     height="104.58891"
     id="rect8092" /><path
     style="fill:#2d004f;fill-opacity:0.54901961"
     d="m 226.10324,77.243289 c -3.03424,0 -5.49233,2.47603 -5.49233,5.49448 0,3.04858 2.46024,5.49233 5.49233,5.49233 3.03208,0 5.48013,-2.4459 5.48013,-5.49233 0,-3.01845 -2.44662,-5.49448 -5.48013,-5.49448 z"
     id="path8094"
     inkscape:connector-curvature="0" /><path
     style="fill:#21d8de"
     d="m 226.10324,108.40787 c -3.03424,0 -5.49233,2.44949 -5.49233,5.49448 0,3.01845 2.46024,5.49233 5.49233,5.49233 3.03208,0 5.48013,-2.47459 5.48013,-5.49233 0,-3.04499 -2.44662,-5.49448 -5.48013,-5.49448 z"
     id="path8096"
     inkscape:connector-curvature="0" /><path
     style="fill:#b2e522;fill-opacity:0.78431373"
     d="m 226.10324,139.57819 c -3.03424,0 -5.49233,2.4459 -5.49233,5.4909 0,3.01845 2.46024,5.46578 5.49233,5.46578 3.03208,0 5.48013,-2.44805 5.48013,-5.46578 0,-3.04715 -2.44662,-5.4909 -5.48013,-5.4909 z"
     id="path8098"
     inkscape:connector-curvature="0" /><path
     style="fill:#ff6d3b"
     d="m 226.10324,170.71264 c -3.03424,0 -5.49233,2.47604 -5.49233,5.49449 0,3.01845 2.46024,5.49089 5.49233,5.49089 3.03208,0 5.48013,-2.47244 5.48013,-5.49089 0,-3.01845 -2.44662,-5.49449 -5.48013,-5.49449 z"
     id="path8100"
     inkscape:connector-curvature="0" /><polygon
     style="fill:#242d3c"
     points="0,87.097 3.838,87.097 3.838,113.558 0,113.558 0,115.17 3.838,115.17 3.838,141.632 0,141.632 0,143.271 3.838,143.271 3.838,169.733 0,169.733 0,171.343 3.838,171.343 3.838,197.804 0,197.804 0,199.444 3.838,199.444 3.838,225.905 0,225.905 0,227.515 3.838,227.515 3.838,255.564 291.483,255.564 291.483,253.977 5.445,253.977 5.445,57.386 0,57.386 0,58.996 3.838,58.996 3.838,85.457 0,85.457 "
     id="polygon8102"
     transform="matrix(0.71748284,0,0,0.71748284,0,-1.0434209)" /><g
     id="g8104"
     transform="translate(0,-102.651)" /><g
     id="g8106"
     transform="translate(0,-102.651)" /><g
     id="g8108"
     transform="translate(0,-102.651)" /><g
     id="g8110"
     transform="translate(0,-102.651)" /><g
     id="g8112"
     transform="translate(0,-102.651)" /><g
     id="g8114"
     transform="translate(0,-102.651)" /><g
     id="g8116"
     transform="translate(0,-102.651)" /><g
     id="g8118"
     transform="translate(0,-102.651)" /><g
     id="g8120"
     transform="translate(0,-102.651)" /><g
     id="g8122"
     transform="translate(0,-102.651)" /><g
     id="g8124"
     transform="translate(0,-102.651)" /><g
     id="g8126"
     transform="translate(0,-102.651)" /><g
     id="g8128"
     transform="translate(0,-102.651)" /><g
     id="g8130"
     transform="translate(0,-102.651)" /><g
     id="g8132"
     transform="translate(0,-102.651)" /></svg>