<?xml version="1.0" encoding="UTF-8" standalone="no"?>
<!-- Generator: Adobe Illustrator 19.0.0, SVG Export Plug-In . SVG Version: 6.00 Build 0)  -->

<svg
   xmlns:dc="http://purl.org/dc/elements/1.1/"
   xmlns:cc="http://creativecommons.org/ns#"
   xmlns:rdf="http://www.w3.org/1999/02/22-rdf-syntax-ns#"
   xmlns:svg="http://www.w3.org/2000/svg"
   xmlns="http://www.w3.org/2000/svg"
   xmlns:sodipodi="http://sodipodi.sourceforge.net/DTD/sodipodi-0.dtd"
   xmlns:inkscape="http://www.inkscape.org/namespaces/inkscape"
   version="1.1"
   id="Layer_1"
   x="0px"
   y="0px"
   viewBox="0 0 261 257.00001"
   xml:space="preserve"
   inkscape:version="0.91 r13725"
   sodipodi:docname="price-chart-icon.svg"
   width="261"
   height="257"><metadata
     id="metadata8138"><rdf:RDF><cc:Work
         rdf:about=""><dc:format>image/svg+xml</dc:format><dc:type
           rdf:resource="http://purl.org/dc/dcmitype/StillImage" /><dc:title></dc:title></cc:Work></rdf:RDF></metadata><defs
     id="defs8136" /><sodipodi:namedview
     pagecolor="#ffffff"
     bordercolor="#666666"
     borderopacity="1"
     objecttolerance="10"
     gridtolerance="10"
     guidetolerance="10"
     inkscape:pageopacity="0"
     inkscape:pageshadow="2"
     inkscape:window-width="1366"
     inkscape:window-height="745"
     id="namedview8134"
     showgrid="false"
     inkscape:zoom="1.3025074"
     inkscape:cx="78.682278"
     inkscape:cy="199.83139"
     inkscape:window-x="-8"
     inkscape:window-y="-8"
     inkscape:window-maximized="1"
     inkscape:current-layer="Layer_1"
     fit-margin-top="0"
     fit-margin-left="0"
     fit-margin-right="0"
     fit-margin-bottom="0" /><circle
     style="fill:#f2f2f2"
     cx="132.69287"
     cy="128.95657"
     r="128.04343"
     id="circle8050" /><g
     id="g8052"
     transform="matrix(0.71748284,0,0,0.71748284,0.73630895,-1.0434209)"><rect
       x="14.439"
       y="255.577"
       style="fill:#d9d8d7"
       width="51.391998"
       height="49.428001"
       id="rect8054" /><rect
       x="84.608002"
       y="255.577"
       style="fill:#d9d8d7"
       width="51.376999"
       height="34.037998"
       id="rect8056" /><rect
       x="154.772"
       y="255.577"
       style="fill:#d9d8d7"
       width="51.372002"
       height="28.315001"
       id="rect8058" /><rect
       x="224.92599"
       y="255.577"
       style="fill:#d9d8d7"
       width="51.391998"
       height="45.408001"
       id="rect8060" /></g><rect
     x="11.096043"
     y="83.991211"
     style="fill:#44c4a1;fill-opacity:0.78431373"
     width="6.7414689"
     height="97.188782"
     id="rect8062" /><rect
     x="21.150848"
     y="46.514206"
     style="fill:#fcd462;fill-opacity:0.78431373"
     width="6.7185097"
     height="134.66579"
     id="rect8064" /><rect
     x="31.187716"
     y="96.778183"
     style="fill:#2d004f;fill-opacity:0.54901961"
     width="6.7450562"
     height="84.413292"
     id="rect8066" /><rect
     x="41.226017"
     y="68.944153"
     style="fill:#e56353;fill-opacity:1"
     width="6.7307062"
     height="112.23656"
     id="rect8068" /><rect
     x="61.441101"
     y="153.55835"
     style="fill:#44c4a1;fill-opacity:0.78431373"
     width="6.7307062"
     height="27.630983"
     id="rect8070" /><rect
     x="71.479401"
     y="118.34214"
     style="fill:#fcd462;fill-opacity:0.78431373"
     width="6.7321415"
     height="62.847195"
     id="rect8072" /><rect
     x="81.52919"
     y="129.99837"
     style="fill:#2d004f;fill-opacity:0.54901961"
     width="6.7414689"
     height="51.180202"
     id="rect8074" /><rect
     x="91.578255"
     y="88.476913"
     style="fill:#e56353;fill-opacity:1"
     width="6.7321415"
     height="92.703079"
     id="rect8076" /><rect
     x="111.78257"
     y="148.11911"
     style="fill:#44c4a1;fill-opacity:0.78431373"
     width="6.7285542"
     height="33.068783"
     id="rect8078" /><rect
     x="121.83163"
     y="154.03546"
     style="fill:#fcd462;fill-opacity:0.78431373"
     width="6.7271194"
     height="27.141657"
     id="rect8080" /><rect
     x="131.86275"
     y="104.03696"
     style="fill:#2d004f;fill-opacity:0.54901961"
     width="6.739316"
     height="77.152367"
     id="rect8082" /><rect
     x="141.92973"
     y="127.56107"
     style="fill:#e56353;fill-opacity:1"
     width="6.714922"
     height="53.626099"
     id="rect8084" /><rect
     x="162.11684"
     y="57.393402"
     style="fill:#44c4a1;fill-opacity:0.78431373"
     width="6.7414689"
     height="123.7866"
     id="rect8086" /><rect
     x="172.16591"
     y="96.283127"
     style="fill:#fcd462;fill-opacity:0.78431373"
     width="6.7429037"
     height="84.896873"
     id="rect8088" /><rect
     x="182.21498"
     y="133.81322"
     style="fill:#2d004f;fill-opacity:0.54901961"
     width="6.7271194"
     height="47.372524"
     id="rect8090" /><rect
     x="192.26404"
     y="76.591095"
     style="fill:#e56353;fill-opacity:1"
     width="6.7271194"
     height="104.58891"
     id="rect8092" /><path
     style="fill:#2d004f;fill-opacity:0.54901961"
     d="m 226.83955,77.243289 c -3.03424,0 -5.49233,2.47603 -5.49233,5.49448 0,3.04858 2.46024,5.49233 5.49233,5.49233 3.03208,0 5.48013,-2.4459 5.48013,-5.49233 0,-3.01845 -2.44662,-5.49448 -5.48013,-5.49448 z"
     id="path8094"
     inkscape:connector-curvature="0" /><path
     style="fill:#fcd462;fill-opacity:0.78431373"
     d="m 226.83955,108.40787 c -3.03424,0 -5.49233,2.44949 -5.49233,5.49448 0,3.01845 2.46024,5.49233 5.49233,5.49233 3.03208,0 5.48013,-2.47459 5.48013,-5.49233 0,-3.04499 -2.44662,-5.49448 -5.48013,-5.49448 z"
     id="path8096"
     inkscape:connector-curvature="0" /><path
     style="fill:#44c4a1;fill-opacity:0.78431373"
     d="m 226.83955,139.57819 c -3.03424,0 -5.49233,2.4459 -5.49233,5.4909 0,3.01845 2.46024,5.46578 5.49233,5.46578 3.03208,0 5.48013,-2.44805 5.48013,-5.46578 0,-3.04715 -2.44662,-5.4909 -5.48013,-5.4909 z"
     id="path8098"
     inkscape:connector-curvature="0" /><path
     style="fill:#e56353;fill-opacity:1"
     d="m 226.83955,170.71264 c -3.03424,0 -5.49233,2.47604 -5.49233,5.49449 0,3.01845 2.46024,5.49089 5.49233,5.49089 3.03208,0 5.48013,-2.47244 5.48013,-5.49089 0,-3.01845 -2.44662,-5.49449 -5.48013,-5.49449 z"
     id="path8100"
     inkscape:connector-curvature="0" /><polygon
     style="fill:#242d3c"
     points="0,197.804 0,199.444 3.838,199.444 3.838,225.905 0,225.905 0,227.515 3.838,227.515 3.838,255.564 291.483,255.564 291.483,253.977 5.445,253.977 5.445,57.386 0,57.386 0,58.996 3.838,58.996 3.838,85.457 0,85.457 0,87.097 3.838,87.097 3.838,113.558 0,113.558 0,115.17 3.838,115.17 3.838,141.632 0,141.632 0,143.271 3.838,143.271 3.838,169.733 0,169.733 0,171.343 3.838,171.343 3.838,197.804 "
     id="polygon8102"
     transform="matrix(0.71748284,0,0,0.71748284,0.73630895,-1.0434209)" /><g
     id="g8104"
     transform="translate(0.73630895,-102.651)" /><g
     id="g8106"
     transform="translate(0.73630895,-102.651)" /><g
     id="g8108"
     transform="translate(0.73630895,-102.651)" /><g
     id="g8110"
     transform="translate(0.73630895,-102.651)" /><g
     id="g8112"
     transform="translate(0.73630895,-102.651)" /><g
     id="g8114"
     transform="translate(0.73630895,-102.651)" /><g
     id="g8116"
     transform="translate(0.73630895,-102.651)" /><g
     id="g8118"
     transform="translate(0.73630895,-102.651)" /><g
     id="g8120"
     transform="translate(0.73630895,-102.651)" /><g
     id="g8122"
     transform="translate(0.73630895,-102.651)" /><g
     id="g8124"
     transform="translate(0.73630895,-102.651)" /><g
     id="g8126"
     transform="translate(0.73630895,-102.651)" /><g
     id="g8128"
     transform="translate(0.73630895,-102.651)" /><g
     id="g8130"
     transform="translate(0.73630895,-102.651)" /><g
     id="g8132"
     transform="translate(0.73630895,-102.651)" /><g
     transform="matrix(0.02384134,0,0,0.02384134,-2.0861172,26.335599)"
     id="g9911"
     style="fill:#242d3c;fill-opacity:1"><g
       id="g9913"
       style="fill:#242d3c;fill-opacity:1"><path
         inkscape:connector-curvature="0"
         style="fill:#242d3c;fill-opacity:1"
         d="m 370.5,254 c -14.667,-11.333 -36.667,-20.667 -66,-28 l -23,-5 0,-97 c 0.667,0.667 1.333,1 2,1 0.667,0 1,0.333 1,1 19.334,9.333 29.668,25.333 31,48 l 77,0 c -1.333,-40 -16.333,-70.667 -45,-92 -18.667,-14 -40.667,-23.333 -66,-28 l 0,-54 -71,0 0,52 c -33.333,4 -59.667,14.667 -79,32 -25.333,22.667 -38,51.334 -38,86 0,37.333 13,65 39,83 14,10 40,19.333 78,28 l 0,104 c -14,-4 -24.667,-10.333 -32,-19 -8,-9.333 -13,-22 -15,-38 l -76,0 c 0,39.333 14.333,70.333 43,93 20.667,16 47.333,26.333 80,31 l 0,40 71,0 0,-39 c 34.667,-4.667 62.333,-15.667 83,-33 26.667,-23.333 40,-52.667 40,-88 0,-34 -11.333,-60 -34,-78 z m -160,-50 c -11.333,-3.333 -19.333,-6.333 -24,-9 -12.667,-6.667 -19,-17 -19,-31 0,-15.333 6.333,-27 19,-35 6.667,-4 14.667,-7.333 24,-10 l 0,85 z m 83,179 c -3.333,1.333 -7.333,2.333 -12,3 l 0,-89 c 12.667,4 22.333,8 29,12 11.333,7.333 17,17.333 17,30 0,21.333 -11.333,36 -34,44 z"
         id="path9915" /></g></g></svg>