<?xml version="1.0" encoding="UTF-8" standalone="no"?>
<!-- Generator: Adobe Illustrator 19.0.0, SVG Export Plug-In . SVG Version: 6.00 Build 0)  -->

<svg
   xmlns:dc="http://purl.org/dc/elements/1.1/"
   xmlns:cc="http://creativecommons.org/ns#"
   xmlns:rdf="http://www.w3.org/1999/02/22-rdf-syntax-ns#"
   xmlns:svg="http://www.w3.org/2000/svg"
   xmlns="http://www.w3.org/2000/svg"
   xmlns:sodipodi="http://sodipodi.sourceforge.net/DTD/sodipodi-0.dtd"
   xmlns:inkscape="http://www.inkscape.org/namespaces/inkscape"
   version="1.1"
   id="Layer_1"
   x="0px"
   y="0px"
   viewBox="0 0 260.00001 260"
   xml:space="preserve"
   inkscape:version="0.91 r13725"
   sodipodi:docname="submission-icon.svg"
   width="260"
   height="260"><metadata
     id="metadata14457"><rdf:RDF><cc:Work
         rdf:about=""><dc:format>image/svg+xml</dc:format><dc:type
           rdf:resource="http://purl.org/dc/dcmitype/StillImage" /><dc:title></dc:title></cc:Work></rdf:RDF></metadata><defs
     id="defs14455" /><sodipodi:namedview
     pagecolor="#ffffff"
     bordercolor="#666666"
     borderopacity="1"
     objecttolerance="10"
     gridtolerance="10"
     guidetolerance="10"
     inkscape:pageopacity="0"
     inkscape:pageshadow="2"
     inkscape:window-width="1366"
     inkscape:window-height="745"
     id="namedview14453"
     showgrid="false"
     fit-margin-top="0"
     fit-margin-left="0"
     fit-margin-right="0"
     fit-margin-bottom="0"
     inkscape:zoom="1.84375"
     inkscape:cx="125.58898"
     inkscape:cy="138.94724"
     inkscape:window-x="-8"
     inkscape:window-y="-8"
     inkscape:window-maximized="1"
     inkscape:current-layer="Layer_1" /><path
     style="fill:#5dddd3;fill-opacity:0.78431373"
     d="m 129.9995,-7.629395e-6 c 71.79757,0 130.00051,58.201914629395 130.00051,130.000517629395 0,71.79656 -58.20294,129.9995 -130.00051,129.9995 C 58.20191,260.00001 0,201.79707 0,130.00051 0,58.201907 58.20293,-7.629395e-6 129.9995,-7.629395e-6 Z"
     id="path5328"
     inkscape:connector-curvature="0"
     inkscape:transform-center-x="135.59323"
     inkscape:transform-center-y="11.932204" /><rect
     x="38.46151"
     y="7.9544339"
     style="fill:#ffffff"
     width="183.06166"
     height="244.08882"
     id="rect14397" /><rect
     x="130.00232"
     y="7.9544339"
     style="fill:#e6e5e5"
     width="91.533127"
     height="244.08882"
     id="rect14399" /><g
     id="g14401"
     transform="matrix(0.76651921,0,0,0.76651921,-66.22662,-66.226232)"><path
       style="fill:#cccbca"
       d="m 375.414,96.776 -238.828,0 13.873,55.493 c 1.664,6.653 5.468,12.828 11.295,17.377 5.832,4.544 12.741,6.74 19.597,6.74 l 149.299,0 c 6.858,0 13.768,-2.194 19.597,-6.74 5.824,-4.549 9.636,-10.724 11.292,-17.377 l 13.875,-55.493 z"
       id="path14403"
       inkscape:connector-curvature="0" /><path
       style="fill:#cccbca"
       d="m 365.059,402.793 c -2.9,-3.482 -6.577,-6.403 -10.952,-8.451 -4.372,-2.051 -8.975,-3.011 -13.501,-3.011 l -169.199,0 c -4.536,0 -9.137,0.96 -13.512,3.011 -4.365,2.048 -8.049,4.966 -10.954,8.451 l -10.353,12.424 238.83,0 -10.359,-12.424 z"
       id="path14405"
       inkscape:connector-curvature="0" /></g><g
     id="g14407"
     transform="matrix(0.76651921,0,0,0.76651921,-66.22662,-66.226232)"><polygon
       style="fill:#ff6d3b"
       points="244.483,146.668 246.569,146.02 267.515,206.111 265.431,206.753 "
       id="polygon14409" /><rect
       x="265.216"
       y="205.491"
       style="fill:#ff6d3b"
       width="2.181"
       height="27.233"
       id="rect14411" /><polygon
       style="fill:#ff6d3b"
       points="244.483,206.111 265.431,146.02 267.515,146.668 246.569,206.753 "
       id="polygon14413" /></g><circle
     style="fill:#2b4457"
     cx="130.00232"
     cy="46.21294"
     r="9.1537733"
     id="circle14415" /><circle
     style="fill:#ffffff"
     cx="130.00232"
     cy="46.21294"
     r="4.2718115"
     id="circle14417" /><circle
     style="fill:#2b4457"
     cx="130.00232"
     cy="91.738045"
     r="9.1537733"
     id="circle14419" /><path
     style="fill:#ffffff"
     d="m 134.27412,91.73805 c 0,2.358576 -1.91323,4.265685 -4.27181,4.265685 -2.35858,0 -4.27181,-1.907109 -4.27181,-4.265685 0,-2.362419 1.91323,-4.27565 4.27181,-4.27565 2.35858,0 4.27181,1.914772 4.27181,4.27565 z"
     id="path14421"
     inkscape:connector-curvature="0" /><g
     id="g14423"
     transform="translate(-106.79245,-153.40871)" /><g
     id="g14425"
     transform="translate(-106.79245,-153.40871)" /><g
     id="g14427"
     transform="translate(-106.79245,-153.40871)" /><g
     id="g14429"
     transform="translate(-106.79245,-153.40871)" /><g
     id="g14431"
     transform="translate(-106.79245,-153.40871)" /><g
     id="g14433"
     transform="translate(-106.79245,-153.40871)" /><g
     id="g14435"
     transform="translate(-106.79245,-153.40871)" /><g
     id="g14437"
     transform="translate(-106.79245,-153.40871)" /><g
     id="g14439"
     transform="translate(-106.79245,-153.40871)" /><g
     id="g14441"
     transform="translate(-106.79245,-153.40871)" /><g
     id="g14443"
     transform="translate(-106.79245,-153.40871)" /><g
     id="g14445"
     transform="translate(-106.79245,-153.40871)" /><g
     id="g14447"
     transform="translate(-106.79245,-153.40871)" /><g
     id="g14449"
     transform="translate(-106.79245,-153.40871)" /><g
     id="g14451"
     transform="translate(-106.79245,-153.40871)" /></svg>