<?xml version="1.0" encoding="UTF-8" standalone="no"?>
<!-- Generator: Adobe Illustrator 19.0.0, SVG Export Plug-In . SVG Version: 6.00 Build 0)  -->

<svg
   xmlns:dc="http://purl.org/dc/elements/1.1/"
   xmlns:cc="http://creativecommons.org/ns#"
   xmlns:rdf="http://www.w3.org/1999/02/22-rdf-syntax-ns#"
   xmlns:svg="http://www.w3.org/2000/svg"
   xmlns="http://www.w3.org/2000/svg"
   xmlns:sodipodi="http://sodipodi.sourceforge.net/DTD/sodipodi-0.dtd"
   xmlns:inkscape="http://www.inkscape.org/namespaces/inkscape"
   version="1.1"
   id="Layer_1"
   x="0px"
   y="0px"
   viewBox="0 0 260.00001 260"
   xml:space="preserve"
   inkscape:version="0.91 r13725"
   sodipodi:docname="subscription-icon.svg"
   width="260"
   height="260"><metadata
     id="metadata14457"><rdf:RDF><cc:Work
         rdf:about=""><dc:format>image/svg+xml</dc:format><dc:type
           rdf:resource="http://purl.org/dc/dcmitype/StillImage" /><dc:title></dc:title></cc:Work></rdf:RDF></metadata><defs
     id="defs14455" /><sodipodi:namedview
     pagecolor="#ffffff"
     bordercolor="#666666"
     borderopacity="1"
     objecttolerance="10"
     gridtolerance="10"
     guidetolerance="10"
     inkscape:pageopacity="0"
     inkscape:pageshadow="2"
     inkscape:window-width="1366"
     inkscape:window-height="745"
     id="namedview14453"
     showgrid="false"
     fit-margin-top="0"
     fit-margin-left="0"
     fit-margin-right="0"
     fit-margin-bottom="0"
     inkscape:zoom="1.84375"
     inkscape:cx="175.21352"
     inkscape:cy="141.11725"
     inkscape:window-x="-8"
     inkscape:window-y="-8"
     inkscape:window-maximized="1"
     inkscape:current-layer="Layer_1" /><path
     style="fill:#5dddd3;fill-opacity:0.78431373"
     d="M 129.9995,-3.0517578e-5 C 201.79706,-3.0517578e-5 260,58.201884 260,130.00049 260,201.79705 201.79706,259.99999 129.9995,259.99999 58.201909,259.99999 0,201.79705 0,130.00049 0,58.201884 58.202929,-3.0517578e-5 129.9995,-3.0517578e-5 Z"
     id="path5328"
     inkscape:connector-curvature="0"
     inkscape:transform-center-x="135.59323"
     inkscape:transform-center-y="11.932204" /><g
     id="g14423"
     transform="translate(-120.90693,-150.155)" /><g
     id="g14425"
     transform="translate(-120.90693,-150.155)" /><g
     id="g14427"
     transform="translate(-120.90693,-150.155)" /><g
     id="g14429"
     transform="translate(-120.90693,-150.155)" /><g
     id="g14431"
     transform="translate(-120.90693,-150.155)" /><g
     id="g14433"
     transform="translate(-120.90693,-150.155)" /><g
     id="g14435"
     transform="translate(-120.90693,-150.155)" /><g
     id="g14437"
     transform="translate(-120.90693,-150.155)" /><g
     id="g14439"
     transform="translate(-120.90693,-150.155)" /><g
     id="g14441"
     transform="translate(-120.90693,-150.155)" /><g
     id="g14443"
     transform="translate(-120.90693,-150.155)" /><g
     id="g14445"
     transform="translate(-120.90693,-150.155)" /><g
     id="g14447"
     transform="translate(-120.90693,-150.155)" /><g
     id="g14449"
     transform="translate(-120.90693,-150.155)" /><g
     id="g14451"
     transform="translate(-120.90693,-150.155)" /><path
     inkscape:connector-curvature="0"
     style="fill:#a8a59a"
     d="m 52.300535,227.11715 0,24.53644 0,0 c 9.03396,0 16.35762,-7.32366 16.35762,-16.35763 l 0,0 0,-8.17881 -16.35762,0 z"
     id="path16280" /><path
     inkscape:connector-curvature="0"
     style="fill:#e0dccd"
     d="m 179.34633,239.25283 0,4.22296 c 0,4.51698 -3.72835,8.17881 -8.24532,8.17881 -4.51699,0 -8.24585,-3.66233 -8.24585,-8.17932 l 0,-4.22296"
     id="path16282" /><path
     inkscape:connector-curvature="0"
     style="fill:#fcbb3b"
     d="m 170.89432,155.64421 c 0,-26.02382 -21.09702,-47.12085 -47.12084,-47.12085 l -28.442524,0 c -26.023811,0 -47.120841,21.09703 -47.120841,40.96516 l 0,77.62863 24.53643,0 0.20465,28.62635 73.362515,0 0.0432,-16.35813 20.44753,0 -36.80464,0 0,-49.07389 40.89457,0 0,-34.66727 0,0 z"
     id="path16284" /><g
     transform="matrix(0.50781149,0,0,0.50781149,1.5e-5,-2.1617578e-5)"
     id="g16286"><path
       inkscape:connector-curvature="0"
       style="fill:#bd8c2c"
       d="m 219.943,213.442 -32.213,0 c -51.247,0 -93.306,41.811 -93.306,80.937 l 0,152.672 32.475,0 0,-152.673 c 0,-39.125 41.796,-80.936 93.044,-80.936 z"
       id="path16288" /><rect
       x="143.51801"
       y="318.39899"
       style="fill:#bd8c2c"
       width="27.320999"
       height="185.22099"
       id="rect16290" /><rect
       x="262.784"
       y="318.39899"
       style="fill:#bd8c2c"
       width="27.320999"
       height="185.22099"
       id="rect16292" /></g><path
     inkscape:connector-curvature="0"
     style="fill:#fcbb3b"
     d="m 85.590625,39.002445 0,-10.941818 c 0,-13.294507 10.777281,-24.0712805 24.071285,-24.0712805 l 0,0 c 13.2945,0 24.07128,10.7772785 24.07128,24.0712805 l 0,10.941298"
     id="path16294" /><rect
     x="129.99773"
     y="190.31201"
     style="fill:#2d004f;fill-opacity:1"
     width="81.790146"
     height="49.074394"
     id="rect16296" /><rect
     x="129.99773"
     y="190.31201"
     style="fill:#2d004f;fill-opacity:1"
     width="20.447536"
     height="49.074394"
     id="rect16300" /><path
     inkscape:connector-curvature="0"
     style="fill:#bd8c2c"
     d="m 119.56779,6.3785974 c -3.15198,-1.515819 -6.88999,-2.3892509 -10.62139,-2.3892509 -13.294514,0 -24.290655,10.7772785 -24.290655,24.0717855 l 0,10.638653 20.746645,0 0,-10.639158 c 0,-9.5626 6.08714,-17.798284 14.1654,-21.6820296 z"
     id="path16302" /><path
     inkscape:connector-curvature="0"
     style="fill:#4baf78"
     d="m 98.720096,39.002445 0,-6.564488 c 0,-6.042442 4.898854,-10.941302 10.941304,-10.941302 l 0,0 c 6.04245,0 10.94131,4.89886 10.94131,10.941302 l 0,6.564988"
     id="path16304" /><path
     inkscape:connector-curvature="0"
     style="fill:#e0dccd"
     d="m 134.12877,38.700295 0,33.45665 c 0,13.30924 -11.26732,23.99613 -24.57655,23.99613 l -0.21937,0 c -13.309234,0 -24.677615,-10.68741 -24.677615,-23.99613 l 0,-33.45665"
     id="path16306" /><path
     inkscape:connector-curvature="0"
     style="fill:#a8a59a"
     d="m 105.40239,72.156435 0,-33.45614 -20.746645,0 0,33.45614 c 0,13.30923 11.368881,23.99664 24.677605,23.99664 l 0.21938,0 c 3.59379,0 6.99307,-0.75715 10.10393,-2.16785 -8.34538,-3.81316 -14.25427,-12.11334 -14.25427,-21.82879 z"
     id="path16308" /><path
     inkscape:connector-curvature="0"
     d="m 76.737435,231.10702 -32.51618,0 0,-75.46281 c 0,-28.18253 22.92768,-51.11072 51.110721,-51.11072 l 28.442524,0 c 28.18251,0 51.11072,22.92769 51.11072,51.11072 l 0,26.48948 -7.97975,0 0,-26.48948 c 0,-23.78285 -19.34812,-43.13097 -43.13097,-43.13097 l -28.442524,0 c -23.782851,0 -43.130981,19.34812 -43.130981,43.13097 l 0,67.48357 16.5567,0 0,-65.43151 12.16868,0 0,7.97975 -4.18944,0 0,65.431 z"
     id="path16310" /><path
     inkscape:connector-curvature="0"
     d="m 142.10853,34.976505 -4.38598,0 0,-6.915373 C 137.72255,12.588626 125.13391,-2.1617578e-5 109.6609,-2.1617578e-5 94.187876,-2.1617578e-5 81.599735,12.588626 81.599735,28.061132 l 0,6.914873 -4.92374,0 0,7.97975 4.25596,0 0,29.20068 c 0,7.50038 2.98187,14.58638 8.395661,19.95547 5.396,5.3503 12.500794,8.297145 20.005734,8.297145 l 0.21938,0 c 15.60454,0 28.30033,-12.673455 28.30033,-28.251595 l 0,-29.2017 4.25597,0 0,-7.97925 -5e-4,0 z M 89.579486,28.061132 c 0,-11.072828 9.00908,-20.0819126 20.081914,-20.0819126 11.07283,0 20.08191,9.0090846 20.08191,20.0819126 l 0,6.914873 -5.15073,0 0,-2.538553 c 0,-8.233145 -6.69803,-14.931182 -14.93118,-14.931182 -8.23314,0 -14.931184,6.698037 -14.931184,14.931182 l 0,2.538553 -5.15073,0 0,-6.914873 z m 27.033854,6.915373 -13.90337,0 0,-2.538548 c 0,-3.833467 3.11847,-6.951935 6.95194,-6.951935 3.83347,0 6.95194,3.118468 6.95194,6.951935 l -5.1e-4,2.538548 0,0 z m 13.25998,37.17993 c 0,11.17846 -9.11573,20.27235 -20.32059,20.27235 l -0.21938,0 c -11.069784,0 -20.421634,-9.28382 -20.421634,-20.27235 l 0,-29.20068 40.961604,0 0,29.20068 0,0 z"
     id="path16312" /><rect
     x="-230.87733"
     y="192.84338"
     width="32"
     height="7"
     id="rect16314"
     style="fill:#b2e522;fill-opacity:1"
     transform="matrix(0,-1,1,0,0,0)" /><rect
     x="170.26401"
     y="207.37733"
     style="fill:#b2e522;fill-opacity:1"
     width="7"
     height="15"
     id="rect16316" /><g
     transform="matrix(0.50781149,0,0,0.50781149,1.5e-5,-2.1617578e-5)"
     id="g16320"><rect
       x="207.567"
       y="238.58501"
       style="fill:#75c0c7"
       width="15.714"
       height="15.714"
       id="rect16322" /><rect
       x="207.567"
       y="271.05899"
       style="fill:#75c0c7"
       width="15.714"
       height="15.714"
       id="rect16324" /><rect
       x="207.567"
       y="303.534"
       style="fill:#75c0c7"
       width="15.714"
       height="15.714"
       id="rect16326" /><rect
       x="207.567"
       y="333.914"
       style="fill:#75c0c7"
       width="15.714"
       height="15.714"
       id="rect16328" /><rect
       x="207.567"
       y="366.388"
       style="fill:#75c0c7"
       width="15.714"
       height="15.714"
       id="rect16330" /><rect
       x="207.567"
       y="398.86301"
       style="fill:#75c0c7"
       width="15.714"
       height="15.714"
       id="rect16332" /><rect
       x="207.567"
       y="431.33801"
       style="fill:#75c0c7"
       width="15.714"
       height="15.714"
       id="rect16334" /><rect
       x="207.567"
       y="463.81299"
       style="fill:#75c0c7"
       width="15.714"
       height="15.714"
       id="rect16336" /></g><path
     inkscape:connector-curvature="0"
     d="m 215.77876,186.32211 -89.76887,0 0,57.05313 32.5893,0 0,0.10004 c 0,6.70972 5.48894,12.16869 12.23521,12.16869 6.74628,0 12.23521,-5.45847 12.23521,-12.16869 l 0,-0.10004 32.70865,0 z m -40.68839,57.15317 c 0,2.31004 -1.90937,4.18945 -4.25597,4.18945 -2.34659,0 -4.25596,-1.87941 -4.25596,-4.18945 l 0,-0.10004 8.51141,0 0,0.10004 z m 32.70865,-8.07928 -73.80938,0 0,-41.09413 20.88628,0 32.45016,0 20.47344,0 z"
     id="path16338"
     sodipodi:nodetypes="ccccssscccccsscccccccccc" /><polygon
     transform="matrix(0.50781149,0,0,0.50781149,1.5e-5,-2.1617578e-5)"
     points="296.606,358.007 280.892,358.007 280.892,326.58 272.512,326.58 272.512,310.866 296.606,310.866 "
     id="polygon16340" /><path
     inkscape:connector-curvature="0"
     d="m 52.300535,255.64346 -3.98987,0 0,-20.34801 7.97974,0 0,11.7076 c 4.86789,-1.66308 8.37838,-6.28366 8.37838,-11.7076 l 7.97976,0 c -8e-4,11.2201 -9.12842,20.34801 -20.34801,20.34801 z"
     id="path16342" /><rect
     x="72.954742"
     y="252.02023"
     width="24.470419"
     height="7.9797502"
     id="rect16344" /><rect
     x="101.14896"
     y="252.02023"
     width="18.618908"
     height="7.9797502"
     id="rect16346" /><rect
     x="122.95946"
     y="252.02023"
     width="24.470419"
     height="7.9797502"
     id="rect16348" /><rect
     x="76.678528"
     y="137.64687"
     width="20.746639"
     height="7.9797502"
     id="rect16350" /><rect
     x="141.93779"
     y="204.87733"
     style="fill:#b2e522;fill-opacity:1"
     width="7"
     height="20"
     id="rect16316-0" /></svg>