<?xml version="1.0" encoding="UTF-8" standalone="no"?>
<!-- Created with Inkscape (http://www.inkscape.org/) -->

<svg
   xmlns:dc="http://purl.org/dc/elements/1.1/"
   xmlns:cc="http://creativecommons.org/ns#"
   xmlns:rdf="http://www.w3.org/1999/02/22-rdf-syntax-ns#"
   xmlns:svg="http://www.w3.org/2000/svg"
   xmlns="http://www.w3.org/2000/svg"
   xmlns:sodipodi="http://sodipodi.sourceforge.net/DTD/sodipodi-0.dtd"
   xmlns:inkscape="http://www.inkscape.org/namespaces/inkscape"
   id="svg4147"
   version="1.1"
   inkscape:version="0.92.1 r15371"
   xml:space="preserve"
   width="50"
   height="100"
   viewBox="0 0 46.875 93.750004"
   sodipodi:docname="The-Economicon-icon-sprite.svg"
   inkscape:export-filename="C:\Users\Lea-\Documents\Cannabis Analytics\Website\Images\Logo-Icons\The-Economicon-icon-sprite.png"
   inkscape:export-xdpi="96"
   inkscape:export-ydpi="96"><metadata
     id="metadata4153"><rdf:RDF><cc:Work
         rdf:about=""><dc:format>image/svg+xml</dc:format><dc:type
           rdf:resource="http://purl.org/dc/dcmitype/StillImage" /><dc:title></dc:title></cc:Work></rdf:RDF></metadata><defs
     id="defs4151"><filter
       inkscape:label="Rough Canvas Painting"
       inkscape:menu="Bumps"
       inkscape:menu-tooltip="Painting canvas emboss effect"
       style="color-interpolation-filters:sRGB"
       id="filter11469"><feTurbulence
         numOctaves="5"
         baseFrequency="0.4"
         id="feTurbulence11471" /><feConvolveMatrix
         order="5 5"
         kernelMatrix="-4 0 0 0 -4 0 -2 0 -2 0 0 0 -10 0 0 0 -2 0 -2 0 -4 0 0 0 -4 "
         targetX="2"
         targetY="2"
         id="feConvolveMatrix11473" /><feConvolveMatrix
         order="3 3"
         kernelMatrix="2 0 2 0 -5 0 2 0 2 "
         targetX="1"
         targetY="1"
         id="feConvolveMatrix11475" /><feColorMatrix
         type="saturate"
         result="result1"
         id="feColorMatrix11477" /><feComposite
         in2="SourceGraphic"
         operator="arithmetic"
         k1="1.5"
         k2="0.5"
         k3="0.5"
         result="result2"
         id="feComposite11479"
         k4="0" /><feTurbulence
         baseFrequency="0.1"
         numOctaves="5"
         type="fractalNoise"
         result="result8"
         id="feTurbulence11481" /><feDisplacementMap
         scale="4"
         in2="result8"
         in="result2"
         id="feDisplacementMap11483"
         xChannelSelector="A"
         yChannelSelector="A" /><feBlend
         in2="result1"
         mode="normal"
         result="result4"
         id="feBlend11485" /><feColorMatrix
         type="luminanceToAlpha"
         id="feColorMatrix11487" /><feDiffuseLighting
         surfaceScale="7"
         diffuseConstant="1"
         result="result3"
         id="feDiffuseLighting11489"><feDistantLight
           azimuth="180"
           elevation="37"
           id="feDistantLight11491" /></feDiffuseLighting><feComposite
         in2="result4"
         operator="arithmetic"
         k1="1.5"
         k3="0.5"
         result="result5"
         id="feComposite11493"
         k2="0"
         k4="0" /><feBlend
         in2="result3"
         mode="normal"
         result="result6"
         id="feBlend11495" /><feComposite
         in2="SourceGraphic"
         operator="in"
         result="result7"
         id="feComposite11497" /></filter><filter
       inkscape:label="Rough Canvas Painting"
       inkscape:menu="Bumps"
       inkscape:menu-tooltip="Painting canvas emboss effect"
       style="color-interpolation-filters:sRGB"
       id="filter11499"><feTurbulence
         numOctaves="5"
         baseFrequency="0.4"
         id="feTurbulence11501" /><feConvolveMatrix
         order="5 5"
         kernelMatrix="-4 0 0 0 -4 0 -2 0 -2 0 0 0 -10 0 0 0 -2 0 -2 0 -4 0 0 0 -4 "
         targetX="2"
         targetY="2"
         id="feConvolveMatrix11503" /><feConvolveMatrix
         order="3 3"
         kernelMatrix="2 0 2 0 -5 0 2 0 2 "
         targetX="1"
         targetY="1"
         id="feConvolveMatrix11505" /><feColorMatrix
         type="saturate"
         result="result1"
         id="feColorMatrix11507" /><feComposite
         in2="SourceGraphic"
         operator="arithmetic"
         k1="1.5"
         k2="0.5"
         k3="0.5"
         result="result2"
         id="feComposite11509"
         k4="0" /><feTurbulence
         baseFrequency="0.1"
         numOctaves="5"
         type="fractalNoise"
         result="result8"
         id="feTurbulence11511" /><feDisplacementMap
         scale="4"
         in2="result8"
         in="result2"
         id="feDisplacementMap11513"
         xChannelSelector="A"
         yChannelSelector="A" /><feBlend
         in2="result1"
         mode="normal"
         result="result4"
         id="feBlend11515" /><feColorMatrix
         type="luminanceToAlpha"
         id="feColorMatrix11517" /><feDiffuseLighting
         surfaceScale="7"
         diffuseConstant="1"
         result="result3"
         id="feDiffuseLighting11519"><feDistantLight
           azimuth="180"
           elevation="37"
           id="feDistantLight11521" /></feDiffuseLighting><feComposite
         in2="result4"
         operator="arithmetic"
         k1="1.5"
         k3="0.5"
         result="result5"
         id="feComposite11523"
         k2="0"
         k4="0" /><feBlend
         in2="result3"
         mode="normal"
         result="result6"
         id="feBlend11525" /><feComposite
         in2="SourceGraphic"
         operator="in"
         result="result7"
         id="feComposite11527" /></filter><linearGradient
       x1="0"
       y1="0"
       x2="1"
       y2="0"
       gradientUnits="userSpaceOnUse"
       gradientTransform="matrix(2.0458386,-116.57463,-116.57463,-2.0458386,457.48242,537.37598)"
       spreadMethod="pad"
       id="linearGradient10793"><stop
         style="stop-opacity:1;stop-color:#f79c00"
         offset="0"
         id="stop10787" /><stop
         style="stop-opacity:1;stop-color:#ff5b00"
         offset="0.542105"
         id="stop10789" /><stop
         style="stop-opacity:1;stop-color:#ffae00"
         offset="1"
         id="stop10791" /></linearGradient><linearGradient
       x1="0"
       y1="0"
       x2="1"
       y2="0"
       gradientUnits="userSpaceOnUse"
       gradientTransform="matrix(2.0458114,-116.57308,-116.57308,-2.0458114,505.5918,538.21826)"
       spreadMethod="pad"
       id="linearGradient10759"><stop
         style="stop-opacity:1;stop-color:#f79c00"
         offset="0"
         id="stop10753" /><stop
         style="stop-opacity:1;stop-color:#ff5b00"
         offset="0.542105"
         id="stop10755" /><stop
         style="stop-opacity:1;stop-color:#ffae00"
         offset="1"
         id="stop10757" /></linearGradient><linearGradient
       x1="0"
       y1="0"
       x2="1"
       y2="0"
       gradientUnits="userSpaceOnUse"
       gradientTransform="matrix(2.0458112,-116.57307,-116.57307,-2.0458112,481.4248,537.79492)"
       spreadMethod="pad"
       id="linearGradient10725"><stop
         style="stop-opacity:1;stop-color:#f79c00"
         offset="0"
         id="stop10719" /><stop
         style="stop-opacity:1;stop-color:#ff5b00"
         offset="0.542105"
         id="stop10721" /><stop
         style="stop-opacity:1;stop-color:#ffae00"
         offset="1"
         id="stop10723" /></linearGradient></defs><sodipodi:namedview
     pagecolor="#181818"
     bordercolor="#666666"
     borderopacity="1"
     objecttolerance="10"
     gridtolerance="10"
     guidetolerance="10"
     inkscape:pageopacity="0"
     inkscape:pageshadow="2"
     inkscape:window-width="1366"
     inkscape:window-height="745"
     id="namedview4149"
     showgrid="false"
     inkscape:zoom="1.8018127"
     inkscape:cx="157.12001"
     inkscape:cy="64.36711"
     inkscape:window-x="-8"
     inkscape:window-y="-8"
     inkscape:window-maximized="1"
     inkscape:current-layer="g4155"
     fit-margin-top="0"
     fit-margin-left="0"
     fit-margin-right="0"
     fit-margin-bottom="0" /><g
     id="g4155"
     inkscape:groupmode="layer"
     inkscape:label="ink_ext_XXXXXX"
     transform="matrix(1.25,0,0,-1.25,-4.9120137,108.73886)"><g
       id="g4579"
       transform="translate(1.3606253)"><path
         inkscape:connector-curvature="0"
         id="path6766"
         d="m 24.013966,21.2124 c 0.215711,0.511794 0.922328,2.805942 0.922328,2.994484 0,0.666529 4.306774,5.136538 6.838875,7.098079 2.464906,1.909491 7.781511,5.4195 7.951468,5.249542 0.06642,-0.06642 -1.388876,-2.464301 -2.591154,-4.269409 -2.072095,-3.111062 -5.165084,-6.807012 -7.156861,-8.552051 -1.67171,-1.464621 -2.070607,-1.720823 -2.977322,-1.912269 -0.469968,-0.09923 -1.303089,-0.332338 -1.851383,-0.518017 -1.195289,-0.404784 -1.271013,-0.410807 -1.135951,-0.09036 z"
         style="opacity:1;fill:#14a76c;fill-opacity:1;stroke:none;stroke-width:0.71207047;stroke-linecap:round;stroke-linejoin:miter;stroke-miterlimit:4;stroke-dasharray:none;stroke-opacity:1" /><path
         inkscape:connector-curvature="0"
         id="path6768"
         d="m 20.549,20.937154 c -0.711987,1.532403 -1.361723,3.795834 -1.698134,5.915645 -0.387769,2.443435 -0.346627,8.611994 0.0785,11.769723 0.480803,3.571254 1.941512,10.4784 2.297731,10.86511 0.114616,0.124428 0.950665,-3.135843 1.489749,-5.80941 0.95758,-4.749095 1.284162,-8.218201 1.185051,-12.588157 -0.08197,-3.61446 -0.35384,-5.55577 -1.111259,-7.935226 -0.510701,-1.604384 -1.332471,-3.473391 -1.52719,-3.473391 -0.07208,0 -0.393566,0.565067 -0.714448,1.255706 z"
         style="opacity:1;fill:#14a76c;fill-opacity:1;stroke:none;stroke-width:0.71207047;stroke-linecap:round;stroke-linejoin:miter;stroke-miterlimit:4;stroke-dasharray:none;stroke-opacity:1" /><path
         inkscape:connector-curvature="0"
         id="path6770"
         d="m 17.744383,21.19435 c -0.31331,0.116106 -1.167042,0.363831 -1.897177,0.550491 -1.433577,0.3665 -1.600593,0.468878 -3.416687,2.094405 -2.8227998,2.526596 -6.1228909,6.730386 -8.8451938,11.267364 -0.4141538,0.690231 -0.7164672,1.291501 -0.6718072,1.336163 0.1937786,0.193779 5.57743,-3.3654 7.98763,-5.280692 2.564211,-2.037681 6.629613,-6.257032 6.629613,-6.880662 0,-0.151583 0.732053,-2.548649 0.958815,-3.139587 0.0851,-0.22173 -0.02634,-0.213878 -0.745193,0.05251 z"
         style="opacity:1;fill:#14a76c;fill-opacity:1;stroke:none;stroke-width:0.71207047;stroke-linecap:round;stroke-linejoin:miter;stroke-miterlimit:4;stroke-dasharray:none;stroke-opacity:1" /><path
         inkscape:connector-curvature="0"
         id="path6772"
         d="M 12.675501,17.897878 C 10.815167,18.159428 8.5841639,18.711419 6.2535078,19.486796 3.4989859,20.403187 3.441649,20.47637 5.3601776,20.627007 10.517775,21.03197 15.204616,20.475173 18.212083,19.100195 L 19.168525,18.662921 18.242833,18.2186 c -0.850128,-0.408052 -1.059384,-0.447116 -2.563455,-0.478556 -0.900766,-0.01877 -2.252512,0.0522 -3.003877,0.157834 z"
         style="opacity:1;fill:#14a76c;fill-opacity:1;stroke:none;stroke-width:0.71207047;stroke-linecap:round;stroke-linejoin:miter;stroke-miterlimit:4;stroke-dasharray:none;stroke-opacity:1" /><path
         inkscape:connector-curvature="0"
         id="path6774"
         d="m 14.471831,13.282742 c 0.703314,0.710409 1.695316,1.607074 2.204447,1.992587 0.979838,0.741936 2.947689,1.790729 3.091019,1.647401 0.153944,-0.153944 -2.429146,-2.583448 -3.447056,-3.242096 -1.183709,-0.765933 -2.824472,-1.689547 -3.001409,-1.689547 -0.06917,0 0.449681,0.581245 1.152999,1.291655 z"
         style="opacity:1;fill:#14a76c;fill-opacity:1;stroke:none;stroke-width:0.71207047;stroke-linecap:round;stroke-linejoin:miter;stroke-miterlimit:4;stroke-dasharray:none;stroke-opacity:1" /><path
         inkscape:connector-curvature="0"
         id="path6776"
         d="m 27.784576,12.718281 c -1.581898,0.860143 -3.205687,2.074522 -4.149108,3.102979 -0.459462,0.500877 -0.835383,0.966364 -0.835383,1.034415 0,0.298514 1.876158,-0.703956 3.173882,-1.695873 1.551585,-1.185957 3.378783,-3.030893 2.995223,-3.024297 -0.06408,0.0011 -0.597154,0.263349 -1.184614,0.582776 z"
         style="opacity:1;fill:#14a76c;fill-opacity:1;stroke:none;stroke-width:0.71207047;stroke-linecap:round;stroke-linejoin:miter;stroke-miterlimit:4;stroke-dasharray:none;stroke-opacity:1" /><path
         inkscape:connector-curvature="0"
         id="path6778"
         d="m 24.437845,18.125984 c -0.548294,0.248479 -1.017023,0.469232 -1.041622,0.49056 -0.0246,0.02133 0.377918,0.238464 0.894483,0.482531 2.248447,1.062339 5.241086,1.606846 8.976813,1.633322 2.675841,0.01897 5.577614,-0.163214 5.389966,-0.338384 -0.180343,-0.168362 -2.763262,-1.065695 -4.464276,-1.550949 -2.427075,-0.692378 -4.449698,-1.024708 -6.693462,-1.099776 l -2.065001,-0.06907 z"
         style="opacity:1;fill:#14a76c;fill-opacity:1;stroke:none;stroke-width:0.71207047;stroke-linecap:round;stroke-linejoin:miter;stroke-miterlimit:4;stroke-dasharray:none;stroke-opacity:1" /></g><g
       id="g4588"
       transform="translate(38.52047,37.500001)"><path
         inkscape:connector-curvature="0"
         id="path6766-9"
         d="m -13.145878,21.2124 c 0.21571,0.511794 0.922327,2.805942 0.922327,2.994484 0,0.66653 4.3067746,5.136538 6.8388756,7.098079 2.464905,1.909491 7.781511,5.4195 7.951468,5.249542 0.06642,-0.06642 -1.388876,-2.464301 -2.59115498,-4.269409 -2.07209402,-3.111061 -5.16508302,-6.807012 -7.15686002,-8.552051 -1.67171,-1.464621 -2.070607,-1.720823 -2.9773216,-1.912269 -0.469968,-0.09923 -1.303089,-0.332337 -1.851383,-0.518016 -1.19529,-0.404784 -1.271013,-0.410808 -1.135951,-0.09036 z"
         style="opacity:1;fill:#7f7f7f;fill-opacity:1;stroke:none;stroke-width:0.71207047;stroke-linecap:round;stroke-linejoin:miter;stroke-miterlimit:4;stroke-dasharray:none;stroke-opacity:1" /><path
         inkscape:connector-curvature="0"
         id="path6768-5"
         d="m -16.610844,20.937154 c -0.711987,1.532403 -1.361723,3.795834 -1.698134,5.915646 -0.387769,2.443434 -0.346627,8.611993 0.0785,11.769722 0.480803,3.571254 1.941512,10.4784 2.29773,10.86511 0.114617,0.124428 0.950666,-3.135843 1.489749,-5.80941 0.957581,-4.749095 1.284162,-8.218201 1.185051,-12.588156 -0.08197,-3.61446 -0.353839,-5.555771 -1.111258,-7.935226 -0.510701,-1.604385 -1.332471,-3.473391 -1.527191,-3.473391 -0.07208,0 -0.393565,0.565066 -0.714447,1.255705 z"
         style="opacity:1;fill:#7f7f7f;fill-opacity:1;stroke:none;stroke-width:0.71207047;stroke-linecap:round;stroke-linejoin:miter;stroke-miterlimit:4;stroke-dasharray:none;stroke-opacity:1" /><path
         inkscape:connector-curvature="0"
         id="path6770-6"
         d="m -19.415461,21.19435 c -0.31331,0.116106 -1.167042,0.363831 -1.897177,0.550491 -1.433577,0.3665 -1.600593,0.468878 -3.416687,2.094405 -2.8228,2.526597 -6.122891,6.730386 -8.845194,11.267364 -0.414154,0.690231 -0.716467,1.291501 -0.671807,1.336163 0.193778,0.193779 5.57743,-3.365399 7.98763,-5.280692 2.564211,-2.037681 6.629613,-6.257032 6.629613,-6.880662 0,-0.151582 0.732053,-2.548648 0.958815,-3.139587 0.0851,-0.22173 -0.02634,-0.213877 -0.745193,0.05251 z"
         style="opacity:1;fill:#7f7f7f;fill-opacity:1;stroke:none;stroke-width:0.71207047;stroke-linecap:round;stroke-linejoin:miter;stroke-miterlimit:4;stroke-dasharray:none;stroke-opacity:1" /><path
         inkscape:connector-curvature="0"
         id="path6772-7"
         d="m -24.484343,17.897878 c -1.860335,0.261551 -4.091337,0.813542 -6.421993,1.588919 -2.754522,0.91639 -2.811859,0.989574 -0.893331,1.14021 5.157598,0.404964 9.844439,-0.151833 12.851906,-1.526811 l 0.956442,-0.437274 -0.925692,-0.444321 c -0.850128,-0.408053 -1.059384,-0.447117 -2.563455,-0.478557 -0.900766,-0.01877 -2.252512,0.0522 -3.003877,0.157834 z"
         style="opacity:1;fill:#7f7f7f;fill-opacity:1;stroke:none;stroke-width:0.71207047;stroke-linecap:round;stroke-linejoin:miter;stroke-miterlimit:4;stroke-dasharray:none;stroke-opacity:1" /><path
         inkscape:connector-curvature="0"
         id="path6774-0"
         d="m -22.688013,13.282742 c 0.703314,0.710409 1.695316,1.607074 2.204447,1.992588 0.979838,0.741935 2.947689,1.790728 3.091019,1.6474 0.153944,-0.153944 -2.429146,-2.583447 -3.447056,-3.242095 -1.183709,-0.765933 -2.824473,-1.689548 -3.00141,-1.689548 -0.06917,0 0.449682,0.581246 1.153,1.291655 z"
         style="opacity:1;fill:#7f7f7f;fill-opacity:1;stroke:none;stroke-width:0.71207047;stroke-linecap:round;stroke-linejoin:miter;stroke-miterlimit:4;stroke-dasharray:none;stroke-opacity:1" /><path
         inkscape:connector-curvature="0"
         id="path6776-7"
         d="m -9.3752684,12.718281 c -1.5818976,0.860144 -3.2056876,2.074523 -4.1491076,3.102979 -0.459462,0.500877 -0.835383,0.966365 -0.835383,1.034415 0,0.298514 1.876158,-0.703956 3.173882,-1.695872 1.5515846,-1.185957 3.3787826,-3.030894 2.9952226,-3.024297 -0.06408,0.0011 -0.597154,0.263349 -1.184614,0.582775 z"
         style="opacity:1;fill:#7f7f7f;fill-opacity:1;stroke:none;stroke-width:0.71207047;stroke-linecap:round;stroke-linejoin:miter;stroke-miterlimit:4;stroke-dasharray:none;stroke-opacity:1" /><path
         inkscape:connector-curvature="0"
         id="path6778-9"
         d="m -12.721999,18.125985 c -0.548294,0.248478 -1.017023,0.469231 -1.041623,0.49056 -0.0246,0.02133 0.377919,0.238464 0.894483,0.48253 2.248448,1.062339 5.2410866,1.606847 8.9768136,1.633322 2.675841,0.01897 5.577614,-0.163214 5.389966,-0.338384 -0.180343,-0.168361 -2.763262,-1.065694 -4.464277,-1.550949 -2.427075,-0.692377 -4.449697,-1.024708 -6.693461,-1.099776 l -2.0650006,-0.06907 z"
         style="opacity:1;fill:#7f7f7f;fill-opacity:1;stroke:none;stroke-width:0.71207047;stroke-linecap:round;stroke-linejoin:miter;stroke-miterlimit:4;stroke-dasharray:none;stroke-opacity:1" /></g></g></svg>