<?xml version="1.0" encoding="UTF-8" standalone="no"?>
<!-- Created with Inkscape (http://www.inkscape.org/) -->

<svg
   xmlns:dc="http://purl.org/dc/elements/1.1/"
   xmlns:cc="http://creativecommons.org/ns#"
   xmlns:rdf="http://www.w3.org/1999/02/22-rdf-syntax-ns#"
   xmlns:svg="http://www.w3.org/2000/svg"
   xmlns="http://www.w3.org/2000/svg"
   xmlns:sodipodi="http://sodipodi.sourceforge.net/DTD/sodipodi-0.dtd"
   xmlns:inkscape="http://www.inkscape.org/namespaces/inkscape"
   id="svg4147"
   version="1.1"
   inkscape:version="0.91 r13725"
   xml:space="preserve"
   width="373"
   height="50"
   viewBox="0 0 373 50"
   sodipodi:docname="The_Economicon_name_and_logo_alt.svg"
   inkscape:export-filename="C:\Users\Lea-\Documents\Cannabis Analytics\The Economicon - Website\Images\The_Economicon_name_and_logo_alt.png"
   inkscape:export-xdpi="90"
   inkscape:export-ydpi="90"><metadata
     id="metadata4153"><rdf:RDF><cc:Work
         rdf:about=""><dc:format>image/svg+xml</dc:format><dc:type
           rdf:resource="http://purl.org/dc/dcmitype/StillImage" /><dc:title></dc:title></cc:Work></rdf:RDF></metadata><defs
     id="defs4151"><filter
       inkscape:label="Rough Canvas Painting"
       inkscape:menu="Bumps"
       inkscape:menu-tooltip="Painting canvas emboss effect"
       style="color-interpolation-filters:sRGB"
       id="filter11469"><feTurbulence
         numOctaves="5"
         baseFrequency="0.4"
         id="feTurbulence11471" /><feConvolveMatrix
         order="5 5"
         kernelMatrix="-4 0 0 0 -4 0 -2 0 -2 0 0 0 -10 0 0 0 -2 0 -2 0 -4 0 0 0 -4 "
         targetX="2"
         targetY="2"
         id="feConvolveMatrix11473" /><feConvolveMatrix
         order="3 3"
         kernelMatrix="2 0 2 0 -5 0 2 0 2 "
         targetX="1"
         targetY="1"
         id="feConvolveMatrix11475" /><feColorMatrix
         type="saturate"
         result="result1"
         id="feColorMatrix11477" /><feComposite
         in2="SourceGraphic"
         operator="arithmetic"
         k1="1.5"
         k2="0.5"
         k3="0.5"
         result="result2"
         id="feComposite11479"
         k4="0" /><feTurbulence
         baseFrequency="0.1"
         numOctaves="5"
         type="fractalNoise"
         result="result8"
         id="feTurbulence11481" /><feDisplacementMap
         scale="4"
         in2="result8"
         in="result2"
         id="feDisplacementMap11483"
         xChannelSelector="A"
         yChannelSelector="A" /><feBlend
         in2="result1"
         mode="normal"
         result="result4"
         id="feBlend11485" /><feColorMatrix
         type="luminanceToAlpha"
         id="feColorMatrix11487" /><feDiffuseLighting
         surfaceScale="7"
         diffuseConstant="1"
         result="result3"
         id="feDiffuseLighting11489"><feDistantLight
           azimuth="180"
           elevation="37"
           id="feDistantLight11491" /></feDiffuseLighting><feComposite
         in2="result4"
         operator="arithmetic"
         k1="1.5"
         k3="0.5"
         result="result5"
         id="feComposite11493"
         k2="0"
         k4="0" /><feBlend
         in2="result3"
         mode="normal"
         result="result6"
         id="feBlend11495" /><feComposite
         in2="SourceGraphic"
         operator="in"
         result="result7"
         id="feComposite11497" /></filter><filter
       inkscape:label="Rough Canvas Painting"
       inkscape:menu="Bumps"
       inkscape:menu-tooltip="Painting canvas emboss effect"
       style="color-interpolation-filters:sRGB"
       id="filter11499"><feTurbulence
         numOctaves="5"
         baseFrequency="0.4"
         id="feTurbulence11501" /><feConvolveMatrix
         order="5 5"
         kernelMatrix="-4 0 0 0 -4 0 -2 0 -2 0 0 0 -10 0 0 0 -2 0 -2 0 -4 0 0 0 -4 "
         targetX="2"
         targetY="2"
         id="feConvolveMatrix11503" /><feConvolveMatrix
         order="3 3"
         kernelMatrix="2 0 2 0 -5 0 2 0 2 "
         targetX="1"
         targetY="1"
         id="feConvolveMatrix11505" /><feColorMatrix
         type="saturate"
         result="result1"
         id="feColorMatrix11507" /><feComposite
         in2="SourceGraphic"
         operator="arithmetic"
         k1="1.5"
         k2="0.5"
         k3="0.5"
         result="result2"
         id="feComposite11509"
         k4="0" /><feTurbulence
         baseFrequency="0.1"
         numOctaves="5"
         type="fractalNoise"
         result="result8"
         id="feTurbulence11511" /><feDisplacementMap
         scale="4"
         in2="result8"
         in="result2"
         id="feDisplacementMap11513"
         xChannelSelector="A"
         yChannelSelector="A" /><feBlend
         in2="result1"
         mode="normal"
         result="result4"
         id="feBlend11515" /><feColorMatrix
         type="luminanceToAlpha"
         id="feColorMatrix11517" /><feDiffuseLighting
         surfaceScale="7"
         diffuseConstant="1"
         result="result3"
         id="feDiffuseLighting11519"><feDistantLight
           azimuth="180"
           elevation="37"
           id="feDistantLight11521" /></feDiffuseLighting><feComposite
         in2="result4"
         operator="arithmetic"
         k1="1.5"
         k3="0.5"
         result="result5"
         id="feComposite11523"
         k2="0"
         k4="0" /><feBlend
         in2="result3"
         mode="normal"
         result="result6"
         id="feBlend11525" /><feComposite
         in2="SourceGraphic"
         operator="in"
         result="result7"
         id="feComposite11527" /></filter></defs><sodipodi:namedview
     pagecolor="#ffffff"
     bordercolor="#666666"
     borderopacity="1"
     objecttolerance="10"
     gridtolerance="10"
     guidetolerance="10"
     inkscape:pageopacity="0"
     inkscape:pageshadow="2"
     inkscape:window-width="1366"
     inkscape:window-height="745"
     id="namedview4149"
     showgrid="false"
     inkscape:zoom="1.8018128"
     inkscape:cx="179.12383"
     inkscape:cy="73.434629"
     inkscape:window-x="-8"
     inkscape:window-y="-8"
     inkscape:window-maximized="1"
     inkscape:current-layer="g4155"
     fit-margin-top="0"
     fit-margin-left="0"
     fit-margin-right="0"
     fit-margin-bottom="0" /><g
     id="g4155"
     inkscape:groupmode="layer"
     inkscape:label="ink_ext_XXXXXX"
     transform="matrix(1.25,0,0,-1.25,-0.51930108,62.540057)"><g
       id="g4157"
       transform="matrix(0.1,0,0,0.1,-26.407199,38.358768)"
       style="fill:#2d004f;fill-opacity:1;stroke:none;stroke-width:8;stroke-miterlimit:4;stroke-dasharray:none;stroke-opacity:1"><g
         id="g4161"
         transform="matrix(10,0,0,10,-102.19986,-410.2374)"
         style="opacity:1;fill:#2d004f;fill-opacity:1;stroke:none;stroke-width:0.80000001;stroke-miterlimit:4;stroke-dasharray:none;stroke-opacity:1"><text
           transform="scale(1,-1)"
           style="font-variant:normal;font-weight:bold;font-size:17.50799942px;font-family:Verdana;-inkscape-font-specification:Verdana-Bold;writing-mode:lr-tb;fill:#2d004f;fill-opacity:1;fill-rule:nonzero;stroke:none;stroke-width:0.80000001;stroke-miterlimit:4;stroke-dasharray:none;stroke-opacity:1"
           id="text4163"
           x="68.722626"
           y="-20.257017"><tspan
             sodipodi:role="line"
             id="tspan10962"
             x="68.722626"
             y="-20.257017"
             style="font-style:normal;font-variant:normal;font-weight:100;font-stretch:normal;font-family:EnglishTowne;-inkscape-font-specification:'EnglishTowne Thin';stroke-width:0.80000001;stroke-miterlimit:4;stroke-dasharray:none"><tspan
               style="font-style:normal;font-variant:normal;font-weight:100;font-stretch:normal;font-size:40px;font-family:EnglishTowne;-inkscape-font-specification:'EnglishTowne Thin';fill:#2d004f;fill-opacity:1;stroke:#b2e522;stroke-width:0.80000001;stroke-linejoin:round;stroke-miterlimit:4;stroke-dasharray:none;stroke-opacity:1"
               id="tspan10968">The Economicon</tspan><tspan
               style="font-style:normal;font-variant:normal;font-weight:normal;font-stretch:normal;font-size:8px;font-family:Arial;-inkscape-font-specification:Arial;baseline-shift:super;fill:#2d004f;fill-opacity:1;stroke-width:0.80000001;stroke-miterlimit:4;stroke-dasharray:none"
               id="tspan10966"
               dy="-9">©</tspan></tspan></text>
</g></g><g
       transform="matrix(0.27474867,0,0,-0.27474867,-5.6246339,49.024102)"
       id="Livello_45"
       style="fill:#2d004f;fill-opacity:1;stroke:#b2e522;stroke-opacity:1"><path
         inkscape:connector-curvature="0"
         d="m 119.247,130.347 0,-126.625 c 0,-2.057 -1.666,-3.723 -3.723,-3.723 l -81.875,0 C 33.617,0 33.585,0.009 33.548,0.01 33.414,0.015 33.281,0.028 33.152,0.046 32.375,0.15 31.618,0.488 31.017,1.089 l -7.443,7.442 c -0.727,0.729 -1.09,1.681 -1.09,2.632 l 0,126.534 c 0,2.056 1.666,3.722 3.722,3.722 l 81.875,0 c 2.057,10e-4 3.723,-1.666 3.723,-3.722 l 0,-126.533 c 0,-2.055 -1.666,-3.721 -3.723,-3.721 l 0.002,-10e-4 -78.155,0 3.724,-3.722 3.778,10e-4 74.374,0 0.264,0 c 1.969,0 3.572,1.525 3.709,3.458 l 0.016,0 0,126.875 c 1.928,-0.135 3.454,-1.742 3.454,-3.707"
         id="path6304"
         style="fill:#2d004f;fill-opacity:1;stroke:#b2e522;stroke-opacity:1" /></g><g
       transform="matrix(0.27474867,0,0,-0.27474867,51.094022,51.732534)"
       id="g7428"
       style="fill:#b2e522;fill-opacity:1;stroke:none;stroke-width:0;stroke-linejoin:round;stroke-miterlimit:4;stroke-dasharray:none;stroke-opacity:1"><path
         inkscape:connector-curvature="0"
         d="m -95.616136,97.021208 -4.942444,-0.823225 c -5.85661,-0.975846 -11.3232,-1.470707 -16.24868,-1.470707 -1.76053,0 -3.36844,0.07863 -4.90082,0.192702 7.75744,-6.948085 15.22198,-17.133576 22.239429,-30.386892 l 2.34481,-4.429078 -4.427529,2.344806 c -13.30419,7.043666 -23.50665,14.53132 -30.44702,22.313423 1.15005,-10.473773 0.21737,-25.868402 -6.51952,-47.760963 l -1.47533,-4.786733 -1.47379,4.788276 c -6.73689,21.892561 -7.67111,37.287188 -6.51951,47.760962 -6.94039,-7.782103 -17.14283,-15.269756 -30.44702,-22.313424 l -4.42753,-2.344805 2.3448,4.429077 c 7.01745,13.253316 14.48198,23.438807 22.23943,30.386894 -1.53237,-0.114078 -3.14029,-0.192703 -4.90082,-0.192703 -4.92547,0 -10.39207,0.49486 -16.24868,1.470706 l -4.94244,0.823226 4.54932,2.096605 c 10.62793,4.897735 19.98404,7.475325 27.87559,7.731235 -2.87358,2.39876 -6.1341,5.82578 -9.67213,10.78055 l -2.91366,4.07758 4.7004,-1.73431 c 10.15312,-3.74615 15.4933,-7.94398 18.29596,-11.20913 l 0,17.46502 3.08325,0 0,-17.46656 c 2.80266,3.26361 8.14284,7.46299 18.29596,11.20912 l 4.70039,1.73433 -2.91366,-4.07759 c -3.53956,-4.95477 -6.79855,-8.38334 -9.67213,-10.78056 7.89156,-0.25591 17.24766,-2.8335 27.87559,-7.731228 l 4.547784,-2.096604 z m -9.112514,-29.310842 c -7.21017,12.664417 -14.81961,22.037474 -22.66492,27.909508 -0.2035,0.037 -0.38078,0.08324 -0.57811,0.123331 -0.34995,0.06937 -0.68601,0.141828 -1.01901,0.217367 -0.46557,0.103285 -0.91727,0.211203 -1.35046,0.323742 -0.23741,0.0632 -0.46865,0.126412 -0.69682,0.19116 -0.49948,0.140288 -0.98046,0.2852 -1.43679,0.434737 -0.12487,0.04163 -0.24666,0.08171 -0.3669,0.123331 -0.5334,0.18191 -1.03905,0.366905 -1.51079,0.558066 -0.0293,0.01083 -0.0555,0.02159 -0.0833,0.03237 -0.26054,0.106367 -0.53958,0.209661 -0.78161,0.317575 0.79239,-1.863821 1.57862,-4.190126 2.2184,-7.059084 5.83195,-8.021055 15.3268,-15.801616 28.27025,-23.172107 z m -35.26459,-24.7831 c 10.21015,36.559544 2.95992,52.791272 0,57.465464 -2.95991,-4.674192 -10.21016,-20.90592 0,-57.465464 z m -12.59967,52.692608 c -7.84531,-5.872034 -15.45475,-15.245091 -22.66491,-27.909508 12.94344,7.370491 22.4383,15.152594 28.27025,23.172107 0.63977,2.868957 1.42753,5.195263 2.21839,7.059084 -0.24974,-0.110996 -0.53649,-0.21737 -0.80472,-0.326824 -0.0139,-0.0046 -0.0262,-0.01083 -0.0386,-0.01542 -0.48561,-0.195785 -1.00359,-0.385405 -1.55242,-0.573483 -0.10793,-0.037 -0.2189,-0.074 -0.33145,-0.110996 -0.4671,-0.154162 -0.95579,-0.300615 -1.46761,-0.445528 -0.22046,-0.06167 -0.44091,-0.123329 -0.67061,-0.183453 -0.4409,-0.114078 -0.90031,-0.223535 -1.37513,-0.329907 -0.32528,-0.07245 -0.65519,-0.143371 -0.99589,-0.212743 -0.2004,-0.03855 -0.38078,-0.08633 -0.58736,-0.123331 z m 5.20143,8.027226 c -1.03288,0.11254 -2.12897,0.16957 -3.26208,0.16957 -6.49792,0 -14.19062,-1.79598 -22.91927,-5.344797 3.68448,-0.439361 7.16237,-0.661355 10.39361,-0.661355 3.982,0 7.30419,0.336074 10.05753,0.852517 0.01,0.0015 0.017,0.0031 0.0262,0.0046 4.58171,0.860225 7.58479,2.213775 9.42548,3.329905 -0.0833,0.0262 -0.1742,0.0617 -0.25899,0.0894 -0.1171,0.0385 -0.23587,0.0802 -0.35766,0.12333 -0.21582,0.0771 -0.43936,0.16495 -0.66907,0.25745 -0.1264,0.0524 -0.24974,0.0987 -0.38077,0.1557 -0.33607,0.14491 -0.68294,0.30678 -1.04676,0.48715 -0.14646,0.0725 -0.29908,0.16033 -0.44861,0.23895 -0.18654,0.0987 -0.36691,0.18808 -0.55962,0.29754 z m -8.21376,11.24304 c 3.5889,-4.25488 6.70143,-6.76772 9.17881,-8.25384 l 0.0262,-0.003 0.2744,-0.15879 c 1.47687,-0.85714 2.70401,-1.33504 3.66289,-1.61099 -1.41212,2.30009 -4.86226,6.18035 -13.14232,10.0267 z m 31.22245,0 c -8.27233,-3.84635 -11.72249,-7.73123 -13.13614,-10.03133 0.95118,0.27441 2.16906,0.75231 3.65826,1.61716 l 0.27441,0.15879 0.0262,0.003 c 2.47738,1.48613 5.58992,3.99743 9.17727,8.2523 z m -4.95014,-11.07347 c -1.13309,0 -2.22918,-0.057 -3.26207,-0.16957 -0.1927,-0.10792 -0.37461,-0.19887 -0.55961,-0.29754 -0.15107,-0.0786 -0.30216,-0.16495 -0.44861,-0.23741 -0.36074,-0.18191 -0.70915,-0.34224 -1.04521,-0.48561 -0.13259,-0.0586 -0.25746,-0.10483 -0.38696,-0.15878 -0.22507,-0.091 -0.44706,-0.17883 -0.66136,-0.25591 -0.12332,-0.0447 -0.24203,-0.0863 -0.36227,-0.12487 -0.0833,-0.0278 -0.17113,-0.0632 -0.25283,-0.0879 2.95375,-1.78982 8.89516,-4.188583 19.50459,-4.188583 3.23123,0 6.71068,0.221994 10.39361,0.661355 -8.72866,3.548818 -16.42135,5.344798 -22.91928,5.344798 z"
         id="path7430"
         style="fill:#b2e522;fill-opacity:1;stroke:none;stroke-width:0;stroke-linejoin:round;stroke-miterlimit:4;stroke-dasharray:none;stroke-opacity:1" /></g></g></svg>